G04 #@! TF.GenerationSoftware,KiCad,Pcbnew,8.0.0*
G04 #@! TF.CreationDate,2024-08-30T12:49:36-05:00*
G04 #@! TF.ProjectId,led_segment,6c65645f-7365-4676-9d65-6e742e6b6963,rev?*
G04 #@! TF.SameCoordinates,Original*
G04 #@! TF.FileFunction,Copper,L2,Bot*
G04 #@! TF.FilePolarity,Positive*
%FSLAX46Y46*%
G04 Gerber Fmt 4.6, Leading zero omitted, Abs format (unit mm)*
G04 Created by KiCad (PCBNEW 8.0.0) date 2024-08-30 12:49:36*
%MOMM*%
%LPD*%
G01*
G04 APERTURE LIST*
G04 Aperture macros list*
%AMRoundRect*
0 Rectangle with rounded corners*
0 $1 Rounding radius*
0 $2 $3 $4 $5 $6 $7 $8 $9 X,Y pos of 4 corners*
0 Add a 4 corners polygon primitive as box body*
4,1,4,$2,$3,$4,$5,$6,$7,$8,$9,$2,$3,0*
0 Add four circle primitives for the rounded corners*
1,1,$1+$1,$2,$3*
1,1,$1+$1,$4,$5*
1,1,$1+$1,$6,$7*
1,1,$1+$1,$8,$9*
0 Add four rect primitives between the rounded corners*
20,1,$1+$1,$2,$3,$4,$5,0*
20,1,$1+$1,$4,$5,$6,$7,0*
20,1,$1+$1,$6,$7,$8,$9,0*
20,1,$1+$1,$8,$9,$2,$3,0*%
G04 Aperture macros list end*
G04 #@! TA.AperFunction,ComponentPad*
%ADD10R,1.800000X1.800000*%
G04 #@! TD*
G04 #@! TA.AperFunction,ComponentPad*
%ADD11C,1.800000*%
G04 #@! TD*
G04 #@! TA.AperFunction,ComponentPad*
%ADD12C,2.600000*%
G04 #@! TD*
G04 #@! TA.AperFunction,ComponentPad*
%ADD13C,2.900000*%
G04 #@! TD*
G04 #@! TA.AperFunction,ComponentPad*
%ADD14O,3.860800X1.930400*%
G04 #@! TD*
G04 #@! TA.AperFunction,ComponentPad*
%ADD15R,1.500000X1.500000*%
G04 #@! TD*
G04 #@! TA.AperFunction,ComponentPad*
%ADD16C,1.500000*%
G04 #@! TD*
G04 #@! TA.AperFunction,ComponentPad*
%ADD17C,3.000000*%
G04 #@! TD*
G04 #@! TA.AperFunction,ComponentPad*
%ADD18RoundRect,0.250000X-0.620000X-0.845000X0.620000X-0.845000X0.620000X0.845000X-0.620000X0.845000X0*%
G04 #@! TD*
G04 #@! TA.AperFunction,ComponentPad*
%ADD19O,1.740000X2.190000*%
G04 #@! TD*
G04 #@! TA.AperFunction,ViaPad*
%ADD20C,0.800000*%
G04 #@! TD*
G04 #@! TA.AperFunction,Conductor*
%ADD21C,0.200000*%
G04 #@! TD*
G04 #@! TA.AperFunction,Conductor*
%ADD22C,0.250000*%
G04 #@! TD*
G04 #@! TA.AperFunction,Conductor*
%ADD23C,1.000000*%
G04 #@! TD*
G04 #@! TA.AperFunction,Conductor*
%ADD24C,7.000000*%
G04 #@! TD*
G04 APERTURE END LIST*
D10*
X193525000Y-122600000D03*
D11*
X196065000Y-122600000D03*
D12*
X176024000Y-138881000D03*
D13*
X176024000Y-128581000D03*
D12*
X168524000Y-138881000D03*
D13*
X168524000Y-128581000D03*
D14*
X156090000Y-149276000D03*
X147890000Y-149276000D03*
X156090000Y-144276000D03*
X147890000Y-144276000D03*
D15*
X214550000Y-134260000D03*
D16*
X212010000Y-132990000D03*
X214550000Y-131720000D03*
X212010000Y-130450000D03*
X214550000Y-129180000D03*
X212010000Y-127910000D03*
X214550000Y-126640000D03*
X212010000Y-125370000D03*
D17*
X223950000Y-137585000D03*
X223950000Y-122045000D03*
D14*
X216882000Y-144349984D03*
X225082000Y-144349984D03*
X216882000Y-149349984D03*
X225082000Y-149349984D03*
D15*
X158350000Y-125270000D03*
D16*
X160890000Y-126540000D03*
X158350000Y-127810000D03*
X160890000Y-129080000D03*
X158350000Y-130350000D03*
X160890000Y-131620000D03*
X158350000Y-132890000D03*
X160890000Y-134160000D03*
D17*
X148950000Y-121945000D03*
X148950000Y-137485000D03*
D18*
X183134000Y-131776500D03*
D19*
X185674000Y-131776500D03*
X188214000Y-131776500D03*
X190754000Y-131776500D03*
D20*
X210600000Y-139300000D03*
X209700000Y-138500000D03*
X208900000Y-139300000D03*
X208100000Y-138500000D03*
X207300000Y-139300000D03*
X206600000Y-138500000D03*
X201738000Y-130240000D03*
X205900000Y-139300000D03*
X197700000Y-143200000D03*
X192900000Y-139900000D03*
X205100000Y-138500000D03*
X187960000Y-144272000D03*
X193294000Y-144272000D03*
X182626000Y-144272000D03*
X177038000Y-144145000D03*
X190627000Y-144272000D03*
X195961000Y-144272000D03*
X185293000Y-144272000D03*
X179832000Y-144145000D03*
D21*
X212780000Y-124600000D02*
X212010000Y-125370000D01*
X218350000Y-124600000D02*
X212780000Y-124600000D01*
X218700000Y-124250000D02*
X218350000Y-124600000D01*
X218150000Y-123700000D02*
X218700000Y-124250000D01*
X210800000Y-124800000D02*
X211900000Y-123700000D01*
X210300000Y-126100000D02*
X210800000Y-125600000D01*
X211900000Y-123700000D02*
X218150000Y-123700000D01*
X210800000Y-125600000D02*
X210800000Y-124800000D01*
X207200000Y-126100000D02*
X210300000Y-126100000D01*
X202900000Y-130400000D02*
X207200000Y-126100000D01*
X202900000Y-136300000D02*
X202900000Y-130400000D01*
X205100000Y-138500000D02*
X202900000Y-136300000D01*
X216040000Y-126640000D02*
X214550000Y-126640000D01*
X218600000Y-126800000D02*
X218600000Y-127200000D01*
X217300000Y-127900000D02*
X216040000Y-126640000D01*
X217300000Y-125500000D02*
X218600000Y-126800000D01*
X203900000Y-130300000D02*
X207560000Y-126640000D01*
X217900000Y-127900000D02*
X217300000Y-127900000D01*
X212560000Y-126640000D02*
X213700000Y-125500000D01*
X213700000Y-125500000D02*
X217300000Y-125500000D01*
X203900000Y-136310050D02*
X203900000Y-130300000D01*
X207560000Y-126640000D02*
X212560000Y-126640000D01*
X205800000Y-138210050D02*
X203900000Y-136310050D01*
X205800000Y-138789950D02*
X205800000Y-138210050D01*
X205900000Y-139300000D02*
X205594975Y-138994975D01*
X218600000Y-127200000D02*
X217900000Y-127900000D01*
X205594975Y-138994975D02*
X205800000Y-138789950D01*
X207627366Y-129006016D02*
G75*
G02*
X207627344Y-129345406I-169666J-169684D01*
G01*
X209383998Y-128520000D02*
G75*
G02*
X209143998Y-128759998I-239998J0D01*
G01*
X205293908Y-130066679D02*
G75*
G02*
X205293925Y-130406105I-169708J-169721D01*
G01*
X204900000Y-131450000D02*
G75*
G03*
X205140000Y-131690000I240000J0D01*
G01*
X206022230Y-128758529D02*
G75*
G03*
X206022265Y-129097906I169670J-169671D01*
G01*
X206693982Y-130278810D02*
G75*
G02*
X206354572Y-130278810I-169705J169700D01*
G01*
X205597966Y-129522206D02*
G75*
G03*
X205258554Y-129522206I-169706J-169704D01*
G01*
X209623998Y-127060000D02*
G75*
G03*
X209384000Y-127300000I2J-240000D01*
G01*
X206778835Y-129854547D02*
G75*
G02*
X206778881Y-130194006I-169735J-169753D01*
G01*
X205173701Y-129607058D02*
G75*
G03*
X205173665Y-129946506I169699J-169742D01*
G01*
X207330381Y-128369619D02*
G75*
G03*
X207330406Y-128709006I169719J-169681D01*
G01*
X205800000Y-132050000D02*
G75*
G02*
X205560000Y-132290000I-240000J0D01*
G01*
X207542512Y-129430281D02*
G75*
G02*
X207203102Y-129430281I-169705J169707D01*
G01*
X206446495Y-128673677D02*
G75*
G03*
X206107083Y-128673677I-169706J-169704D01*
G01*
X205560000Y-131690000D02*
G75*
G02*
X205800000Y-131930000I0J-240000D01*
G01*
X205140000Y-132290000D02*
G75*
G03*
X204900000Y-132530000I0J-240000D01*
G01*
X209023998Y-128760000D02*
G75*
G02*
X208784000Y-128520000I2J240000D01*
G01*
X210583998Y-128520000D02*
G75*
G02*
X210343998Y-128759998I-239998J0D01*
G01*
X210823998Y-127910000D02*
G75*
G03*
X210584000Y-128150000I2J-240000D01*
G01*
X210223998Y-128760000D02*
G75*
G02*
X209984000Y-128520000I2J240000D01*
G01*
X208783998Y-128150000D02*
G75*
G03*
X208543998Y-127910002I-239998J0D01*
G01*
X209983998Y-127300000D02*
G75*
G03*
X209743998Y-127060002I-239998J0D01*
G01*
X207203101Y-129430282D02*
X206906117Y-129133298D01*
X209383998Y-127300000D02*
X209383998Y-127910000D01*
X206107083Y-128673677D02*
X206022230Y-128758529D01*
X209383998Y-127910000D02*
X209383998Y-128520000D01*
X208423998Y-127910000D02*
X207790000Y-127910000D01*
X206312143Y-129387854D02*
X206778835Y-129854547D01*
X207627366Y-129345428D02*
X207542513Y-129430282D01*
X208543998Y-127910000D02*
X208423998Y-127910000D01*
X208783998Y-128520000D02*
X208783998Y-128150000D01*
X207330381Y-128709031D02*
X207627366Y-129006016D01*
X205258554Y-129522206D02*
X205173701Y-129607058D01*
X212010000Y-127910000D02*
X210823998Y-127910000D01*
X209143998Y-128760000D02*
X209023998Y-128760000D01*
X206906117Y-129133298D02*
X206446495Y-128673677D01*
X209983998Y-128520000D02*
X209983998Y-128150000D01*
X205560000Y-132290000D02*
X205140000Y-132290000D01*
X209983998Y-128150000D02*
X209983998Y-127300000D01*
X204900000Y-136744364D02*
X206200000Y-138044364D01*
X205887881Y-129812121D02*
X205597966Y-129522206D01*
X207790000Y-127910000D02*
X207330381Y-128369619D01*
X205140000Y-131690000D02*
X205560000Y-131690000D01*
X210343998Y-128760000D02*
X210223998Y-128760000D01*
X209743998Y-127060000D02*
X209623998Y-127060000D01*
X210583998Y-128150000D02*
X210583998Y-128520000D01*
X205800000Y-131930000D02*
X205800000Y-132050000D01*
X204900000Y-132650000D02*
X204900000Y-133096270D01*
X206200000Y-138100000D02*
X206600000Y-138500000D01*
X206200000Y-138044364D02*
X206200000Y-138100000D01*
X204900000Y-130800000D02*
X204900000Y-131450000D01*
X205209057Y-130490942D02*
X204900000Y-130800000D01*
X204900000Y-132530000D02*
X204900000Y-132650000D01*
X205293909Y-130406089D02*
X205209057Y-130490942D01*
X205173701Y-129946470D02*
X205293909Y-130066678D01*
X206354571Y-130278811D02*
X205887881Y-129812121D01*
X206778834Y-130193959D02*
X206693983Y-130278811D01*
X206022230Y-129097941D02*
X206312143Y-129387854D01*
X204900000Y-133096270D02*
X204900000Y-136744364D01*
X212010000Y-127910000D02*
X211600000Y-127500000D01*
X197700000Y-143200000D02*
X196200000Y-143200000D01*
X196200000Y-143200000D02*
X192900000Y-139900000D01*
X213040000Y-134260000D02*
X214550000Y-134260000D01*
X210600000Y-139300000D02*
X210700000Y-139200000D01*
X210700000Y-136600000D02*
X213040000Y-134260000D01*
X210700000Y-139200000D02*
X210700000Y-136600000D01*
X212010000Y-132990000D02*
X209700000Y-135300000D01*
X209700000Y-135300000D02*
X209700000Y-138500000D01*
X214550000Y-131720000D02*
X210580000Y-131720000D01*
X208900000Y-133400000D02*
X208900000Y-139300000D01*
X210580000Y-131720000D02*
X208900000Y-133400000D01*
X208750000Y-130450000D02*
X208100000Y-131100000D01*
X208100000Y-131100000D02*
X208100000Y-138500000D01*
X212010000Y-130450000D02*
X208750000Y-130450000D01*
X208720000Y-129180000D02*
X214550000Y-129180000D01*
X207300000Y-130600000D02*
X208720000Y-129180000D01*
X207300000Y-139300000D02*
X207300000Y-130600000D01*
D22*
X201738000Y-130240000D02*
X197104000Y-134874000D01*
X189738000Y-134874000D02*
X188214000Y-133350000D01*
X197104000Y-134874000D02*
X189738000Y-134874000D01*
X188214000Y-133350000D02*
X188214000Y-131776500D01*
D23*
X190754000Y-130556000D02*
X190754000Y-131776500D01*
X188779000Y-128581000D02*
X190754000Y-130556000D01*
X176024000Y-128581000D02*
X188779000Y-128581000D01*
X176024000Y-128581000D02*
X176024000Y-138881000D01*
D24*
X202696957Y-144067000D02*
X207129043Y-144067000D01*
X207129043Y-144067000D02*
X212412027Y-149349984D01*
X212412027Y-149349984D02*
X216882000Y-149349984D01*
X216882000Y-149349984D02*
X225082000Y-149349984D01*
X170426043Y-144067000D02*
X175709027Y-149349984D01*
D23*
X168524000Y-141536957D02*
X165993957Y-144067000D01*
D24*
X160784957Y-149276000D02*
X165993957Y-144067000D01*
X165993957Y-144067000D02*
X170426043Y-144067000D01*
X147890000Y-149276000D02*
X156090000Y-149276000D01*
D23*
X168524000Y-138881000D02*
X168524000Y-141536957D01*
D24*
X175709027Y-149349984D02*
X197413973Y-149349984D01*
X156090000Y-149276000D02*
X160784957Y-149276000D01*
D23*
X168524000Y-128581000D02*
X168524000Y-138881000D01*
D24*
X197413973Y-149349984D02*
X202696957Y-144067000D01*
D22*
X183351000Y-143547000D02*
X182626000Y-144272000D01*
X193294000Y-144272000D02*
X192569000Y-143547000D01*
X192569000Y-143547000D02*
X188685000Y-143547000D01*
X177763000Y-143420000D02*
X177038000Y-144145000D01*
X181774000Y-143420000D02*
X177763000Y-143420000D01*
X182626000Y-144272000D02*
X181774000Y-143420000D01*
X188685000Y-143547000D02*
X187960000Y-144272000D01*
X187235000Y-143547000D02*
X183351000Y-143547000D01*
X187960000Y-144272000D02*
X187235000Y-143547000D01*
X180684000Y-144997000D02*
X184568000Y-144997000D01*
X185293000Y-144272000D02*
X186018000Y-144997000D01*
X189902000Y-144997000D02*
X190627000Y-144272000D01*
X191479000Y-144997000D02*
X195236000Y-144997000D01*
X190754000Y-144272000D02*
X191479000Y-144997000D01*
X179832000Y-144145000D02*
X180684000Y-144997000D01*
X195236000Y-144997000D02*
X195961000Y-144272000D01*
X184568000Y-144997000D02*
X185293000Y-144272000D01*
X186018000Y-144997000D02*
X189902000Y-144997000D01*
X190627000Y-144272000D02*
X190754000Y-144272000D01*
X195900000Y-144211000D02*
X195961000Y-144272000D01*
G04 #@! TA.AperFunction,Conductor*
G36*
X147797642Y-120099685D02*
G01*
X147843397Y-120152489D01*
X147853341Y-120221647D01*
X147824316Y-120285203D01*
X147804913Y-120303267D01*
X147636612Y-120429254D01*
X147636594Y-120429270D01*
X147434270Y-120631594D01*
X147434254Y-120631612D01*
X147262775Y-120860682D01*
X147262770Y-120860690D01*
X147125635Y-121111833D01*
X147025628Y-121379962D01*
X146964804Y-121659566D01*
X146944390Y-121944998D01*
X146944390Y-121945001D01*
X146964804Y-122230433D01*
X147025628Y-122510037D01*
X147025630Y-122510043D01*
X147025631Y-122510046D01*
X147097933Y-122703895D01*
X147125635Y-122778166D01*
X147262770Y-123029309D01*
X147262775Y-123029317D01*
X147434254Y-123258387D01*
X147434270Y-123258405D01*
X147636594Y-123460729D01*
X147636612Y-123460745D01*
X147865682Y-123632224D01*
X147865690Y-123632229D01*
X148116833Y-123769364D01*
X148116832Y-123769364D01*
X148116836Y-123769365D01*
X148116839Y-123769367D01*
X148384954Y-123869369D01*
X148384960Y-123869370D01*
X148384962Y-123869371D01*
X148664566Y-123930195D01*
X148664568Y-123930195D01*
X148664572Y-123930196D01*
X148918220Y-123948337D01*
X148949999Y-123950610D01*
X148950000Y-123950610D01*
X148950001Y-123950610D01*
X148978595Y-123948564D01*
X149235428Y-123930196D01*
X149364143Y-123902196D01*
X149515037Y-123869371D01*
X149515037Y-123869370D01*
X149515046Y-123869369D01*
X149783161Y-123769367D01*
X149951993Y-123677177D01*
X150020263Y-123662326D01*
X150085728Y-123686742D01*
X150127599Y-123742676D01*
X150134357Y-123802194D01*
X150124501Y-123877060D01*
X150124500Y-123877079D01*
X150124500Y-124122934D01*
X150144873Y-124277671D01*
X150156591Y-124366677D01*
X150210592Y-124568213D01*
X150220222Y-124604152D01*
X150220225Y-124604162D01*
X150314173Y-124830971D01*
X150314306Y-124831292D01*
X150437233Y-125044208D01*
X150437235Y-125044211D01*
X150437236Y-125044212D01*
X150586897Y-125239254D01*
X150586903Y-125239261D01*
X150760738Y-125413096D01*
X150760744Y-125413101D01*
X150955792Y-125562767D01*
X151168708Y-125685694D01*
X151395847Y-125779778D01*
X151633323Y-125843409D01*
X151877073Y-125875500D01*
X151877080Y-125875500D01*
X152122920Y-125875500D01*
X152122927Y-125875500D01*
X152366677Y-125843409D01*
X152604153Y-125779778D01*
X152831292Y-125685694D01*
X153044208Y-125562767D01*
X153239256Y-125413101D01*
X153413101Y-125239256D01*
X153562767Y-125044208D01*
X153685694Y-124831292D01*
X153779778Y-124604153D01*
X153843409Y-124366677D01*
X153875500Y-124122927D01*
X153875500Y-123877073D01*
X153843409Y-123633323D01*
X153820505Y-123547844D01*
X192125000Y-123547844D01*
X192131401Y-123607372D01*
X192131403Y-123607379D01*
X192181645Y-123742086D01*
X192181649Y-123742093D01*
X192267809Y-123857187D01*
X192267812Y-123857190D01*
X192382906Y-123943350D01*
X192382913Y-123943354D01*
X192517620Y-123993596D01*
X192517627Y-123993598D01*
X192577155Y-123999999D01*
X192577172Y-124000000D01*
X193275000Y-124000000D01*
X193275000Y-122975277D01*
X193351306Y-123019333D01*
X193465756Y-123050000D01*
X193584244Y-123050000D01*
X193698694Y-123019333D01*
X193775000Y-122975277D01*
X193775000Y-124000000D01*
X194472828Y-124000000D01*
X194472844Y-123999999D01*
X194532372Y-123993598D01*
X194532379Y-123993596D01*
X194667086Y-123943354D01*
X194667093Y-123943350D01*
X194782187Y-123857190D01*
X194782190Y-123857187D01*
X194868350Y-123742093D01*
X194868355Y-123742084D01*
X194897075Y-123665081D01*
X194938945Y-123609147D01*
X195004409Y-123584729D01*
X195072682Y-123599580D01*
X195104484Y-123624428D01*
X195113216Y-123633913D01*
X195113219Y-123633915D01*
X195113222Y-123633918D01*
X195296365Y-123776464D01*
X195296371Y-123776468D01*
X195296374Y-123776470D01*
X195500497Y-123886936D01*
X195614487Y-123926068D01*
X195720015Y-123962297D01*
X195720017Y-123962297D01*
X195720019Y-123962298D01*
X195948951Y-124000500D01*
X195948952Y-124000500D01*
X196181048Y-124000500D01*
X196181049Y-124000500D01*
X196409981Y-123962298D01*
X196629503Y-123886936D01*
X196833626Y-123776470D01*
X196889062Y-123733323D01*
X196976739Y-123665081D01*
X197016784Y-123633913D01*
X197173979Y-123463153D01*
X197201331Y-123421288D01*
X202249500Y-123421288D01*
X202281161Y-123661785D01*
X202343947Y-123896104D01*
X202436773Y-124120205D01*
X202436777Y-124120214D01*
X202458974Y-124158661D01*
X202558064Y-124330289D01*
X202558066Y-124330292D01*
X202558067Y-124330293D01*
X202705733Y-124522736D01*
X202705739Y-124522743D01*
X202877256Y-124694260D01*
X202877263Y-124694266D01*
X202912032Y-124720945D01*
X203069711Y-124841936D01*
X203279788Y-124963224D01*
X203503900Y-125056054D01*
X203738211Y-125118838D01*
X203918586Y-125142584D01*
X203978711Y-125150500D01*
X203978712Y-125150500D01*
X204221289Y-125150500D01*
X204269388Y-125144167D01*
X204461789Y-125118838D01*
X204696100Y-125056054D01*
X204920212Y-124963224D01*
X205130289Y-124841936D01*
X205322738Y-124694265D01*
X205494265Y-124522738D01*
X205641936Y-124330289D01*
X205763224Y-124120212D01*
X205856054Y-123896100D01*
X205918838Y-123661789D01*
X205950500Y-123421288D01*
X205950500Y-123178712D01*
X205918838Y-122938211D01*
X205856054Y-122703900D01*
X205763224Y-122479788D01*
X205641936Y-122269711D01*
X205494265Y-122077262D01*
X205494260Y-122077256D01*
X205322743Y-121905739D01*
X205322736Y-121905733D01*
X205130293Y-121758067D01*
X205130292Y-121758066D01*
X205130289Y-121758064D01*
X204920212Y-121636776D01*
X204920205Y-121636773D01*
X204696104Y-121543947D01*
X204461785Y-121481161D01*
X204221289Y-121449500D01*
X204221288Y-121449500D01*
X203978712Y-121449500D01*
X203978711Y-121449500D01*
X203738214Y-121481161D01*
X203503895Y-121543947D01*
X203279794Y-121636773D01*
X203279785Y-121636777D01*
X203069706Y-121758067D01*
X202877263Y-121905733D01*
X202877256Y-121905739D01*
X202705739Y-122077256D01*
X202705733Y-122077263D01*
X202558067Y-122269706D01*
X202436777Y-122479785D01*
X202436773Y-122479794D01*
X202343947Y-122703895D01*
X202281161Y-122938214D01*
X202249500Y-123178711D01*
X202249500Y-123421288D01*
X197201331Y-123421288D01*
X197300924Y-123268849D01*
X197394157Y-123056300D01*
X197451134Y-122831305D01*
X197456981Y-122760744D01*
X197470300Y-122600006D01*
X197470300Y-122599993D01*
X197451135Y-122368702D01*
X197451133Y-122368691D01*
X197394157Y-122143699D01*
X197300924Y-121931151D01*
X197173983Y-121736852D01*
X197173980Y-121736849D01*
X197173979Y-121736847D01*
X197016784Y-121566087D01*
X197016779Y-121566083D01*
X197016777Y-121566081D01*
X196833634Y-121423535D01*
X196833628Y-121423531D01*
X196629504Y-121313064D01*
X196629495Y-121313061D01*
X196409984Y-121237702D01*
X196222404Y-121206401D01*
X196181049Y-121199500D01*
X195948951Y-121199500D01*
X195907596Y-121206401D01*
X195720015Y-121237702D01*
X195500504Y-121313061D01*
X195500495Y-121313064D01*
X195296371Y-121423531D01*
X195296365Y-121423535D01*
X195113222Y-121566081D01*
X195113215Y-121566087D01*
X195104484Y-121575572D01*
X195044595Y-121611561D01*
X194974757Y-121609458D01*
X194917143Y-121569932D01*
X194897075Y-121534918D01*
X194868355Y-121457915D01*
X194868350Y-121457906D01*
X194782190Y-121342812D01*
X194782187Y-121342809D01*
X194667093Y-121256649D01*
X194667086Y-121256645D01*
X194532379Y-121206403D01*
X194532372Y-121206401D01*
X194472844Y-121200000D01*
X193775000Y-121200000D01*
X193775000Y-122224722D01*
X193698694Y-122180667D01*
X193584244Y-122150000D01*
X193465756Y-122150000D01*
X193351306Y-122180667D01*
X193275000Y-122224722D01*
X193275000Y-121200000D01*
X192577155Y-121200000D01*
X192517627Y-121206401D01*
X192517620Y-121206403D01*
X192382913Y-121256645D01*
X192382906Y-121256649D01*
X192267812Y-121342809D01*
X192267809Y-121342812D01*
X192181649Y-121457906D01*
X192181645Y-121457913D01*
X192131403Y-121592620D01*
X192131401Y-121592627D01*
X192125000Y-121652155D01*
X192125000Y-122350000D01*
X193149722Y-122350000D01*
X193105667Y-122426306D01*
X193075000Y-122540756D01*
X193075000Y-122659244D01*
X193105667Y-122773694D01*
X193149722Y-122850000D01*
X192125000Y-122850000D01*
X192125000Y-123547844D01*
X153820505Y-123547844D01*
X153779778Y-123395847D01*
X153685694Y-123168708D01*
X153562767Y-122955792D01*
X153467238Y-122831297D01*
X153413102Y-122760745D01*
X153413096Y-122760738D01*
X153239261Y-122586903D01*
X153239254Y-122586897D01*
X153044212Y-122437236D01*
X153044211Y-122437235D01*
X153044208Y-122437233D01*
X152859216Y-122330428D01*
X152831294Y-122314307D01*
X152831285Y-122314303D01*
X152604162Y-122220225D01*
X152604155Y-122220223D01*
X152604153Y-122220222D01*
X152366677Y-122156591D01*
X152325939Y-122151227D01*
X152122934Y-122124500D01*
X152122927Y-122124500D01*
X151877073Y-122124500D01*
X151877065Y-122124500D01*
X151645059Y-122155045D01*
X151633323Y-122156591D01*
X151395847Y-122220222D01*
X151395837Y-122220225D01*
X151168714Y-122314303D01*
X151168709Y-122314305D01*
X151121232Y-122341716D01*
X151053332Y-122358187D01*
X150987305Y-122335335D01*
X150944115Y-122280413D01*
X150935549Y-122225485D01*
X150955610Y-121945000D01*
X150935196Y-121659572D01*
X150930237Y-121636777D01*
X150874371Y-121379962D01*
X150874370Y-121379960D01*
X150874369Y-121379954D01*
X150774367Y-121111839D01*
X150691830Y-120960685D01*
X150637229Y-120860690D01*
X150637224Y-120860682D01*
X150465745Y-120631612D01*
X150465729Y-120631594D01*
X150263405Y-120429270D01*
X150263387Y-120429254D01*
X150095087Y-120303267D01*
X150053215Y-120247334D01*
X150048231Y-120177642D01*
X150081716Y-120116319D01*
X150143039Y-120082834D01*
X150169397Y-120080000D01*
X222888562Y-120080000D01*
X222955601Y-120099685D01*
X223001356Y-120152489D01*
X223011300Y-120221647D01*
X222982275Y-120285203D01*
X222947989Y-120312832D01*
X222865690Y-120357770D01*
X222865682Y-120357775D01*
X222636612Y-120529254D01*
X222636594Y-120529270D01*
X222434270Y-120731594D01*
X222434254Y-120731612D01*
X222262775Y-120960682D01*
X222262770Y-120960690D01*
X222125635Y-121211833D01*
X222025628Y-121479962D01*
X221964804Y-121759566D01*
X221944390Y-122044998D01*
X221944390Y-122045001D01*
X221964450Y-122325482D01*
X221949598Y-122393755D01*
X221900193Y-122443160D01*
X221831920Y-122458012D01*
X221778766Y-122441715D01*
X221731295Y-122414307D01*
X221731285Y-122414303D01*
X221504162Y-122320225D01*
X221504155Y-122320223D01*
X221504153Y-122320222D01*
X221266677Y-122256591D01*
X221225939Y-122251227D01*
X221022934Y-122224500D01*
X221022927Y-122224500D01*
X220777073Y-122224500D01*
X220777065Y-122224500D01*
X220545059Y-122255045D01*
X220533323Y-122256591D01*
X220317937Y-122314303D01*
X220295847Y-122320222D01*
X220295837Y-122320225D01*
X220068714Y-122414303D01*
X220068705Y-122414307D01*
X219855787Y-122537236D01*
X219660745Y-122686897D01*
X219660738Y-122686903D01*
X219486903Y-122860738D01*
X219486897Y-122860745D01*
X219337236Y-123055787D01*
X219214307Y-123268705D01*
X219214303Y-123268714D01*
X219120225Y-123495837D01*
X219120220Y-123495851D01*
X219107098Y-123544823D01*
X219070732Y-123604483D01*
X219007885Y-123635011D01*
X218938509Y-123626714D01*
X218899643Y-123600408D01*
X218637590Y-123338355D01*
X218637588Y-123338352D01*
X218518717Y-123219481D01*
X218518709Y-123219475D01*
X218410995Y-123157287D01*
X218410992Y-123157286D01*
X218381786Y-123140423D01*
X218381787Y-123140423D01*
X218320693Y-123124053D01*
X218229057Y-123099499D01*
X218070943Y-123099499D01*
X218063347Y-123099499D01*
X218063331Y-123099500D01*
X211986669Y-123099500D01*
X211986653Y-123099499D01*
X211979057Y-123099499D01*
X211820943Y-123099499D01*
X211729306Y-123124053D01*
X211668213Y-123140423D01*
X211639008Y-123157286D01*
X211639005Y-123157287D01*
X211531290Y-123219475D01*
X211531282Y-123219481D01*
X210319479Y-124431284D01*
X210302905Y-124459992D01*
X210295899Y-124472128D01*
X210240423Y-124568215D01*
X210199499Y-124720943D01*
X210199499Y-124720945D01*
X210199499Y-124889046D01*
X210199500Y-124889059D01*
X210199500Y-125299901D01*
X210179815Y-125366940D01*
X210163182Y-125387582D01*
X210087584Y-125463181D01*
X210026261Y-125496666D01*
X209999902Y-125499500D01*
X207279057Y-125499500D01*
X207120942Y-125499500D01*
X206968215Y-125540423D01*
X206968214Y-125540423D01*
X206968212Y-125540424D01*
X206968209Y-125540425D01*
X206918096Y-125569359D01*
X206918095Y-125569360D01*
X206902434Y-125578402D01*
X206831285Y-125619479D01*
X206831282Y-125619481D01*
X206719478Y-125731286D01*
X202684523Y-129766240D01*
X202623200Y-129799725D01*
X202553508Y-129794741D01*
X202497575Y-129752869D01*
X202489454Y-129740557D01*
X202470533Y-129707784D01*
X202470402Y-129707639D01*
X202343870Y-129567111D01*
X202190734Y-129455851D01*
X202190729Y-129455848D01*
X202017807Y-129378857D01*
X202017802Y-129378855D01*
X201872001Y-129347865D01*
X201832646Y-129339500D01*
X201643354Y-129339500D01*
X201610897Y-129346398D01*
X201458197Y-129378855D01*
X201458192Y-129378857D01*
X201285270Y-129455848D01*
X201285265Y-129455851D01*
X201132129Y-129567111D01*
X201005466Y-129707785D01*
X200910821Y-129871715D01*
X200910818Y-129871722D01*
X200852327Y-130051740D01*
X200852326Y-130051744D01*
X200837586Y-130191993D01*
X200834679Y-130219649D01*
X200808094Y-130284263D01*
X200799039Y-130294368D01*
X196881229Y-134212181D01*
X196819906Y-134245666D01*
X196793548Y-134248500D01*
X190048453Y-134248500D01*
X189981414Y-134228815D01*
X189960772Y-134212181D01*
X189029138Y-133280547D01*
X188995653Y-133219224D01*
X189000637Y-133149532D01*
X189042509Y-133093599D01*
X189043802Y-133092644D01*
X189106821Y-133046859D01*
X189259359Y-132894321D01*
X189383682Y-132723204D01*
X189439012Y-132680540D01*
X189508626Y-132674561D01*
X189570420Y-132707167D01*
X189584315Y-132723202D01*
X189708641Y-132894321D01*
X189861179Y-133046859D01*
X190035701Y-133173657D01*
X190227911Y-133271592D01*
X190433074Y-133338254D01*
X190512973Y-133350908D01*
X190646134Y-133372000D01*
X190646139Y-133372000D01*
X190861866Y-133372000D01*
X190981059Y-133353121D01*
X191074926Y-133338254D01*
X191280089Y-133271592D01*
X191472299Y-133173657D01*
X191646821Y-133046859D01*
X191799359Y-132894321D01*
X191926157Y-132719799D01*
X192024092Y-132527589D01*
X192090754Y-132322426D01*
X192105752Y-132227730D01*
X192124500Y-132109366D01*
X192124500Y-131443633D01*
X192094734Y-131255703D01*
X192090754Y-131230574D01*
X192024092Y-131025411D01*
X191926157Y-130833201D01*
X191799359Y-130658679D01*
X191790819Y-130650139D01*
X191757334Y-130588816D01*
X191754500Y-130562458D01*
X191754500Y-130457458D01*
X191754499Y-130457455D01*
X191752820Y-130449016D01*
X191723499Y-130301606D01*
X191716051Y-130264164D01*
X191706042Y-130240000D01*
X191692604Y-130207557D01*
X191640635Y-130082092D01*
X191640628Y-130082079D01*
X191531139Y-129918218D01*
X191531136Y-129918214D01*
X191388686Y-129775764D01*
X191388655Y-129775735D01*
X189560479Y-127947559D01*
X189560459Y-127947537D01*
X189416785Y-127803863D01*
X189416781Y-127803860D01*
X189252917Y-127694369D01*
X189112152Y-127636063D01*
X189112149Y-127636061D01*
X189070840Y-127618950D01*
X189070828Y-127618947D01*
X188935470Y-127592023D01*
X188877543Y-127580500D01*
X188877541Y-127580500D01*
X177773212Y-127580500D01*
X177706173Y-127560815D01*
X177672270Y-127526912D01*
X177671710Y-127527332D01*
X177501861Y-127300439D01*
X177501845Y-127300421D01*
X177304578Y-127103154D01*
X177304560Y-127103138D01*
X177081215Y-126935945D01*
X177081207Y-126935940D01*
X176836342Y-126802233D01*
X176836338Y-126802231D01*
X176717687Y-126757977D01*
X176574923Y-126704729D01*
X176574919Y-126704728D01*
X176574916Y-126704727D01*
X176302299Y-126645422D01*
X176024001Y-126625518D01*
X176023999Y-126625518D01*
X175745700Y-126645422D01*
X175473083Y-126704727D01*
X175473078Y-126704728D01*
X175473077Y-126704729D01*
X175429603Y-126720944D01*
X175211661Y-126802231D01*
X175211657Y-126802233D01*
X174966792Y-126935940D01*
X174966784Y-126935945D01*
X174743439Y-127103138D01*
X174743421Y-127103154D01*
X174546154Y-127300421D01*
X174546138Y-127300439D01*
X174378945Y-127523784D01*
X174378940Y-127523792D01*
X174245233Y-127768657D01*
X174245231Y-127768661D01*
X174147727Y-128030083D01*
X174088422Y-128302700D01*
X174068518Y-128580998D01*
X174068518Y-128581001D01*
X174088422Y-128859299D01*
X174143785Y-129113793D01*
X174147729Y-129131923D01*
X174170279Y-129192382D01*
X174245231Y-129393338D01*
X174245233Y-129393342D01*
X174378940Y-129638207D01*
X174378945Y-129638215D01*
X174546138Y-129861560D01*
X174546154Y-129861578D01*
X174743421Y-130058845D01*
X174743439Y-130058861D01*
X174970332Y-130228710D01*
X174969703Y-130229549D01*
X175012293Y-130278697D01*
X175023500Y-130330212D01*
X175023500Y-137318440D01*
X175003815Y-137385479D01*
X174969353Y-137420893D01*
X174898260Y-137469364D01*
X174700442Y-137652910D01*
X174532185Y-137863898D01*
X174397258Y-138097599D01*
X174397256Y-138097603D01*
X174298666Y-138348804D01*
X174298664Y-138348811D01*
X174238616Y-138611898D01*
X174218451Y-138880995D01*
X174218451Y-138881004D01*
X174238616Y-139150101D01*
X174298664Y-139413188D01*
X174298666Y-139413195D01*
X174397256Y-139664396D01*
X174397258Y-139664400D01*
X174424590Y-139711740D01*
X174532185Y-139898102D01*
X174650780Y-140046815D01*
X174700442Y-140109089D01*
X174864409Y-140261227D01*
X174898259Y-140292635D01*
X175121226Y-140444651D01*
X175121229Y-140444652D01*
X175121230Y-140444653D01*
X175124503Y-140446229D01*
X175364359Y-140561738D01*
X175622228Y-140641280D01*
X175622229Y-140641280D01*
X175622232Y-140641281D01*
X175889063Y-140681499D01*
X175889068Y-140681499D01*
X175889071Y-140681500D01*
X175889072Y-140681500D01*
X176158928Y-140681500D01*
X176158929Y-140681500D01*
X176158936Y-140681499D01*
X176425767Y-140641281D01*
X176425768Y-140641280D01*
X176425772Y-140641280D01*
X176683641Y-140561738D01*
X176923496Y-140446230D01*
X176926767Y-140444655D01*
X176926767Y-140444654D01*
X176926775Y-140444651D01*
X177149741Y-140292635D01*
X177347561Y-140109085D01*
X177515815Y-139898102D01*
X177650743Y-139664398D01*
X177749334Y-139413195D01*
X177809383Y-139150103D01*
X177825748Y-138931722D01*
X177829549Y-138881004D01*
X177829549Y-138880995D01*
X177809383Y-138611898D01*
X177799664Y-138569315D01*
X177749334Y-138348805D01*
X177650743Y-138097602D01*
X177515815Y-137863898D01*
X177347561Y-137652915D01*
X177347560Y-137652914D01*
X177347557Y-137652910D01*
X177191444Y-137508060D01*
X177149741Y-137469365D01*
X177149737Y-137469362D01*
X177149730Y-137469356D01*
X177078648Y-137420893D01*
X177034346Y-137366864D01*
X177024500Y-137318440D01*
X177024500Y-130330212D01*
X177044185Y-130263173D01*
X177078087Y-130229270D01*
X177077668Y-130228710D01*
X177304560Y-130058861D01*
X177304560Y-130058860D01*
X177304568Y-130058855D01*
X177501855Y-129861568D01*
X177566109Y-129775735D01*
X177671710Y-129634668D01*
X177672549Y-129635296D01*
X177721697Y-129592707D01*
X177773212Y-129581500D01*
X188313218Y-129581500D01*
X188380257Y-129601185D01*
X188400899Y-129617819D01*
X188855405Y-130072325D01*
X188888890Y-130133648D01*
X188883906Y-130203340D01*
X188842034Y-130259273D01*
X188776570Y-130283690D01*
X188729406Y-130277937D01*
X188534926Y-130214746D01*
X188534924Y-130214745D01*
X188534922Y-130214745D01*
X188321866Y-130181000D01*
X188321861Y-130181000D01*
X188106139Y-130181000D01*
X188106134Y-130181000D01*
X187893077Y-130214745D01*
X187687908Y-130281409D01*
X187495700Y-130379343D01*
X187411629Y-130440425D01*
X187321179Y-130506141D01*
X187321177Y-130506143D01*
X187321176Y-130506143D01*
X187168643Y-130658676D01*
X187168643Y-130658677D01*
X187168641Y-130658679D01*
X187105075Y-130746170D01*
X187044318Y-130829794D01*
X186988988Y-130872459D01*
X186919374Y-130878438D01*
X186857579Y-130845832D01*
X186843682Y-130829794D01*
X186807017Y-130779330D01*
X186719359Y-130658679D01*
X186566821Y-130506141D01*
X186392299Y-130379343D01*
X186200089Y-130281408D01*
X185994926Y-130214746D01*
X185994924Y-130214745D01*
X185994922Y-130214745D01*
X185781866Y-130181000D01*
X185781861Y-130181000D01*
X185566139Y-130181000D01*
X185566134Y-130181000D01*
X185353077Y-130214745D01*
X185147908Y-130281409D01*
X184955700Y-130379343D01*
X184781180Y-130506140D01*
X184638816Y-130648504D01*
X184577493Y-130681988D01*
X184507801Y-130677004D01*
X184451868Y-130635132D01*
X184438748Y-130613216D01*
X184438356Y-130612376D01*
X184346315Y-130463154D01*
X184222345Y-130339184D01*
X184073124Y-130247143D01*
X184073119Y-130247141D01*
X183906697Y-130191994D01*
X183906690Y-130191993D01*
X183803986Y-130181500D01*
X183384000Y-130181500D01*
X183384000Y-131233790D01*
X183363661Y-131222048D01*
X183212333Y-131181500D01*
X183055667Y-131181500D01*
X182904339Y-131222048D01*
X182884000Y-131233790D01*
X182884000Y-130181500D01*
X182464028Y-130181500D01*
X182464012Y-130181501D01*
X182361302Y-130191994D01*
X182194880Y-130247141D01*
X182194875Y-130247143D01*
X182045654Y-130339184D01*
X181921684Y-130463154D01*
X181829643Y-130612375D01*
X181829641Y-130612380D01*
X181774494Y-130778802D01*
X181774493Y-130778809D01*
X181764000Y-130881513D01*
X181764000Y-131526500D01*
X182591291Y-131526500D01*
X182579548Y-131546839D01*
X182539000Y-131698167D01*
X182539000Y-131854833D01*
X182579548Y-132006161D01*
X182591291Y-132026500D01*
X181764001Y-132026500D01*
X181764001Y-132671486D01*
X181774494Y-132774197D01*
X181829641Y-132940619D01*
X181829643Y-132940624D01*
X181921684Y-133089845D01*
X182045654Y-133213815D01*
X182194875Y-133305856D01*
X182194880Y-133305858D01*
X182361302Y-133361005D01*
X182361309Y-133361006D01*
X182464019Y-133371499D01*
X182883999Y-133371499D01*
X182884000Y-133371498D01*
X182884000Y-132319209D01*
X182904339Y-132330952D01*
X183055667Y-132371500D01*
X183212333Y-132371500D01*
X183363661Y-132330952D01*
X183384000Y-132319209D01*
X183384000Y-133371499D01*
X183803972Y-133371499D01*
X183803986Y-133371498D01*
X183906697Y-133361005D01*
X184073119Y-133305858D01*
X184073124Y-133305856D01*
X184222345Y-133213815D01*
X184346315Y-133089845D01*
X184438354Y-132940627D01*
X184438745Y-132939789D01*
X184439167Y-132939309D01*
X184442149Y-132934475D01*
X184442974Y-132934984D01*
X184484910Y-132887343D01*
X184552100Y-132868181D01*
X184618984Y-132888387D01*
X184638816Y-132904496D01*
X184781179Y-133046859D01*
X184955701Y-133173657D01*
X185147911Y-133271592D01*
X185353074Y-133338254D01*
X185432973Y-133350908D01*
X185566134Y-133372000D01*
X185566139Y-133372000D01*
X185781866Y-133372000D01*
X185901059Y-133353121D01*
X185994926Y-133338254D01*
X186200089Y-133271592D01*
X186392299Y-133173657D01*
X186566821Y-133046859D01*
X186719359Y-132894321D01*
X186843682Y-132723204D01*
X186899012Y-132680540D01*
X186968626Y-132674561D01*
X187030420Y-132707167D01*
X187044315Y-132723202D01*
X187168641Y-132894321D01*
X187321179Y-133046859D01*
X187495701Y-133173657D01*
X187520792Y-133186441D01*
X187571589Y-133234414D01*
X187588500Y-133296927D01*
X187588500Y-133411611D01*
X187612535Y-133532444D01*
X187612540Y-133532461D01*
X187659684Y-133646278D01*
X187659691Y-133646292D01*
X187668518Y-133659501D01*
X187668520Y-133659503D01*
X187728140Y-133748731D01*
X187728141Y-133748732D01*
X187728142Y-133748733D01*
X187815267Y-133835858D01*
X187815268Y-133835858D01*
X187822335Y-133842925D01*
X187822334Y-133842925D01*
X187822337Y-133842927D01*
X189252141Y-135272732D01*
X189252142Y-135272733D01*
X189318982Y-135339573D01*
X189339269Y-135359860D01*
X189339271Y-135359861D01*
X189393666Y-135396207D01*
X189393667Y-135396207D01*
X189441714Y-135428311D01*
X189555548Y-135475463D01*
X189676388Y-135499499D01*
X189676392Y-135499500D01*
X189676393Y-135499500D01*
X197165607Y-135499500D01*
X197226029Y-135487481D01*
X197286452Y-135475463D01*
X197286455Y-135475461D01*
X197286458Y-135475461D01*
X197319787Y-135461654D01*
X197319786Y-135461654D01*
X197319792Y-135461652D01*
X197400286Y-135428312D01*
X197451509Y-135394084D01*
X197502733Y-135359858D01*
X197589858Y-135272733D01*
X197589858Y-135272731D01*
X197600066Y-135262524D01*
X197600067Y-135262521D01*
X201685772Y-131176819D01*
X201747095Y-131143334D01*
X201773453Y-131140500D01*
X201832644Y-131140500D01*
X201832646Y-131140500D01*
X202017803Y-131101144D01*
X202125066Y-131053386D01*
X202194313Y-131044101D01*
X202257590Y-131073729D01*
X202294804Y-131132864D01*
X202299500Y-131166666D01*
X202299500Y-136213330D01*
X202299499Y-136213348D01*
X202299499Y-136379054D01*
X202299498Y-136379054D01*
X202299499Y-136379057D01*
X202340423Y-136531785D01*
X202364916Y-136574208D01*
X202419477Y-136668712D01*
X202419481Y-136668717D01*
X202538349Y-136787585D01*
X202538355Y-136787590D01*
X204158221Y-138407456D01*
X204191706Y-138468779D01*
X204194540Y-138495137D01*
X204194540Y-138499997D01*
X204194540Y-138500000D01*
X204214326Y-138688256D01*
X204214327Y-138688259D01*
X204272818Y-138868277D01*
X204272821Y-138868284D01*
X204367467Y-139032216D01*
X204473613Y-139150103D01*
X204494129Y-139172888D01*
X204647265Y-139284148D01*
X204647270Y-139284151D01*
X204820192Y-139361142D01*
X204820193Y-139361142D01*
X204820197Y-139361144D01*
X204916973Y-139381714D01*
X204978455Y-139414906D01*
X205012232Y-139476069D01*
X205013879Y-139486151D01*
X205014327Y-139488260D01*
X205072818Y-139668277D01*
X205072821Y-139668284D01*
X205167467Y-139832216D01*
X205192059Y-139859528D01*
X205222289Y-139922519D01*
X205213664Y-139991854D01*
X205168923Y-140045520D01*
X205102270Y-140066478D01*
X205099909Y-140066500D01*
X202896599Y-140066500D01*
X202896559Y-140066499D01*
X202893489Y-140066499D01*
X202500425Y-140066499D01*
X202412234Y-140075185D01*
X202109264Y-140105025D01*
X202109247Y-140105028D01*
X201723763Y-140181703D01*
X201723752Y-140181706D01*
X201438345Y-140268284D01*
X201438344Y-140268283D01*
X201347608Y-140295808D01*
X200984457Y-140446230D01*
X200984452Y-140446232D01*
X200637819Y-140631511D01*
X200637801Y-140631522D01*
X200310996Y-140849887D01*
X200310982Y-140849897D01*
X200007139Y-141099254D01*
X199729207Y-141377188D01*
X199729202Y-141377193D01*
X198527808Y-142578585D01*
X198466485Y-142612070D01*
X198396793Y-142607086D01*
X198347978Y-142573877D01*
X198305871Y-142527112D01*
X198305863Y-142527106D01*
X198152734Y-142415851D01*
X198152729Y-142415848D01*
X197979807Y-142338857D01*
X197979802Y-142338855D01*
X197834001Y-142307865D01*
X197794646Y-142299500D01*
X197605354Y-142299500D01*
X197572897Y-142306398D01*
X197420197Y-142338855D01*
X197420192Y-142338857D01*
X197247270Y-142415848D01*
X197247265Y-142415851D01*
X197094135Y-142527106D01*
X197094128Y-142527112D01*
X197065891Y-142558473D01*
X197006405Y-142595121D01*
X196973742Y-142599500D01*
X196500098Y-142599500D01*
X196433059Y-142579815D01*
X196412417Y-142563181D01*
X193841779Y-139992543D01*
X193808294Y-139931220D01*
X193805460Y-139904862D01*
X193805460Y-139900002D01*
X193805460Y-139900000D01*
X193785674Y-139711744D01*
X193727179Y-139531716D01*
X193632533Y-139367784D01*
X193505871Y-139227112D01*
X193505870Y-139227111D01*
X193352734Y-139115851D01*
X193352729Y-139115848D01*
X193179807Y-139038857D01*
X193179802Y-139038855D01*
X193034001Y-139007865D01*
X192994646Y-138999500D01*
X192805354Y-138999500D01*
X192772897Y-139006398D01*
X192620197Y-139038855D01*
X192620192Y-139038857D01*
X192447270Y-139115848D01*
X192447265Y-139115851D01*
X192294129Y-139227111D01*
X192167466Y-139367785D01*
X192072821Y-139531715D01*
X192072818Y-139531722D01*
X192029709Y-139664400D01*
X192014326Y-139711744D01*
X191994540Y-139900000D01*
X192014326Y-140088256D01*
X192014327Y-140088259D01*
X192072818Y-140268277D01*
X192072820Y-140268281D01*
X192072821Y-140268284D01*
X192167467Y-140432216D01*
X192294129Y-140572888D01*
X192447265Y-140684148D01*
X192447270Y-140684151D01*
X192620192Y-140761142D01*
X192620197Y-140761144D01*
X192805354Y-140800500D01*
X192899903Y-140800500D01*
X192966942Y-140820185D01*
X192987584Y-140836819D01*
X195481102Y-143330338D01*
X195514587Y-143391661D01*
X195509603Y-143461353D01*
X195467731Y-143517286D01*
X195466306Y-143518337D01*
X195355129Y-143599111D01*
X195228466Y-143739785D01*
X195133821Y-143903715D01*
X195133818Y-143903722D01*
X195075951Y-144081819D01*
X195075326Y-144083744D01*
X195058590Y-144242984D01*
X195057679Y-144251650D01*
X195031094Y-144316264D01*
X195022044Y-144326364D01*
X195013233Y-144335176D01*
X194951912Y-144368665D01*
X194925547Y-144371500D01*
X194321568Y-144371500D01*
X194254529Y-144351815D01*
X194208774Y-144299011D01*
X194198247Y-144260462D01*
X194196410Y-144242984D01*
X194179674Y-144083744D01*
X194121179Y-143903716D01*
X194026533Y-143739784D01*
X193899871Y-143599112D01*
X193899870Y-143599111D01*
X193746734Y-143487851D01*
X193746729Y-143487848D01*
X193573807Y-143410857D01*
X193573802Y-143410855D01*
X193428001Y-143379865D01*
X193388646Y-143371500D01*
X193388645Y-143371500D01*
X193329452Y-143371500D01*
X193262413Y-143351815D01*
X193241771Y-143335181D01*
X193059198Y-143152608D01*
X193059178Y-143152586D01*
X192967736Y-143061144D01*
X192967728Y-143061138D01*
X192893806Y-143011745D01*
X192893804Y-143011743D01*
X192893804Y-143011744D01*
X192865285Y-142992687D01*
X192825039Y-142976017D01*
X192784792Y-142959347D01*
X192751453Y-142945537D01*
X192741427Y-142943543D01*
X192691029Y-142933518D01*
X192630610Y-142921500D01*
X192630607Y-142921500D01*
X192630606Y-142921500D01*
X188746607Y-142921500D01*
X188623393Y-142921500D01*
X188623389Y-142921500D01*
X188562971Y-142933518D01*
X188502548Y-142945537D01*
X188502543Y-142945538D01*
X188469207Y-142959347D01*
X188455397Y-142965067D01*
X188433169Y-142974274D01*
X188388713Y-142992688D01*
X188378557Y-142999475D01*
X188378449Y-142999547D01*
X188286268Y-143061140D01*
X188250577Y-143096832D01*
X188199142Y-143148267D01*
X188199139Y-143148270D01*
X188115015Y-143232394D01*
X188047680Y-143299729D01*
X187986357Y-143333213D01*
X187916665Y-143328229D01*
X187872318Y-143299728D01*
X187725198Y-143152608D01*
X187725178Y-143152586D01*
X187633736Y-143061144D01*
X187633728Y-143061138D01*
X187559806Y-143011745D01*
X187559804Y-143011743D01*
X187559804Y-143011744D01*
X187531285Y-142992687D01*
X187491039Y-142976017D01*
X187450792Y-142959347D01*
X187417453Y-142945537D01*
X187407427Y-142943543D01*
X187357029Y-142933518D01*
X187296610Y-142921500D01*
X187296607Y-142921500D01*
X187296606Y-142921500D01*
X183412607Y-142921500D01*
X183289393Y-142921500D01*
X183289389Y-142921500D01*
X183228971Y-142933518D01*
X183168548Y-142945537D01*
X183168543Y-142945538D01*
X183135207Y-142959347D01*
X183121397Y-142965067D01*
X183099169Y-142974274D01*
X183054713Y-142992688D01*
X183044557Y-142999475D01*
X183044449Y-142999547D01*
X182952268Y-143061140D01*
X182916577Y-143096832D01*
X182865142Y-143148267D01*
X182865139Y-143148270D01*
X182781015Y-143232394D01*
X182713680Y-143299729D01*
X182652357Y-143333213D01*
X182582665Y-143328229D01*
X182538318Y-143299728D01*
X182264198Y-143025608D01*
X182264178Y-143025586D01*
X182172733Y-142934141D01*
X182121509Y-142899915D01*
X182070287Y-142865689D01*
X182070286Y-142865688D01*
X181987226Y-142831284D01*
X181987224Y-142831282D01*
X181956455Y-142818538D01*
X181956453Y-142818537D01*
X181956452Y-142818537D01*
X181896029Y-142806518D01*
X181835610Y-142794500D01*
X181835607Y-142794500D01*
X181835606Y-142794500D01*
X177824607Y-142794500D01*
X177701393Y-142794500D01*
X177701389Y-142794500D01*
X177640971Y-142806518D01*
X177580548Y-142818537D01*
X177580543Y-142818538D01*
X177546546Y-142832620D01*
X177533397Y-142838067D01*
X177512128Y-142846877D01*
X177466713Y-142865688D01*
X177456557Y-142872475D01*
X177456449Y-142872547D01*
X177364268Y-142934140D01*
X177339062Y-142959347D01*
X177277142Y-143021267D01*
X177277139Y-143021270D01*
X177090229Y-143208181D01*
X177028906Y-143241666D01*
X177002548Y-143244500D01*
X176943354Y-143244500D01*
X176910897Y-143251398D01*
X176758197Y-143283855D01*
X176758192Y-143283857D01*
X176585270Y-143360848D01*
X176585265Y-143360851D01*
X176432129Y-143472111D01*
X176305466Y-143612785D01*
X176210821Y-143776715D01*
X176210819Y-143776719D01*
X176170963Y-143899384D01*
X176131525Y-143957059D01*
X176067166Y-143984257D01*
X175998320Y-143972342D01*
X175965351Y-143948746D01*
X173115860Y-141099254D01*
X172812017Y-140849897D01*
X172812016Y-140849896D01*
X172812012Y-140849893D01*
X172679190Y-140761144D01*
X172485192Y-140631518D01*
X172485187Y-140631515D01*
X172485180Y-140631511D01*
X172138547Y-140446232D01*
X172138542Y-140446230D01*
X172134737Y-140444654D01*
X171775396Y-140295810D01*
X171775395Y-140295809D01*
X171775391Y-140295808D01*
X171684655Y-140268283D01*
X171684655Y-140268284D01*
X171399257Y-140181709D01*
X171399256Y-140181708D01*
X171399247Y-140181706D01*
X171399236Y-140181703D01*
X171013751Y-140105028D01*
X171013746Y-140105027D01*
X171013744Y-140105026D01*
X171013734Y-140105025D01*
X170726362Y-140076722D01*
X170622575Y-140066500D01*
X170622572Y-140066500D01*
X170133364Y-140066500D01*
X170066325Y-140046815D01*
X170020570Y-139994011D01*
X170010626Y-139924853D01*
X170025977Y-139880500D01*
X170150743Y-139664398D01*
X170249334Y-139413195D01*
X170309383Y-139150103D01*
X170325748Y-138931722D01*
X170329549Y-138881004D01*
X170329549Y-138880995D01*
X170309383Y-138611898D01*
X170299664Y-138569315D01*
X170249334Y-138348805D01*
X170150743Y-138097602D01*
X170015815Y-137863898D01*
X169847561Y-137652915D01*
X169847560Y-137652914D01*
X169847557Y-137652910D01*
X169691444Y-137508060D01*
X169649741Y-137469365D01*
X169649737Y-137469362D01*
X169649730Y-137469356D01*
X169578648Y-137420893D01*
X169534346Y-137366864D01*
X169524500Y-137318440D01*
X169524500Y-130330212D01*
X169544185Y-130263173D01*
X169578087Y-130229270D01*
X169577668Y-130228710D01*
X169804560Y-130058861D01*
X169804560Y-130058860D01*
X169804568Y-130058855D01*
X170001855Y-129861568D01*
X170169056Y-129638213D01*
X170302769Y-129393337D01*
X170400271Y-129131923D01*
X170459578Y-128859294D01*
X170479482Y-128581000D01*
X170459578Y-128302706D01*
X170451239Y-128264374D01*
X170400272Y-128030083D01*
X170400271Y-128030077D01*
X170302769Y-127768663D01*
X170289187Y-127743790D01*
X170169059Y-127523792D01*
X170169054Y-127523784D01*
X170001861Y-127300439D01*
X170001845Y-127300421D01*
X169804578Y-127103154D01*
X169804560Y-127103138D01*
X169581215Y-126935945D01*
X169581207Y-126935940D01*
X169336342Y-126802233D01*
X169336338Y-126802231D01*
X169217687Y-126757977D01*
X169074923Y-126704729D01*
X169074919Y-126704728D01*
X169074916Y-126704727D01*
X168802299Y-126645422D01*
X168524001Y-126625518D01*
X168523999Y-126625518D01*
X168245700Y-126645422D01*
X167973083Y-126704727D01*
X167973078Y-126704728D01*
X167973077Y-126704729D01*
X167929603Y-126720944D01*
X167711661Y-126802231D01*
X167711657Y-126802233D01*
X167466792Y-126935940D01*
X167466784Y-126935945D01*
X167243439Y-127103138D01*
X167243421Y-127103154D01*
X167046154Y-127300421D01*
X167046138Y-127300439D01*
X166878945Y-127523784D01*
X166878940Y-127523792D01*
X166745233Y-127768657D01*
X166745231Y-127768661D01*
X166647727Y-128030083D01*
X166588422Y-128302700D01*
X166568518Y-128580998D01*
X166568518Y-128581001D01*
X166588422Y-128859299D01*
X166643785Y-129113793D01*
X166647729Y-129131923D01*
X166670279Y-129192382D01*
X166745231Y-129393338D01*
X166745233Y-129393342D01*
X166878940Y-129638207D01*
X166878945Y-129638215D01*
X167046138Y-129861560D01*
X167046154Y-129861578D01*
X167243421Y-130058845D01*
X167243439Y-130058861D01*
X167470332Y-130228710D01*
X167469703Y-130229549D01*
X167512293Y-130278697D01*
X167523500Y-130330212D01*
X167523500Y-137318440D01*
X167503815Y-137385479D01*
X167469353Y-137420893D01*
X167398260Y-137469364D01*
X167200442Y-137652910D01*
X167032185Y-137863898D01*
X166897258Y-138097599D01*
X166897256Y-138097603D01*
X166798666Y-138348804D01*
X166798664Y-138348811D01*
X166738616Y-138611898D01*
X166718451Y-138880995D01*
X166718451Y-138881004D01*
X166738616Y-139150101D01*
X166798664Y-139413188D01*
X166798666Y-139413195D01*
X166897256Y-139664396D01*
X166897258Y-139664400D01*
X166924590Y-139711740D01*
X167009914Y-139859528D01*
X167022023Y-139880500D01*
X167038496Y-139948400D01*
X167015643Y-140014427D01*
X166960722Y-140057618D01*
X166914636Y-140066500D01*
X166190489Y-140066500D01*
X165797425Y-140066500D01*
X165702071Y-140075891D01*
X165406264Y-140105025D01*
X165406247Y-140105028D01*
X165020762Y-140181703D01*
X165020751Y-140181706D01*
X164644597Y-140295811D01*
X164494183Y-140358114D01*
X164494184Y-140358115D01*
X164281457Y-140446230D01*
X164281452Y-140446232D01*
X163934819Y-140631511D01*
X163934801Y-140631522D01*
X163607996Y-140849887D01*
X163607982Y-140849897D01*
X163304139Y-141099254D01*
X163026207Y-141377188D01*
X159164214Y-145239181D01*
X159102891Y-145272666D01*
X159076533Y-145275500D01*
X158383472Y-145275500D01*
X158316433Y-145255815D01*
X158270678Y-145203011D01*
X158260734Y-145133853D01*
X158283154Y-145078615D01*
X158308349Y-145043935D01*
X158413052Y-144838446D01*
X158484322Y-144619102D01*
X158499068Y-144526000D01*
X156690001Y-144526000D01*
X156715021Y-144465598D01*
X156740000Y-144340019D01*
X156740000Y-144211981D01*
X156715021Y-144086402D01*
X156690001Y-144026000D01*
X158499068Y-144026000D01*
X158484322Y-143932897D01*
X158413052Y-143713553D01*
X158308351Y-143508067D01*
X158172789Y-143321484D01*
X158172789Y-143321483D01*
X158009716Y-143158410D01*
X157823132Y-143022848D01*
X157617646Y-142918147D01*
X157398302Y-142846877D01*
X157170519Y-142810800D01*
X156340000Y-142810800D01*
X156340000Y-143675998D01*
X156279598Y-143650979D01*
X156154019Y-143626000D01*
X156025981Y-143626000D01*
X155900402Y-143650979D01*
X155840000Y-143675998D01*
X155840000Y-142810800D01*
X155009481Y-142810800D01*
X154781697Y-142846877D01*
X154562353Y-142918147D01*
X154356867Y-143022848D01*
X154170284Y-143158410D01*
X154170283Y-143158410D01*
X154007210Y-143321483D01*
X154007210Y-143321484D01*
X153871648Y-143508067D01*
X153766947Y-143713553D01*
X153695677Y-143932897D01*
X153680932Y-144026000D01*
X155489999Y-144026000D01*
X155464979Y-144086402D01*
X155440000Y-144211981D01*
X155440000Y-144340019D01*
X155464979Y-144465598D01*
X155489999Y-144526000D01*
X153680932Y-144526000D01*
X153695677Y-144619102D01*
X153766947Y-144838446D01*
X153871650Y-145043935D01*
X153896846Y-145078615D01*
X153920326Y-145144421D01*
X153904501Y-145212475D01*
X153854395Y-145261170D01*
X153796528Y-145275500D01*
X150183472Y-145275500D01*
X150116433Y-145255815D01*
X150070678Y-145203011D01*
X150060734Y-145133853D01*
X150083154Y-145078615D01*
X150108349Y-145043935D01*
X150213052Y-144838446D01*
X150284322Y-144619102D01*
X150299068Y-144526000D01*
X148490001Y-144526000D01*
X148515021Y-144465598D01*
X148540000Y-144340019D01*
X148540000Y-144211981D01*
X148515021Y-144086402D01*
X148490001Y-144026000D01*
X150299068Y-144026000D01*
X150284322Y-143932897D01*
X150213052Y-143713553D01*
X150108351Y-143508067D01*
X149972789Y-143321484D01*
X149972789Y-143321483D01*
X149809716Y-143158410D01*
X149623132Y-143022848D01*
X149417646Y-142918147D01*
X149198302Y-142846877D01*
X148970519Y-142810800D01*
X148140000Y-142810800D01*
X148140000Y-143675998D01*
X148079598Y-143650979D01*
X147954019Y-143626000D01*
X147825981Y-143626000D01*
X147700402Y-143650979D01*
X147640000Y-143675998D01*
X147640000Y-142810800D01*
X146809481Y-142810800D01*
X146581697Y-142846877D01*
X146362353Y-142918147D01*
X146156867Y-143022848D01*
X145970284Y-143158410D01*
X145970283Y-143158410D01*
X145807210Y-143321483D01*
X145807210Y-143321484D01*
X145671648Y-143508067D01*
X145566947Y-143713553D01*
X145495677Y-143932897D01*
X145480932Y-144026000D01*
X147289999Y-144026000D01*
X147264979Y-144086402D01*
X147240000Y-144211981D01*
X147240000Y-144340019D01*
X147264979Y-144465598D01*
X147289999Y-144526000D01*
X145480932Y-144526000D01*
X145495677Y-144619102D01*
X145566947Y-144838446D01*
X145671648Y-145043932D01*
X145807210Y-145230515D01*
X145807210Y-145230516D01*
X145970283Y-145393589D01*
X146105438Y-145491786D01*
X146148103Y-145547116D01*
X146154082Y-145616730D01*
X146121476Y-145678525D01*
X146091005Y-145701462D01*
X145830862Y-145840511D01*
X145830844Y-145840522D01*
X145504039Y-146058887D01*
X145504025Y-146058897D01*
X145200182Y-146308254D01*
X144922254Y-146586182D01*
X144672897Y-146890025D01*
X144672887Y-146890039D01*
X144454522Y-147216844D01*
X144454511Y-147216862D01*
X144269232Y-147563495D01*
X144269230Y-147563500D01*
X144118810Y-147926645D01*
X144004707Y-148302794D01*
X144004704Y-148302805D01*
X143928026Y-148688297D01*
X143906611Y-148905735D01*
X143889500Y-149079468D01*
X143889500Y-149472532D01*
X143896787Y-149546516D01*
X143928026Y-149863702D01*
X144004704Y-150249194D01*
X144004707Y-150249205D01*
X144118810Y-150625354D01*
X144269230Y-150988499D01*
X144269232Y-150988504D01*
X144454511Y-151335137D01*
X144454522Y-151335155D01*
X144672887Y-151661960D01*
X144672897Y-151661974D01*
X144922254Y-151965817D01*
X145200182Y-152243745D01*
X145200187Y-152243749D01*
X145200188Y-152243750D01*
X145504031Y-152493107D01*
X145830851Y-152711482D01*
X145830860Y-152711487D01*
X145830862Y-152711488D01*
X146072636Y-152840719D01*
X146122480Y-152889681D01*
X146137941Y-152957819D01*
X146114109Y-153023499D01*
X146058552Y-153065867D01*
X146015272Y-153074072D01*
X143262528Y-153098255D01*
X143195319Y-153079160D01*
X143159389Y-153044699D01*
X143106239Y-152967697D01*
X143098492Y-152954882D01*
X143078203Y-152916223D01*
X143064000Y-152858599D01*
X143064000Y-137485001D01*
X146944390Y-137485001D01*
X146964804Y-137770433D01*
X147025628Y-138050037D01*
X147025630Y-138050043D01*
X147025631Y-138050046D01*
X147043369Y-138097602D01*
X147125635Y-138318166D01*
X147262770Y-138569309D01*
X147262775Y-138569317D01*
X147434254Y-138798387D01*
X147434270Y-138798405D01*
X147636594Y-139000729D01*
X147636612Y-139000745D01*
X147865682Y-139172224D01*
X147865690Y-139172229D01*
X148116833Y-139309364D01*
X148116832Y-139309364D01*
X148116836Y-139309365D01*
X148116839Y-139309367D01*
X148384954Y-139409369D01*
X148384960Y-139409370D01*
X148384962Y-139409371D01*
X148664566Y-139470195D01*
X148664568Y-139470195D01*
X148664572Y-139470196D01*
X148917086Y-139488256D01*
X148949999Y-139490610D01*
X148950000Y-139490610D01*
X148950001Y-139490610D01*
X148978595Y-139488564D01*
X149235428Y-139470196D01*
X149515046Y-139409369D01*
X149783161Y-139309367D01*
X150034315Y-139172226D01*
X150263395Y-139000739D01*
X150465739Y-138798395D01*
X150637226Y-138569315D01*
X150774367Y-138318161D01*
X150874369Y-138050046D01*
X150935196Y-137770428D01*
X150955610Y-137485000D01*
X150935549Y-137204514D01*
X150950401Y-137136244D01*
X150999806Y-137086839D01*
X151068079Y-137071987D01*
X151121230Y-137088282D01*
X151168708Y-137115694D01*
X151304187Y-137171811D01*
X151371207Y-137199572D01*
X151395847Y-137209778D01*
X151633323Y-137273409D01*
X151865336Y-137303954D01*
X151869606Y-137304517D01*
X151877073Y-137305500D01*
X151877080Y-137305500D01*
X152122920Y-137305500D01*
X152122927Y-137305500D01*
X152366677Y-137273409D01*
X152604153Y-137209778D01*
X152831292Y-137115694D01*
X153044208Y-136992767D01*
X153239256Y-136843101D01*
X153413101Y-136669256D01*
X153562767Y-136474208D01*
X153685694Y-136261292D01*
X153779778Y-136034153D01*
X153843409Y-135796677D01*
X153875500Y-135552927D01*
X153875500Y-135307073D01*
X153843409Y-135063323D01*
X153779778Y-134825847D01*
X153685694Y-134598708D01*
X153562767Y-134385792D01*
X153413101Y-134190744D01*
X153413096Y-134190738D01*
X153239261Y-134016903D01*
X153239254Y-134016897D01*
X153044212Y-133867236D01*
X153044211Y-133867235D01*
X153044208Y-133867233D01*
X152838960Y-133748733D01*
X152831294Y-133744307D01*
X152831285Y-133744303D01*
X152604162Y-133650225D01*
X152604155Y-133650223D01*
X152604153Y-133650222D01*
X152366677Y-133586591D01*
X152325939Y-133581227D01*
X152122934Y-133554500D01*
X152122927Y-133554500D01*
X151877073Y-133554500D01*
X151877065Y-133554500D01*
X151645059Y-133585045D01*
X151633323Y-133586591D01*
X151410514Y-133646292D01*
X151395847Y-133650222D01*
X151395837Y-133650225D01*
X151168714Y-133744303D01*
X151168705Y-133744307D01*
X150955787Y-133867236D01*
X150760745Y-134016897D01*
X150760738Y-134016903D01*
X150586903Y-134190738D01*
X150586897Y-134190745D01*
X150437236Y-134385787D01*
X150314307Y-134598705D01*
X150314303Y-134598714D01*
X150220225Y-134825837D01*
X150220222Y-134825847D01*
X150158052Y-135057873D01*
X150156592Y-135063320D01*
X150156590Y-135063331D01*
X150124500Y-135307065D01*
X150124500Y-135552920D01*
X150124501Y-135552939D01*
X150134357Y-135627805D01*
X150123591Y-135696840D01*
X150077211Y-135749095D01*
X150009942Y-135767980D01*
X149951991Y-135752821D01*
X149783166Y-135660635D01*
X149783167Y-135660635D01*
X149620855Y-135600096D01*
X149515046Y-135560631D01*
X149515043Y-135560630D01*
X149515037Y-135560628D01*
X149235433Y-135499804D01*
X148950001Y-135479390D01*
X148949999Y-135479390D01*
X148664566Y-135499804D01*
X148384962Y-135560628D01*
X148116833Y-135660635D01*
X147865690Y-135797770D01*
X147865682Y-135797775D01*
X147636612Y-135969254D01*
X147636594Y-135969270D01*
X147434270Y-136171594D01*
X147434254Y-136171612D01*
X147262775Y-136400682D01*
X147262770Y-136400690D01*
X147125635Y-136651833D01*
X147025628Y-136919962D01*
X146964804Y-137199566D01*
X146944390Y-137484998D01*
X146944390Y-137485001D01*
X143064000Y-137485001D01*
X143064000Y-132890002D01*
X157094723Y-132890002D01*
X157094767Y-132890500D01*
X157110138Y-133066204D01*
X157113793Y-133107975D01*
X157113793Y-133107979D01*
X157170422Y-133319322D01*
X157170424Y-133319326D01*
X157170425Y-133319330D01*
X157213456Y-133411611D01*
X157262897Y-133517638D01*
X157273269Y-133532451D01*
X157388402Y-133696877D01*
X157543123Y-133851598D01*
X157722361Y-133977102D01*
X157920670Y-134069575D01*
X158132023Y-134126207D01*
X158314926Y-134142208D01*
X158349998Y-134145277D01*
X158350000Y-134145277D01*
X158350002Y-134145277D01*
X158378254Y-134142805D01*
X158567977Y-134126207D01*
X158779330Y-134069575D01*
X158977639Y-133977102D01*
X159156877Y-133851598D01*
X159311598Y-133696877D01*
X159437102Y-133517639D01*
X159529575Y-133319330D01*
X159586207Y-133107977D01*
X159605233Y-132890500D01*
X159605277Y-132890002D01*
X159605277Y-132889997D01*
X159600772Y-132838502D01*
X159586207Y-132672023D01*
X159550452Y-132538583D01*
X159529577Y-132460677D01*
X159529576Y-132460676D01*
X159529575Y-132460670D01*
X159437102Y-132262362D01*
X159437100Y-132262359D01*
X159437099Y-132262357D01*
X159311599Y-132083124D01*
X159234636Y-132006161D01*
X159156877Y-131928402D01*
X158977639Y-131802898D01*
X158826414Y-131732381D01*
X158773977Y-131686210D01*
X158754825Y-131619016D01*
X158775041Y-131552135D01*
X158826414Y-131507618D01*
X158977639Y-131437102D01*
X159156877Y-131311598D01*
X159311598Y-131156877D01*
X159437102Y-130977639D01*
X159529575Y-130779330D01*
X159586207Y-130567977D01*
X159605277Y-130350000D01*
X159586207Y-130132023D01*
X159529575Y-129920670D01*
X159437102Y-129722362D01*
X159437100Y-129722359D01*
X159437099Y-129722357D01*
X159311599Y-129543124D01*
X159277797Y-129509322D01*
X159156877Y-129388402D01*
X158977639Y-129262898D01*
X158826414Y-129192381D01*
X158773977Y-129146210D01*
X158754825Y-129079016D01*
X158775041Y-129012135D01*
X158826414Y-128967618D01*
X158977639Y-128897102D01*
X159156877Y-128771598D01*
X159311598Y-128616877D01*
X159437102Y-128437639D01*
X159529575Y-128239330D01*
X159586207Y-128027977D01*
X159605277Y-127810000D01*
X159601660Y-127768661D01*
X159586207Y-127592023D01*
X159586206Y-127592020D01*
X159568760Y-127526912D01*
X159529575Y-127380670D01*
X159437102Y-127182362D01*
X159437100Y-127182359D01*
X159437099Y-127182357D01*
X159311599Y-127003124D01*
X159235050Y-126926575D01*
X159156877Y-126848402D01*
X159010733Y-126746071D01*
X158967112Y-126691497D01*
X158959919Y-126621998D01*
X158991441Y-126559644D01*
X159051671Y-126524230D01*
X159081859Y-126520499D01*
X159147872Y-126520499D01*
X159207483Y-126514091D01*
X159342331Y-126463796D01*
X159440340Y-126390426D01*
X159505802Y-126366009D01*
X159574075Y-126380860D01*
X159623481Y-126430265D01*
X159638334Y-126498537D01*
X159638178Y-126500499D01*
X159634723Y-126539996D01*
X159634723Y-126540002D01*
X159653793Y-126757975D01*
X159653793Y-126757979D01*
X159710422Y-126969322D01*
X159710424Y-126969326D01*
X159710425Y-126969330D01*
X159728790Y-127008713D01*
X159802897Y-127167638D01*
X159813206Y-127182361D01*
X159928402Y-127346877D01*
X160083123Y-127501598D01*
X160250717Y-127618949D01*
X160262361Y-127627102D01*
X160413583Y-127697618D01*
X160466022Y-127743790D01*
X160485174Y-127810984D01*
X160464958Y-127877865D01*
X160413583Y-127922382D01*
X160262361Y-127992898D01*
X160262357Y-127992900D01*
X160083121Y-128118402D01*
X159928402Y-128273121D01*
X159802900Y-128452357D01*
X159802898Y-128452361D01*
X159710426Y-128650668D01*
X159710422Y-128650677D01*
X159653793Y-128862020D01*
X159653793Y-128862024D01*
X159634723Y-129079997D01*
X159634723Y-129080002D01*
X159653793Y-129297975D01*
X159653793Y-129297979D01*
X159710422Y-129509322D01*
X159710424Y-129509326D01*
X159710425Y-129509330D01*
X159749304Y-129592707D01*
X159802897Y-129707638D01*
X159813206Y-129722361D01*
X159928402Y-129886877D01*
X160083123Y-130041598D01*
X160225938Y-130141598D01*
X160262361Y-130167102D01*
X160413583Y-130237618D01*
X160466022Y-130283790D01*
X160485174Y-130350984D01*
X160464958Y-130417865D01*
X160413583Y-130462382D01*
X160262361Y-130532898D01*
X160262357Y-130532900D01*
X160083121Y-130658402D01*
X159928402Y-130813121D01*
X159802900Y-130992357D01*
X159802898Y-130992361D01*
X159710426Y-131190668D01*
X159710422Y-131190677D01*
X159653793Y-131402020D01*
X159653793Y-131402023D01*
X159650724Y-131437101D01*
X159634723Y-131619997D01*
X159634723Y-131620002D01*
X159653793Y-131837975D01*
X159653793Y-131837979D01*
X159710422Y-132049322D01*
X159710424Y-132049326D01*
X159710425Y-132049330D01*
X159738418Y-132109361D01*
X159802897Y-132247638D01*
X159813206Y-132262361D01*
X159928402Y-132426877D01*
X160083123Y-132581598D01*
X160225935Y-132681596D01*
X160262361Y-132707102D01*
X160413583Y-132777618D01*
X160466022Y-132823790D01*
X160485174Y-132890984D01*
X160464958Y-132957865D01*
X160413583Y-133002382D01*
X160262361Y-133072898D01*
X160262357Y-133072900D01*
X160083121Y-133198402D01*
X159928402Y-133353121D01*
X159802900Y-133532357D01*
X159802898Y-133532361D01*
X159710426Y-133730668D01*
X159710422Y-133730677D01*
X159653793Y-133942020D01*
X159653793Y-133942023D01*
X159651587Y-133967236D01*
X159637680Y-134126206D01*
X159634723Y-134160000D01*
X159648709Y-134319870D01*
X159653793Y-134377975D01*
X159653793Y-134377979D01*
X159710422Y-134589322D01*
X159710424Y-134589326D01*
X159710425Y-134589330D01*
X159756661Y-134688484D01*
X159802897Y-134787638D01*
X159802898Y-134787639D01*
X159928402Y-134966877D01*
X160083123Y-135121598D01*
X160262361Y-135247102D01*
X160460670Y-135339575D01*
X160672023Y-135396207D01*
X160854926Y-135412208D01*
X160889998Y-135415277D01*
X160890000Y-135415277D01*
X160890002Y-135415277D01*
X160918254Y-135412805D01*
X161107977Y-135396207D01*
X161319330Y-135339575D01*
X161517639Y-135247102D01*
X161696877Y-135121598D01*
X161851598Y-134966877D01*
X161977102Y-134787639D01*
X162069575Y-134589330D01*
X162126207Y-134377977D01*
X162145277Y-134160000D01*
X162142320Y-134126206D01*
X162137366Y-134069573D01*
X162126207Y-133942023D01*
X162074415Y-133748733D01*
X162069577Y-133730677D01*
X162069576Y-133730676D01*
X162069575Y-133730670D01*
X161977102Y-133532362D01*
X161977100Y-133532359D01*
X161977099Y-133532357D01*
X161851599Y-133353124D01*
X161779022Y-133280547D01*
X161696877Y-133198402D01*
X161517639Y-133072898D01*
X161366414Y-133002381D01*
X161313977Y-132956210D01*
X161294825Y-132889016D01*
X161315041Y-132822135D01*
X161366414Y-132777618D01*
X161517639Y-132707102D01*
X161696877Y-132581598D01*
X161851598Y-132426877D01*
X161977102Y-132247639D01*
X162069575Y-132049330D01*
X162126207Y-131837977D01*
X162145277Y-131620000D01*
X162126207Y-131402023D01*
X162069575Y-131190670D01*
X161977102Y-130992362D01*
X161977100Y-130992359D01*
X161977099Y-130992357D01*
X161851599Y-130813124D01*
X161780065Y-130741590D01*
X161696877Y-130658402D01*
X161517639Y-130532898D01*
X161366414Y-130462381D01*
X161313977Y-130416210D01*
X161294825Y-130349016D01*
X161315041Y-130282135D01*
X161366414Y-130237618D01*
X161517639Y-130167102D01*
X161696877Y-130041598D01*
X161851598Y-129886877D01*
X161977102Y-129707639D01*
X162069575Y-129509330D01*
X162126207Y-129297977D01*
X162145277Y-129080000D01*
X162126207Y-128862023D01*
X162069575Y-128650670D01*
X161977102Y-128452362D01*
X161977100Y-128452359D01*
X161977099Y-128452357D01*
X161851599Y-128273124D01*
X161796877Y-128218402D01*
X161696877Y-128118402D01*
X161517639Y-127992898D01*
X161366414Y-127922381D01*
X161313977Y-127876210D01*
X161294825Y-127809016D01*
X161315041Y-127742135D01*
X161366414Y-127697618D01*
X161517639Y-127627102D01*
X161696877Y-127501598D01*
X161851598Y-127346877D01*
X161977102Y-127167639D01*
X162069575Y-126969330D01*
X162126207Y-126757977D01*
X162145277Y-126540000D01*
X162143897Y-126524230D01*
X162135766Y-126431290D01*
X162126207Y-126322023D01*
X162069575Y-126110670D01*
X161977102Y-125912362D01*
X161977100Y-125912359D01*
X161977099Y-125912357D01*
X161851599Y-125733124D01*
X161781238Y-125662763D01*
X161696877Y-125578402D01*
X161517639Y-125452898D01*
X161517640Y-125452898D01*
X161517638Y-125452897D01*
X161377568Y-125387582D01*
X161319330Y-125360425D01*
X161319326Y-125360424D01*
X161319322Y-125360422D01*
X161107977Y-125303793D01*
X160890002Y-125284723D01*
X160889998Y-125284723D01*
X160744682Y-125297436D01*
X160672023Y-125303793D01*
X160672020Y-125303793D01*
X160460677Y-125360422D01*
X160460668Y-125360426D01*
X160262361Y-125452898D01*
X160262357Y-125452900D01*
X160083121Y-125578402D01*
X159928405Y-125733118D01*
X159826074Y-125879262D01*
X159771497Y-125922887D01*
X159701998Y-125930079D01*
X159639644Y-125898557D01*
X159604230Y-125838327D01*
X159600499Y-125808144D01*
X159600499Y-124472128D01*
X159594091Y-124412517D01*
X159576990Y-124366668D01*
X159543797Y-124277671D01*
X159543793Y-124277664D01*
X159457547Y-124162455D01*
X159457544Y-124162452D01*
X159342335Y-124076206D01*
X159342328Y-124076202D01*
X159207482Y-124025908D01*
X159207483Y-124025908D01*
X159147883Y-124019501D01*
X159147881Y-124019500D01*
X159147873Y-124019500D01*
X159147864Y-124019500D01*
X157552129Y-124019500D01*
X157552123Y-124019501D01*
X157492516Y-124025908D01*
X157357671Y-124076202D01*
X157357664Y-124076206D01*
X157242455Y-124162452D01*
X157242452Y-124162455D01*
X157156206Y-124277664D01*
X157156202Y-124277671D01*
X157105908Y-124412517D01*
X157099501Y-124472116D01*
X157099500Y-124472127D01*
X157099500Y-126067870D01*
X157099501Y-126067876D01*
X157105908Y-126127483D01*
X157156202Y-126262328D01*
X157156206Y-126262335D01*
X157242452Y-126377544D01*
X157242455Y-126377547D01*
X157357664Y-126463793D01*
X157357671Y-126463797D01*
X157492517Y-126514091D01*
X157492516Y-126514091D01*
X157499444Y-126514835D01*
X157552127Y-126520500D01*
X157618139Y-126520499D01*
X157685176Y-126540183D01*
X157730932Y-126592986D01*
X157740876Y-126662144D01*
X157711852Y-126725700D01*
X157689262Y-126746074D01*
X157543118Y-126848405D01*
X157388402Y-127003121D01*
X157262900Y-127182357D01*
X157262898Y-127182361D01*
X157170426Y-127380668D01*
X157170422Y-127380677D01*
X157113793Y-127592020D01*
X157113793Y-127592023D01*
X157094723Y-127809997D01*
X157094723Y-127810002D01*
X157113793Y-128027975D01*
X157113793Y-128027979D01*
X157170422Y-128239322D01*
X157170424Y-128239326D01*
X157170425Y-128239330D01*
X157199975Y-128302700D01*
X157262897Y-128437638D01*
X157273206Y-128452361D01*
X157388402Y-128616877D01*
X157543123Y-128771598D01*
X157672265Y-128862024D01*
X157722361Y-128897102D01*
X157873583Y-128967618D01*
X157926022Y-129013790D01*
X157945174Y-129080984D01*
X157924958Y-129147865D01*
X157873583Y-129192382D01*
X157722361Y-129262898D01*
X157722357Y-129262900D01*
X157543121Y-129388402D01*
X157388402Y-129543121D01*
X157262900Y-129722357D01*
X157262898Y-129722361D01*
X157170426Y-129920668D01*
X157170422Y-129920677D01*
X157113793Y-130132020D01*
X157113793Y-130132024D01*
X157094723Y-130349997D01*
X157094723Y-130350002D01*
X157113793Y-130567975D01*
X157113793Y-130567979D01*
X157170422Y-130779322D01*
X157170424Y-130779326D01*
X157170425Y-130779330D01*
X157205217Y-130853942D01*
X157262897Y-130977638D01*
X157273206Y-130992361D01*
X157388402Y-131156877D01*
X157543123Y-131311598D01*
X157672265Y-131402024D01*
X157722361Y-131437102D01*
X157873583Y-131507618D01*
X157926022Y-131553790D01*
X157945174Y-131620984D01*
X157924958Y-131687865D01*
X157873583Y-131732382D01*
X157722361Y-131802898D01*
X157722357Y-131802900D01*
X157543121Y-131928402D01*
X157388402Y-132083121D01*
X157262900Y-132262357D01*
X157262898Y-132262361D01*
X157170426Y-132460668D01*
X157170422Y-132460677D01*
X157113793Y-132672020D01*
X157113793Y-132672023D01*
X157112955Y-132681598D01*
X157094723Y-132889997D01*
X157094723Y-132890002D01*
X143064000Y-132890002D01*
X143064000Y-121464400D01*
X143078203Y-121406775D01*
X143098494Y-121368113D01*
X143106236Y-121355306D01*
X143298278Y-121077085D01*
X143307501Y-121065313D01*
X143531690Y-120812254D01*
X143542254Y-120801690D01*
X143795313Y-120577501D01*
X143807085Y-120568278D01*
X144085306Y-120376236D01*
X144098103Y-120368498D01*
X144397462Y-120211383D01*
X144411094Y-120205249D01*
X144720103Y-120088058D01*
X144764074Y-120080000D01*
X147730603Y-120080000D01*
X147797642Y-120099685D01*
G37*
G04 #@! TD.AperFunction*
G04 #@! TA.AperFunction,Conductor*
G36*
X228148897Y-120088058D02*
G01*
X228457899Y-120205246D01*
X228471543Y-120211386D01*
X228770887Y-120368494D01*
X228783701Y-120376241D01*
X229061906Y-120568273D01*
X229073694Y-120577507D01*
X229326737Y-120801683D01*
X229337316Y-120812262D01*
X229468804Y-120960682D01*
X229561492Y-121065306D01*
X229570726Y-121077093D01*
X229762758Y-121355298D01*
X229770504Y-121368111D01*
X229790796Y-121406773D01*
X229805000Y-121464400D01*
X229805000Y-152215084D01*
X229785315Y-152282123D01*
X229732511Y-152327878D01*
X229682089Y-152339079D01*
X228036457Y-152353535D01*
X227969247Y-152334440D01*
X227923030Y-152282040D01*
X227912480Y-152212972D01*
X227940945Y-152149164D01*
X227947675Y-152141870D01*
X228049750Y-152039796D01*
X228299107Y-151735953D01*
X228517482Y-151409133D01*
X228702771Y-151062481D01*
X228853190Y-150699337D01*
X228967290Y-150323199D01*
X228967292Y-150323189D01*
X228967295Y-150323178D01*
X229043973Y-149937686D01*
X229066999Y-149703900D01*
X229082500Y-149546516D01*
X229082500Y-149153452D01*
X229043973Y-148762281D01*
X229038925Y-148736901D01*
X228967295Y-148376789D01*
X228967292Y-148376778D01*
X228967291Y-148376775D01*
X228967290Y-148376769D01*
X228853190Y-148000631D01*
X228702771Y-147637487D01*
X228517482Y-147290835D01*
X228299107Y-146964015D01*
X228049750Y-146660172D01*
X228049749Y-146660171D01*
X228049745Y-146660166D01*
X227771817Y-146382238D01*
X227467974Y-146132881D01*
X227467973Y-146132880D01*
X227467969Y-146132877D01*
X227141149Y-145914502D01*
X227141144Y-145914499D01*
X227141137Y-145914495D01*
X226880994Y-145775446D01*
X226831149Y-145726484D01*
X226815689Y-145658346D01*
X226839521Y-145592666D01*
X226866561Y-145565770D01*
X227001716Y-145467573D01*
X227164789Y-145304500D01*
X227164789Y-145304499D01*
X227300351Y-145117916D01*
X227405052Y-144912430D01*
X227476322Y-144693086D01*
X227491068Y-144599984D01*
X225682001Y-144599984D01*
X225707021Y-144539582D01*
X225732000Y-144414003D01*
X225732000Y-144285965D01*
X225707021Y-144160386D01*
X225682001Y-144099984D01*
X227491068Y-144099984D01*
X227476322Y-144006881D01*
X227405052Y-143787537D01*
X227300351Y-143582051D01*
X227164789Y-143395468D01*
X227164789Y-143395467D01*
X227001716Y-143232394D01*
X226815132Y-143096832D01*
X226609646Y-142992131D01*
X226390302Y-142920861D01*
X226162519Y-142884784D01*
X225332000Y-142884784D01*
X225332000Y-143749982D01*
X225271598Y-143724963D01*
X225146019Y-143699984D01*
X225017981Y-143699984D01*
X224892402Y-143724963D01*
X224832000Y-143749982D01*
X224832000Y-142884784D01*
X224001481Y-142884784D01*
X223773697Y-142920861D01*
X223554353Y-142992131D01*
X223348867Y-143096832D01*
X223162284Y-143232394D01*
X223162283Y-143232394D01*
X222999210Y-143395467D01*
X222999210Y-143395468D01*
X222863648Y-143582051D01*
X222758947Y-143787537D01*
X222687677Y-144006881D01*
X222672932Y-144099984D01*
X224481999Y-144099984D01*
X224456979Y-144160386D01*
X224432000Y-144285965D01*
X224432000Y-144414003D01*
X224456979Y-144539582D01*
X224481999Y-144599984D01*
X222672932Y-144599984D01*
X222687677Y-144693086D01*
X222758947Y-144912430D01*
X222863650Y-145117919D01*
X222888846Y-145152599D01*
X222912326Y-145218405D01*
X222896501Y-145286459D01*
X222846395Y-145335154D01*
X222788528Y-145349484D01*
X219175472Y-145349484D01*
X219108433Y-145329799D01*
X219062678Y-145276995D01*
X219052734Y-145207837D01*
X219075154Y-145152599D01*
X219100349Y-145117919D01*
X219205052Y-144912430D01*
X219276322Y-144693086D01*
X219291068Y-144599984D01*
X217482001Y-144599984D01*
X217507021Y-144539582D01*
X217532000Y-144414003D01*
X217532000Y-144285965D01*
X217507021Y-144160386D01*
X217482001Y-144099984D01*
X219291068Y-144099984D01*
X219276322Y-144006881D01*
X219205052Y-143787537D01*
X219100351Y-143582051D01*
X218964789Y-143395468D01*
X218964789Y-143395467D01*
X218801716Y-143232394D01*
X218615132Y-143096832D01*
X218409646Y-142992131D01*
X218190302Y-142920861D01*
X217962519Y-142884784D01*
X217132000Y-142884784D01*
X217132000Y-143749982D01*
X217071598Y-143724963D01*
X216946019Y-143699984D01*
X216817981Y-143699984D01*
X216692402Y-143724963D01*
X216632000Y-143749982D01*
X216632000Y-142884784D01*
X215801481Y-142884784D01*
X215573697Y-142920861D01*
X215354353Y-142992131D01*
X215148867Y-143096832D01*
X214962284Y-143232394D01*
X214962283Y-143232394D01*
X214799210Y-143395467D01*
X214799210Y-143395468D01*
X214663648Y-143582051D01*
X214558947Y-143787537D01*
X214487677Y-144006881D01*
X214472932Y-144099984D01*
X216281999Y-144099984D01*
X216256979Y-144160386D01*
X216232000Y-144285965D01*
X216232000Y-144414003D01*
X216256979Y-144539582D01*
X216281999Y-144599984D01*
X214472932Y-144599984D01*
X214487677Y-144693086D01*
X214558947Y-144912430D01*
X214663650Y-145117919D01*
X214688846Y-145152599D01*
X214712326Y-145218405D01*
X214696501Y-145286459D01*
X214646395Y-145335154D01*
X214588528Y-145349484D01*
X214120450Y-145349484D01*
X214053411Y-145329799D01*
X214032769Y-145313165D01*
X209818860Y-141099254D01*
X209515017Y-140849897D01*
X209515016Y-140849896D01*
X209515012Y-140849893D01*
X209382190Y-140761144D01*
X209188192Y-140631518D01*
X209188187Y-140631515D01*
X209188180Y-140631511D01*
X208841547Y-140446232D01*
X208841535Y-140446227D01*
X208837737Y-140444654D01*
X208824235Y-140439061D01*
X208769831Y-140395221D01*
X208747766Y-140328927D01*
X208765045Y-140261227D01*
X208816182Y-140213616D01*
X208871687Y-140200500D01*
X208994644Y-140200500D01*
X208994646Y-140200500D01*
X209179803Y-140161144D01*
X209352730Y-140084151D01*
X209505871Y-139972888D01*
X209632533Y-139832216D01*
X209642612Y-139814757D01*
X209693179Y-139766542D01*
X209761786Y-139753318D01*
X209826651Y-139779286D01*
X209857388Y-139814758D01*
X209867467Y-139832216D01*
X209994129Y-139972888D01*
X210147265Y-140084148D01*
X210147270Y-140084151D01*
X210320192Y-140161142D01*
X210320197Y-140161144D01*
X210505354Y-140200500D01*
X210505355Y-140200500D01*
X210694644Y-140200500D01*
X210694646Y-140200500D01*
X210879803Y-140161144D01*
X211052730Y-140084151D01*
X211205871Y-139972888D01*
X211332533Y-139832216D01*
X211427179Y-139668284D01*
X211485674Y-139488256D01*
X211505460Y-139300000D01*
X211485674Y-139111744D01*
X211427179Y-138931716D01*
X211332533Y-138767784D01*
X211332344Y-138767574D01*
X211332273Y-138767427D01*
X211328714Y-138762528D01*
X211329610Y-138761876D01*
X211302119Y-138704580D01*
X211300500Y-138684608D01*
X211300500Y-136900097D01*
X211320185Y-136833058D01*
X211336819Y-136812416D01*
X212289488Y-135859747D01*
X212496301Y-135652934D01*
X219024500Y-135652934D01*
X219043569Y-135797770D01*
X219056591Y-135896677D01*
X219120222Y-136134152D01*
X219120225Y-136134162D01*
X219172885Y-136261294D01*
X219214306Y-136361292D01*
X219337233Y-136574208D01*
X219337235Y-136574211D01*
X219337236Y-136574212D01*
X219486897Y-136769254D01*
X219486903Y-136769261D01*
X219660738Y-136943096D01*
X219660745Y-136943102D01*
X219760911Y-137019962D01*
X219855792Y-137092767D01*
X220068708Y-137215694D01*
X220244384Y-137288461D01*
X220285516Y-137305499D01*
X220295847Y-137309778D01*
X220533323Y-137373409D01*
X220777073Y-137405500D01*
X220777080Y-137405500D01*
X221022920Y-137405500D01*
X221022927Y-137405500D01*
X221266677Y-137373409D01*
X221504153Y-137309778D01*
X221731292Y-137215694D01*
X221778766Y-137188284D01*
X221846665Y-137171811D01*
X221912692Y-137194663D01*
X221955883Y-137249583D01*
X221964450Y-137304517D01*
X221944390Y-137584998D01*
X221944390Y-137585001D01*
X221964804Y-137870433D01*
X222025628Y-138150037D01*
X222025630Y-138150043D01*
X222025631Y-138150046D01*
X222099767Y-138348811D01*
X222125635Y-138418166D01*
X222262770Y-138669309D01*
X222262775Y-138669317D01*
X222434254Y-138898387D01*
X222434270Y-138898405D01*
X222636594Y-139100729D01*
X222636612Y-139100745D01*
X222865682Y-139272224D01*
X222865690Y-139272229D01*
X223116833Y-139409364D01*
X223116832Y-139409364D01*
X223116836Y-139409365D01*
X223116839Y-139409367D01*
X223384954Y-139509369D01*
X223384960Y-139509370D01*
X223384962Y-139509371D01*
X223664566Y-139570195D01*
X223664568Y-139570195D01*
X223664572Y-139570196D01*
X223918220Y-139588337D01*
X223949999Y-139590610D01*
X223950000Y-139590610D01*
X223950001Y-139590610D01*
X223978595Y-139588564D01*
X224235428Y-139570196D01*
X224515046Y-139509369D01*
X224783161Y-139409367D01*
X225034315Y-139272226D01*
X225263395Y-139100739D01*
X225465739Y-138898395D01*
X225637226Y-138669315D01*
X225774367Y-138418161D01*
X225874369Y-138150046D01*
X225885777Y-138097603D01*
X225935195Y-137870433D01*
X225935195Y-137870432D01*
X225935196Y-137870428D01*
X225955610Y-137585000D01*
X225935196Y-137299572D01*
X225915662Y-137209777D01*
X225874371Y-137019962D01*
X225874370Y-137019960D01*
X225874369Y-137019954D01*
X225774367Y-136751839D01*
X225728978Y-136668716D01*
X225637229Y-136500690D01*
X225637224Y-136500682D01*
X225465745Y-136271612D01*
X225465729Y-136271594D01*
X225263405Y-136069270D01*
X225263387Y-136069254D01*
X225034317Y-135897775D01*
X225034309Y-135897770D01*
X224783166Y-135760635D01*
X224783167Y-135760635D01*
X224675915Y-135720632D01*
X224515046Y-135660631D01*
X224515043Y-135660630D01*
X224515037Y-135660628D01*
X224235433Y-135599804D01*
X223950001Y-135579390D01*
X223949999Y-135579390D01*
X223664566Y-135599804D01*
X223384962Y-135660628D01*
X223116832Y-135760635D01*
X222948008Y-135852821D01*
X222879735Y-135867673D01*
X222814270Y-135843256D01*
X222772399Y-135787322D01*
X222765642Y-135727803D01*
X222769719Y-135696840D01*
X222775500Y-135652927D01*
X222775500Y-135407073D01*
X222743409Y-135163323D01*
X222679778Y-134925847D01*
X222585694Y-134698708D01*
X222462767Y-134485792D01*
X222313101Y-134290744D01*
X222313096Y-134290738D01*
X222139261Y-134116903D01*
X222139254Y-134116897D01*
X221944212Y-133967236D01*
X221944211Y-133967235D01*
X221944208Y-133967233D01*
X221743922Y-133851598D01*
X221731294Y-133844307D01*
X221731285Y-133844303D01*
X221504162Y-133750225D01*
X221504155Y-133750223D01*
X221504153Y-133750222D01*
X221266677Y-133686591D01*
X221225939Y-133681227D01*
X221022934Y-133654500D01*
X221022927Y-133654500D01*
X220777073Y-133654500D01*
X220777065Y-133654500D01*
X220545059Y-133685045D01*
X220533323Y-133686591D01*
X220482918Y-133700097D01*
X220295847Y-133750222D01*
X220295837Y-133750225D01*
X220068714Y-133844303D01*
X220068705Y-133844307D01*
X219855787Y-133967236D01*
X219660745Y-134116897D01*
X219660738Y-134116903D01*
X219486903Y-134290738D01*
X219486897Y-134290745D01*
X219337236Y-134485787D01*
X219214307Y-134698705D01*
X219214303Y-134698714D01*
X219120225Y-134925837D01*
X219120222Y-134925847D01*
X219067773Y-135121593D01*
X219056592Y-135163320D01*
X219056590Y-135163331D01*
X219024500Y-135407065D01*
X219024500Y-135652934D01*
X212496301Y-135652934D01*
X213096284Y-135052950D01*
X213157606Y-135019467D01*
X213227298Y-135024451D01*
X213283231Y-135066323D01*
X213304640Y-135112115D01*
X213305908Y-135117481D01*
X213356202Y-135252328D01*
X213356206Y-135252335D01*
X213442452Y-135367544D01*
X213442455Y-135367547D01*
X213557664Y-135453793D01*
X213557671Y-135453797D01*
X213692517Y-135504091D01*
X213692516Y-135504091D01*
X213699444Y-135504835D01*
X213752127Y-135510500D01*
X215347872Y-135510499D01*
X215407483Y-135504091D01*
X215542331Y-135453796D01*
X215657546Y-135367546D01*
X215743796Y-135252331D01*
X215794091Y-135117483D01*
X215800500Y-135057873D01*
X215800499Y-133462128D01*
X215794091Y-133402517D01*
X215778608Y-133361006D01*
X215743797Y-133267671D01*
X215743793Y-133267664D01*
X215657547Y-133152455D01*
X215657544Y-133152452D01*
X215542335Y-133066206D01*
X215542328Y-133066202D01*
X215407482Y-133015908D01*
X215407483Y-133015908D01*
X215347883Y-133009501D01*
X215347881Y-133009500D01*
X215347873Y-133009500D01*
X215347865Y-133009500D01*
X215281862Y-133009500D01*
X215214823Y-132989815D01*
X215169068Y-132937011D01*
X215159124Y-132867853D01*
X215188149Y-132804297D01*
X215210734Y-132783928D01*
X215356877Y-132681598D01*
X215511598Y-132526877D01*
X215637102Y-132347639D01*
X215729575Y-132149330D01*
X215786207Y-131937977D01*
X215805277Y-131720000D01*
X215804439Y-131710425D01*
X215796614Y-131620984D01*
X215786207Y-131502023D01*
X215729575Y-131290670D01*
X215637102Y-131092362D01*
X215637100Y-131092359D01*
X215637099Y-131092357D01*
X215511599Y-130913124D01*
X215444307Y-130845832D01*
X215356877Y-130758402D01*
X215177639Y-130632898D01*
X215026414Y-130562381D01*
X214973977Y-130516210D01*
X214954825Y-130449016D01*
X214975041Y-130382135D01*
X215026414Y-130337618D01*
X215177639Y-130267102D01*
X215356877Y-130141598D01*
X215511598Y-129986877D01*
X215637102Y-129807639D01*
X215729575Y-129609330D01*
X215786207Y-129397977D01*
X215805277Y-129180000D01*
X215804439Y-129170425D01*
X215796614Y-129080984D01*
X215786207Y-128962023D01*
X215729575Y-128750670D01*
X215637102Y-128552362D01*
X215637100Y-128552359D01*
X215637099Y-128552357D01*
X215511599Y-128373124D01*
X215441175Y-128302700D01*
X215356877Y-128218402D01*
X215177639Y-128092898D01*
X215026414Y-128022381D01*
X214973977Y-127976210D01*
X214954825Y-127909016D01*
X214975041Y-127842135D01*
X215026414Y-127797618D01*
X215177639Y-127727102D01*
X215356877Y-127601598D01*
X215511598Y-127446877D01*
X215619081Y-127293374D01*
X215673657Y-127249751D01*
X215720655Y-127240500D01*
X215739903Y-127240500D01*
X215806942Y-127260185D01*
X215827584Y-127276819D01*
X216815139Y-128264374D01*
X216815149Y-128264385D01*
X216819479Y-128268715D01*
X216819480Y-128268716D01*
X216931284Y-128380520D01*
X217009049Y-128425417D01*
X217055716Y-128452361D01*
X217068215Y-128459577D01*
X217220943Y-128500500D01*
X217813331Y-128500500D01*
X217813347Y-128500501D01*
X217820943Y-128500501D01*
X217979054Y-128500501D01*
X217979057Y-128500501D01*
X218131785Y-128459577D01*
X218190951Y-128425417D01*
X218268716Y-128380520D01*
X218380520Y-128268716D01*
X218380520Y-128268714D01*
X218390724Y-128258511D01*
X218390728Y-128258506D01*
X218958506Y-127690728D01*
X218958511Y-127690724D01*
X218968714Y-127680520D01*
X218968716Y-127680520D01*
X219080520Y-127568716D01*
X219159577Y-127431784D01*
X219197090Y-127291784D01*
X219200500Y-127279058D01*
X219200500Y-127120943D01*
X219200500Y-126889060D01*
X219200501Y-126889047D01*
X219200501Y-126720944D01*
X219196156Y-126704727D01*
X219159577Y-126568216D01*
X219134182Y-126524230D01*
X219080524Y-126431290D01*
X219080518Y-126431282D01*
X218572123Y-125922887D01*
X218061415Y-125412180D01*
X218027931Y-125350858D01*
X218032915Y-125281166D01*
X218074787Y-125225233D01*
X218140251Y-125200816D01*
X218149097Y-125200500D01*
X218263331Y-125200500D01*
X218263347Y-125200501D01*
X218270943Y-125200501D01*
X218429054Y-125200501D01*
X218429057Y-125200501D01*
X218581785Y-125159577D01*
X218631904Y-125130639D01*
X218718716Y-125080520D01*
X218830520Y-124968716D01*
X218830521Y-124968714D01*
X218981636Y-124817598D01*
X219042957Y-124784115D01*
X219112649Y-124789099D01*
X219168582Y-124830971D01*
X219183876Y-124857828D01*
X219214303Y-124931285D01*
X219214306Y-124931292D01*
X219337233Y-125144208D01*
X219337235Y-125144211D01*
X219337236Y-125144212D01*
X219486897Y-125339254D01*
X219486903Y-125339261D01*
X219660738Y-125513096D01*
X219660745Y-125513102D01*
X219725470Y-125562767D01*
X219855792Y-125662767D01*
X220068708Y-125785694D01*
X220244384Y-125858461D01*
X220285516Y-125875499D01*
X220295847Y-125879778D01*
X220533323Y-125943409D01*
X220777073Y-125975500D01*
X220777080Y-125975500D01*
X221022920Y-125975500D01*
X221022927Y-125975500D01*
X221266677Y-125943409D01*
X221504153Y-125879778D01*
X221731292Y-125785694D01*
X221944208Y-125662767D01*
X222139256Y-125513101D01*
X222313101Y-125339256D01*
X222462767Y-125144208D01*
X222585694Y-124931292D01*
X222679778Y-124704153D01*
X222743409Y-124466677D01*
X222775500Y-124222927D01*
X222775500Y-123977073D01*
X222765642Y-123902195D01*
X222776407Y-123833160D01*
X222822787Y-123780904D01*
X222890056Y-123762019D01*
X222948008Y-123777178D01*
X223116833Y-123869364D01*
X223116832Y-123869364D01*
X223116836Y-123869365D01*
X223116839Y-123869367D01*
X223384954Y-123969369D01*
X223384960Y-123969370D01*
X223384962Y-123969371D01*
X223664566Y-124030195D01*
X223664568Y-124030195D01*
X223664572Y-124030196D01*
X223918220Y-124048337D01*
X223949999Y-124050610D01*
X223950000Y-124050610D01*
X223950001Y-124050610D01*
X223978595Y-124048564D01*
X224235428Y-124030196D01*
X224284593Y-124019501D01*
X224515037Y-123969371D01*
X224515037Y-123969370D01*
X224515046Y-123969369D01*
X224783161Y-123869367D01*
X225034315Y-123732226D01*
X225263395Y-123560739D01*
X225465739Y-123358395D01*
X225637226Y-123129315D01*
X225774367Y-122878161D01*
X225874369Y-122610046D01*
X225890208Y-122537236D01*
X225935195Y-122330433D01*
X225935195Y-122330432D01*
X225935196Y-122330428D01*
X225955610Y-122045000D01*
X225935196Y-121759572D01*
X225930252Y-121736847D01*
X225874371Y-121479962D01*
X225874370Y-121479960D01*
X225874369Y-121479954D01*
X225774367Y-121211839D01*
X225767902Y-121200000D01*
X225637229Y-120960690D01*
X225637224Y-120960682D01*
X225465745Y-120731612D01*
X225465729Y-120731594D01*
X225263405Y-120529270D01*
X225263387Y-120529254D01*
X225034317Y-120357775D01*
X225034309Y-120357770D01*
X224952011Y-120312832D01*
X224902606Y-120263427D01*
X224887754Y-120195154D01*
X224912171Y-120129689D01*
X224968105Y-120087818D01*
X225011438Y-120080000D01*
X228104926Y-120080000D01*
X228148897Y-120088058D01*
G37*
G04 #@! TD.AperFunction*
M02*
