G04 #@! TF.GenerationSoftware,KiCad,Pcbnew,8.0.0*
G04 #@! TF.CreationDate,2024-08-30T12:49:36-05:00*
G04 #@! TF.ProjectId,led_segment,6c65645f-7365-4676-9d65-6e742e6b6963,rev?*
G04 #@! TF.SameCoordinates,Original*
G04 #@! TF.FileFunction,Soldermask,Top*
G04 #@! TF.FilePolarity,Negative*
%FSLAX46Y46*%
G04 Gerber Fmt 4.6, Leading zero omitted, Abs format (unit mm)*
G04 Created by KiCad (PCBNEW 8.0.0) date 2024-08-30 12:49:36*
%MOMM*%
%LPD*%
G01*
G04 APERTURE LIST*
G04 Aperture macros list*
%AMRoundRect*
0 Rectangle with rounded corners*
0 $1 Rounding radius*
0 $2 $3 $4 $5 $6 $7 $8 $9 X,Y pos of 4 corners*
0 Add a 4 corners polygon primitive as box body*
4,1,4,$2,$3,$4,$5,$6,$7,$8,$9,$2,$3,0*
0 Add four circle primitives for the rounded corners*
1,1,$1+$1,$2,$3*
1,1,$1+$1,$4,$5*
1,1,$1+$1,$6,$7*
1,1,$1+$1,$8,$9*
0 Add four rect primitives between the rounded corners*
20,1,$1+$1,$2,$3,$4,$5,0*
20,1,$1+$1,$4,$5,$6,$7,0*
20,1,$1+$1,$6,$7,$8,$9,0*
20,1,$1+$1,$8,$9,$2,$3,0*%
G04 Aperture macros list end*
%ADD10C,3.200000*%
%ADD11RoundRect,0.250000X0.312500X0.625000X-0.312500X0.625000X-0.312500X-0.625000X0.312500X-0.625000X0*%
%ADD12R,1.800000X1.800000*%
%ADD13C,1.800000*%
%ADD14RoundRect,0.250000X-0.312500X-0.625000X0.312500X-0.625000X0.312500X0.625000X-0.312500X0.625000X0*%
%ADD15R,1.500000X1.000000*%
%ADD16C,2.804000*%
%ADD17C,3.104000*%
%ADD18O,4.064800X2.134400*%
%ADD19C,3.250000*%
%ADD20R,1.500000X1.500000*%
%ADD21C,1.500000*%
%ADD22C,3.000000*%
%ADD23RoundRect,0.250000X-0.250000X-0.475000X0.250000X-0.475000X0.250000X0.475000X-0.250000X0.475000X0*%
%ADD24RoundRect,0.150000X-0.825000X-0.150000X0.825000X-0.150000X0.825000X0.150000X-0.825000X0.150000X0*%
%ADD25RoundRect,0.250000X0.750000X1.400000X-0.750000X1.400000X-0.750000X-1.400000X0.750000X-1.400000X0*%
%ADD26RoundRect,0.250000X0.350000X-0.850000X0.350000X0.850000X-0.350000X0.850000X-0.350000X-0.850000X0*%
%ADD27RoundRect,0.249997X2.650003X-2.950003X2.650003X2.950003X-2.650003X2.950003X-2.650003X-2.950003X0*%
%ADD28RoundRect,0.250000X-0.620000X-0.845000X0.620000X-0.845000X0.620000X0.845000X-0.620000X0.845000X0*%
%ADD29O,1.740000X2.190000*%
G04 APERTURE END LIST*
D10*
X204100000Y-123300000D03*
X168100000Y-150300000D03*
X205000000Y-150300000D03*
D11*
X204000000Y-128100000D03*
X201075000Y-128100000D03*
D12*
X193525000Y-122600000D03*
D13*
X196065000Y-122600000D03*
D14*
X194325000Y-141500000D03*
X197250000Y-141500000D03*
D15*
X177038000Y-146827000D03*
X177038000Y-145527000D03*
X187960000Y-146827000D03*
X187960000Y-145527000D03*
D16*
X176024000Y-138881000D03*
D17*
X176024000Y-128581000D03*
D16*
X168524000Y-138881000D03*
D17*
X168524000Y-128581000D03*
D18*
X156090000Y-149276000D03*
X147890000Y-149276000D03*
X156090000Y-144276000D03*
X147890000Y-144276000D03*
D15*
X179832000Y-146827000D03*
X179832000Y-145527000D03*
D19*
X220900000Y-135530000D03*
X220900000Y-124100000D03*
D20*
X214550000Y-134260000D03*
D21*
X212010000Y-132990000D03*
X214550000Y-131720000D03*
X212010000Y-130450000D03*
X214550000Y-129180000D03*
X212010000Y-127910000D03*
X214550000Y-126640000D03*
X212010000Y-125370000D03*
D22*
X223950000Y-137585000D03*
X223950000Y-122045000D03*
D23*
X194698000Y-137742000D03*
X196598000Y-137742000D03*
D24*
X201797000Y-131773000D03*
X201797000Y-133043000D03*
X201797000Y-134313000D03*
X201797000Y-135583000D03*
X206747000Y-135583000D03*
X206747000Y-134313000D03*
X206747000Y-133043000D03*
X206747000Y-131773000D03*
D23*
X198750000Y-137742000D03*
X200650000Y-137742000D03*
D25*
X184098000Y-137352000D03*
X190298000Y-137352000D03*
D18*
X216882000Y-144349984D03*
X225082000Y-144349984D03*
X216882000Y-149349984D03*
X225082000Y-149349984D03*
D15*
X193294000Y-146812000D03*
X193294000Y-145512000D03*
X182626000Y-146827000D03*
X182626000Y-145527000D03*
D26*
X194378000Y-134694000D03*
D27*
X196658000Y-128394000D03*
D26*
X198938000Y-134694000D03*
D15*
X179900000Y-126250000D03*
X179900000Y-127550000D03*
X195961000Y-146827000D03*
X195961000Y-145527000D03*
D19*
X152000000Y-124000000D03*
X152000000Y-135430000D03*
D20*
X158350000Y-125270000D03*
D21*
X160890000Y-126540000D03*
X158350000Y-127810000D03*
X160890000Y-129080000D03*
X158350000Y-130350000D03*
X160890000Y-131620000D03*
X158350000Y-132890000D03*
X160890000Y-134160000D03*
D22*
X148950000Y-121945000D03*
X148950000Y-137485000D03*
D28*
X183134000Y-131776500D03*
D29*
X185674000Y-131776500D03*
X188214000Y-131776500D03*
X190754000Y-131776500D03*
D15*
X190627000Y-146812000D03*
X190627000Y-145512000D03*
X185278000Y-146827000D03*
X185278000Y-145527000D03*
M02*
