G04 #@! TF.GenerationSoftware,KiCad,Pcbnew,8.0.0*
G04 #@! TF.CreationDate,2024-08-30T12:49:36-05:00*
G04 #@! TF.ProjectId,led_segment,6c65645f-7365-4676-9d65-6e742e6b6963,rev?*
G04 #@! TF.SameCoordinates,Original*
G04 #@! TF.FileFunction,Copper,L1,Top*
G04 #@! TF.FilePolarity,Positive*
%FSLAX46Y46*%
G04 Gerber Fmt 4.6, Leading zero omitted, Abs format (unit mm)*
G04 Created by KiCad (PCBNEW 8.0.0) date 2024-08-30 12:49:36*
%MOMM*%
%LPD*%
G01*
G04 APERTURE LIST*
G04 Aperture macros list*
%AMRoundRect*
0 Rectangle with rounded corners*
0 $1 Rounding radius*
0 $2 $3 $4 $5 $6 $7 $8 $9 X,Y pos of 4 corners*
0 Add a 4 corners polygon primitive as box body*
4,1,4,$2,$3,$4,$5,$6,$7,$8,$9,$2,$3,0*
0 Add four circle primitives for the rounded corners*
1,1,$1+$1,$2,$3*
1,1,$1+$1,$4,$5*
1,1,$1+$1,$6,$7*
1,1,$1+$1,$8,$9*
0 Add four rect primitives between the rounded corners*
20,1,$1+$1,$2,$3,$4,$5,0*
20,1,$1+$1,$4,$5,$6,$7,0*
20,1,$1+$1,$6,$7,$8,$9,0*
20,1,$1+$1,$8,$9,$2,$3,0*%
G04 Aperture macros list end*
G04 #@! TA.AperFunction,SMDPad,CuDef*
%ADD10RoundRect,0.250000X0.312500X0.625000X-0.312500X0.625000X-0.312500X-0.625000X0.312500X-0.625000X0*%
G04 #@! TD*
G04 #@! TA.AperFunction,ComponentPad*
%ADD11R,1.800000X1.800000*%
G04 #@! TD*
G04 #@! TA.AperFunction,ComponentPad*
%ADD12C,1.800000*%
G04 #@! TD*
G04 #@! TA.AperFunction,SMDPad,CuDef*
%ADD13RoundRect,0.250000X-0.312500X-0.625000X0.312500X-0.625000X0.312500X0.625000X-0.312500X0.625000X0*%
G04 #@! TD*
G04 #@! TA.AperFunction,SMDPad,CuDef*
%ADD14R,1.500000X1.000000*%
G04 #@! TD*
G04 #@! TA.AperFunction,ComponentPad*
%ADD15C,2.600000*%
G04 #@! TD*
G04 #@! TA.AperFunction,ComponentPad*
%ADD16C,2.900000*%
G04 #@! TD*
G04 #@! TA.AperFunction,ComponentPad*
%ADD17O,3.860800X1.930400*%
G04 #@! TD*
G04 #@! TA.AperFunction,ComponentPad*
%ADD18R,1.500000X1.500000*%
G04 #@! TD*
G04 #@! TA.AperFunction,ComponentPad*
%ADD19C,1.500000*%
G04 #@! TD*
G04 #@! TA.AperFunction,ComponentPad*
%ADD20C,3.000000*%
G04 #@! TD*
G04 #@! TA.AperFunction,SMDPad,CuDef*
%ADD21RoundRect,0.250000X-0.250000X-0.475000X0.250000X-0.475000X0.250000X0.475000X-0.250000X0.475000X0*%
G04 #@! TD*
G04 #@! TA.AperFunction,SMDPad,CuDef*
%ADD22RoundRect,0.150000X-0.825000X-0.150000X0.825000X-0.150000X0.825000X0.150000X-0.825000X0.150000X0*%
G04 #@! TD*
G04 #@! TA.AperFunction,SMDPad,CuDef*
%ADD23RoundRect,0.250000X0.750000X1.400000X-0.750000X1.400000X-0.750000X-1.400000X0.750000X-1.400000X0*%
G04 #@! TD*
G04 #@! TA.AperFunction,SMDPad,CuDef*
%ADD24RoundRect,0.250000X0.350000X-0.850000X0.350000X0.850000X-0.350000X0.850000X-0.350000X-0.850000X0*%
G04 #@! TD*
G04 #@! TA.AperFunction,SMDPad,CuDef*
%ADD25RoundRect,0.250000X1.125000X-1.275000X1.125000X1.275000X-1.125000X1.275000X-1.125000X-1.275000X0*%
G04 #@! TD*
G04 #@! TA.AperFunction,SMDPad,CuDef*
%ADD26RoundRect,0.249997X2.650003X-2.950003X2.650003X2.950003X-2.650003X2.950003X-2.650003X-2.950003X0*%
G04 #@! TD*
G04 #@! TA.AperFunction,ComponentPad*
%ADD27RoundRect,0.250000X-0.620000X-0.845000X0.620000X-0.845000X0.620000X0.845000X-0.620000X0.845000X0*%
G04 #@! TD*
G04 #@! TA.AperFunction,ComponentPad*
%ADD28O,1.740000X2.190000*%
G04 #@! TD*
G04 #@! TA.AperFunction,ViaPad*
%ADD29C,0.800000*%
G04 #@! TD*
G04 #@! TA.AperFunction,Conductor*
%ADD30C,0.250000*%
G04 #@! TD*
G04 #@! TA.AperFunction,Conductor*
%ADD31C,0.200000*%
G04 #@! TD*
G04 APERTURE END LIST*
D10*
X204000000Y-128100000D03*
X201075000Y-128100000D03*
D11*
X193525000Y-122600000D03*
D12*
X196065000Y-122600000D03*
D13*
X194325000Y-141500000D03*
X197250000Y-141500000D03*
D14*
X177038000Y-146827000D03*
X177038000Y-145527000D03*
X187960000Y-146827000D03*
X187960000Y-145527000D03*
D15*
X176024000Y-138881000D03*
D16*
X176024000Y-128581000D03*
D15*
X168524000Y-138881000D03*
D16*
X168524000Y-128581000D03*
D17*
X156090000Y-149276000D03*
X147890000Y-149276000D03*
X156090000Y-144276000D03*
X147890000Y-144276000D03*
D14*
X179832000Y-146827000D03*
X179832000Y-145527000D03*
D18*
X214550000Y-134260000D03*
D19*
X212010000Y-132990000D03*
X214550000Y-131720000D03*
X212010000Y-130450000D03*
X214550000Y-129180000D03*
X212010000Y-127910000D03*
X214550000Y-126640000D03*
X212010000Y-125370000D03*
D20*
X223950000Y-137585000D03*
X223950000Y-122045000D03*
D21*
X194698000Y-137742000D03*
X196598000Y-137742000D03*
D22*
X201797000Y-131773000D03*
X201797000Y-133043000D03*
X201797000Y-134313000D03*
X201797000Y-135583000D03*
X206747000Y-135583000D03*
X206747000Y-134313000D03*
X206747000Y-133043000D03*
X206747000Y-131773000D03*
D21*
X198750000Y-137742000D03*
X200650000Y-137742000D03*
D23*
X184098000Y-137352000D03*
X190298000Y-137352000D03*
D17*
X216882000Y-144349984D03*
X225082000Y-144349984D03*
X216882000Y-149349984D03*
X225082000Y-149349984D03*
D14*
X193294000Y-146812000D03*
X193294000Y-145512000D03*
X182626000Y-146827000D03*
X182626000Y-145527000D03*
D24*
X194378000Y-134694000D03*
D25*
X195133000Y-130069000D03*
X198183000Y-130069000D03*
D26*
X196658000Y-128394000D03*
D25*
X195133000Y-126719000D03*
X198183000Y-126719000D03*
D24*
X198938000Y-134694000D03*
D14*
X179900000Y-126250000D03*
X179900000Y-127550000D03*
X195961000Y-146827000D03*
X195961000Y-145527000D03*
D18*
X158350000Y-125270000D03*
D19*
X160890000Y-126540000D03*
X158350000Y-127810000D03*
X160890000Y-129080000D03*
X158350000Y-130350000D03*
X160890000Y-131620000D03*
X158350000Y-132890000D03*
X160890000Y-134160000D03*
D20*
X148950000Y-121945000D03*
X148950000Y-137485000D03*
D27*
X183134000Y-131776500D03*
D28*
X185674000Y-131776500D03*
X188214000Y-131776500D03*
X190754000Y-131776500D03*
D14*
X190627000Y-146812000D03*
X190627000Y-145512000D03*
X185278000Y-146827000D03*
X185278000Y-145527000D03*
D29*
X210600000Y-139300000D03*
X209700000Y-138500000D03*
X208900000Y-139300000D03*
X208100000Y-138500000D03*
X207300000Y-139300000D03*
X206600000Y-138500000D03*
X201738000Y-130240000D03*
X205900000Y-139300000D03*
X197700000Y-143200000D03*
X192900000Y-139900000D03*
X205100000Y-138500000D03*
X187960000Y-144272000D03*
X193294000Y-144272000D03*
X182626000Y-144272000D03*
X177038000Y-144145000D03*
X190627000Y-144272000D03*
X195961000Y-144272000D03*
X185293000Y-144272000D03*
X179832000Y-144145000D03*
D30*
X200150062Y-137242062D02*
X200650000Y-137742000D01*
X200150062Y-135567030D02*
X200150062Y-137242062D01*
X201404092Y-134313000D02*
X200150062Y-135567030D01*
X201797000Y-134313000D02*
X201404092Y-134313000D01*
X208100000Y-135204999D02*
X207721999Y-135583000D01*
X207772908Y-132418000D02*
X208100000Y-132745092D01*
X208100000Y-132745092D02*
X208100000Y-135204999D01*
X201797000Y-134313000D02*
X203692000Y-132418000D01*
X203692000Y-132418000D02*
X207772908Y-132418000D01*
X207721999Y-135583000D02*
X206747000Y-135583000D01*
X204000000Y-128100000D02*
X204000000Y-129026000D01*
X204000000Y-129026000D02*
X206747000Y-131773000D01*
X202852695Y-128100000D02*
X200388802Y-130563893D01*
X200388802Y-130563893D02*
X200388802Y-133400000D01*
X204000000Y-128100000D02*
X202852695Y-128100000D01*
X200388802Y-134555710D02*
X200388802Y-133400000D01*
X199604290Y-134555710D02*
X200388802Y-134555710D01*
X199202000Y-134958000D02*
X199604290Y-134555710D01*
X198938000Y-134694000D02*
X199202000Y-134958000D01*
X201075000Y-126337208D02*
X201075000Y-128100000D01*
X196065000Y-122600000D02*
X197337792Y-122600000D01*
X197337792Y-122600000D02*
X201075000Y-126337208D01*
X183134000Y-131776500D02*
X183134000Y-136388000D01*
X183134000Y-136388000D02*
X184098000Y-137352000D01*
X190298000Y-137352000D02*
X190298000Y-132232500D01*
X209183000Y-135583000D02*
X206747000Y-135583000D01*
X216882000Y-141982000D02*
X216000000Y-141100000D01*
X216882000Y-144349984D02*
X216882000Y-141982000D01*
X216000000Y-141100000D02*
X214700000Y-141100000D01*
X214700000Y-141100000D02*
X209183000Y-135583000D01*
X193525000Y-125261000D02*
X196658000Y-128394000D01*
X193525000Y-122600000D02*
X193525000Y-125261000D01*
D31*
X177038000Y-146827000D02*
X176611000Y-146400000D01*
X174562632Y-146620000D02*
X174562632Y-147230000D01*
X160900000Y-145200000D02*
X160000000Y-145200000D01*
X173462632Y-146400000D02*
X173462632Y-147230000D01*
X154000000Y-139200000D02*
X154000000Y-129620000D01*
X174012632Y-146620000D02*
X174012632Y-145570000D01*
X154000000Y-129620000D02*
X158350000Y-125270000D01*
X162100000Y-146400000D02*
X160900000Y-145200000D01*
X173462632Y-145570000D02*
X173462632Y-146400000D01*
X172582632Y-146400000D02*
X171910969Y-146400000D01*
X176611000Y-146400000D02*
X174782632Y-146400000D01*
X171910969Y-146400000D02*
X162100000Y-146400000D01*
X174012632Y-147230000D02*
X174012632Y-146620000D01*
X172692632Y-146400000D02*
X172582632Y-146400000D01*
X173242632Y-147450000D02*
X173132632Y-147450000D01*
X160000000Y-145200000D02*
X154000000Y-139200000D01*
X173792632Y-145350000D02*
X173682632Y-145350000D01*
X172912632Y-147230000D02*
X172912632Y-146620000D01*
X174342632Y-147450000D02*
X174232632Y-147450000D01*
X174012632Y-145570000D02*
G75*
G03*
X173792632Y-145349968I-220032J0D01*
G01*
X173682632Y-145350000D02*
G75*
G03*
X173462600Y-145570000I-32J-220000D01*
G01*
X173462632Y-147230000D02*
G75*
G02*
X173242632Y-147450032I-220032J0D01*
G01*
X173132632Y-147450000D02*
G75*
G02*
X172912600Y-147230000I-32J220000D01*
G01*
X172912632Y-146620000D02*
G75*
G03*
X172692632Y-146399968I-220032J0D01*
G01*
X174562632Y-147230000D02*
G75*
G02*
X174342632Y-147450032I-220032J0D01*
G01*
X174782632Y-146400000D02*
G75*
G03*
X174562600Y-146620000I-32J-220000D01*
G01*
X174232632Y-147450000D02*
G75*
G02*
X174012600Y-147230000I-32J220000D01*
G01*
D30*
X194325000Y-141500000D02*
X194325000Y-143241000D01*
X205772001Y-133043000D02*
X206747000Y-133043000D01*
X204597000Y-134218001D02*
X205772001Y-133043000D01*
X204597000Y-135603000D02*
X204597000Y-134218001D01*
X200150000Y-140050000D02*
X204597000Y-135603000D01*
X195775000Y-140050000D02*
X200150000Y-140050000D01*
X194325000Y-141500000D02*
X195775000Y-140050000D01*
X193294000Y-144272000D02*
X194325000Y-143241000D01*
X206366092Y-134313000D02*
X206747000Y-134313000D01*
X205105000Y-136398000D02*
X205105000Y-135574092D01*
X205105000Y-135574092D02*
X206366092Y-134313000D01*
X200003000Y-141500000D02*
X205105000Y-136398000D01*
X197250000Y-141500000D02*
X200003000Y-141500000D01*
X196975000Y-141775000D02*
X197250000Y-141500000D01*
X195961000Y-144272000D02*
X196975000Y-143258000D01*
X196975000Y-143258000D02*
X196975000Y-141775000D01*
D31*
X197700000Y-145511000D02*
X196384000Y-146827000D01*
X196384000Y-146827000D02*
X195961000Y-146827000D01*
X197700000Y-143200000D02*
X197700000Y-145511000D01*
X210600000Y-139300000D02*
X210600000Y-140555000D01*
X182865000Y-152654000D02*
X177038000Y-146827000D01*
X176873000Y-146827000D02*
X177038000Y-146827000D01*
X210600000Y-140555000D02*
X198501000Y-152654000D01*
X198501000Y-152654000D02*
X182865000Y-152654000D01*
X195489579Y-151638000D02*
X195130749Y-151638000D01*
X196529579Y-151638000D02*
X196529579Y-152078000D01*
X196929579Y-152078000D02*
X196929579Y-151638000D01*
X196929579Y-151638000D02*
X196929579Y-151448000D01*
X198628000Y-151638000D02*
X198289579Y-151638000D01*
X197729579Y-152078000D02*
X197729579Y-151798000D01*
X196369579Y-152238000D02*
X196289579Y-152238000D01*
X178782000Y-144619000D02*
X178782000Y-146270000D01*
X195130749Y-151638000D02*
X184643000Y-151638000D01*
X209700000Y-140566000D02*
X198628000Y-151638000D01*
X196529579Y-151448000D02*
X196529579Y-151638000D01*
X160890000Y-126540000D02*
X158135075Y-126540000D01*
X198129579Y-151798000D02*
X198129579Y-152078000D01*
X158135075Y-126540000D02*
X154700000Y-129975075D01*
X154700000Y-129975075D02*
X154700000Y-139206000D01*
X195569579Y-151638000D02*
X195489579Y-151638000D01*
X160147000Y-144653000D02*
X175540050Y-144653000D01*
X184643000Y-151638000D02*
X179832000Y-146827000D01*
X209700000Y-138500000D02*
X209700000Y-140566000D01*
X197569579Y-151288000D02*
X197489579Y-151288000D01*
X175540050Y-144653000D02*
X176748050Y-143445000D01*
X195729579Y-151448000D02*
X195729579Y-151478000D01*
X176748050Y-143445000D02*
X177608000Y-143445000D01*
X197329579Y-151638000D02*
X197329579Y-152078000D01*
X179339000Y-146827000D02*
X179832000Y-146827000D01*
X196129579Y-151638000D02*
X196129579Y-151448000D01*
X154700000Y-139206000D02*
X160147000Y-144653000D01*
X177608000Y-143445000D02*
X178782000Y-144619000D01*
X196769579Y-151288000D02*
X196689579Y-151288000D01*
X196129579Y-152078000D02*
X196129579Y-151638000D01*
X197329579Y-151448000D02*
X197329579Y-151638000D01*
X197169579Y-152238000D02*
X197089579Y-152238000D01*
X178782000Y-146270000D02*
X179339000Y-146827000D01*
X197969579Y-152238000D02*
X197889579Y-152238000D01*
X195969579Y-151288000D02*
X195889579Y-151288000D01*
X197729579Y-151798000D02*
X197729579Y-151448000D01*
X196929579Y-151448000D02*
G75*
G03*
X196769579Y-151288021I-159979J0D01*
G01*
X196129579Y-151448000D02*
G75*
G03*
X195969579Y-151288021I-159979J0D01*
G01*
X197889579Y-152238000D02*
G75*
G02*
X197729600Y-152078000I21J160000D01*
G01*
X196289579Y-152238000D02*
G75*
G02*
X196129600Y-152078000I21J160000D01*
G01*
X198289579Y-151638000D02*
G75*
G03*
X198129600Y-151798000I21J-160000D01*
G01*
X197489579Y-151288000D02*
G75*
G03*
X197329600Y-151448000I21J-160000D01*
G01*
X196689579Y-151288000D02*
G75*
G03*
X196529600Y-151448000I21J-160000D01*
G01*
X198129579Y-152078000D02*
G75*
G02*
X197969579Y-152237979I-159979J0D01*
G01*
X197329579Y-152078000D02*
G75*
G02*
X197169579Y-152237979I-159979J0D01*
G01*
X195729579Y-151478000D02*
G75*
G02*
X195569579Y-151637979I-159979J0D01*
G01*
X197729579Y-151448000D02*
G75*
G03*
X197569579Y-151288021I-159979J0D01*
G01*
X195889579Y-151288000D02*
G75*
G03*
X195729600Y-151448000I21J-160000D01*
G01*
X197089579Y-152238000D02*
G75*
G02*
X196929600Y-152078000I21J160000D01*
G01*
X196529579Y-152078000D02*
G75*
G02*
X196369579Y-152237979I-159979J0D01*
G01*
X171605192Y-143970000D02*
X171605192Y-143750000D01*
X170165192Y-143510000D02*
X170045192Y-143510000D01*
X193418610Y-150686000D02*
X193418610Y-150876000D01*
X170405192Y-143970000D02*
X170405192Y-143750000D01*
X192458610Y-151226000D02*
X192378610Y-151226000D01*
X181576000Y-146727000D02*
X181576000Y-144899050D01*
X193418610Y-150876000D02*
X193418610Y-151066000D01*
X191349725Y-150876000D02*
X186675000Y-150876000D01*
X169286361Y-143510000D02*
X160020000Y-143510000D01*
X193818610Y-150876000D02*
X193818610Y-150686000D01*
X171005192Y-143510000D02*
X171005192Y-143970000D01*
X194858610Y-151226000D02*
X194778610Y-151226000D01*
X175413314Y-143045000D02*
X174948314Y-143510000D01*
X182626000Y-146827000D02*
X181676000Y-146827000D01*
X191578610Y-150876000D02*
X191349725Y-150876000D01*
X155400000Y-138890000D02*
X155400000Y-130760000D01*
X191818610Y-150686000D02*
X191818610Y-150716000D01*
X171965192Y-144210000D02*
X171845192Y-144210000D01*
X192618610Y-150686000D02*
X192618610Y-150876000D01*
X170765192Y-144210000D02*
X170645192Y-144210000D01*
X195018610Y-151036000D02*
X195018610Y-151066000D01*
X192058610Y-150526000D02*
X191978610Y-150526000D01*
X192618610Y-150876000D02*
X192618610Y-151066000D01*
X191658610Y-150876000D02*
X191578610Y-150876000D01*
X172205192Y-143750000D02*
X172205192Y-143970000D01*
X208900000Y-140223000D02*
X198247000Y-150876000D01*
X179721950Y-143045000D02*
X175413314Y-143045000D01*
X194218610Y-150876000D02*
X194218610Y-151066000D01*
X155400000Y-130760000D02*
X158350000Y-127810000D01*
X193818610Y-151066000D02*
X193818610Y-150876000D01*
X194458610Y-150526000D02*
X194378610Y-150526000D01*
X171605192Y-143750000D02*
X171605192Y-143150000D01*
X194218610Y-150686000D02*
X194218610Y-150876000D01*
X170045192Y-143510000D02*
X169286361Y-143510000D01*
X171005192Y-143150000D02*
X171005192Y-143510000D01*
X194618610Y-151066000D02*
X194618610Y-151036000D01*
X193258610Y-151226000D02*
X193178610Y-151226000D01*
X181576000Y-144899050D02*
X179721950Y-143045000D01*
X192218610Y-151066000D02*
X192218610Y-150876000D01*
X174948314Y-143510000D02*
X172445192Y-143510000D01*
X194058610Y-151226000D02*
X193978610Y-151226000D01*
X171365192Y-142910000D02*
X171245192Y-142910000D01*
X160020000Y-143510000D02*
X155400000Y-138890000D01*
X193018610Y-150876000D02*
X193018610Y-150686000D01*
X192218610Y-150876000D02*
X192218610Y-150686000D01*
X194618610Y-151036000D02*
X194618610Y-150686000D01*
X181676000Y-146827000D02*
X181576000Y-146727000D01*
X193018610Y-151066000D02*
X193018610Y-150876000D01*
X186675000Y-150876000D02*
X182626000Y-146827000D01*
X208900000Y-139300000D02*
X208900000Y-140223000D01*
X193658610Y-150526000D02*
X193578610Y-150526000D01*
X192858610Y-150526000D02*
X192778610Y-150526000D01*
X198247000Y-150876000D02*
X195178610Y-150876000D01*
X195018610Y-151066000D02*
G75*
G02*
X194858610Y-151226010I-160010J0D01*
G01*
X192218610Y-150686000D02*
G75*
G03*
X192058610Y-150525990I-160010J0D01*
G01*
X171005192Y-143970000D02*
G75*
G02*
X170765192Y-144209992I-239992J0D01*
G01*
X172205192Y-143970000D02*
G75*
G02*
X171965192Y-144209992I-239992J0D01*
G01*
X192778610Y-150526000D02*
G75*
G03*
X192618600Y-150686000I-10J-160000D01*
G01*
X194378610Y-150526000D02*
G75*
G03*
X194218600Y-150686000I-10J-160000D01*
G01*
X170645192Y-144210000D02*
G75*
G02*
X170405200Y-143970000I8J240000D01*
G01*
X191978610Y-150526000D02*
G75*
G03*
X191818600Y-150686000I-10J-160000D01*
G01*
X192618610Y-151066000D02*
G75*
G02*
X192458610Y-151226010I-160010J0D01*
G01*
X171605192Y-143150000D02*
G75*
G03*
X171365192Y-142910008I-239992J0D01*
G01*
X170405192Y-143750000D02*
G75*
G03*
X170165192Y-143510008I-239992J0D01*
G01*
X193818610Y-150686000D02*
G75*
G03*
X193658610Y-150525990I-160010J0D01*
G01*
X193018610Y-150686000D02*
G75*
G03*
X192858610Y-150525990I-160010J0D01*
G01*
X193418610Y-151066000D02*
G75*
G02*
X193258610Y-151226010I-160010J0D01*
G01*
X195178610Y-150876000D02*
G75*
G03*
X195018600Y-151036000I-10J-160000D01*
G01*
X191818610Y-150716000D02*
G75*
G02*
X191658610Y-150876010I-160010J0D01*
G01*
X171245192Y-142910000D02*
G75*
G03*
X171005200Y-143150000I8J-240000D01*
G01*
X194778610Y-151226000D02*
G75*
G02*
X194618600Y-151066000I-10J160000D01*
G01*
X192378610Y-151226000D02*
G75*
G02*
X192218600Y-151066000I-10J160000D01*
G01*
X193178610Y-151226000D02*
G75*
G02*
X193018600Y-151066000I-10J160000D01*
G01*
X193978610Y-151226000D02*
G75*
G02*
X193818600Y-151066000I-10J160000D01*
G01*
X171845192Y-144210000D02*
G75*
G02*
X171605200Y-143970000I8J240000D01*
G01*
X194218610Y-151066000D02*
G75*
G02*
X194058610Y-151226010I-160010J0D01*
G01*
X194618610Y-150686000D02*
G75*
G03*
X194458610Y-150525990I-160010J0D01*
G01*
X172445192Y-143510000D02*
G75*
G03*
X172205200Y-143750000I8J-240000D01*
G01*
X193578610Y-150526000D02*
G75*
G03*
X193418600Y-150686000I-10J-160000D01*
G01*
X158135075Y-129080000D02*
X160890000Y-129080000D01*
X195641255Y-150304000D02*
X195641255Y-150114000D01*
X193141255Y-149914000D02*
X192941255Y-149914000D01*
X196681255Y-150464000D02*
X196601255Y-150464000D01*
X193541255Y-150114000D02*
X193341255Y-150114000D01*
X189241255Y-150304000D02*
X189241255Y-150274000D01*
X195241255Y-150014000D02*
X195241255Y-150114000D01*
X192341255Y-149914000D02*
X192141255Y-149914000D01*
X189481255Y-150464000D02*
X189401255Y-150464000D01*
X194741255Y-149914000D02*
X194541255Y-149914000D01*
X196441255Y-150304000D02*
X196441255Y-150114000D01*
X208100000Y-140007000D02*
X197993000Y-150114000D01*
X190281255Y-150464000D02*
X190201255Y-150464000D01*
X191241255Y-150114000D02*
X191241255Y-150304000D01*
X208100000Y-138500000D02*
X208100000Y-140007000D01*
X181837950Y-142494000D02*
X171212126Y-142494000D01*
X196041255Y-150014000D02*
X196041255Y-150114000D01*
X189081255Y-150114000D02*
X189001255Y-150114000D01*
X190041255Y-150304000D02*
X190041255Y-150114000D01*
X195241255Y-150114000D02*
X195241255Y-150214000D01*
X192741255Y-150114000D02*
X192541255Y-150114000D01*
X170272126Y-143094000D02*
X170152126Y-143094000D01*
X195641255Y-150114000D02*
X195641255Y-150014000D01*
X195541255Y-149914000D02*
X195341255Y-149914000D01*
X191541255Y-149914000D02*
X191341255Y-149914000D01*
X188565000Y-150114000D02*
X188246802Y-149795802D01*
X160401000Y-142494000D02*
X156100000Y-138193000D01*
X194341255Y-150114000D02*
X194141255Y-150114000D01*
X188020526Y-149795801D02*
X187716471Y-150099857D01*
X190441255Y-150114000D02*
X190441255Y-150304000D01*
X170512126Y-142394000D02*
X170512126Y-142494000D01*
X187681116Y-149230116D02*
X187521869Y-149070869D01*
X183769000Y-144425050D02*
X181837950Y-142494000D01*
X187490195Y-150099856D02*
X187433626Y-150043287D01*
X190841255Y-150304000D02*
X190841255Y-150114000D01*
X197241255Y-150274000D02*
X197241255Y-150014000D01*
X187433626Y-149817013D02*
X187737682Y-149512958D01*
X197241255Y-150304000D02*
X197241255Y-150274000D01*
X156100000Y-138193000D02*
X156100000Y-131115075D01*
X194841255Y-150214000D02*
X194841255Y-150114000D01*
X190741255Y-149914000D02*
X190541255Y-149914000D01*
X169672126Y-142494000D02*
X169552126Y-142494000D01*
X196441255Y-150114000D02*
X196441255Y-150014000D01*
X190041255Y-150114000D02*
X190041255Y-149574000D01*
X197641255Y-150274000D02*
X197641255Y-150304000D01*
X197141255Y-149914000D02*
X196941255Y-149914000D01*
X183769000Y-146268000D02*
X183769000Y-144425050D01*
X184328000Y-146827000D02*
X183769000Y-146268000D01*
X171012126Y-142294000D02*
X170612126Y-142294000D01*
X189881255Y-149414000D02*
X189801255Y-149414000D01*
X193941255Y-149914000D02*
X193741255Y-149914000D01*
X170512126Y-142494000D02*
X170512126Y-142854000D01*
X185278000Y-146827000D02*
X184328000Y-146827000D01*
X169031789Y-142494000D02*
X160401000Y-142494000D01*
X187737681Y-149286682D02*
X187681116Y-149230116D01*
X196041255Y-150114000D02*
X196041255Y-150304000D01*
X196841255Y-150014000D02*
X196841255Y-150114000D01*
X191941255Y-150114000D02*
X191741255Y-150114000D01*
X191241255Y-150014000D02*
X191241255Y-150114000D01*
X190841255Y-150114000D02*
X190841255Y-150014000D01*
X191081255Y-150464000D02*
X191001255Y-150464000D01*
X189001255Y-150114000D02*
X188565000Y-150114000D01*
X169912126Y-142854000D02*
X169912126Y-142734000D01*
X189641255Y-150114000D02*
X189641255Y-150304000D01*
X194841255Y-150114000D02*
X194841255Y-150014000D01*
X195881255Y-150464000D02*
X195801255Y-150464000D01*
X196341255Y-149914000D02*
X196141255Y-149914000D01*
X156100000Y-131115075D02*
X158135075Y-129080000D01*
X169552126Y-142494000D02*
X169031789Y-142494000D01*
X197993000Y-150114000D02*
X197801255Y-150114000D01*
X187521869Y-149070869D02*
X185278000Y-146827000D01*
X190441255Y-150014000D02*
X190441255Y-150114000D01*
X189641255Y-149574000D02*
X189641255Y-150114000D01*
X197481255Y-150464000D02*
X197401255Y-150464000D01*
X196841255Y-150114000D02*
X196841255Y-150304000D01*
X195141255Y-150314000D02*
X194941255Y-150314000D01*
X197801255Y-150114000D02*
G75*
G03*
X197641300Y-150274000I45J-160000D01*
G01*
X193241255Y-150014000D02*
G75*
G03*
X193141255Y-149914045I-99955J0D01*
G01*
X192441255Y-150014000D02*
G75*
G03*
X192341255Y-149914045I-99955J0D01*
G01*
X190041255Y-149574000D02*
G75*
G03*
X189881255Y-149414045I-159955J0D01*
G01*
X170152126Y-143094000D02*
G75*
G02*
X169912100Y-142854000I-26J240000D01*
G01*
X196841255Y-150304000D02*
G75*
G02*
X196681255Y-150463955I-159955J0D01*
G01*
X195341255Y-149914000D02*
G75*
G03*
X195241300Y-150014000I45J-100000D01*
G01*
X193341255Y-150114000D02*
G75*
G02*
X193241300Y-150014000I45J100000D01*
G01*
X188246802Y-149795802D02*
G75*
G03*
X188020563Y-149795838I-113102J-113098D01*
G01*
X190541255Y-149914000D02*
G75*
G03*
X190441300Y-150014000I45J-100000D01*
G01*
X190841255Y-150014000D02*
G75*
G03*
X190741255Y-149914045I-99955J0D01*
G01*
X187737682Y-149512958D02*
G75*
G03*
X187737701Y-149286662I-113182J113158D01*
G01*
X190201255Y-150464000D02*
G75*
G02*
X190041300Y-150304000I45J160000D01*
G01*
X171112126Y-142394000D02*
G75*
G03*
X171012126Y-142293974I-100026J0D01*
G01*
X189801255Y-149414000D02*
G75*
G03*
X189641300Y-149574000I45J-160000D01*
G01*
X195801255Y-150464000D02*
G75*
G02*
X195641300Y-150304000I45J160000D01*
G01*
X192041255Y-150014000D02*
G75*
G02*
X191941255Y-150113955I-99955J0D01*
G01*
X194041255Y-150014000D02*
G75*
G03*
X193941255Y-149914045I-99955J0D01*
G01*
X194941255Y-150314000D02*
G75*
G02*
X194841300Y-150214000I45J100000D01*
G01*
X194441255Y-150014000D02*
G75*
G02*
X194341255Y-150113955I-99955J0D01*
G01*
X193641255Y-150014000D02*
G75*
G02*
X193541255Y-150113955I-99955J0D01*
G01*
X191001255Y-150464000D02*
G75*
G02*
X190841300Y-150304000I45J160000D01*
G01*
X192541255Y-150114000D02*
G75*
G02*
X192441300Y-150014000I45J100000D01*
G01*
X192841255Y-150014000D02*
G75*
G02*
X192741255Y-150113955I-99955J0D01*
G01*
X193741255Y-149914000D02*
G75*
G03*
X193641300Y-150014000I45J-100000D01*
G01*
X194841255Y-150014000D02*
G75*
G03*
X194741255Y-149914045I-99955J0D01*
G01*
X189241255Y-150274000D02*
G75*
G03*
X189081255Y-150114045I-159955J0D01*
G01*
X189401255Y-150464000D02*
G75*
G02*
X189241300Y-150304000I45J160000D01*
G01*
X187433626Y-150043287D02*
G75*
G02*
X187433676Y-149817063I113174J113087D01*
G01*
X197401255Y-150464000D02*
G75*
G02*
X197241300Y-150304000I45J160000D01*
G01*
X197641255Y-150304000D02*
G75*
G02*
X197481255Y-150463955I-159955J0D01*
G01*
X195241255Y-150214000D02*
G75*
G02*
X195141255Y-150313955I-99955J0D01*
G01*
X169912126Y-142734000D02*
G75*
G03*
X169672126Y-142493974I-240026J0D01*
G01*
X190441255Y-150304000D02*
G75*
G02*
X190281255Y-150463955I-159955J0D01*
G01*
X192941255Y-149914000D02*
G75*
G03*
X192841300Y-150014000I45J-100000D01*
G01*
X197241255Y-150014000D02*
G75*
G03*
X197141255Y-149914045I-99955J0D01*
G01*
X191341255Y-149914000D02*
G75*
G03*
X191241300Y-150014000I45J-100000D01*
G01*
X196441255Y-150014000D02*
G75*
G03*
X196341255Y-149914045I-99955J0D01*
G01*
X170512126Y-142854000D02*
G75*
G02*
X170272126Y-143094026I-240026J0D01*
G01*
X189641255Y-150304000D02*
G75*
G02*
X189481255Y-150463955I-159955J0D01*
G01*
X194141255Y-150114000D02*
G75*
G02*
X194041300Y-150014000I45J100000D01*
G01*
X191641255Y-150014000D02*
G75*
G03*
X191541255Y-149914045I-99955J0D01*
G01*
X196941255Y-149914000D02*
G75*
G03*
X196841300Y-150014000I45J-100000D01*
G01*
X191741255Y-150114000D02*
G75*
G02*
X191641300Y-150014000I45J100000D01*
G01*
X187716471Y-150099857D02*
G75*
G02*
X187490162Y-150099889I-113171J113157D01*
G01*
X196601255Y-150464000D02*
G75*
G02*
X196441300Y-150304000I45J160000D01*
G01*
X192141255Y-149914000D02*
G75*
G03*
X192041300Y-150014000I45J-100000D01*
G01*
X196141255Y-149914000D02*
G75*
G03*
X196041300Y-150014000I45J-100000D01*
G01*
X170612126Y-142294000D02*
G75*
G03*
X170512100Y-142394000I-26J-100000D01*
G01*
X191241255Y-150304000D02*
G75*
G02*
X191081255Y-150463955I-159955J0D01*
G01*
X194541255Y-149914000D02*
G75*
G03*
X194441300Y-150014000I45J-100000D01*
G01*
X171212126Y-142494000D02*
G75*
G02*
X171112100Y-142394000I-26J100000D01*
G01*
X196041255Y-150304000D02*
G75*
G02*
X195881255Y-150463955I-159955J0D01*
G01*
X195641255Y-150014000D02*
G75*
G03*
X195541255Y-149914045I-99955J0D01*
G01*
X168549646Y-141859000D02*
X168549646Y-141959000D01*
X189218995Y-148085994D02*
X189162427Y-148029427D01*
X170649646Y-141859000D02*
X170299646Y-141859000D01*
X189431128Y-149005235D02*
X189374559Y-148948666D01*
X167999646Y-141959000D02*
X167999646Y-141859000D01*
X189162427Y-148029427D02*
X188783101Y-147650101D01*
X194752009Y-149319000D02*
X194752009Y-149289000D01*
X163858870Y-141859000D02*
X160782000Y-141859000D01*
X207300000Y-139791000D02*
X197612000Y-149479000D01*
X169649646Y-141759000D02*
X169649646Y-141859000D01*
X190138235Y-147732442D02*
X190081666Y-147675873D01*
X160782000Y-141859000D02*
X156700000Y-137777000D01*
X168449646Y-142059000D02*
X168099646Y-142059000D01*
X196592009Y-149479000D02*
X196512009Y-149479000D01*
X192752009Y-149289000D02*
X192752009Y-149319000D01*
X166249646Y-142059000D02*
X165899646Y-142059000D01*
X169649646Y-141859000D02*
X169649646Y-141959000D01*
X166349646Y-141759000D02*
X166349646Y-141859000D01*
X196752009Y-149289000D02*
X196752009Y-149319000D01*
X192592009Y-149479000D02*
X192512009Y-149479000D01*
X167899646Y-141659000D02*
X167549646Y-141659000D01*
X189855392Y-147675873D02*
X189445270Y-148085994D01*
X195792009Y-149479000D02*
X195712009Y-149479000D01*
X167999646Y-141859000D02*
X167999646Y-141759000D01*
X190293802Y-148934527D02*
X190491791Y-148736537D01*
X190010958Y-148651682D02*
X189657402Y-149005235D01*
X190208948Y-148453693D02*
X190010958Y-148651682D01*
X190992009Y-149479000D02*
X190912009Y-149479000D01*
X192352009Y-149319000D02*
X192352009Y-149189000D01*
X167449646Y-141859000D02*
X167449646Y-141959000D01*
X191792009Y-149479000D02*
X191712009Y-149479000D01*
X171199646Y-141659000D02*
X170849646Y-141659000D01*
X195552009Y-149319000D02*
X195552009Y-149289000D01*
X165799646Y-141859000D02*
X165799646Y-141759000D01*
X193792009Y-149129000D02*
X193712009Y-149129000D01*
X191152009Y-148739000D02*
X191152009Y-149319000D01*
X184023000Y-141859000D02*
X171399646Y-141859000D01*
X194352009Y-149289000D02*
X194352009Y-149319000D01*
X156700000Y-137777000D02*
X156700000Y-132000000D01*
X167349646Y-142059000D02*
X166999646Y-142059000D01*
X187010000Y-146827000D02*
X186910000Y-146727000D01*
X193552009Y-149289000D02*
X193552009Y-149319000D01*
X191392009Y-148579000D02*
X191312009Y-148579000D01*
X170099646Y-141659000D02*
X169749646Y-141659000D01*
X194192009Y-149479000D02*
X194112009Y-149479000D01*
X193952009Y-149319000D02*
X193952009Y-149289000D01*
X207300000Y-139300000D02*
X207300000Y-139791000D01*
X193392009Y-149479000D02*
X193312009Y-149479000D01*
X193152009Y-149319000D02*
X193152009Y-149289000D01*
X197152009Y-149319000D02*
X197152009Y-149289000D01*
X189374559Y-148722392D02*
X189614976Y-148481976D01*
X166899646Y-141859000D02*
X166899646Y-141759000D01*
X195152009Y-149289000D02*
X195152009Y-149319000D01*
X196192009Y-149129000D02*
X196112009Y-149129000D01*
X187960000Y-146827000D02*
X187010000Y-146827000D01*
X186910000Y-146727000D02*
X186910000Y-144746000D01*
X164249646Y-141859000D02*
X163858870Y-141859000D01*
X169549646Y-142059000D02*
X169199646Y-142059000D01*
X166349646Y-141859000D02*
X166349646Y-141959000D01*
X168999646Y-141659000D02*
X168649646Y-141659000D01*
X165249646Y-141859000D02*
X165249646Y-141959000D01*
X165799646Y-141959000D02*
X165799646Y-141859000D01*
X191552009Y-149319000D02*
X191552009Y-148739000D01*
X188783101Y-147650101D02*
X187960000Y-146827000D01*
X168549646Y-141759000D02*
X168549646Y-141859000D01*
X195392009Y-149129000D02*
X195312009Y-149129000D01*
X186910000Y-144746000D02*
X184023000Y-141859000D01*
X192992009Y-149129000D02*
X192912009Y-149129000D01*
X169099646Y-141959000D02*
X169099646Y-141859000D01*
X167449646Y-141759000D02*
X167449646Y-141859000D01*
X191952009Y-149189000D02*
X191952009Y-149319000D01*
X196992009Y-149129000D02*
X196912009Y-149129000D01*
X190612000Y-149479000D02*
X190293802Y-149160802D01*
X196352009Y-149319000D02*
X196352009Y-149289000D01*
X190912009Y-149479000D02*
X190612000Y-149479000D01*
X165699646Y-141659000D02*
X165349646Y-141659000D01*
X197612000Y-149479000D02*
X197312009Y-149479000D01*
X164599646Y-141859000D02*
X164249646Y-141859000D01*
X156700000Y-132000000D02*
X158350000Y-130350000D01*
X166799646Y-141659000D02*
X166449646Y-141659000D01*
X195952009Y-149289000D02*
X195952009Y-149319000D01*
X165249646Y-141759000D02*
X165249646Y-141859000D01*
X194992009Y-149479000D02*
X194912009Y-149479000D01*
X192192009Y-149029000D02*
X192112009Y-149029000D01*
X166899646Y-141959000D02*
X166899646Y-141859000D01*
X194592009Y-149129000D02*
X194512009Y-149129000D01*
X169099646Y-141859000D02*
X169099646Y-141759000D01*
X165149646Y-142059000D02*
X164799646Y-142059000D01*
X189614976Y-148481976D02*
X190138235Y-147958716D01*
X190491791Y-148510262D02*
X190435222Y-148453693D01*
X194112009Y-149479000D02*
G75*
G02*
X193952000Y-149319000I-9J160000D01*
G01*
X169649646Y-141959000D02*
G75*
G02*
X169549646Y-142059046I-100046J0D01*
G01*
X168649646Y-141659000D02*
G75*
G03*
X168549600Y-141759000I-46J-100000D01*
G01*
X193152009Y-149289000D02*
G75*
G03*
X192992009Y-149128991I-160009J0D01*
G01*
X169749646Y-141659000D02*
G75*
G03*
X169649600Y-141759000I-46J-100000D01*
G01*
X196512009Y-149479000D02*
G75*
G02*
X196352000Y-149319000I-9J160000D01*
G01*
X189445270Y-148085994D02*
G75*
G02*
X189218995Y-148085994I-113138J113138D01*
G01*
X193952009Y-149289000D02*
G75*
G03*
X193792009Y-149128991I-160009J0D01*
G01*
X195152009Y-149319000D02*
G75*
G02*
X194992009Y-149479009I-160009J0D01*
G01*
X169199646Y-142059000D02*
G75*
G02*
X169099600Y-141959000I-46J100000D01*
G01*
X191712009Y-149479000D02*
G75*
G02*
X191552000Y-149319000I-9J160000D01*
G01*
X171399646Y-141859000D02*
G75*
G02*
X171299600Y-141759000I-46J100000D01*
G01*
X165799646Y-141759000D02*
G75*
G03*
X165699646Y-141658954I-100046J0D01*
G01*
X192752009Y-149319000D02*
G75*
G02*
X192592009Y-149479009I-160009J0D01*
G01*
X192352009Y-149189000D02*
G75*
G03*
X192192009Y-149028991I-160009J0D01*
G01*
X165349646Y-141659000D02*
G75*
G03*
X165249600Y-141759000I-46J-100000D01*
G01*
X196752009Y-149319000D02*
G75*
G02*
X196592009Y-149479009I-160009J0D01*
G01*
X191312009Y-148579000D02*
G75*
G03*
X191152000Y-148739000I-9J-160000D01*
G01*
X167999646Y-141759000D02*
G75*
G03*
X167899646Y-141658954I-100046J0D01*
G01*
X166449646Y-141659000D02*
G75*
G03*
X166349600Y-141759000I-46J-100000D01*
G01*
X195312009Y-149129000D02*
G75*
G03*
X195152000Y-149289000I-9J-160000D01*
G01*
X190081665Y-147675874D02*
G75*
G03*
X189855393Y-147675874I-113136J-113136D01*
G01*
X169099646Y-141759000D02*
G75*
G03*
X168999646Y-141658954I-100046J0D01*
G01*
X195952009Y-149319000D02*
G75*
G02*
X195792009Y-149479009I-160009J0D01*
G01*
X192512009Y-149479000D02*
G75*
G02*
X192352000Y-149319000I-9J160000D01*
G01*
X167549646Y-141659000D02*
G75*
G03*
X167449600Y-141759000I-46J-100000D01*
G01*
X197312009Y-149479000D02*
G75*
G02*
X197152000Y-149319000I-9J160000D01*
G01*
X191152009Y-149319000D02*
G75*
G02*
X190992009Y-149479009I-160009J0D01*
G01*
X196112009Y-149129000D02*
G75*
G03*
X195952000Y-149289000I-9J-160000D01*
G01*
X170849646Y-141659000D02*
G75*
G03*
X170749600Y-141759000I-46J-100000D01*
G01*
X166999646Y-142059000D02*
G75*
G02*
X166899600Y-141959000I-46J100000D01*
G01*
X166349646Y-141959000D02*
G75*
G02*
X166249646Y-142059046I-100046J0D01*
G01*
X165249646Y-141959000D02*
G75*
G02*
X165149646Y-142059046I-100046J0D01*
G01*
X194752009Y-149289000D02*
G75*
G03*
X194592009Y-149128991I-160009J0D01*
G01*
X170199646Y-141759000D02*
G75*
G03*
X170099646Y-141658954I-100046J0D01*
G01*
X165899646Y-142059000D02*
G75*
G02*
X165799600Y-141959000I-46J100000D01*
G01*
X192912009Y-149129000D02*
G75*
G03*
X192752000Y-149289000I-9J-160000D01*
G01*
X191552009Y-148739000D02*
G75*
G03*
X191392009Y-148578991I-160009J0D01*
G01*
X170749646Y-141759000D02*
G75*
G02*
X170649646Y-141859046I-100046J0D01*
G01*
X195552009Y-149289000D02*
G75*
G03*
X195392009Y-149128991I-160009J0D01*
G01*
X197152009Y-149289000D02*
G75*
G03*
X196992009Y-149128991I-160009J0D01*
G01*
X194512009Y-149129000D02*
G75*
G03*
X194352000Y-149289000I-9J-160000D01*
G01*
X168549646Y-141959000D02*
G75*
G02*
X168449646Y-142059046I-100046J0D01*
G01*
X190435221Y-148453694D02*
G75*
G03*
X190208949Y-148453694I-113136J-113136D01*
G01*
X194912009Y-149479000D02*
G75*
G02*
X194752000Y-149319000I-9J160000D01*
G01*
X192112009Y-149029000D02*
G75*
G03*
X191952000Y-149189000I-9J-160000D01*
G01*
X194352009Y-149319000D02*
G75*
G02*
X194192009Y-149479009I-160009J0D01*
G01*
X189374559Y-148948666D02*
G75*
G02*
X189374530Y-148722363I113141J113166D01*
G01*
X170299646Y-141859000D02*
G75*
G02*
X170199600Y-141759000I-46J100000D01*
G01*
X164699646Y-141959000D02*
G75*
G03*
X164599646Y-141858954I-100046J0D01*
G01*
X190138235Y-147958716D02*
G75*
G03*
X190138214Y-147732463I-113135J113116D01*
G01*
X195712009Y-149479000D02*
G75*
G02*
X195552000Y-149319000I-9J160000D01*
G01*
X171299646Y-141759000D02*
G75*
G03*
X171199646Y-141658954I-100046J0D01*
G01*
X191952009Y-149319000D02*
G75*
G02*
X191792009Y-149479009I-160009J0D01*
G01*
X193712009Y-149129000D02*
G75*
G03*
X193552000Y-149289000I-9J-160000D01*
G01*
X189657401Y-149005234D02*
G75*
G02*
X189431129Y-149005234I-113136J113136D01*
G01*
X193552009Y-149319000D02*
G75*
G02*
X193392009Y-149479009I-160009J0D01*
G01*
X164799646Y-142059000D02*
G75*
G02*
X164699600Y-141959000I-46J100000D01*
G01*
X196352009Y-149289000D02*
G75*
G03*
X196192009Y-149128991I-160009J0D01*
G01*
X190491791Y-148736537D02*
G75*
G03*
X190491790Y-148510263I-113091J113137D01*
G01*
X168099646Y-142059000D02*
G75*
G02*
X167999600Y-141959000I-46J100000D01*
G01*
X167449646Y-141959000D02*
G75*
G02*
X167349646Y-142059046I-100046J0D01*
G01*
X196912009Y-149129000D02*
G75*
G03*
X196752000Y-149289000I-9J-160000D01*
G01*
X193312009Y-149479000D02*
G75*
G02*
X193152000Y-149319000I-9J160000D01*
G01*
X190293802Y-149160802D02*
G75*
G02*
X190293838Y-148934563I113098J113102D01*
G01*
X166899646Y-141759000D02*
G75*
G03*
X166799646Y-141658954I-100046J0D01*
G01*
X161436000Y-141224000D02*
X157300000Y-137088000D01*
X157300000Y-132455075D02*
X158135075Y-131620000D01*
X171402059Y-141024000D02*
X171002059Y-141024000D01*
X190077000Y-146812000D02*
X189484000Y-146219000D01*
X190627000Y-146812000D02*
X192532000Y-148717000D01*
X206600000Y-139602000D02*
X206600000Y-138500000D01*
X185901950Y-141224000D02*
X171602059Y-141224000D01*
X169602059Y-141224000D02*
X169202059Y-141224000D01*
X204602000Y-141600000D02*
X206600000Y-139602000D01*
X157300000Y-137088000D02*
X157300000Y-132455075D01*
X169202059Y-141224000D02*
X169129238Y-141224000D01*
X170802059Y-141224000D02*
X170402059Y-141224000D01*
X169129238Y-141224000D02*
X161436000Y-141224000D01*
X189484000Y-146219000D02*
X189484000Y-144806050D01*
X199551000Y-146651000D02*
X199551000Y-145849000D01*
X197485000Y-148717000D02*
X199551000Y-146651000D01*
X190627000Y-146812000D02*
X190077000Y-146812000D01*
X189484000Y-144806050D02*
X185901950Y-141224000D01*
X158135075Y-131620000D02*
X160890000Y-131620000D01*
X192532000Y-148717000D02*
X197485000Y-148717000D01*
X203800000Y-141600000D02*
X204602000Y-141600000D01*
X199551000Y-145849000D02*
X203800000Y-141600000D01*
X170202059Y-141024000D02*
X169802059Y-141024000D01*
X171602059Y-141224000D02*
G75*
G02*
X171502100Y-141124000I41J100000D01*
G01*
X171502059Y-141124000D02*
G75*
G03*
X171402059Y-141024041I-99959J0D01*
G01*
X169802059Y-141024000D02*
G75*
G03*
X169702100Y-141124000I41J-100000D01*
G01*
X171002059Y-141024000D02*
G75*
G03*
X170902100Y-141124000I41J-100000D01*
G01*
X170402059Y-141224000D02*
G75*
G02*
X170302100Y-141124000I41J100000D01*
G01*
X170902059Y-141124000D02*
G75*
G02*
X170802059Y-141223959I-99959J0D01*
G01*
X169702059Y-141124000D02*
G75*
G02*
X169602059Y-141223959I-99959J0D01*
G01*
X170302059Y-141124000D02*
G75*
G03*
X170202059Y-141024041I-99959J0D01*
G01*
D30*
X200650000Y-137742000D02*
X199262000Y-139130000D01*
X197986000Y-139130000D02*
X196598000Y-137742000D01*
X196598000Y-137742000D02*
X196598000Y-131534000D01*
X201157000Y-133043000D02*
X201797000Y-133043000D01*
X196598000Y-131534000D02*
X195133000Y-130069000D01*
X199262000Y-139130000D02*
X197986000Y-139130000D01*
X201797000Y-133043000D02*
X201797000Y-134313000D01*
X179900000Y-126250000D02*
X182687500Y-126250000D01*
X201797000Y-130299000D02*
X201738000Y-130240000D01*
X182687500Y-126250000D02*
X188214000Y-131776500D01*
X201797000Y-131773000D02*
X201797000Y-130299000D01*
X190298000Y-132232500D02*
X190754000Y-131776500D01*
X198938000Y-137554000D02*
X198750000Y-137742000D01*
X198938000Y-134694000D02*
X198938000Y-137554000D01*
X194698000Y-137742000D02*
X194698000Y-135014000D01*
X192659000Y-129794000D02*
X187965000Y-125100000D01*
X194378000Y-134694000D02*
X192659000Y-132975000D01*
X194698000Y-135014000D02*
X194378000Y-134694000D01*
X187965000Y-125100000D02*
X172005000Y-125100000D01*
X192659000Y-132975000D02*
X192659000Y-129794000D01*
X172005000Y-125100000D02*
X168524000Y-128581000D01*
D31*
X197358000Y-147955000D02*
X198900000Y-146413000D01*
X172092456Y-140689000D02*
X172092456Y-140589000D01*
X172592456Y-140789000D02*
X172192456Y-140789000D01*
X158300000Y-132940000D02*
X158350000Y-132890000D01*
X171492456Y-139829000D02*
X171492456Y-140349000D01*
X194437000Y-147955000D02*
X197358000Y-147955000D01*
X162289000Y-140589000D02*
X158300000Y-136600000D01*
X187933950Y-140589000D02*
X173532456Y-140589000D01*
X198900000Y-145200000D02*
X203750000Y-140350000D01*
X198900000Y-146413000D02*
X198900000Y-145200000D01*
X172092456Y-140589000D02*
X172092456Y-139829000D01*
X193294000Y-146812000D02*
X194437000Y-147955000D01*
X170852236Y-140589000D02*
X162289000Y-140589000D01*
X203750000Y-140350000D02*
X205286314Y-140350000D01*
X191677000Y-146145000D02*
X191677000Y-144332050D01*
X193294000Y-146812000D02*
X192344000Y-146812000D01*
X172692456Y-140349000D02*
X172692456Y-140689000D01*
X173292456Y-140349000D02*
X173292456Y-139829000D01*
X205286314Y-140350000D02*
X205900000Y-139736314D01*
X171852456Y-139589000D02*
X171732456Y-139589000D01*
X171132456Y-140589000D02*
X170852236Y-140589000D01*
X171252456Y-140589000D02*
X171132456Y-140589000D01*
X205900000Y-139736314D02*
X205900000Y-139300000D01*
X173052456Y-139589000D02*
X172932456Y-139589000D01*
X158300000Y-136600000D02*
X158300000Y-132940000D01*
X172692456Y-139829000D02*
X172692456Y-140349000D01*
X192344000Y-146812000D02*
X191677000Y-146145000D01*
X191677000Y-144332050D02*
X187933950Y-140589000D01*
X173532456Y-140589000D02*
G75*
G02*
X173292500Y-140349000I44J240000D01*
G01*
X172192456Y-140789000D02*
G75*
G02*
X172092500Y-140689000I44J100000D01*
G01*
X171492456Y-140349000D02*
G75*
G02*
X171252456Y-140588956I-239956J0D01*
G01*
X171732456Y-139589000D02*
G75*
G03*
X171492500Y-139829000I44J-240000D01*
G01*
X172092456Y-139829000D02*
G75*
G03*
X171852456Y-139589044I-239956J0D01*
G01*
X173292456Y-139829000D02*
G75*
G03*
X173052456Y-139589044I-239956J0D01*
G01*
X172692456Y-140689000D02*
G75*
G02*
X172592456Y-140788956I-99956J0D01*
G01*
X172932456Y-139589000D02*
G75*
G03*
X172692500Y-139829000I44J-240000D01*
G01*
X169972252Y-134160000D02*
X169949136Y-134160000D01*
X204800000Y-139700000D02*
X205100000Y-139400000D01*
X170692252Y-134810000D02*
X170572252Y-134810000D01*
X195961000Y-146827000D02*
X197673000Y-146827000D01*
X198350000Y-146150000D02*
X198350000Y-144450000D01*
X197673000Y-146827000D02*
X198350000Y-146150000D01*
X205100000Y-139400000D02*
X205100000Y-138500000D01*
X198350000Y-144450000D02*
X203100000Y-139700000D01*
X170092252Y-134160000D02*
X169972252Y-134160000D01*
X169949136Y-134160000D02*
X160890000Y-134160000D01*
X170332252Y-134570000D02*
X170332252Y-134400000D01*
X170932252Y-134400000D02*
X170932252Y-134570000D01*
X192900000Y-139900000D02*
X181700000Y-139900000D01*
X175960000Y-134160000D02*
X171172252Y-134160000D01*
X181700000Y-139900000D02*
X175960000Y-134160000D01*
X203100000Y-139700000D02*
X204800000Y-139700000D01*
X170332252Y-134400000D02*
G75*
G03*
X170092252Y-134160048I-239952J0D01*
G01*
X170932252Y-134570000D02*
G75*
G02*
X170692252Y-134809952I-239952J0D01*
G01*
X171172252Y-134160000D02*
G75*
G03*
X170932300Y-134400000I48J-240000D01*
G01*
X170572252Y-134810000D02*
G75*
G02*
X170332300Y-134570000I48J240000D01*
G01*
D30*
X187960000Y-145527000D02*
X187960000Y-144272000D01*
X193294000Y-144272000D02*
X193294000Y-144526000D01*
X193294000Y-145512000D02*
X193294000Y-144272000D01*
X177038000Y-145527000D02*
X177038000Y-144145000D01*
X182626000Y-145527000D02*
X182626000Y-144272000D01*
X195961000Y-145527000D02*
X195961000Y-144272000D01*
X190627000Y-144272000D02*
X190627000Y-144399000D01*
X185278000Y-145527000D02*
X185278000Y-144287000D01*
X190627000Y-144653000D02*
X190627000Y-144272000D01*
X195961000Y-144272000D02*
X195961000Y-144399000D01*
X179832000Y-144145000D02*
X179832000Y-144272000D01*
X185278000Y-144287000D02*
X185293000Y-144272000D01*
X179832000Y-145527000D02*
X179832000Y-144145000D01*
X190627000Y-145512000D02*
X190627000Y-144653000D01*
X181447500Y-127550000D02*
X185674000Y-131776500D01*
X179900000Y-127550000D02*
X181447500Y-127550000D01*
M02*
