G04 #@! TF.GenerationSoftware,KiCad,Pcbnew,8.0.0*
G04 #@! TF.CreationDate,2024-12-06T13:06:33-06:00*
G04 #@! TF.ProjectId,led_segment,6c65645f-7365-4676-9d65-6e742e6b6963,rev?*
G04 #@! TF.SameCoordinates,Original*
G04 #@! TF.FileFunction,Copper,L3,Inr*
G04 #@! TF.FilePolarity,Positive*
%FSLAX46Y46*%
G04 Gerber Fmt 4.6, Leading zero omitted, Abs format (unit mm)*
G04 Created by KiCad (PCBNEW 8.0.0) date 2024-12-06 13:06:33*
%MOMM*%
%LPD*%
G01*
G04 APERTURE LIST*
G04 Aperture macros list*
%AMRoundRect*
0 Rectangle with rounded corners*
0 $1 Rounding radius*
0 $2 $3 $4 $5 $6 $7 $8 $9 X,Y pos of 4 corners*
0 Add a 4 corners polygon primitive as box body*
4,1,4,$2,$3,$4,$5,$6,$7,$8,$9,$2,$3,0*
0 Add four circle primitives for the rounded corners*
1,1,$1+$1,$2,$3*
1,1,$1+$1,$4,$5*
1,1,$1+$1,$6,$7*
1,1,$1+$1,$8,$9*
0 Add four rect primitives between the rounded corners*
20,1,$1+$1,$2,$3,$4,$5,0*
20,1,$1+$1,$4,$5,$6,$7,0*
20,1,$1+$1,$6,$7,$8,$9,0*
20,1,$1+$1,$8,$9,$2,$3,0*%
G04 Aperture macros list end*
G04 #@! TA.AperFunction,ComponentPad*
%ADD10R,1.800000X1.800000*%
G04 #@! TD*
G04 #@! TA.AperFunction,ComponentPad*
%ADD11C,1.800000*%
G04 #@! TD*
G04 #@! TA.AperFunction,ComponentPad*
%ADD12C,2.600000*%
G04 #@! TD*
G04 #@! TA.AperFunction,ComponentPad*
%ADD13C,2.900000*%
G04 #@! TD*
G04 #@! TA.AperFunction,ComponentPad*
%ADD14O,3.860800X1.930400*%
G04 #@! TD*
G04 #@! TA.AperFunction,ComponentPad*
%ADD15R,1.500000X1.500000*%
G04 #@! TD*
G04 #@! TA.AperFunction,ComponentPad*
%ADD16C,1.500000*%
G04 #@! TD*
G04 #@! TA.AperFunction,ComponentPad*
%ADD17C,3.000000*%
G04 #@! TD*
G04 #@! TA.AperFunction,ComponentPad*
%ADD18RoundRect,0.250000X-0.620000X-0.845000X0.620000X-0.845000X0.620000X0.845000X-0.620000X0.845000X0*%
G04 #@! TD*
G04 #@! TA.AperFunction,ComponentPad*
%ADD19O,1.740000X2.190000*%
G04 #@! TD*
G04 #@! TA.AperFunction,ViaPad*
%ADD20C,0.800000*%
G04 #@! TD*
G04 #@! TA.AperFunction,Conductor*
%ADD21C,0.200000*%
G04 #@! TD*
G04 APERTURE END LIST*
D10*
X193525000Y-122600000D03*
D11*
X196065000Y-122600000D03*
D12*
X176024000Y-138881000D03*
D13*
X176024000Y-128581000D03*
D12*
X168524000Y-138881000D03*
D13*
X168524000Y-128581000D03*
D14*
X156090000Y-149276000D03*
X147890000Y-149276000D03*
X156090000Y-144276000D03*
X147890000Y-144276000D03*
D15*
X214550000Y-134260000D03*
D16*
X212010000Y-132990000D03*
X214550000Y-131720000D03*
X212010000Y-130450000D03*
X214550000Y-129180000D03*
X212010000Y-127910000D03*
X214550000Y-126640000D03*
X212010000Y-125370000D03*
D17*
X223950000Y-137585000D03*
X223950000Y-122045000D03*
D14*
X216882000Y-144349984D03*
X225082000Y-144349984D03*
X216882000Y-149349984D03*
X225082000Y-149349984D03*
D15*
X158350000Y-125270000D03*
D16*
X160890000Y-126540000D03*
X158350000Y-127810000D03*
X160890000Y-129080000D03*
X158350000Y-130350000D03*
X160890000Y-131620000D03*
X158350000Y-132890000D03*
X160890000Y-134160000D03*
D17*
X148950000Y-121945000D03*
X148950000Y-137485000D03*
D18*
X183170000Y-131250000D03*
D19*
X185710000Y-131250000D03*
X188250000Y-131250000D03*
X190790000Y-131250000D03*
D20*
X177714000Y-148850000D03*
X183304000Y-148840000D03*
X188629000Y-148840000D03*
X203975000Y-135625000D03*
X193954000Y-148840000D03*
X174925000Y-149525000D03*
X207625000Y-139225000D03*
X207625000Y-138000000D03*
D21*
X164920000Y-125270000D02*
X165800000Y-126150000D01*
X177714000Y-148850000D02*
X177289736Y-148850000D01*
X164507619Y-125270000D02*
X164920000Y-125270000D01*
X177289736Y-148850000D02*
X176664736Y-148225000D01*
X165800000Y-129075000D02*
X167675000Y-130950000D01*
X163707619Y-125070000D02*
X163707619Y-123970000D01*
X214550000Y-135794314D02*
X214550000Y-134260000D01*
X167675000Y-130950000D02*
X171075000Y-130950000D01*
X163907619Y-123770000D02*
X164007619Y-123770000D01*
X204169314Y-146175000D02*
X214550000Y-135794314D01*
X178339000Y-148225000D02*
X180389000Y-146175000D01*
X171075000Y-130950000D02*
X171800000Y-131675000D01*
X164207619Y-123970000D02*
X164207619Y-125070000D01*
X158350000Y-125270000D02*
X163507619Y-125270000D01*
X176664736Y-148225000D02*
X178339000Y-148225000D01*
X165800000Y-126150000D02*
X165800000Y-129075000D01*
X171800000Y-131675000D02*
X171800000Y-143360264D01*
X180389000Y-146175000D02*
X204169314Y-146175000D01*
X164407619Y-125270000D02*
X164507619Y-125270000D01*
X171800000Y-143360264D02*
X176664736Y-148225000D01*
X164207619Y-125070000D02*
G75*
G03*
X164407619Y-125269981I199981J0D01*
G01*
X163707619Y-123970000D02*
G75*
G02*
X163907619Y-123770019I199981J0D01*
G01*
X163507619Y-125270000D02*
G75*
G03*
X163707600Y-125070000I-19J200000D01*
G01*
X164007619Y-123770000D02*
G75*
G02*
X164207600Y-123970000I-19J-200000D01*
G01*
X204335000Y-146575000D02*
X215600000Y-135310000D01*
X168901584Y-131687909D02*
X168350039Y-132239451D01*
X171341100Y-133773872D02*
X170612781Y-134502192D01*
X170329938Y-134219350D02*
X171058258Y-133491031D01*
X170047094Y-134162780D02*
X170103664Y-134219350D01*
X164390000Y-126635000D02*
X164390000Y-127315000D01*
X170612780Y-134728466D02*
X170669349Y-134785035D01*
X161540845Y-127684154D02*
X161415000Y-127810000D01*
X161823687Y-127118469D02*
X161682265Y-127259890D01*
X163250000Y-128327088D02*
X163250000Y-128247088D01*
X183304000Y-148840000D02*
X182815000Y-148840000D01*
X171058259Y-131793974D02*
X169481409Y-133370821D01*
X163030000Y-126475000D02*
X162950000Y-126475000D01*
X169976386Y-131405067D02*
X170032954Y-131461635D01*
X167840924Y-131956610D02*
X165400000Y-129515686D01*
X162148960Y-127302319D02*
X161965109Y-127118469D01*
X161682265Y-127542732D02*
X161540845Y-127684154D01*
X177599050Y-149725000D02*
X181350000Y-149725000D01*
X163430000Y-127475000D02*
X163350000Y-127475000D01*
X168067198Y-131956610D02*
X168618742Y-131405067D01*
X163830000Y-125675000D02*
X163750000Y-125675000D01*
X171341101Y-132642502D02*
X170047094Y-133936506D01*
X184500000Y-146575000D02*
X204335000Y-146575000D01*
X164230000Y-127475000D02*
X164150000Y-127475000D01*
X163590000Y-126475000D02*
X163590000Y-127315000D01*
X163410000Y-128087088D02*
X165240000Y-128087088D01*
X170032954Y-131687909D02*
X168915724Y-132805136D01*
X171001691Y-131511132D02*
X171058259Y-131567700D01*
X165400000Y-127847088D02*
X165400000Y-127325000D01*
X168632883Y-132522295D02*
X169750112Y-131405067D01*
X168350039Y-132465725D02*
X168406609Y-132522295D01*
X161415000Y-127810000D02*
X160969522Y-127810000D01*
X182815000Y-148840000D02*
X182525000Y-148550000D01*
X170669349Y-134785035D02*
X170875547Y-134991233D01*
X165400000Y-129515686D02*
X165400000Y-128647088D01*
X182525000Y-148550000D02*
X184500000Y-146575000D01*
X169198568Y-133087980D02*
X170775417Y-131511132D01*
X169764253Y-133653665D02*
X171058259Y-132359660D01*
X169481409Y-133597095D02*
X169537979Y-133653665D01*
X162240883Y-127394242D02*
X162148960Y-127302319D01*
X171375000Y-135490686D02*
X171375000Y-143500950D01*
X163990000Y-126635000D02*
X163990000Y-125835000D01*
X162750000Y-126475000D02*
X162431802Y-126793198D01*
X168915724Y-133031410D02*
X168972294Y-133087980D01*
X163990000Y-127315000D02*
X163990000Y-126635000D01*
X162950000Y-126475000D02*
X162750000Y-126475000D01*
X181350000Y-149725000D02*
X182525000Y-148550000D01*
X170875547Y-134991233D02*
X171375000Y-135490686D01*
X165400000Y-127325000D02*
X164550000Y-126475000D01*
X168845016Y-131405067D02*
X168901584Y-131461635D01*
X171375000Y-143500950D02*
X177599050Y-149725000D01*
X160969522Y-127810000D02*
X158350000Y-127810000D01*
X171284533Y-132359660D02*
X171341101Y-132416228D01*
X162523726Y-127337672D02*
X162467157Y-127394242D01*
X163590000Y-125835000D02*
X163590000Y-126475000D01*
X165240000Y-128487088D02*
X163410000Y-128487088D01*
X171284532Y-133491030D02*
X171341100Y-133547598D01*
X215600000Y-135310000D02*
X215600000Y-132770000D01*
X165400000Y-127927088D02*
X165400000Y-127847088D01*
X215600000Y-132770000D02*
X214550000Y-131720000D01*
X162431801Y-127019474D02*
X162523725Y-127111398D01*
X163190000Y-127315000D02*
X163190000Y-126635000D01*
X161965108Y-127118470D02*
G75*
G03*
X161823688Y-127118470I-70710J-70712D01*
G01*
X161682266Y-127259891D02*
G75*
G03*
X161682266Y-127401310I70734J-70709D01*
G01*
X163990000Y-125835000D02*
G75*
G03*
X163830000Y-125675000I-160000J0D01*
G01*
X169481409Y-133370821D02*
G75*
G03*
X169481367Y-133597137I113091J-113179D01*
G01*
X164150000Y-127475000D02*
G75*
G02*
X163990000Y-127315000I0J160000D01*
G01*
X168972295Y-133087979D02*
G75*
G03*
X169198567Y-133087979I113136J113136D01*
G01*
X164390000Y-127315000D02*
G75*
G02*
X164230000Y-127475000I-160000J0D01*
G01*
X165240000Y-128087088D02*
G75*
G03*
X165399988Y-127927088I0J159988D01*
G01*
X165400000Y-128647088D02*
G75*
G03*
X165240000Y-128487100I-160000J-12D01*
G01*
X169750113Y-131405068D02*
G75*
G02*
X169976385Y-131405068I113136J-113136D01*
G01*
X171058258Y-133491031D02*
G75*
G02*
X171284536Y-133491026I113142J-113169D01*
G01*
X168915724Y-132805136D02*
G75*
G03*
X168915697Y-133031437I113176J-113164D01*
G01*
X171058260Y-132359661D02*
G75*
G02*
X171284532Y-132359661I113136J-113136D01*
G01*
X171058259Y-131567700D02*
G75*
G02*
X171058222Y-131793937I-113159J-113100D01*
G01*
X163350000Y-127475000D02*
G75*
G02*
X163190000Y-127315000I0J160000D01*
G01*
X171341101Y-132416228D02*
G75*
G02*
X171341136Y-132642537I-113101J-113172D01*
G01*
X162467156Y-127394241D02*
G75*
G02*
X162240884Y-127394241I-113136J113136D01*
G01*
X163590000Y-127315000D02*
G75*
G02*
X163430000Y-127475000I-160000J0D01*
G01*
X170103665Y-134219349D02*
G75*
G03*
X170329937Y-134219349I113136J113136D01*
G01*
X163750000Y-125675000D02*
G75*
G03*
X163590000Y-125835000I0J-160000D01*
G01*
X171341099Y-133547599D02*
G75*
G02*
X171341064Y-133773836I-113099J-113101D01*
G01*
X170032954Y-131461635D02*
G75*
G02*
X170032982Y-131687936I-113154J-113165D01*
G01*
X169537980Y-133653664D02*
G75*
G03*
X169764252Y-133653664I113136J113136D01*
G01*
X170775418Y-131511133D02*
G75*
G02*
X171001690Y-131511133I113136J-113136D01*
G01*
X168901583Y-131461636D02*
G75*
G02*
X168901611Y-131687936I-113183J-113164D01*
G01*
X167840925Y-131956609D02*
G75*
G03*
X168067197Y-131956609I113136J113136D01*
G01*
X168406610Y-132522294D02*
G75*
G03*
X168632882Y-132522294I113136J113136D01*
G01*
X168618743Y-131405068D02*
G75*
G02*
X168845015Y-131405068I113136J-113136D01*
G01*
X164550000Y-126475000D02*
G75*
G03*
X164390000Y-126635000I0J-160000D01*
G01*
X168350039Y-132239451D02*
G75*
G03*
X168350027Y-132465737I113161J-113149D01*
G01*
X162431802Y-126793198D02*
G75*
G03*
X162431838Y-127019437I113098J-113102D01*
G01*
X170047094Y-133936506D02*
G75*
G03*
X170047137Y-134162737I113106J-113094D01*
G01*
X161682265Y-127401311D02*
G75*
G02*
X161682243Y-127542710I-70665J-70689D01*
G01*
X163250000Y-128247088D02*
G75*
G02*
X163410000Y-128087100I160000J-12D01*
G01*
X163190000Y-126635000D02*
G75*
G03*
X163030000Y-126475000I-160000J0D01*
G01*
X170612781Y-134502192D02*
G75*
G03*
X170612810Y-134728436I113119J-113108D01*
G01*
X162523725Y-127111398D02*
G75*
G02*
X162523690Y-127337636I-113125J-113102D01*
G01*
X163410000Y-128487088D02*
G75*
G02*
X163250012Y-128327088I0J159988D01*
G01*
X163806364Y-131440000D02*
X163806364Y-130350000D01*
X165668628Y-130350000D02*
X165166364Y-130350000D01*
X189450000Y-146975000D02*
X188112500Y-148312500D01*
X187750000Y-148675000D02*
X186300000Y-150125000D01*
X216000000Y-130630000D02*
X216000000Y-135475686D01*
X163406364Y-129260000D02*
X163406364Y-130350000D01*
X163806364Y-130350000D02*
X163806364Y-129260000D01*
X164606364Y-131440000D02*
X164606364Y-130510000D01*
X164046364Y-131600000D02*
X163966364Y-131600000D01*
X214550000Y-129180000D02*
X216000000Y-130630000D01*
X204500686Y-146975000D02*
X189450000Y-146975000D01*
X161221486Y-130350000D02*
X158350000Y-130350000D01*
X161806364Y-129660000D02*
X161806364Y-130190000D01*
X162606364Y-129260000D02*
X162606364Y-130350000D01*
X163006364Y-130350000D02*
X163006364Y-129260000D01*
X162606364Y-130350000D02*
X162606364Y-131440000D01*
X177375000Y-150125000D02*
X170925000Y-143675000D01*
X161566364Y-130350000D02*
X161221486Y-130350000D01*
X188629000Y-148840000D02*
X188629000Y-148829000D01*
X170925000Y-143675000D02*
X170925000Y-135606372D01*
X162206364Y-130350000D02*
X162206364Y-129660000D01*
X164206364Y-129360000D02*
X164206364Y-130350000D01*
X216000000Y-135475686D02*
X204500686Y-146975000D01*
X188629000Y-148829000D02*
X188112500Y-148312500D01*
X162846364Y-129100000D02*
X162766364Y-129100000D01*
X162046364Y-129500000D02*
X161966364Y-129500000D01*
X164606364Y-130510000D02*
X164606364Y-129360000D01*
X170925000Y-135606372D02*
X165668628Y-130350000D01*
X161646364Y-130350000D02*
X161566364Y-130350000D01*
X164206364Y-130350000D02*
X164206364Y-131440000D01*
X163646364Y-129100000D02*
X163566364Y-129100000D01*
X163246364Y-131600000D02*
X163166364Y-131600000D01*
X186300000Y-150125000D02*
X177375000Y-150125000D01*
X163006364Y-131440000D02*
X163006364Y-130350000D01*
X164846364Y-131600000D02*
X164766364Y-131600000D01*
X162446364Y-131600000D02*
X162366364Y-131600000D01*
X164446364Y-129200000D02*
X164366364Y-129200000D01*
X165006364Y-130510000D02*
X165006364Y-131440000D01*
X162206364Y-131440000D02*
X162206364Y-130350000D01*
X163406364Y-130350000D02*
X163406364Y-131440000D01*
X188112500Y-148312500D02*
X187750000Y-148675000D01*
X163806364Y-129260000D02*
G75*
G03*
X163646364Y-129100036I-159964J0D01*
G01*
X165006364Y-131440000D02*
G75*
G02*
X164846364Y-131599964I-159964J0D01*
G01*
X162606364Y-131440000D02*
G75*
G02*
X162446364Y-131599964I-159964J0D01*
G01*
X162206364Y-129660000D02*
G75*
G03*
X162046364Y-129500036I-159964J0D01*
G01*
X163566364Y-129100000D02*
G75*
G03*
X163406400Y-129260000I36J-160000D01*
G01*
X164366364Y-129200000D02*
G75*
G03*
X164206400Y-129360000I36J-160000D01*
G01*
X165166364Y-130350000D02*
G75*
G03*
X165006400Y-130510000I36J-160000D01*
G01*
X163166364Y-131600000D02*
G75*
G02*
X163006400Y-131440000I36J160000D01*
G01*
X161806364Y-130190000D02*
G75*
G02*
X161646364Y-130349964I-159964J0D01*
G01*
X162366364Y-131600000D02*
G75*
G02*
X162206400Y-131440000I36J160000D01*
G01*
X162766364Y-129100000D02*
G75*
G03*
X162606400Y-129260000I36J-160000D01*
G01*
X163966364Y-131600000D02*
G75*
G02*
X163806400Y-131440000I36J160000D01*
G01*
X164206364Y-131440000D02*
G75*
G02*
X164046364Y-131599964I-159964J0D01*
G01*
X163406364Y-131440000D02*
G75*
G02*
X163246364Y-131599964I-159964J0D01*
G01*
X164766364Y-131600000D02*
G75*
G02*
X164606400Y-131440000I36J160000D01*
G01*
X164606364Y-129360000D02*
G75*
G03*
X164446364Y-129200036I-159964J0D01*
G01*
X163006364Y-129260000D02*
G75*
G03*
X162846364Y-129100036I-159964J0D01*
G01*
X161966364Y-129500000D02*
G75*
G03*
X161806400Y-129660000I36J-160000D01*
G01*
X170525000Y-144050000D02*
X177125000Y-150650000D01*
X170095610Y-135361296D02*
X170152180Y-135417866D01*
X166772210Y-135856273D02*
X166828778Y-135912841D01*
X161310000Y-132890000D02*
X162200340Y-131999660D01*
X191075000Y-150650000D02*
X192987500Y-148737500D01*
X168398555Y-133664241D02*
X168455125Y-133720811D01*
X168455125Y-133947085D02*
X166772210Y-135629999D01*
X166489367Y-135347156D02*
X168172281Y-133664241D01*
X170152180Y-135417866D02*
X170525000Y-135790686D01*
X167832870Y-133098556D02*
X167889440Y-133155126D01*
X166234314Y-131500000D02*
X166758070Y-132023756D01*
X167903580Y-136987643D02*
X167960148Y-137044211D01*
X167337895Y-136421958D02*
X167394463Y-136478526D01*
X167267185Y-132532871D02*
X167323755Y-132589441D01*
X177125000Y-150650000D02*
X191075000Y-150650000D01*
X168964240Y-134229926D02*
X169020810Y-134286496D01*
X165585077Y-131500000D02*
X166234314Y-131500000D01*
X170525000Y-136442357D02*
X170525000Y-144050000D01*
X193954000Y-148840000D02*
X193090000Y-148840000D01*
X216400000Y-135641371D02*
X216400000Y-128490000D01*
X170525000Y-135790686D02*
X170525000Y-136442357D01*
X165075155Y-134159218D02*
X165131723Y-134215786D01*
X167889440Y-133381400D02*
X166206525Y-135064314D01*
X169529925Y-134795611D02*
X169586495Y-134852181D01*
X169586495Y-135078455D02*
X167903580Y-136761369D01*
X167620737Y-136478526D02*
X169303651Y-134795611D01*
X165640840Y-134724903D02*
X165697408Y-134781471D01*
X166758070Y-132250030D02*
X165075155Y-133932944D01*
X216400000Y-128490000D02*
X214550000Y-126640000D01*
X193090000Y-148840000D02*
X192987500Y-148737500D01*
X158350000Y-132890000D02*
X161310000Y-132890000D01*
X165357997Y-134215786D02*
X167040911Y-132532871D01*
X204666371Y-147375000D02*
X216400000Y-135641371D01*
X192987500Y-148737500D02*
X194350000Y-147375000D01*
X167055052Y-135912841D02*
X168737966Y-134229926D01*
X169020810Y-134512770D02*
X167337895Y-136195684D01*
X165085417Y-131999660D02*
X165585077Y-131500000D01*
X165923682Y-134781471D02*
X167606596Y-133098556D01*
X166206525Y-135290588D02*
X166263093Y-135347156D01*
X162200340Y-131999660D02*
X165085417Y-131999660D01*
X194350000Y-147375000D02*
X204666371Y-147375000D01*
X168186422Y-137044211D02*
X169869336Y-135361296D01*
X167323755Y-132815715D02*
X165640840Y-134498629D01*
X166828779Y-135912840D02*
G75*
G03*
X167055051Y-135912840I113136J113136D01*
G01*
X168172282Y-133664242D02*
G75*
G02*
X168398554Y-133664242I113136J-113136D01*
G01*
X169869337Y-135361297D02*
G75*
G02*
X170095609Y-135361297I113136J-113136D01*
G01*
X169586495Y-134852181D02*
G75*
G02*
X169586477Y-135078437I-113095J-113119D01*
G01*
X165075156Y-133932945D02*
G75*
G03*
X165075137Y-134159236I113144J-113155D01*
G01*
X167337895Y-136195684D02*
G75*
G03*
X167337916Y-136421937I113105J-113116D01*
G01*
X166758070Y-132023756D02*
G75*
G02*
X166758077Y-132250037I-113170J-113144D01*
G01*
X167606597Y-133098557D02*
G75*
G02*
X167832869Y-133098557I113136J-113136D01*
G01*
X165697409Y-134781470D02*
G75*
G03*
X165923681Y-134781470I113136J113136D01*
G01*
X167040912Y-132532872D02*
G75*
G02*
X167267184Y-132532872I113136J-113136D01*
G01*
X168455125Y-133720811D02*
G75*
G02*
X168455077Y-133947037I-113125J-113089D01*
G01*
X166206525Y-135064314D02*
G75*
G03*
X166206476Y-135290637I113175J-113186D01*
G01*
X166772210Y-135629999D02*
G75*
G03*
X166772246Y-135856237I113090J-113101D01*
G01*
X167394464Y-136478525D02*
G75*
G03*
X167620736Y-136478525I113136J113136D01*
G01*
X169020810Y-134286496D02*
G75*
G02*
X169020777Y-134512737I-113110J-113104D01*
G01*
X165640840Y-134498629D02*
G75*
G03*
X165640806Y-134724937I113160J-113171D01*
G01*
X168737967Y-134229927D02*
G75*
G02*
X168964239Y-134229927I113136J-113136D01*
G01*
X165131724Y-134215785D02*
G75*
G03*
X165357996Y-134215785I113136J113136D01*
G01*
X167903580Y-136761369D02*
G75*
G03*
X167903586Y-136987637I113120J-113131D01*
G01*
X167960149Y-137044210D02*
G75*
G03*
X168186421Y-137044210I113136J113136D01*
G01*
X167323755Y-132589441D02*
G75*
G02*
X167323777Y-132815737I-113155J-113159D01*
G01*
X167889440Y-133155126D02*
G75*
G02*
X167889477Y-133381437I-113140J-113174D01*
G01*
X169303652Y-134795612D02*
G75*
G02*
X169529924Y-134795612I113136J-113136D01*
G01*
X166263094Y-135347155D02*
G75*
G03*
X166489366Y-135347155I113136J113136D01*
G01*
M02*
