G04 #@! TF.GenerationSoftware,KiCad,Pcbnew,8.0.0*
G04 #@! TF.CreationDate,2024-12-06T13:06:33-06:00*
G04 #@! TF.ProjectId,led_segment,6c65645f-7365-4676-9d65-6e742e6b6963,rev?*
G04 #@! TF.SameCoordinates,Original*
G04 #@! TF.FileFunction,Legend,Top*
G04 #@! TF.FilePolarity,Positive*
%FSLAX46Y46*%
G04 Gerber Fmt 4.6, Leading zero omitted, Abs format (unit mm)*
G04 Created by KiCad (PCBNEW 8.0.0) date 2024-12-06 13:06:33*
%MOMM*%
%LPD*%
G01*
G04 APERTURE LIST*
G04 Aperture macros list*
%AMRoundRect*
0 Rectangle with rounded corners*
0 $1 Rounding radius*
0 $2 $3 $4 $5 $6 $7 $8 $9 X,Y pos of 4 corners*
0 Add a 4 corners polygon primitive as box body*
4,1,4,$2,$3,$4,$5,$6,$7,$8,$9,$2,$3,0*
0 Add four circle primitives for the rounded corners*
1,1,$1+$1,$2,$3*
1,1,$1+$1,$4,$5*
1,1,$1+$1,$6,$7*
1,1,$1+$1,$8,$9*
0 Add four rect primitives between the rounded corners*
20,1,$1+$1,$2,$3,$4,$5,0*
20,1,$1+$1,$4,$5,$6,$7,0*
20,1,$1+$1,$6,$7,$8,$9,0*
20,1,$1+$1,$8,$9,$2,$3,0*%
G04 Aperture macros list end*
%ADD10C,0.300000*%
%ADD11C,0.150000*%
%ADD12C,0.127000*%
%ADD13C,0.100000*%
%ADD14C,0.120000*%
%ADD15C,0.000000*%
%ADD16C,0.200000*%
%ADD17R,1.800000X1.800000*%
%ADD18C,1.800000*%
%ADD19R,1.500000X1.000000*%
%ADD20RoundRect,0.250000X0.312500X0.625000X-0.312500X0.625000X-0.312500X-0.625000X0.312500X-0.625000X0*%
%ADD21C,2.804000*%
%ADD22C,3.104000*%
%ADD23C,3.200000*%
%ADD24RoundRect,0.250000X-0.312500X-0.625000X0.312500X-0.625000X0.312500X0.625000X-0.312500X0.625000X0*%
%ADD25O,4.064800X2.134400*%
%ADD26C,3.250000*%
%ADD27R,1.500000X1.500000*%
%ADD28C,1.500000*%
%ADD29C,3.000000*%
%ADD30RoundRect,0.250000X-0.250000X-0.475000X0.250000X-0.475000X0.250000X0.475000X-0.250000X0.475000X0*%
%ADD31RoundRect,0.150000X-0.825000X-0.150000X0.825000X-0.150000X0.825000X0.150000X-0.825000X0.150000X0*%
%ADD32RoundRect,0.250000X0.750000X1.400000X-0.750000X1.400000X-0.750000X-1.400000X0.750000X-1.400000X0*%
%ADD33RoundRect,0.250000X0.350000X-0.850000X0.350000X0.850000X-0.350000X0.850000X-0.350000X-0.850000X0*%
%ADD34RoundRect,0.249997X2.650003X-2.950003X2.650003X2.950003X-2.650003X2.950003X-2.650003X-2.950003X0*%
%ADD35RoundRect,0.250000X-0.620000X-0.845000X0.620000X-0.845000X0.620000X0.845000X-0.620000X0.845000X0*%
%ADD36O,1.740000X2.190000*%
G04 APERTURE END LIST*
D10*
X165035000Y-121500000D02*
X164273000Y-120992000D01*
X207700000Y-121184000D02*
X208970000Y-121184000D01*
D11*
X179467000Y-144302000D02*
X193183000Y-144302000D01*
X193183000Y-147350000D01*
X179467000Y-147350000D01*
X179467000Y-144302000D01*
G36*
X179467000Y-144302000D02*
G01*
X193183000Y-144302000D01*
X193183000Y-147350000D01*
X179467000Y-147350000D01*
X179467000Y-144302000D01*
G37*
D10*
X208970000Y-121184000D02*
X208208000Y-120676000D01*
X163765000Y-121500000D02*
X165035000Y-121500000D01*
X165035000Y-121500000D02*
X164273000Y-122008000D01*
X208970000Y-121184000D02*
X208208000Y-121692000D01*
D12*
X183236504Y-153655015D02*
X183141266Y-153607396D01*
X183141266Y-153607396D02*
X183093647Y-153559776D01*
X183093647Y-153559776D02*
X183046028Y-153464538D01*
X183046028Y-153464538D02*
X183046028Y-153178824D01*
X183046028Y-153178824D02*
X183093647Y-153083586D01*
X183093647Y-153083586D02*
X183141266Y-153035967D01*
X183141266Y-153035967D02*
X183236504Y-152988348D01*
X183236504Y-152988348D02*
X183379361Y-152988348D01*
X183379361Y-152988348D02*
X183474599Y-153035967D01*
X183474599Y-153035967D02*
X183522218Y-153083586D01*
X183522218Y-153083586D02*
X183569837Y-153178824D01*
X183569837Y-153178824D02*
X183569837Y-153464538D01*
X183569837Y-153464538D02*
X183522218Y-153559776D01*
X183522218Y-153559776D02*
X183474599Y-153607396D01*
X183474599Y-153607396D02*
X183379361Y-153655015D01*
X183379361Y-153655015D02*
X183236504Y-153655015D01*
X196504980Y-153147205D02*
X196647837Y-153194824D01*
X196647837Y-153194824D02*
X196695456Y-153242443D01*
X196695456Y-153242443D02*
X196743075Y-153337681D01*
X196743075Y-153337681D02*
X196743075Y-153480538D01*
X196743075Y-153480538D02*
X196695456Y-153575776D01*
X196695456Y-153575776D02*
X196647837Y-153623396D01*
X196647837Y-153623396D02*
X196552599Y-153671015D01*
X196552599Y-153671015D02*
X196171647Y-153671015D01*
X196171647Y-153671015D02*
X196171647Y-152671015D01*
X196171647Y-152671015D02*
X196504980Y-152671015D01*
X196504980Y-152671015D02*
X196600218Y-152718634D01*
X196600218Y-152718634D02*
X196647837Y-152766253D01*
X196647837Y-152766253D02*
X196695456Y-152861491D01*
X196695456Y-152861491D02*
X196695456Y-152956729D01*
X196695456Y-152956729D02*
X196647837Y-153051967D01*
X196647837Y-153051967D02*
X196600218Y-153099586D01*
X196600218Y-153099586D02*
X196504980Y-153147205D01*
X196504980Y-153147205D02*
X196171647Y-153147205D01*
X197171647Y-153671015D02*
X197171647Y-153004348D01*
X197171647Y-153194824D02*
X197219266Y-153099586D01*
X197219266Y-153099586D02*
X197266885Y-153051967D01*
X197266885Y-153051967D02*
X197362123Y-153004348D01*
X197362123Y-153004348D02*
X197457361Y-153004348D01*
X185829980Y-153187205D02*
X185972837Y-153234824D01*
X185972837Y-153234824D02*
X186020456Y-153282443D01*
X186020456Y-153282443D02*
X186068075Y-153377681D01*
X186068075Y-153377681D02*
X186068075Y-153520538D01*
X186068075Y-153520538D02*
X186020456Y-153615776D01*
X186020456Y-153615776D02*
X185972837Y-153663396D01*
X185972837Y-153663396D02*
X185877599Y-153711015D01*
X185877599Y-153711015D02*
X185496647Y-153711015D01*
X185496647Y-153711015D02*
X185496647Y-152711015D01*
X185496647Y-152711015D02*
X185829980Y-152711015D01*
X185829980Y-152711015D02*
X185925218Y-152758634D01*
X185925218Y-152758634D02*
X185972837Y-152806253D01*
X185972837Y-152806253D02*
X186020456Y-152901491D01*
X186020456Y-152901491D02*
X186020456Y-152996729D01*
X186020456Y-152996729D02*
X185972837Y-153091967D01*
X185972837Y-153091967D02*
X185925218Y-153139586D01*
X185925218Y-153139586D02*
X185829980Y-153187205D01*
X185829980Y-153187205D02*
X185496647Y-153187205D01*
X186639504Y-153711015D02*
X186544266Y-153663396D01*
X186544266Y-153663396D02*
X186496647Y-153568157D01*
X186496647Y-153568157D02*
X186496647Y-152711015D01*
X191212123Y-152711015D02*
X191402599Y-152711015D01*
X191402599Y-152711015D02*
X191497837Y-152758634D01*
X191497837Y-152758634D02*
X191593075Y-152853872D01*
X191593075Y-152853872D02*
X191640694Y-153044348D01*
X191640694Y-153044348D02*
X191640694Y-153377681D01*
X191640694Y-153377681D02*
X191593075Y-153568157D01*
X191593075Y-153568157D02*
X191497837Y-153663396D01*
X191497837Y-153663396D02*
X191402599Y-153711015D01*
X191402599Y-153711015D02*
X191212123Y-153711015D01*
X191212123Y-153711015D02*
X191116885Y-153663396D01*
X191116885Y-153663396D02*
X191021647Y-153568157D01*
X191021647Y-153568157D02*
X190974028Y-153377681D01*
X190974028Y-153377681D02*
X190974028Y-153044348D01*
X190974028Y-153044348D02*
X191021647Y-152853872D01*
X191021647Y-152853872D02*
X191116885Y-152758634D01*
X191116885Y-152758634D02*
X191212123Y-152711015D01*
D10*
X160523558Y-143952733D02*
X162047368Y-143952733D01*
D12*
X177850218Y-152729348D02*
X177850218Y-153538872D01*
X177850218Y-153538872D02*
X177802599Y-153634110D01*
X177802599Y-153634110D02*
X177754980Y-153681729D01*
X177754980Y-153681729D02*
X177659742Y-153729348D01*
X177659742Y-153729348D02*
X177516885Y-153729348D01*
X177516885Y-153729348D02*
X177421647Y-153681729D01*
X177850218Y-153348396D02*
X177754980Y-153396015D01*
X177754980Y-153396015D02*
X177564504Y-153396015D01*
X177564504Y-153396015D02*
X177469266Y-153348396D01*
X177469266Y-153348396D02*
X177421647Y-153300776D01*
X177421647Y-153300776D02*
X177374028Y-153205538D01*
X177374028Y-153205538D02*
X177374028Y-152919824D01*
X177374028Y-152919824D02*
X177421647Y-152824586D01*
X177421647Y-152824586D02*
X177469266Y-152776967D01*
X177469266Y-152776967D02*
X177564504Y-152729348D01*
X177564504Y-152729348D02*
X177754980Y-152729348D01*
X177754980Y-152729348D02*
X177850218Y-152776967D01*
X193471647Y-153646015D02*
X193471647Y-152646015D01*
X193471647Y-153026967D02*
X193566885Y-152979348D01*
X193566885Y-152979348D02*
X193757361Y-152979348D01*
X193757361Y-152979348D02*
X193852599Y-153026967D01*
X193852599Y-153026967D02*
X193900218Y-153074586D01*
X193900218Y-153074586D02*
X193947837Y-153169824D01*
X193947837Y-153169824D02*
X193947837Y-153455538D01*
X193947837Y-153455538D02*
X193900218Y-153550776D01*
X193900218Y-153550776D02*
X193852599Y-153598396D01*
X193852599Y-153598396D02*
X193757361Y-153646015D01*
X193757361Y-153646015D02*
X193566885Y-153646015D01*
X193566885Y-153646015D02*
X193471647Y-153598396D01*
X194376409Y-153646015D02*
X194376409Y-152979348D01*
X194376409Y-153169824D02*
X194424028Y-153074586D01*
X194424028Y-153074586D02*
X194471647Y-153026967D01*
X194471647Y-153026967D02*
X194566885Y-152979348D01*
X194566885Y-152979348D02*
X194662123Y-152979348D01*
D11*
X208830180Y-122727255D02*
X208830180Y-122917731D01*
X208830180Y-122917731D02*
X208782561Y-123012969D01*
X208782561Y-123012969D02*
X208687323Y-123108207D01*
X208687323Y-123108207D02*
X208496847Y-123155826D01*
X208496847Y-123155826D02*
X208163514Y-123155826D01*
X208163514Y-123155826D02*
X207973038Y-123108207D01*
X207973038Y-123108207D02*
X207877800Y-123012969D01*
X207877800Y-123012969D02*
X207830180Y-122917731D01*
X207830180Y-122917731D02*
X207830180Y-122727255D01*
X207830180Y-122727255D02*
X207877800Y-122632017D01*
X207877800Y-122632017D02*
X207973038Y-122536779D01*
X207973038Y-122536779D02*
X208163514Y-122489160D01*
X208163514Y-122489160D02*
X208496847Y-122489160D01*
X208496847Y-122489160D02*
X208687323Y-122536779D01*
X208687323Y-122536779D02*
X208782561Y-122632017D01*
X208782561Y-122632017D02*
X208830180Y-122727255D01*
X208830180Y-123584398D02*
X208020657Y-123584398D01*
X208020657Y-123584398D02*
X207925419Y-123632017D01*
X207925419Y-123632017D02*
X207877800Y-123679636D01*
X207877800Y-123679636D02*
X207830180Y-123774874D01*
X207830180Y-123774874D02*
X207830180Y-123965350D01*
X207830180Y-123965350D02*
X207877800Y-124060588D01*
X207877800Y-124060588D02*
X207925419Y-124108207D01*
X207925419Y-124108207D02*
X208020657Y-124155826D01*
X208020657Y-124155826D02*
X208830180Y-124155826D01*
X208830180Y-124489160D02*
X208830180Y-125060588D01*
X207830180Y-124774874D02*
X208830180Y-124774874D01*
D10*
X211273558Y-149502733D02*
X212797368Y-149502733D01*
X212035463Y-150264638D02*
X212035463Y-148740828D01*
D11*
X166904761Y-143218385D02*
X167399999Y-143218385D01*
X167399999Y-143218385D02*
X167133333Y-143523147D01*
X167133333Y-143523147D02*
X167247618Y-143523147D01*
X167247618Y-143523147D02*
X167323809Y-143561242D01*
X167323809Y-143561242D02*
X167361904Y-143599337D01*
X167361904Y-143599337D02*
X167399999Y-143675528D01*
X167399999Y-143675528D02*
X167399999Y-143866004D01*
X167399999Y-143866004D02*
X167361904Y-143942194D01*
X167361904Y-143942194D02*
X167323809Y-143980290D01*
X167323809Y-143980290D02*
X167247618Y-144018385D01*
X167247618Y-144018385D02*
X167019047Y-144018385D01*
X167019047Y-144018385D02*
X166942856Y-143980290D01*
X166942856Y-143980290D02*
X166904761Y-143942194D01*
X167666666Y-143218385D02*
X168161904Y-143218385D01*
X168161904Y-143218385D02*
X167895238Y-143523147D01*
X167895238Y-143523147D02*
X168009523Y-143523147D01*
X168009523Y-143523147D02*
X168085714Y-143561242D01*
X168085714Y-143561242D02*
X168123809Y-143599337D01*
X168123809Y-143599337D02*
X168161904Y-143675528D01*
X168161904Y-143675528D02*
X168161904Y-143866004D01*
X168161904Y-143866004D02*
X168123809Y-143942194D01*
X168123809Y-143942194D02*
X168085714Y-143980290D01*
X168085714Y-143980290D02*
X168009523Y-144018385D01*
X168009523Y-144018385D02*
X167780952Y-144018385D01*
X167780952Y-144018385D02*
X167704761Y-143980290D01*
X167704761Y-143980290D02*
X167666666Y-143942194D01*
X168657143Y-143218385D02*
X168733333Y-143218385D01*
X168733333Y-143218385D02*
X168809524Y-143256480D01*
X168809524Y-143256480D02*
X168847619Y-143294575D01*
X168847619Y-143294575D02*
X168885714Y-143370766D01*
X168885714Y-143370766D02*
X168923809Y-143523147D01*
X168923809Y-143523147D02*
X168923809Y-143713623D01*
X168923809Y-143713623D02*
X168885714Y-143866004D01*
X168885714Y-143866004D02*
X168847619Y-143942194D01*
X168847619Y-143942194D02*
X168809524Y-143980290D01*
X168809524Y-143980290D02*
X168733333Y-144018385D01*
X168733333Y-144018385D02*
X168657143Y-144018385D01*
X168657143Y-144018385D02*
X168580952Y-143980290D01*
X168580952Y-143980290D02*
X168542857Y-143942194D01*
X168542857Y-143942194D02*
X168504762Y-143866004D01*
X168504762Y-143866004D02*
X168466666Y-143713623D01*
X168466666Y-143713623D02*
X168466666Y-143523147D01*
X168466666Y-143523147D02*
X168504762Y-143370766D01*
X168504762Y-143370766D02*
X168542857Y-143294575D01*
X168542857Y-143294575D02*
X168580952Y-143256480D01*
X168580952Y-143256480D02*
X168657143Y-143218385D01*
X169076191Y-144094575D02*
X169685714Y-144094575D01*
X170333334Y-143942194D02*
X170295238Y-143980290D01*
X170295238Y-143980290D02*
X170180953Y-144018385D01*
X170180953Y-144018385D02*
X170104762Y-144018385D01*
X170104762Y-144018385D02*
X169990476Y-143980290D01*
X169990476Y-143980290D02*
X169914286Y-143904099D01*
X169914286Y-143904099D02*
X169876191Y-143827909D01*
X169876191Y-143827909D02*
X169838095Y-143675528D01*
X169838095Y-143675528D02*
X169838095Y-143561242D01*
X169838095Y-143561242D02*
X169876191Y-143408861D01*
X169876191Y-143408861D02*
X169914286Y-143332670D01*
X169914286Y-143332670D02*
X169990476Y-143256480D01*
X169990476Y-143256480D02*
X170104762Y-143218385D01*
X170104762Y-143218385D02*
X170180953Y-143218385D01*
X170180953Y-143218385D02*
X170295238Y-143256480D01*
X170295238Y-143256480D02*
X170333334Y-143294575D01*
X170638095Y-143980290D02*
X170752381Y-144018385D01*
X170752381Y-144018385D02*
X170942857Y-144018385D01*
X170942857Y-144018385D02*
X171019048Y-143980290D01*
X171019048Y-143980290D02*
X171057143Y-143942194D01*
X171057143Y-143942194D02*
X171095238Y-143866004D01*
X171095238Y-143866004D02*
X171095238Y-143789813D01*
X171095238Y-143789813D02*
X171057143Y-143713623D01*
X171057143Y-143713623D02*
X171019048Y-143675528D01*
X171019048Y-143675528D02*
X170942857Y-143637432D01*
X170942857Y-143637432D02*
X170790476Y-143599337D01*
X170790476Y-143599337D02*
X170714286Y-143561242D01*
X170714286Y-143561242D02*
X170676191Y-143523147D01*
X170676191Y-143523147D02*
X170638095Y-143446956D01*
X170638095Y-143446956D02*
X170638095Y-143370766D01*
X170638095Y-143370766D02*
X170676191Y-143294575D01*
X170676191Y-143294575D02*
X170714286Y-143256480D01*
X170714286Y-143256480D02*
X170790476Y-143218385D01*
X170790476Y-143218385D02*
X170980953Y-143218385D01*
X170980953Y-143218385D02*
X171095238Y-143256480D01*
X171400000Y-143980290D02*
X171514286Y-144018385D01*
X171514286Y-144018385D02*
X171704762Y-144018385D01*
X171704762Y-144018385D02*
X171780953Y-143980290D01*
X171780953Y-143980290D02*
X171819048Y-143942194D01*
X171819048Y-143942194D02*
X171857143Y-143866004D01*
X171857143Y-143866004D02*
X171857143Y-143789813D01*
X171857143Y-143789813D02*
X171819048Y-143713623D01*
X171819048Y-143713623D02*
X171780953Y-143675528D01*
X171780953Y-143675528D02*
X171704762Y-143637432D01*
X171704762Y-143637432D02*
X171552381Y-143599337D01*
X171552381Y-143599337D02*
X171476191Y-143561242D01*
X171476191Y-143561242D02*
X171438096Y-143523147D01*
X171438096Y-143523147D02*
X171400000Y-143446956D01*
X171400000Y-143446956D02*
X171400000Y-143370766D01*
X171400000Y-143370766D02*
X171438096Y-143294575D01*
X171438096Y-143294575D02*
X171476191Y-143256480D01*
X171476191Y-143256480D02*
X171552381Y-143218385D01*
X171552381Y-143218385D02*
X171742858Y-143218385D01*
X171742858Y-143218385D02*
X171857143Y-143256480D01*
X164028571Y-145306340D02*
X163761904Y-144925387D01*
X163571428Y-145306340D02*
X163571428Y-144506340D01*
X163571428Y-144506340D02*
X163876190Y-144506340D01*
X163876190Y-144506340D02*
X163952380Y-144544435D01*
X163952380Y-144544435D02*
X163990475Y-144582530D01*
X163990475Y-144582530D02*
X164028571Y-144658721D01*
X164028571Y-144658721D02*
X164028571Y-144773006D01*
X164028571Y-144773006D02*
X163990475Y-144849197D01*
X163990475Y-144849197D02*
X163952380Y-144887292D01*
X163952380Y-144887292D02*
X163876190Y-144925387D01*
X163876190Y-144925387D02*
X163571428Y-144925387D01*
X164333332Y-145268245D02*
X164447618Y-145306340D01*
X164447618Y-145306340D02*
X164638094Y-145306340D01*
X164638094Y-145306340D02*
X164714285Y-145268245D01*
X164714285Y-145268245D02*
X164752380Y-145230149D01*
X164752380Y-145230149D02*
X164790475Y-145153959D01*
X164790475Y-145153959D02*
X164790475Y-145077768D01*
X164790475Y-145077768D02*
X164752380Y-145001578D01*
X164752380Y-145001578D02*
X164714285Y-144963483D01*
X164714285Y-144963483D02*
X164638094Y-144925387D01*
X164638094Y-144925387D02*
X164485713Y-144887292D01*
X164485713Y-144887292D02*
X164409523Y-144849197D01*
X164409523Y-144849197D02*
X164371428Y-144811102D01*
X164371428Y-144811102D02*
X164333332Y-144734911D01*
X164333332Y-144734911D02*
X164333332Y-144658721D01*
X164333332Y-144658721D02*
X164371428Y-144582530D01*
X164371428Y-144582530D02*
X164409523Y-144544435D01*
X164409523Y-144544435D02*
X164485713Y-144506340D01*
X164485713Y-144506340D02*
X164676190Y-144506340D01*
X164676190Y-144506340D02*
X164790475Y-144544435D01*
X165476190Y-144773006D02*
X165476190Y-145306340D01*
X165285714Y-144468245D02*
X165095237Y-145039673D01*
X165095237Y-145039673D02*
X165590476Y-145039673D01*
X165857142Y-144582530D02*
X165895238Y-144544435D01*
X165895238Y-144544435D02*
X165971428Y-144506340D01*
X165971428Y-144506340D02*
X166161904Y-144506340D01*
X166161904Y-144506340D02*
X166238095Y-144544435D01*
X166238095Y-144544435D02*
X166276190Y-144582530D01*
X166276190Y-144582530D02*
X166314285Y-144658721D01*
X166314285Y-144658721D02*
X166314285Y-144734911D01*
X166314285Y-144734911D02*
X166276190Y-144849197D01*
X166276190Y-144849197D02*
X165819047Y-145306340D01*
X165819047Y-145306340D02*
X166314285Y-145306340D01*
X166619047Y-144582530D02*
X166657143Y-144544435D01*
X166657143Y-144544435D02*
X166733333Y-144506340D01*
X166733333Y-144506340D02*
X166923809Y-144506340D01*
X166923809Y-144506340D02*
X167000000Y-144544435D01*
X167000000Y-144544435D02*
X167038095Y-144582530D01*
X167038095Y-144582530D02*
X167076190Y-144658721D01*
X167076190Y-144658721D02*
X167076190Y-144734911D01*
X167076190Y-144734911D02*
X167038095Y-144849197D01*
X167038095Y-144849197D02*
X166580952Y-145306340D01*
X166580952Y-145306340D02*
X167076190Y-145306340D01*
X168409524Y-145306340D02*
X168028572Y-145306340D01*
X168028572Y-145306340D02*
X168028572Y-144506340D01*
X168676191Y-144887292D02*
X168942857Y-144887292D01*
X169057143Y-145306340D02*
X168676191Y-145306340D01*
X168676191Y-145306340D02*
X168676191Y-144506340D01*
X168676191Y-144506340D02*
X169057143Y-144506340D01*
X169400001Y-145306340D02*
X169400001Y-144506340D01*
X169400001Y-144506340D02*
X169590477Y-144506340D01*
X169590477Y-144506340D02*
X169704763Y-144544435D01*
X169704763Y-144544435D02*
X169780953Y-144620625D01*
X169780953Y-144620625D02*
X169819048Y-144696816D01*
X169819048Y-144696816D02*
X169857144Y-144849197D01*
X169857144Y-144849197D02*
X169857144Y-144963483D01*
X169857144Y-144963483D02*
X169819048Y-145115864D01*
X169819048Y-145115864D02*
X169780953Y-145192054D01*
X169780953Y-145192054D02*
X169704763Y-145268245D01*
X169704763Y-145268245D02*
X169590477Y-145306340D01*
X169590477Y-145306340D02*
X169400001Y-145306340D01*
X170809525Y-145306340D02*
X170809525Y-144506340D01*
X170809525Y-144506340D02*
X171000001Y-144506340D01*
X171000001Y-144506340D02*
X171114287Y-144544435D01*
X171114287Y-144544435D02*
X171190477Y-144620625D01*
X171190477Y-144620625D02*
X171228572Y-144696816D01*
X171228572Y-144696816D02*
X171266668Y-144849197D01*
X171266668Y-144849197D02*
X171266668Y-144963483D01*
X171266668Y-144963483D02*
X171228572Y-145115864D01*
X171228572Y-145115864D02*
X171190477Y-145192054D01*
X171190477Y-145192054D02*
X171114287Y-145268245D01*
X171114287Y-145268245D02*
X171000001Y-145306340D01*
X171000001Y-145306340D02*
X170809525Y-145306340D01*
X171914287Y-145268245D02*
X171838096Y-145306340D01*
X171838096Y-145306340D02*
X171685715Y-145306340D01*
X171685715Y-145306340D02*
X171609525Y-145268245D01*
X171609525Y-145268245D02*
X171571429Y-145192054D01*
X171571429Y-145192054D02*
X171571429Y-144887292D01*
X171571429Y-144887292D02*
X171609525Y-144811102D01*
X171609525Y-144811102D02*
X171685715Y-144773006D01*
X171685715Y-144773006D02*
X171838096Y-144773006D01*
X171838096Y-144773006D02*
X171914287Y-144811102D01*
X171914287Y-144811102D02*
X171952382Y-144887292D01*
X171952382Y-144887292D02*
X171952382Y-144963483D01*
X171952382Y-144963483D02*
X171571429Y-145039673D01*
X172638096Y-145268245D02*
X172561905Y-145306340D01*
X172561905Y-145306340D02*
X172409524Y-145306340D01*
X172409524Y-145306340D02*
X172333334Y-145268245D01*
X172333334Y-145268245D02*
X172295239Y-145230149D01*
X172295239Y-145230149D02*
X172257143Y-145153959D01*
X172257143Y-145153959D02*
X172257143Y-144925387D01*
X172257143Y-144925387D02*
X172295239Y-144849197D01*
X172295239Y-144849197D02*
X172333334Y-144811102D01*
X172333334Y-144811102D02*
X172409524Y-144773006D01*
X172409524Y-144773006D02*
X172561905Y-144773006D01*
X172561905Y-144773006D02*
X172638096Y-144811102D01*
X173095238Y-145306340D02*
X173019048Y-145268245D01*
X173019048Y-145268245D02*
X172980953Y-145230149D01*
X172980953Y-145230149D02*
X172942857Y-145153959D01*
X172942857Y-145153959D02*
X172942857Y-144925387D01*
X172942857Y-144925387D02*
X172980953Y-144849197D01*
X172980953Y-144849197D02*
X173019048Y-144811102D01*
X173019048Y-144811102D02*
X173095238Y-144773006D01*
X173095238Y-144773006D02*
X173209524Y-144773006D01*
X173209524Y-144773006D02*
X173285715Y-144811102D01*
X173285715Y-144811102D02*
X173323810Y-144849197D01*
X173323810Y-144849197D02*
X173361905Y-144925387D01*
X173361905Y-144925387D02*
X173361905Y-145153959D01*
X173361905Y-145153959D02*
X173323810Y-145230149D01*
X173323810Y-145230149D02*
X173285715Y-145268245D01*
X173285715Y-145268245D02*
X173209524Y-145306340D01*
X173209524Y-145306340D02*
X173095238Y-145306340D01*
X174047620Y-145306340D02*
X174047620Y-144506340D01*
X174047620Y-145268245D02*
X173971429Y-145306340D01*
X173971429Y-145306340D02*
X173819048Y-145306340D01*
X173819048Y-145306340D02*
X173742858Y-145268245D01*
X173742858Y-145268245D02*
X173704763Y-145230149D01*
X173704763Y-145230149D02*
X173666667Y-145153959D01*
X173666667Y-145153959D02*
X173666667Y-144925387D01*
X173666667Y-144925387D02*
X173704763Y-144849197D01*
X173704763Y-144849197D02*
X173742858Y-144811102D01*
X173742858Y-144811102D02*
X173819048Y-144773006D01*
X173819048Y-144773006D02*
X173971429Y-144773006D01*
X173971429Y-144773006D02*
X174047620Y-144811102D01*
X174733335Y-145268245D02*
X174657144Y-145306340D01*
X174657144Y-145306340D02*
X174504763Y-145306340D01*
X174504763Y-145306340D02*
X174428573Y-145268245D01*
X174428573Y-145268245D02*
X174390477Y-145192054D01*
X174390477Y-145192054D02*
X174390477Y-144887292D01*
X174390477Y-144887292D02*
X174428573Y-144811102D01*
X174428573Y-144811102D02*
X174504763Y-144773006D01*
X174504763Y-144773006D02*
X174657144Y-144773006D01*
X174657144Y-144773006D02*
X174733335Y-144811102D01*
X174733335Y-144811102D02*
X174771430Y-144887292D01*
X174771430Y-144887292D02*
X174771430Y-144963483D01*
X174771430Y-144963483D02*
X174390477Y-145039673D01*
X175114287Y-145306340D02*
X175114287Y-144773006D01*
X175114287Y-144925387D02*
X175152382Y-144849197D01*
X175152382Y-144849197D02*
X175190477Y-144811102D01*
X175190477Y-144811102D02*
X175266668Y-144773006D01*
X175266668Y-144773006D02*
X175342858Y-144773006D01*
X168314286Y-146594295D02*
X168047619Y-146213342D01*
X167857143Y-146594295D02*
X167857143Y-145794295D01*
X167857143Y-145794295D02*
X168161905Y-145794295D01*
X168161905Y-145794295D02*
X168238095Y-145832390D01*
X168238095Y-145832390D02*
X168276190Y-145870485D01*
X168276190Y-145870485D02*
X168314286Y-145946676D01*
X168314286Y-145946676D02*
X168314286Y-146060961D01*
X168314286Y-146060961D02*
X168276190Y-146137152D01*
X168276190Y-146137152D02*
X168238095Y-146175247D01*
X168238095Y-146175247D02*
X168161905Y-146213342D01*
X168161905Y-146213342D02*
X167857143Y-146213342D01*
X168961905Y-146556200D02*
X168885714Y-146594295D01*
X168885714Y-146594295D02*
X168733333Y-146594295D01*
X168733333Y-146594295D02*
X168657143Y-146556200D01*
X168657143Y-146556200D02*
X168619047Y-146480009D01*
X168619047Y-146480009D02*
X168619047Y-146175247D01*
X168619047Y-146175247D02*
X168657143Y-146099057D01*
X168657143Y-146099057D02*
X168733333Y-146060961D01*
X168733333Y-146060961D02*
X168885714Y-146060961D01*
X168885714Y-146060961D02*
X168961905Y-146099057D01*
X168961905Y-146099057D02*
X169000000Y-146175247D01*
X169000000Y-146175247D02*
X169000000Y-146251438D01*
X169000000Y-146251438D02*
X168619047Y-146327628D01*
X169266666Y-146060961D02*
X169457142Y-146594295D01*
X169457142Y-146594295D02*
X169647619Y-146060961D01*
X170485714Y-145794295D02*
X170980952Y-145794295D01*
X170980952Y-145794295D02*
X170714286Y-146099057D01*
X170714286Y-146099057D02*
X170828571Y-146099057D01*
X170828571Y-146099057D02*
X170904762Y-146137152D01*
X170904762Y-146137152D02*
X170942857Y-146175247D01*
X170942857Y-146175247D02*
X170980952Y-146251438D01*
X170980952Y-146251438D02*
X170980952Y-146441914D01*
X170980952Y-146441914D02*
X170942857Y-146518104D01*
X170942857Y-146518104D02*
X170904762Y-146556200D01*
X170904762Y-146556200D02*
X170828571Y-146594295D01*
X170828571Y-146594295D02*
X170600000Y-146594295D01*
X170600000Y-146594295D02*
X170523809Y-146556200D01*
X170523809Y-146556200D02*
X170485714Y-146518104D01*
D10*
X211048558Y-144052733D02*
X212572368Y-144052733D01*
D12*
X188221647Y-153696015D02*
X188221647Y-152696015D01*
X188221647Y-153076967D02*
X188316885Y-153029348D01*
X188316885Y-153029348D02*
X188507361Y-153029348D01*
X188507361Y-153029348D02*
X188602599Y-153076967D01*
X188602599Y-153076967D02*
X188650218Y-153124586D01*
X188650218Y-153124586D02*
X188697837Y-153219824D01*
X188697837Y-153219824D02*
X188697837Y-153505538D01*
X188697837Y-153505538D02*
X188650218Y-153600776D01*
X188650218Y-153600776D02*
X188602599Y-153648396D01*
X188602599Y-153648396D02*
X188507361Y-153696015D01*
X188507361Y-153696015D02*
X188316885Y-153696015D01*
X188316885Y-153696015D02*
X188221647Y-153648396D01*
X189269266Y-153696015D02*
X189174028Y-153648396D01*
X189174028Y-153648396D02*
X189126409Y-153553157D01*
X189126409Y-153553157D02*
X189126409Y-152696015D01*
D10*
X183277733Y-134701441D02*
X183277733Y-133177632D01*
X190148558Y-134077733D02*
X191672368Y-134077733D01*
X190910463Y-134839638D02*
X190910463Y-133315828D01*
D11*
X163895180Y-122852779D02*
X164895180Y-122852779D01*
X163895180Y-123328969D02*
X164895180Y-123328969D01*
X164895180Y-123328969D02*
X163895180Y-123900397D01*
X163895180Y-123900397D02*
X164895180Y-123900397D01*
D12*
X180745456Y-152768634D02*
X180650218Y-152721015D01*
X180650218Y-152721015D02*
X180507361Y-152721015D01*
X180507361Y-152721015D02*
X180364504Y-152768634D01*
X180364504Y-152768634D02*
X180269266Y-152863872D01*
X180269266Y-152863872D02*
X180221647Y-152959110D01*
X180221647Y-152959110D02*
X180174028Y-153149586D01*
X180174028Y-153149586D02*
X180174028Y-153292443D01*
X180174028Y-153292443D02*
X180221647Y-153482919D01*
X180221647Y-153482919D02*
X180269266Y-153578157D01*
X180269266Y-153578157D02*
X180364504Y-153673396D01*
X180364504Y-153673396D02*
X180507361Y-153721015D01*
X180507361Y-153721015D02*
X180602599Y-153721015D01*
X180602599Y-153721015D02*
X180745456Y-153673396D01*
X180745456Y-153673396D02*
X180793075Y-153625776D01*
X180793075Y-153625776D02*
X180793075Y-153292443D01*
X180793075Y-153292443D02*
X180602599Y-153292443D01*
D10*
X160548558Y-149352733D02*
X162072368Y-149352733D01*
X161310463Y-150114638D02*
X161310463Y-148590828D01*
D11*
X193254819Y-126238094D02*
X192254819Y-126238094D01*
X192254819Y-126238094D02*
X192254819Y-125999999D01*
X192254819Y-125999999D02*
X192302438Y-125857142D01*
X192302438Y-125857142D02*
X192397676Y-125761904D01*
X192397676Y-125761904D02*
X192492914Y-125714285D01*
X192492914Y-125714285D02*
X192683390Y-125666666D01*
X192683390Y-125666666D02*
X192826247Y-125666666D01*
X192826247Y-125666666D02*
X193016723Y-125714285D01*
X193016723Y-125714285D02*
X193111961Y-125761904D01*
X193111961Y-125761904D02*
X193207200Y-125857142D01*
X193207200Y-125857142D02*
X193254819Y-125999999D01*
X193254819Y-125999999D02*
X193254819Y-126238094D01*
X193254819Y-124714285D02*
X193254819Y-125285713D01*
X193254819Y-124999999D02*
X192254819Y-124999999D01*
X192254819Y-124999999D02*
X192397676Y-125095237D01*
X192397676Y-125095237D02*
X192492914Y-125190475D01*
X192492914Y-125190475D02*
X192540533Y-125285713D01*
X202370833Y-130374819D02*
X202037500Y-129898628D01*
X201799405Y-130374819D02*
X201799405Y-129374819D01*
X201799405Y-129374819D02*
X202180357Y-129374819D01*
X202180357Y-129374819D02*
X202275595Y-129422438D01*
X202275595Y-129422438D02*
X202323214Y-129470057D01*
X202323214Y-129470057D02*
X202370833Y-129565295D01*
X202370833Y-129565295D02*
X202370833Y-129708152D01*
X202370833Y-129708152D02*
X202323214Y-129803390D01*
X202323214Y-129803390D02*
X202275595Y-129851009D01*
X202275595Y-129851009D02*
X202180357Y-129898628D01*
X202180357Y-129898628D02*
X201799405Y-129898628D01*
X202751786Y-129470057D02*
X202799405Y-129422438D01*
X202799405Y-129422438D02*
X202894643Y-129374819D01*
X202894643Y-129374819D02*
X203132738Y-129374819D01*
X203132738Y-129374819D02*
X203227976Y-129422438D01*
X203227976Y-129422438D02*
X203275595Y-129470057D01*
X203275595Y-129470057D02*
X203323214Y-129565295D01*
X203323214Y-129565295D02*
X203323214Y-129660533D01*
X203323214Y-129660533D02*
X203275595Y-129803390D01*
X203275595Y-129803390D02*
X202704167Y-130374819D01*
X202704167Y-130374819D02*
X203323214Y-130374819D01*
D13*
X171940666Y-128838609D02*
X171607333Y-128838609D01*
X171607333Y-129362419D02*
X171607333Y-128362419D01*
X171607333Y-128362419D02*
X172083523Y-128362419D01*
X172988285Y-129362419D02*
X172416857Y-129362419D01*
X172702571Y-129362419D02*
X172702571Y-128362419D01*
X172702571Y-128362419D02*
X172607333Y-128505276D01*
X172607333Y-128505276D02*
X172512095Y-128600514D01*
X172512095Y-128600514D02*
X172416857Y-128648133D01*
D11*
X204333333Y-140229819D02*
X204000000Y-139753628D01*
X203761905Y-140229819D02*
X203761905Y-139229819D01*
X203761905Y-139229819D02*
X204142857Y-139229819D01*
X204142857Y-139229819D02*
X204238095Y-139277438D01*
X204238095Y-139277438D02*
X204285714Y-139325057D01*
X204285714Y-139325057D02*
X204333333Y-139420295D01*
X204333333Y-139420295D02*
X204333333Y-139563152D01*
X204333333Y-139563152D02*
X204285714Y-139658390D01*
X204285714Y-139658390D02*
X204238095Y-139706009D01*
X204238095Y-139706009D02*
X204142857Y-139753628D01*
X204142857Y-139753628D02*
X203761905Y-139753628D01*
X205285714Y-140229819D02*
X204714286Y-140229819D01*
X205000000Y-140229819D02*
X205000000Y-139229819D01*
X205000000Y-139229819D02*
X204904762Y-139372676D01*
X204904762Y-139372676D02*
X204809524Y-139467914D01*
X204809524Y-139467914D02*
X204714286Y-139515533D01*
X138275714Y-149680819D02*
X137704286Y-149680819D01*
X137990000Y-149680819D02*
X137990000Y-148680819D01*
X137990000Y-148680819D02*
X137894762Y-148823676D01*
X137894762Y-148823676D02*
X137799524Y-148918914D01*
X137799524Y-148918914D02*
X137704286Y-148966533D01*
X208664819Y-130148333D02*
X209379104Y-130148333D01*
X209379104Y-130148333D02*
X209521961Y-130195952D01*
X209521961Y-130195952D02*
X209617200Y-130291190D01*
X209617200Y-130291190D02*
X209664819Y-130434047D01*
X209664819Y-130434047D02*
X209664819Y-130529285D01*
X208760057Y-129719761D02*
X208712438Y-129672142D01*
X208712438Y-129672142D02*
X208664819Y-129576904D01*
X208664819Y-129576904D02*
X208664819Y-129338809D01*
X208664819Y-129338809D02*
X208712438Y-129243571D01*
X208712438Y-129243571D02*
X208760057Y-129195952D01*
X208760057Y-129195952D02*
X208855295Y-129148333D01*
X208855295Y-129148333D02*
X208950533Y-129148333D01*
X208950533Y-129148333D02*
X209093390Y-129195952D01*
X209093390Y-129195952D02*
X209664819Y-129767380D01*
X209664819Y-129767380D02*
X209664819Y-129148333D01*
X192733333Y-138259580D02*
X192685714Y-138307200D01*
X192685714Y-138307200D02*
X192542857Y-138354819D01*
X192542857Y-138354819D02*
X192447619Y-138354819D01*
X192447619Y-138354819D02*
X192304762Y-138307200D01*
X192304762Y-138307200D02*
X192209524Y-138211961D01*
X192209524Y-138211961D02*
X192161905Y-138116723D01*
X192161905Y-138116723D02*
X192114286Y-137926247D01*
X192114286Y-137926247D02*
X192114286Y-137783390D01*
X192114286Y-137783390D02*
X192161905Y-137592914D01*
X192161905Y-137592914D02*
X192209524Y-137497676D01*
X192209524Y-137497676D02*
X192304762Y-137402438D01*
X192304762Y-137402438D02*
X192447619Y-137354819D01*
X192447619Y-137354819D02*
X192542857Y-137354819D01*
X192542857Y-137354819D02*
X192685714Y-137402438D01*
X192685714Y-137402438D02*
X192733333Y-137450057D01*
X193114286Y-137450057D02*
X193161905Y-137402438D01*
X193161905Y-137402438D02*
X193257143Y-137354819D01*
X193257143Y-137354819D02*
X193495238Y-137354819D01*
X193495238Y-137354819D02*
X193590476Y-137402438D01*
X193590476Y-137402438D02*
X193638095Y-137450057D01*
X193638095Y-137450057D02*
X193685714Y-137545295D01*
X193685714Y-137545295D02*
X193685714Y-137640533D01*
X193685714Y-137640533D02*
X193638095Y-137783390D01*
X193638095Y-137783390D02*
X193066667Y-138354819D01*
X193066667Y-138354819D02*
X193685714Y-138354819D01*
X204738095Y-129754819D02*
X204738095Y-130564342D01*
X204738095Y-130564342D02*
X204785714Y-130659580D01*
X204785714Y-130659580D02*
X204833333Y-130707200D01*
X204833333Y-130707200D02*
X204928571Y-130754819D01*
X204928571Y-130754819D02*
X205119047Y-130754819D01*
X205119047Y-130754819D02*
X205214285Y-130707200D01*
X205214285Y-130707200D02*
X205261904Y-130659580D01*
X205261904Y-130659580D02*
X205309523Y-130564342D01*
X205309523Y-130564342D02*
X205309523Y-129754819D01*
X206309523Y-130754819D02*
X205738095Y-130754819D01*
X206023809Y-130754819D02*
X206023809Y-129754819D01*
X206023809Y-129754819D02*
X205928571Y-129897676D01*
X205928571Y-129897676D02*
X205833333Y-129992914D01*
X205833333Y-129992914D02*
X205738095Y-130040533D01*
X199533333Y-139879580D02*
X199485714Y-139927200D01*
X199485714Y-139927200D02*
X199342857Y-139974819D01*
X199342857Y-139974819D02*
X199247619Y-139974819D01*
X199247619Y-139974819D02*
X199104762Y-139927200D01*
X199104762Y-139927200D02*
X199009524Y-139831961D01*
X199009524Y-139831961D02*
X198961905Y-139736723D01*
X198961905Y-139736723D02*
X198914286Y-139546247D01*
X198914286Y-139546247D02*
X198914286Y-139403390D01*
X198914286Y-139403390D02*
X198961905Y-139212914D01*
X198961905Y-139212914D02*
X199009524Y-139117676D01*
X199009524Y-139117676D02*
X199104762Y-139022438D01*
X199104762Y-139022438D02*
X199247619Y-138974819D01*
X199247619Y-138974819D02*
X199342857Y-138974819D01*
X199342857Y-138974819D02*
X199485714Y-139022438D01*
X199485714Y-139022438D02*
X199533333Y-139070057D01*
X200485714Y-139974819D02*
X199914286Y-139974819D01*
X200200000Y-139974819D02*
X200200000Y-138974819D01*
X200200000Y-138974819D02*
X200104762Y-139117676D01*
X200104762Y-139117676D02*
X200009524Y-139212914D01*
X200009524Y-139212914D02*
X199914286Y-139260533D01*
X186833333Y-142909580D02*
X186785714Y-142957200D01*
X186785714Y-142957200D02*
X186642857Y-143004819D01*
X186642857Y-143004819D02*
X186547619Y-143004819D01*
X186547619Y-143004819D02*
X186404762Y-142957200D01*
X186404762Y-142957200D02*
X186309524Y-142861961D01*
X186309524Y-142861961D02*
X186261905Y-142766723D01*
X186261905Y-142766723D02*
X186214286Y-142576247D01*
X186214286Y-142576247D02*
X186214286Y-142433390D01*
X186214286Y-142433390D02*
X186261905Y-142242914D01*
X186261905Y-142242914D02*
X186309524Y-142147676D01*
X186309524Y-142147676D02*
X186404762Y-142052438D01*
X186404762Y-142052438D02*
X186547619Y-142004819D01*
X186547619Y-142004819D02*
X186642857Y-142004819D01*
X186642857Y-142004819D02*
X186785714Y-142052438D01*
X186785714Y-142052438D02*
X186833333Y-142100057D01*
X187166667Y-142004819D02*
X187785714Y-142004819D01*
X187785714Y-142004819D02*
X187452381Y-142385771D01*
X187452381Y-142385771D02*
X187595238Y-142385771D01*
X187595238Y-142385771D02*
X187690476Y-142433390D01*
X187690476Y-142433390D02*
X187738095Y-142481009D01*
X187738095Y-142481009D02*
X187785714Y-142576247D01*
X187785714Y-142576247D02*
X187785714Y-142814342D01*
X187785714Y-142814342D02*
X187738095Y-142909580D01*
X187738095Y-142909580D02*
X187690476Y-142957200D01*
X187690476Y-142957200D02*
X187595238Y-143004819D01*
X187595238Y-143004819D02*
X187309524Y-143004819D01*
X187309524Y-143004819D02*
X187214286Y-142957200D01*
X187214286Y-142957200D02*
X187166667Y-142909580D01*
X216823666Y-138969803D02*
X216823666Y-139684088D01*
X216823666Y-139684088D02*
X216776047Y-139826945D01*
X216776047Y-139826945D02*
X216680809Y-139922184D01*
X216680809Y-139922184D02*
X216537952Y-139969803D01*
X216537952Y-139969803D02*
X216442714Y-139969803D01*
X217776047Y-138969803D02*
X217299857Y-138969803D01*
X217299857Y-138969803D02*
X217252238Y-139445993D01*
X217252238Y-139445993D02*
X217299857Y-139398374D01*
X217299857Y-139398374D02*
X217395095Y-139350755D01*
X217395095Y-139350755D02*
X217633190Y-139350755D01*
X217633190Y-139350755D02*
X217728428Y-139398374D01*
X217728428Y-139398374D02*
X217776047Y-139445993D01*
X217776047Y-139445993D02*
X217823666Y-139541231D01*
X217823666Y-139541231D02*
X217823666Y-139779326D01*
X217823666Y-139779326D02*
X217776047Y-139874564D01*
X217776047Y-139874564D02*
X217728428Y-139922184D01*
X217728428Y-139922184D02*
X217633190Y-139969803D01*
X217633190Y-139969803D02*
X217395095Y-139969803D01*
X217395095Y-139969803D02*
X217299857Y-139922184D01*
X217299857Y-139922184D02*
X217252238Y-139874564D01*
X235267714Y-144854803D02*
X234696286Y-144854803D01*
X234982000Y-144854803D02*
X234982000Y-143854803D01*
X234982000Y-143854803D02*
X234886762Y-143997660D01*
X234886762Y-143997660D02*
X234791524Y-144092898D01*
X234791524Y-144092898D02*
X234696286Y-144140517D01*
X195890095Y-134910819D02*
X195890095Y-135720342D01*
X195890095Y-135720342D02*
X195937714Y-135815580D01*
X195937714Y-135815580D02*
X195985333Y-135863200D01*
X195985333Y-135863200D02*
X196080571Y-135910819D01*
X196080571Y-135910819D02*
X196271047Y-135910819D01*
X196271047Y-135910819D02*
X196366285Y-135863200D01*
X196366285Y-135863200D02*
X196413904Y-135815580D01*
X196413904Y-135815580D02*
X196461523Y-135720342D01*
X196461523Y-135720342D02*
X196461523Y-134910819D01*
X196842476Y-134910819D02*
X197461523Y-134910819D01*
X197461523Y-134910819D02*
X197128190Y-135291771D01*
X197128190Y-135291771D02*
X197271047Y-135291771D01*
X197271047Y-135291771D02*
X197366285Y-135339390D01*
X197366285Y-135339390D02*
X197413904Y-135387009D01*
X197413904Y-135387009D02*
X197461523Y-135482247D01*
X197461523Y-135482247D02*
X197461523Y-135720342D01*
X197461523Y-135720342D02*
X197413904Y-135815580D01*
X197413904Y-135815580D02*
X197366285Y-135863200D01*
X197366285Y-135863200D02*
X197271047Y-135910819D01*
X197271047Y-135910819D02*
X196985333Y-135910819D01*
X196985333Y-135910819D02*
X196890095Y-135863200D01*
X196890095Y-135863200D02*
X196842476Y-135815580D01*
X179066666Y-123954819D02*
X179066666Y-124669104D01*
X179066666Y-124669104D02*
X179019047Y-124811961D01*
X179019047Y-124811961D02*
X178923809Y-124907200D01*
X178923809Y-124907200D02*
X178780952Y-124954819D01*
X178780952Y-124954819D02*
X178685714Y-124954819D01*
X179542857Y-124954819D02*
X179542857Y-123954819D01*
X179542857Y-123954819D02*
X179923809Y-123954819D01*
X179923809Y-123954819D02*
X180019047Y-124002438D01*
X180019047Y-124002438D02*
X180066666Y-124050057D01*
X180066666Y-124050057D02*
X180114285Y-124145295D01*
X180114285Y-124145295D02*
X180114285Y-124288152D01*
X180114285Y-124288152D02*
X180066666Y-124383390D01*
X180066666Y-124383390D02*
X180019047Y-124431009D01*
X180019047Y-124431009D02*
X179923809Y-124478628D01*
X179923809Y-124478628D02*
X179542857Y-124478628D01*
X180590476Y-124954819D02*
X180780952Y-124954819D01*
X180780952Y-124954819D02*
X180876190Y-124907200D01*
X180876190Y-124907200D02*
X180923809Y-124859580D01*
X180923809Y-124859580D02*
X181019047Y-124716723D01*
X181019047Y-124716723D02*
X181066666Y-124526247D01*
X181066666Y-124526247D02*
X181066666Y-124145295D01*
X181066666Y-124145295D02*
X181019047Y-124050057D01*
X181019047Y-124050057D02*
X180971428Y-124002438D01*
X180971428Y-124002438D02*
X180876190Y-123954819D01*
X180876190Y-123954819D02*
X180685714Y-123954819D01*
X180685714Y-123954819D02*
X180590476Y-124002438D01*
X180590476Y-124002438D02*
X180542857Y-124050057D01*
X180542857Y-124050057D02*
X180495238Y-124145295D01*
X180495238Y-124145295D02*
X180495238Y-124383390D01*
X180495238Y-124383390D02*
X180542857Y-124478628D01*
X180542857Y-124478628D02*
X180590476Y-124526247D01*
X180590476Y-124526247D02*
X180685714Y-124573866D01*
X180685714Y-124573866D02*
X180876190Y-124573866D01*
X180876190Y-124573866D02*
X180971428Y-124526247D01*
X180971428Y-124526247D02*
X181019047Y-124478628D01*
X181019047Y-124478628D02*
X181066666Y-124383390D01*
X163144819Y-130048333D02*
X163859104Y-130048333D01*
X163859104Y-130048333D02*
X164001961Y-130095952D01*
X164001961Y-130095952D02*
X164097200Y-130191190D01*
X164097200Y-130191190D02*
X164144819Y-130334047D01*
X164144819Y-130334047D02*
X164144819Y-130429285D01*
X164144819Y-129048333D02*
X164144819Y-129619761D01*
X164144819Y-129334047D02*
X163144819Y-129334047D01*
X163144819Y-129334047D02*
X163287676Y-129429285D01*
X163287676Y-129429285D02*
X163382914Y-129524523D01*
X163382914Y-129524523D02*
X163430533Y-129619761D01*
X186702666Y-128528319D02*
X186702666Y-129242604D01*
X186702666Y-129242604D02*
X186655047Y-129385461D01*
X186655047Y-129385461D02*
X186559809Y-129480700D01*
X186559809Y-129480700D02*
X186416952Y-129528319D01*
X186416952Y-129528319D02*
X186321714Y-129528319D01*
X187083619Y-128528319D02*
X187702666Y-128528319D01*
X187702666Y-128528319D02*
X187369333Y-128909271D01*
X187369333Y-128909271D02*
X187512190Y-128909271D01*
X187512190Y-128909271D02*
X187607428Y-128956890D01*
X187607428Y-128956890D02*
X187655047Y-129004509D01*
X187655047Y-129004509D02*
X187702666Y-129099747D01*
X187702666Y-129099747D02*
X187702666Y-129337842D01*
X187702666Y-129337842D02*
X187655047Y-129433080D01*
X187655047Y-129433080D02*
X187607428Y-129480700D01*
X187607428Y-129480700D02*
X187512190Y-129528319D01*
X187512190Y-129528319D02*
X187226476Y-129528319D01*
X187226476Y-129528319D02*
X187131238Y-129480700D01*
X187131238Y-129480700D02*
X187083619Y-129433080D01*
D14*
X193235000Y-121364000D02*
X193235000Y-121520000D01*
X193235000Y-123680000D02*
X193235000Y-123836000D01*
X193235001Y-121364485D02*
G75*
G02*
X196467334Y-121521392I1559999J-1235515D01*
G01*
X193754040Y-121520001D02*
G75*
G02*
X195836129Y-121520164I1040960J-1079999D01*
G01*
X195836129Y-123679836D02*
G75*
G02*
X193754040Y-123679999I-1041129J1079836D01*
G01*
X196467334Y-123678608D02*
G75*
G02*
X193235001Y-123835515I-1672334J1078608D01*
G01*
X176710000Y-149590000D02*
X178710000Y-149590000D01*
X176710000Y-152390000D02*
X176710000Y-149590000D01*
X178710000Y-149590000D02*
X178710000Y-152390000D01*
X178710000Y-152390000D02*
X176710000Y-152390000D01*
X203264564Y-127190000D02*
X201810436Y-127190000D01*
X203264564Y-129010000D02*
X201810436Y-129010000D01*
D15*
G36*
X168902573Y-142561229D02*
G01*
X168904962Y-142585564D01*
X168906758Y-142622237D01*
X168907781Y-142668070D01*
X168907950Y-142697313D01*
X168907950Y-142842216D01*
X168833161Y-142842216D01*
X168833161Y-142564096D01*
X168862375Y-142558254D01*
X168885297Y-142554145D01*
X168899693Y-142552411D01*
X168899770Y-142552411D01*
X168902573Y-142561229D01*
G37*
G36*
X168899197Y-142447086D02*
G01*
X168914791Y-142466781D01*
X168917298Y-142483499D01*
X168909683Y-142511033D01*
X168890069Y-142527933D01*
X168863302Y-142531680D01*
X168840173Y-142523616D01*
X168827859Y-142507104D01*
X168824097Y-142482630D01*
X168829526Y-142459172D01*
X168835031Y-142451446D01*
X168852512Y-142442808D01*
X168870555Y-142440228D01*
X168899197Y-142447086D01*
G37*
G36*
X168838323Y-140415023D02*
G01*
X168863957Y-140441101D01*
X168875623Y-140469476D01*
X168875795Y-140506671D01*
X168861670Y-140538465D01*
X168837078Y-140562589D01*
X168805851Y-140576773D01*
X168771817Y-140578750D01*
X168738807Y-140566248D01*
X168727396Y-140557293D01*
X168702828Y-140523786D01*
X168695113Y-140487149D01*
X168704086Y-140451313D01*
X168729582Y-140420212D01*
X168733289Y-140417322D01*
X168768277Y-140401406D01*
X168804859Y-140401216D01*
X168838323Y-140415023D01*
G37*
G36*
X168861412Y-140842677D02*
G01*
X168861627Y-140913878D01*
X168862240Y-140969026D01*
X168863433Y-141010764D01*
X168865386Y-141041734D01*
X168868280Y-141064579D01*
X168872296Y-141081942D01*
X168877615Y-141096466D01*
X168878977Y-141099542D01*
X168896337Y-141137766D01*
X168846929Y-141167319D01*
X168819551Y-141182924D01*
X168798302Y-141193634D01*
X168789044Y-141196871D01*
X168777739Y-141190542D01*
X168760733Y-141174938D01*
X168757211Y-141171163D01*
X168743492Y-141155075D01*
X168732834Y-141138972D01*
X168724853Y-141120317D01*
X168719163Y-141096576D01*
X168715383Y-141065212D01*
X168713126Y-141023689D01*
X168712009Y-140969472D01*
X168711649Y-140900024D01*
X168711630Y-140870246D01*
X168711630Y-140647334D01*
X168733055Y-140641957D01*
X168754264Y-140637863D01*
X168785691Y-140633132D01*
X168807843Y-140630308D01*
X168861207Y-140624036D01*
X168861412Y-140842677D01*
G37*
G36*
X170488689Y-142560635D02*
G01*
X170526954Y-142584085D01*
X170554443Y-142620951D01*
X170569543Y-142669393D01*
X170571991Y-142701987D01*
X170564863Y-142755323D01*
X170545066Y-142798516D01*
X170514979Y-142829869D01*
X170476981Y-142847684D01*
X170433453Y-142850262D01*
X170386774Y-142835906D01*
X170385338Y-142835190D01*
X170348793Y-142806899D01*
X170325838Y-142765951D01*
X170316683Y-142712747D01*
X170316512Y-142703130D01*
X170316659Y-142701987D01*
X170403717Y-142701987D01*
X170406923Y-142745108D01*
X170417078Y-142772164D01*
X170434991Y-142784752D01*
X170446346Y-142786124D01*
X170467833Y-142779219D01*
X170478737Y-142762144D01*
X170484906Y-142736322D01*
X170487819Y-142705235D01*
X170487854Y-142701987D01*
X170483693Y-142657731D01*
X170471332Y-142629658D01*
X170450954Y-142618138D01*
X170446346Y-142617850D01*
X170424498Y-142624177D01*
X170410790Y-142644221D01*
X170404412Y-142679577D01*
X170403717Y-142701987D01*
X170316659Y-142701987D01*
X170323485Y-142648728D01*
X170343203Y-142604639D01*
X170374034Y-142572839D01*
X170414340Y-142555303D01*
X170441257Y-142552446D01*
X170488689Y-142560635D01*
G37*
G36*
X167755018Y-142557212D02*
G01*
X167771235Y-142561473D01*
X167803794Y-142577927D01*
X167823393Y-142603257D01*
X167832027Y-142640725D01*
X167832867Y-142662299D01*
X167825611Y-142723086D01*
X167804933Y-142774281D01*
X167772467Y-142813987D01*
X167729846Y-142840307D01*
X167678705Y-142851344D01*
X167669879Y-142851564D01*
X167636524Y-142848157D01*
X167610410Y-142835299D01*
X167597250Y-142824541D01*
X167579507Y-142806700D01*
X167570622Y-142789468D01*
X167567768Y-142765327D01*
X167567750Y-142746056D01*
X167567972Y-142744479D01*
X167655244Y-142744479D01*
X167657766Y-142777133D01*
X167666499Y-142793199D01*
X167683192Y-142794248D01*
X167701788Y-142786231D01*
X167718297Y-142768998D01*
X167732907Y-142739403D01*
X167743360Y-142703779D01*
X167747402Y-142668458D01*
X167747052Y-142659180D01*
X167743545Y-142635261D01*
X167735805Y-142624791D01*
X167720684Y-142622525D01*
X167703726Y-142626631D01*
X167689158Y-142641577D01*
X167676279Y-142664237D01*
X167663166Y-142698585D01*
X167655836Y-142734146D01*
X167655244Y-142744479D01*
X167567972Y-142744479D01*
X167575668Y-142689720D01*
X167596110Y-142640420D01*
X167626671Y-142600337D01*
X167664946Y-142571654D01*
X167708530Y-142556552D01*
X167755018Y-142557212D01*
G37*
G36*
X169064610Y-142557204D02*
G01*
X169070494Y-142564115D01*
X169078448Y-142572816D01*
X169090020Y-142572538D01*
X169110515Y-142563801D01*
X169145692Y-142554704D01*
X169180686Y-142558226D01*
X169209511Y-142572984D01*
X169223093Y-142589805D01*
X169228885Y-142611138D01*
X169233039Y-142646441D01*
X169235048Y-142691022D01*
X169235154Y-142701987D01*
X169236143Y-142742122D01*
X169238562Y-142775984D01*
X169241984Y-142798645D01*
X169244018Y-142804367D01*
X169245490Y-142816921D01*
X169231744Y-142830395D01*
X169224952Y-142834749D01*
X169204546Y-142846896D01*
X169193181Y-142849741D01*
X169183451Y-142842877D01*
X169173495Y-142831908D01*
X169164753Y-142818763D01*
X169158887Y-142799659D01*
X169155139Y-142770549D01*
X169152751Y-142727383D01*
X169152473Y-142719725D01*
X169150644Y-142677167D01*
X169148235Y-142649973D01*
X169144518Y-142634810D01*
X169138762Y-142628346D01*
X169132203Y-142627199D01*
X169112598Y-142628259D01*
X169099421Y-142633494D01*
X169091404Y-142645992D01*
X169087273Y-142668838D01*
X169085757Y-142705118D01*
X169085572Y-142740382D01*
X169085572Y-142842216D01*
X169002396Y-142842216D01*
X168999578Y-142706599D01*
X168996761Y-142570983D01*
X169029076Y-142560334D01*
X169052014Y-142554461D01*
X169064610Y-142557204D01*
G37*
G36*
X169401158Y-142557204D02*
G01*
X169407042Y-142564115D01*
X169414995Y-142572816D01*
X169426568Y-142572538D01*
X169447063Y-142563801D01*
X169482240Y-142554704D01*
X169517233Y-142558226D01*
X169546059Y-142572984D01*
X169559641Y-142589805D01*
X169565433Y-142611138D01*
X169569586Y-142646441D01*
X169571596Y-142691022D01*
X169571702Y-142701987D01*
X169572691Y-142742122D01*
X169575109Y-142775984D01*
X169578531Y-142798645D01*
X169580566Y-142804367D01*
X169582037Y-142816921D01*
X169568292Y-142830395D01*
X169561500Y-142834749D01*
X169541094Y-142846896D01*
X169529729Y-142849741D01*
X169519999Y-142842877D01*
X169510043Y-142831908D01*
X169501300Y-142818763D01*
X169495435Y-142799659D01*
X169491687Y-142770549D01*
X169489299Y-142727383D01*
X169489021Y-142719725D01*
X169487191Y-142677167D01*
X169484783Y-142649973D01*
X169481066Y-142634810D01*
X169475310Y-142628346D01*
X169468751Y-142627199D01*
X169449145Y-142628259D01*
X169435969Y-142633494D01*
X169427951Y-142645992D01*
X169423820Y-142668838D01*
X169422305Y-142705118D01*
X169422120Y-142740382D01*
X169422120Y-142842216D01*
X169338943Y-142842216D01*
X169336126Y-142706599D01*
X169333309Y-142570983D01*
X169365624Y-142560334D01*
X169388562Y-142554461D01*
X169401158Y-142557204D01*
G37*
G36*
X170749613Y-142513976D02*
G01*
X170750644Y-142538383D01*
X170756312Y-142549401D01*
X170770478Y-142552322D01*
X170777659Y-142552411D01*
X170799524Y-142556315D01*
X170805705Y-142567048D01*
X170799500Y-142592963D01*
X170784089Y-142611947D01*
X170767631Y-142617850D01*
X170758886Y-142619090D01*
X170753573Y-142625154D01*
X170751039Y-142639561D01*
X170750631Y-142665830D01*
X170751600Y-142704325D01*
X170754288Y-142790799D01*
X170779042Y-142789169D01*
X170798314Y-142791734D01*
X170807224Y-142806391D01*
X170808599Y-142812541D01*
X170810951Y-142832146D01*
X170809759Y-142841231D01*
X170799131Y-142844179D01*
X170776069Y-142847601D01*
X170759865Y-142849365D01*
X170729983Y-142850776D01*
X170710527Y-142846288D01*
X170693596Y-142833697D01*
X170689545Y-142829740D01*
X170678543Y-142817532D01*
X170671525Y-142804580D01*
X170667602Y-142786524D01*
X170665883Y-142759002D01*
X170665479Y-142717652D01*
X170665476Y-142711761D01*
X170665016Y-142668054D01*
X170663330Y-142639958D01*
X170659960Y-142624403D01*
X170654447Y-142618320D01*
X170651454Y-142617850D01*
X170640373Y-142609579D01*
X170637431Y-142589511D01*
X170641816Y-142566584D01*
X170651454Y-142555791D01*
X170661892Y-142543214D01*
X170665476Y-142523917D01*
X170666800Y-142504766D01*
X170673844Y-142493751D01*
X170691215Y-142486952D01*
X170714627Y-142482105D01*
X170749613Y-142475541D01*
X170749613Y-142513976D01*
G37*
G36*
X170164450Y-142556945D02*
G01*
X170193689Y-142565962D01*
X170214427Y-142575982D01*
X170220897Y-142585621D01*
X170216501Y-142600607D01*
X170215539Y-142602744D01*
X170207606Y-142616037D01*
X170195818Y-142622713D01*
X170174644Y-142624657D01*
X170152422Y-142624250D01*
X170117455Y-142625672D01*
X170100183Y-142631991D01*
X170100639Y-142641971D01*
X170118855Y-142654376D01*
X170151306Y-142666863D01*
X170182808Y-142679350D01*
X170208676Y-142693983D01*
X170219083Y-142702956D01*
X170233929Y-142734479D01*
X170232975Y-142770384D01*
X170216667Y-142805796D01*
X170208787Y-142815663D01*
X170190896Y-142833098D01*
X170172388Y-142842609D01*
X170146090Y-142847057D01*
X170126987Y-142848318D01*
X170090970Y-142847917D01*
X170057783Y-142843853D01*
X170042132Y-142839667D01*
X170015906Y-142827984D01*
X170004763Y-142816483D01*
X170005800Y-142800240D01*
X170010860Y-142786652D01*
X170020398Y-142768085D01*
X170030537Y-142764212D01*
X170042281Y-142769117D01*
X170077025Y-142783021D01*
X170109938Y-142788226D01*
X170134842Y-142783922D01*
X170138466Y-142781742D01*
X170150111Y-142766067D01*
X170144946Y-142750895D01*
X170124754Y-142738722D01*
X170104054Y-142733541D01*
X170061802Y-142720257D01*
X170030647Y-142697139D01*
X170013496Y-142666831D01*
X170011078Y-142649125D01*
X170013824Y-142621316D01*
X170020456Y-142599109D01*
X170020704Y-142598636D01*
X170043246Y-142574863D01*
X170078024Y-142559365D01*
X170120079Y-142553080D01*
X170164450Y-142556945D01*
G37*
G36*
X168498390Y-140628209D02*
G01*
X168552589Y-140649633D01*
X168582809Y-140671003D01*
X168591199Y-140680278D01*
X168591669Y-140690509D01*
X168582981Y-140706687D01*
X168568986Y-140726736D01*
X168550972Y-140750779D01*
X168536662Y-140768030D01*
X168531220Y-140773236D01*
X168519039Y-140772061D01*
X168496951Y-140763594D01*
X168483613Y-140757010D01*
X168444399Y-140742034D01*
X168412685Y-140743180D01*
X168387917Y-140760891D01*
X168369538Y-140795608D01*
X168356992Y-140847771D01*
X168355347Y-140858785D01*
X168350816Y-140919310D01*
X168353978Y-140974568D01*
X168364221Y-141020865D01*
X168380930Y-141054508D01*
X168389357Y-141063655D01*
X168418604Y-141080776D01*
X168451097Y-141082284D01*
X168489787Y-141068106D01*
X168502935Y-141060847D01*
X168527650Y-141048040D01*
X168545927Y-141041614D01*
X168551281Y-141041740D01*
X168560740Y-141051691D01*
X168576146Y-141071647D01*
X168585083Y-141084196D01*
X168599778Y-141109078D01*
X168602738Y-141128052D01*
X168592343Y-141144283D01*
X168566973Y-141160938D01*
X168538682Y-141174896D01*
X168488783Y-141190704D01*
X168431888Y-141197063D01*
X168375422Y-141193819D01*
X168326811Y-141180814D01*
X168323666Y-141179430D01*
X168272108Y-141146061D01*
X168232445Y-141098762D01*
X168205111Y-141038380D01*
X168190543Y-140965761D01*
X168188112Y-140916415D01*
X168194583Y-140834982D01*
X168214180Y-140766579D01*
X168247177Y-140710655D01*
X168293847Y-140666661D01*
X168320855Y-140649800D01*
X168378001Y-140627926D01*
X168438687Y-140620851D01*
X168498390Y-140628209D01*
G37*
G36*
X169830403Y-142558611D02*
G01*
X169853299Y-142564525D01*
X169871569Y-142576826D01*
X169874785Y-142579762D01*
X169898827Y-142613728D01*
X169913660Y-142659296D01*
X169917541Y-142699650D01*
X169917593Y-142730033D01*
X169838130Y-142730033D01*
X169799273Y-142730457D01*
X169775518Y-142732234D01*
X169763280Y-142736124D01*
X169758974Y-142742885D01*
X169758667Y-142746860D01*
X169764586Y-142767598D01*
X169769886Y-142774906D01*
X169788920Y-142783400D01*
X169817417Y-142785703D01*
X169847173Y-142781755D01*
X169863713Y-142775592D01*
X169881114Y-142770249D01*
X169894014Y-142779665D01*
X169895818Y-142782053D01*
X169906716Y-142802561D01*
X169902722Y-142817975D01*
X169882304Y-142832292D01*
X169875207Y-142835810D01*
X169830136Y-142849113D01*
X169782808Y-142849526D01*
X169740534Y-142837183D01*
X169733413Y-142833246D01*
X169700585Y-142803034D01*
X169679051Y-142762206D01*
X169669180Y-142715319D01*
X169671342Y-142666929D01*
X169674850Y-142656009D01*
X169758667Y-142656009D01*
X169766963Y-142661385D01*
X169787685Y-142664375D01*
X169796062Y-142664593D01*
X169819480Y-142662689D01*
X169832504Y-142657932D01*
X169833456Y-142656009D01*
X169826311Y-142630950D01*
X169805974Y-142618763D01*
X169796062Y-142617850D01*
X169771504Y-142625142D01*
X169759562Y-142645894D01*
X169758667Y-142656009D01*
X169674850Y-142656009D01*
X169685905Y-142621594D01*
X169713204Y-142583905D01*
X169732255Y-142568192D01*
X169751892Y-142560119D01*
X169779518Y-142557288D01*
X169795922Y-142557085D01*
X169830403Y-142558611D01*
G37*
G36*
X171400284Y-141598433D02*
G01*
X171401569Y-141623500D01*
X171402641Y-141662158D01*
X171403441Y-141711853D01*
X171403911Y-141770033D01*
X171404011Y-141814176D01*
X171404231Y-141888983D01*
X171404978Y-141947495D01*
X171406387Y-141992109D01*
X171408591Y-142025220D01*
X171411723Y-142049227D01*
X171415918Y-142066527D01*
X171418457Y-142073414D01*
X171425811Y-142093867D01*
X171425750Y-142108672D01*
X171415783Y-142121464D01*
X171393419Y-142135877D01*
X171365502Y-142150721D01*
X171331668Y-142168253D01*
X171289384Y-142123245D01*
X171251552Y-142142545D01*
X171205416Y-142158669D01*
X171152686Y-142165729D01*
X171101611Y-142163112D01*
X171072866Y-142155805D01*
X171041501Y-142139630D01*
X171011664Y-142117433D01*
X171007427Y-142113410D01*
X170978653Y-142084647D01*
X170978653Y-141613047D01*
X171039418Y-141601696D01*
X171072346Y-141596427D01*
X171098652Y-141593814D01*
X171111869Y-141594309D01*
X171115849Y-141600264D01*
X171118891Y-141616254D01*
X171121089Y-141644027D01*
X171122536Y-141685331D01*
X171123326Y-141741911D01*
X171123555Y-141811712D01*
X171123891Y-141888046D01*
X171124946Y-141947054D01*
X171126786Y-141990098D01*
X171129480Y-142018539D01*
X171133096Y-142033736D01*
X171134773Y-142036371D01*
X171155643Y-142045884D01*
X171185405Y-142046952D01*
X171216578Y-142040160D01*
X171239151Y-142028214D01*
X171263783Y-142008838D01*
X171263783Y-141619055D01*
X171328731Y-141604283D01*
X171361413Y-141597003D01*
X171386385Y-141591727D01*
X171398586Y-141589522D01*
X171398846Y-141589510D01*
X171400284Y-141598433D01*
G37*
G36*
X170439954Y-140622986D02*
G01*
X170485881Y-140638077D01*
X170527723Y-140659415D01*
X170535394Y-140664572D01*
X170563002Y-140684231D01*
X170533113Y-140723197D01*
X170514717Y-140746995D01*
X170500525Y-140765026D01*
X170495912Y-140770672D01*
X170483801Y-140771751D01*
X170461049Y-140764002D01*
X170447832Y-140757553D01*
X170407880Y-140742602D01*
X170375247Y-140744547D01*
X170348825Y-140763591D01*
X170338767Y-140777629D01*
X170324497Y-140813127D01*
X170315360Y-140861342D01*
X170312010Y-140916837D01*
X170315100Y-140974177D01*
X170315121Y-140974358D01*
X170321264Y-141011414D01*
X170331088Y-141036883D01*
X170347427Y-141057859D01*
X170349192Y-141059648D01*
X170370099Y-141077414D01*
X170389380Y-141083271D01*
X170410853Y-141081426D01*
X170442498Y-141071877D01*
X170471263Y-141056560D01*
X170471826Y-141056148D01*
X170492712Y-141043418D01*
X170509293Y-141042454D01*
X170525880Y-141054811D01*
X170546782Y-141082040D01*
X170547824Y-141083541D01*
X170562597Y-141107649D01*
X170566514Y-141125591D01*
X170557888Y-141140811D01*
X170535029Y-141156753D01*
X170503947Y-141173047D01*
X170453028Y-141190365D01*
X170395058Y-141197390D01*
X170337406Y-141193905D01*
X170287442Y-141179694D01*
X170286860Y-141179430D01*
X170235348Y-141146036D01*
X170195244Y-141098621D01*
X170167206Y-141038463D01*
X170151894Y-140966840D01*
X170149087Y-140912299D01*
X170156636Y-140831285D01*
X170178304Y-140762289D01*
X170214236Y-140704912D01*
X170229652Y-140688055D01*
X170273823Y-140654670D01*
X170327460Y-140630236D01*
X170382701Y-140618042D01*
X170398941Y-140617262D01*
X170439954Y-140622986D01*
G37*
G36*
X168654383Y-142460831D02*
G01*
X168706956Y-142463599D01*
X168722632Y-142631873D01*
X168729074Y-142699998D01*
X168733871Y-142751715D01*
X168736772Y-142789261D01*
X168737524Y-142814873D01*
X168735877Y-142830788D01*
X168731578Y-142839243D01*
X168724376Y-142842476D01*
X168714018Y-142842723D01*
X168700253Y-142842221D01*
X168698959Y-142842216D01*
X168658243Y-142842216D01*
X168652283Y-142779113D01*
X168649056Y-142737737D01*
X168646865Y-142695889D01*
X168646257Y-142670047D01*
X168644986Y-142645236D01*
X168641805Y-142631734D01*
X168639233Y-142631041D01*
X168633996Y-142642391D01*
X168625153Y-142667803D01*
X168614017Y-142703302D01*
X168603921Y-142737770D01*
X168575567Y-142837541D01*
X168538114Y-142840317D01*
X168500660Y-142843093D01*
X168473226Y-142739320D01*
X168459871Y-142692107D01*
X168449453Y-142663232D01*
X168441705Y-142652612D01*
X168436359Y-142660164D01*
X168433146Y-142685806D01*
X168431831Y-142726527D01*
X168430496Y-142762931D01*
X168427751Y-142796260D01*
X168425331Y-142813001D01*
X168420122Y-142831267D01*
X168410294Y-142839730D01*
X168389897Y-142842122D01*
X168378767Y-142842216D01*
X168338046Y-142842216D01*
X168342742Y-142802484D01*
X168345171Y-142780221D01*
X168348724Y-142745495D01*
X168353042Y-142702044D01*
X168357768Y-142653606D01*
X168362542Y-142603921D01*
X168367007Y-142556726D01*
X168370804Y-142515760D01*
X168373574Y-142484761D01*
X168374960Y-142467467D01*
X168375052Y-142465470D01*
X168383518Y-142461892D01*
X168405407Y-142460324D01*
X168428568Y-142460796D01*
X168482054Y-142463599D01*
X168539826Y-142685621D01*
X168570818Y-142571842D01*
X168601811Y-142458063D01*
X168654383Y-142460831D01*
G37*
G36*
X170698826Y-141601301D02*
G01*
X170750993Y-141624063D01*
X170796015Y-141659512D01*
X170830795Y-141707362D01*
X170839181Y-141725064D01*
X170847082Y-141752144D01*
X170854066Y-141790679D01*
X170858889Y-141833431D01*
X170859631Y-141844258D01*
X170864389Y-141926058D01*
X170550832Y-141926058D01*
X170555945Y-141964178D01*
X170563112Y-141993187D01*
X170574343Y-142016546D01*
X170577003Y-142019917D01*
X170609545Y-142042789D01*
X170651251Y-142052997D01*
X170697465Y-142050471D01*
X170743531Y-142035141D01*
X170764892Y-142022762D01*
X170787696Y-142009033D01*
X170800840Y-142006575D01*
X170807256Y-142011877D01*
X170829590Y-142046038D01*
X170842902Y-142068277D01*
X170848464Y-142082282D01*
X170847549Y-142091740D01*
X170841430Y-142100337D01*
X170838799Y-142103267D01*
X170805147Y-142128748D01*
X170758631Y-142148239D01*
X170704361Y-142160901D01*
X170647449Y-142165894D01*
X170593003Y-142162379D01*
X170549292Y-142150831D01*
X170490917Y-142117807D01*
X170444996Y-142071140D01*
X170412007Y-142011548D01*
X170392432Y-141939748D01*
X170388720Y-141910622D01*
X170388843Y-141843043D01*
X170393959Y-141813876D01*
X170550847Y-141813876D01*
X170709709Y-141813876D01*
X170702505Y-141774483D01*
X170688735Y-141737519D01*
X170666022Y-141714026D01*
X170638266Y-141703890D01*
X170609367Y-141706993D01*
X170583226Y-141723221D01*
X170563745Y-141752457D01*
X170556429Y-141778818D01*
X170550847Y-141813876D01*
X170393959Y-141813876D01*
X170400536Y-141776379D01*
X170422393Y-141716831D01*
X170439246Y-141687891D01*
X170480671Y-141642894D01*
X170530438Y-141612024D01*
X170585452Y-141594994D01*
X170642614Y-141591516D01*
X170698826Y-141601301D01*
G37*
G36*
X171069532Y-142561695D02*
G01*
X171097700Y-142578492D01*
X171106947Y-142589902D01*
X171112546Y-142604445D01*
X171115242Y-142626547D01*
X171115780Y-142660636D01*
X171115464Y-142684031D01*
X171115827Y-142733705D01*
X171119241Y-142767632D01*
X171126009Y-142788555D01*
X171127299Y-142790690D01*
X171135069Y-142806386D01*
X171132097Y-142820185D01*
X171120440Y-142836330D01*
X171105777Y-142852598D01*
X171094717Y-142855595D01*
X171079897Y-142847190D01*
X171079312Y-142846778D01*
X171058291Y-142837296D01*
X171040196Y-142841800D01*
X171019794Y-142847806D01*
X170990322Y-142851247D01*
X170978842Y-142851564D01*
X170936785Y-142844922D01*
X170907969Y-142825111D01*
X170892572Y-142792303D01*
X170889841Y-142764941D01*
X170891427Y-142756538D01*
X170973978Y-142756538D01*
X170980699Y-142777767D01*
X170996414Y-142792760D01*
X171006698Y-142795473D01*
X171021787Y-142789477D01*
X171028200Y-142784255D01*
X171037309Y-142767069D01*
X171039447Y-142745854D01*
X171035011Y-142727949D01*
X171024781Y-142720685D01*
X170999863Y-142726475D01*
X170980689Y-142740640D01*
X170973978Y-142756538D01*
X170891427Y-142756538D01*
X170897732Y-142723130D01*
X170920537Y-142691734D01*
X170956954Y-142671857D01*
X171005685Y-142664605D01*
X171007957Y-142664593D01*
X171029792Y-142663022D01*
X171037912Y-142656022D01*
X171037731Y-142643654D01*
X171027821Y-142624819D01*
X171005733Y-142619841D01*
X170971917Y-142628788D01*
X170963287Y-142632479D01*
X170940027Y-142642243D01*
X170927106Y-142643800D01*
X170917969Y-142636963D01*
X170913308Y-142631047D01*
X170901594Y-142610215D01*
X170904164Y-142594059D01*
X170922557Y-142579357D01*
X170942655Y-142569527D01*
X170986079Y-142556632D01*
X171030265Y-142554131D01*
X171069532Y-142561695D01*
G37*
G36*
X169937546Y-140638914D02*
G01*
X169981701Y-140666982D01*
X169992381Y-140677550D01*
X170000398Y-140686819D01*
X170006415Y-140696686D01*
X170010804Y-140709929D01*
X170013939Y-140729326D01*
X170016191Y-140757654D01*
X170017932Y-140797692D01*
X170019535Y-140852217D01*
X170020427Y-140886760D01*
X170022373Y-140953097D01*
X170024568Y-141003474D01*
X170027281Y-141040629D01*
X170030780Y-141067300D01*
X170035336Y-141086222D01*
X170041217Y-141100135D01*
X170041461Y-141100585D01*
X170052215Y-141121356D01*
X170057657Y-141134028D01*
X170057821Y-141134956D01*
X170050349Y-141141805D01*
X170031471Y-141154040D01*
X170006493Y-141168662D01*
X169980719Y-141182671D01*
X169959454Y-141193069D01*
X169948286Y-141196871D01*
X169935545Y-141190530D01*
X169924843Y-141180512D01*
X169908250Y-141159890D01*
X169895733Y-141138946D01*
X169886618Y-141114545D01*
X169880227Y-141083552D01*
X169875886Y-141042832D01*
X169872919Y-140989248D01*
X169870949Y-140930438D01*
X169866176Y-140762164D01*
X169833456Y-140759617D01*
X169794982Y-140764612D01*
X169770543Y-140775723D01*
X169740351Y-140794378D01*
X169737824Y-140988613D01*
X169735296Y-141182849D01*
X169662703Y-141185582D01*
X169622318Y-141186078D01*
X169597878Y-141183653D01*
X169586814Y-141177994D01*
X169585903Y-141176233D01*
X169584697Y-141164003D01*
X169583430Y-141135630D01*
X169582165Y-141093671D01*
X169580970Y-141040678D01*
X169579911Y-140979208D01*
X169579052Y-140911814D01*
X169579033Y-140909972D01*
X169576371Y-140655792D01*
X169628401Y-140641201D01*
X169664678Y-140631569D01*
X169687297Y-140628058D01*
X169700471Y-140631296D01*
X169708415Y-140641911D01*
X169713037Y-140653827D01*
X169722525Y-140681044D01*
X169774265Y-140653827D01*
X169831518Y-140632086D01*
X169886715Y-140627198D01*
X169937546Y-140638914D01*
G37*
G36*
X171340578Y-142552867D02*
G01*
X171377193Y-142569851D01*
X171399994Y-142597966D01*
X171410856Y-142639503D01*
X171411993Y-142668472D01*
X171405134Y-142689402D01*
X171388716Y-142710574D01*
X171357450Y-142734236D01*
X171320206Y-142745812D01*
X171283409Y-142743923D01*
X171266040Y-142736850D01*
X171235188Y-142710377D01*
X171218815Y-142677975D01*
X171217384Y-142662898D01*
X171243595Y-142662898D01*
X171255641Y-142693025D01*
X171270665Y-142708999D01*
X171288189Y-142716545D01*
X171311270Y-142720155D01*
X171332987Y-142719620D01*
X171346416Y-142714729D01*
X171347920Y-142711336D01*
X171341912Y-142702249D01*
X171340072Y-142701987D01*
X171330900Y-142694474D01*
X171319822Y-142676395D01*
X171319765Y-142676279D01*
X171307307Y-142650570D01*
X171301905Y-142678086D01*
X171295141Y-142700371D01*
X171287913Y-142705254D01*
X171281329Y-142693965D01*
X171276495Y-142667733D01*
X171275023Y-142648233D01*
X171273766Y-142621839D01*
X171301177Y-142621839D01*
X171309041Y-142633976D01*
X171320654Y-142636548D01*
X171334901Y-142632081D01*
X171336239Y-142624862D01*
X171326180Y-142613221D01*
X171312044Y-142610356D01*
X171302121Y-142616981D01*
X171301177Y-142621839D01*
X171273766Y-142621839D01*
X171272240Y-142589805D01*
X171309751Y-142589805D01*
X171340728Y-142594803D01*
X171358305Y-142608228D01*
X171360514Y-142627728D01*
X171353301Y-142641836D01*
X171346644Y-142659881D01*
X171348389Y-142678448D01*
X171356288Y-142691809D01*
X171368094Y-142694236D01*
X171372759Y-142691421D01*
X171383923Y-142671302D01*
X171384783Y-142643116D01*
X171376088Y-142613879D01*
X171362368Y-142594054D01*
X171335001Y-142575094D01*
X171305094Y-142572920D01*
X171278711Y-142581745D01*
X171255498Y-142601443D01*
X171243670Y-142630433D01*
X171243595Y-142662898D01*
X171217384Y-142662898D01*
X171215509Y-142643131D01*
X171223855Y-142609332D01*
X171242441Y-142580066D01*
X171269855Y-142558820D01*
X171304683Y-142549083D01*
X171340578Y-142552867D01*
G37*
G36*
X168114832Y-142444283D02*
G01*
X168141432Y-142450092D01*
X168155980Y-142459876D01*
X168155525Y-142474202D01*
X168142537Y-142489631D01*
X168122303Y-142501606D01*
X168102855Y-142505668D01*
X168077511Y-142512467D01*
X168066909Y-142523750D01*
X168058186Y-142546247D01*
X168063952Y-142557984D01*
X168085878Y-142561718D01*
X168089952Y-142561759D01*
X168112820Y-142562667D01*
X168120948Y-142568369D01*
X168116591Y-142583336D01*
X168108734Y-142598988D01*
X168088140Y-142622489D01*
X168069198Y-142628907D01*
X168059069Y-142630692D01*
X168051371Y-142635245D01*
X168045030Y-142645428D01*
X168038971Y-142664105D01*
X168032121Y-142694139D01*
X168023405Y-142738392D01*
X168018552Y-142763897D01*
X168008317Y-142814230D01*
X167997654Y-142860510D01*
X167987660Y-142898356D01*
X167979433Y-142923384D01*
X167977596Y-142927496D01*
X167958144Y-142958080D01*
X167931401Y-142989885D01*
X167901357Y-143019199D01*
X167871996Y-143042311D01*
X167847305Y-143055508D01*
X167838245Y-143057232D01*
X167831092Y-143049837D01*
X167820220Y-143031817D01*
X167819084Y-143029651D01*
X167807127Y-143002108D01*
X167806892Y-142987057D01*
X167818354Y-142982444D01*
X167818519Y-142982444D01*
X167837297Y-142975288D01*
X167860753Y-142957129D01*
X167883839Y-142932932D01*
X167901504Y-142907662D01*
X167906952Y-142895502D01*
X167911344Y-142878992D01*
X167918304Y-142849431D01*
X167926929Y-142811033D01*
X167936315Y-142768015D01*
X167945558Y-142724592D01*
X167953754Y-142684980D01*
X167959999Y-142653395D01*
X167963391Y-142634052D01*
X167963746Y-142630588D01*
X167955704Y-142628061D01*
X167939783Y-142627199D01*
X167923512Y-142625008D01*
X167918026Y-142614659D01*
X167918749Y-142596857D01*
X167923930Y-142574687D01*
X167937324Y-142564428D01*
X167948285Y-142561800D01*
X167968584Y-142553685D01*
X167981995Y-142534723D01*
X167986945Y-142521939D01*
X168001334Y-142487679D01*
X168018683Y-142466422D01*
X168044112Y-142452602D01*
X168053915Y-142449129D01*
X168083370Y-142443721D01*
X168114832Y-142444283D01*
G37*
G36*
X169291167Y-140633447D02*
G01*
X169348092Y-140654015D01*
X169393027Y-140688718D01*
X169426157Y-140737755D01*
X169447664Y-140801325D01*
X169457735Y-140879626D01*
X169457821Y-140881358D01*
X169461801Y-140963158D01*
X169151012Y-140963158D01*
X169151012Y-140986993D01*
X169158908Y-141026582D01*
X169180674Y-141056796D01*
X169213431Y-141076566D01*
X169254298Y-141084822D01*
X169300393Y-141080493D01*
X169348836Y-141062509D01*
X169351108Y-141061318D01*
X169376151Y-141048270D01*
X169393400Y-141039786D01*
X169398001Y-141037946D01*
X169406835Y-141045580D01*
X169419414Y-141064375D01*
X169432435Y-141088176D01*
X169442597Y-141110826D01*
X169446600Y-141126169D01*
X169446301Y-141128018D01*
X169433935Y-141140707D01*
X169408325Y-141155921D01*
X169374350Y-141171583D01*
X169336888Y-141185616D01*
X169300816Y-141195941D01*
X169277217Y-141200041D01*
X169239039Y-141201103D01*
X169199910Y-141198126D01*
X169188826Y-141196277D01*
X169135911Y-141178084D01*
X169085644Y-141147547D01*
X169045072Y-141109203D01*
X169036964Y-141098491D01*
X169009735Y-141045723D01*
X168991963Y-140982210D01*
X168985032Y-140914069D01*
X168986482Y-140875285D01*
X168995515Y-140827140D01*
X169151012Y-140827140D01*
X169151677Y-140838619D01*
X169156123Y-140845655D01*
X169168028Y-140849334D01*
X169191069Y-140850744D01*
X169228923Y-140850975D01*
X169231565Y-140850975D01*
X169270291Y-140850766D01*
X169293730Y-140849500D01*
X169305295Y-140846219D01*
X169308394Y-140839965D01*
X169306481Y-140829941D01*
X169301802Y-140805655D01*
X169300716Y-140792547D01*
X169292196Y-140768233D01*
X169270408Y-140749975D01*
X169240395Y-140740028D01*
X169207194Y-140740644D01*
X169193499Y-140744600D01*
X169176304Y-140759189D01*
X169161243Y-140784964D01*
X169152143Y-140814490D01*
X169151012Y-140827140D01*
X168995515Y-140827140D01*
X169000566Y-140800219D01*
X169027168Y-140737331D01*
X169065353Y-140687608D01*
X169114185Y-140652038D01*
X169172727Y-140631608D01*
X169222068Y-140626815D01*
X169291167Y-140633447D01*
G37*
G36*
X170949108Y-140634657D02*
G01*
X171004334Y-140658564D01*
X171049306Y-140697987D01*
X171078168Y-140741736D01*
X171087782Y-140767317D01*
X171096996Y-140803403D01*
X171104934Y-140844563D01*
X171110722Y-140885368D01*
X171113487Y-140920386D01*
X171112353Y-140944188D01*
X171111346Y-140947780D01*
X171107096Y-140953530D01*
X171097664Y-140957664D01*
X171080378Y-140960437D01*
X171052566Y-140962107D01*
X171011556Y-140962928D01*
X170954676Y-140963157D01*
X170950900Y-140963158D01*
X170891404Y-140963230D01*
X170848420Y-140964064D01*
X170819765Y-140966581D01*
X170803257Y-140971705D01*
X170796711Y-140980361D01*
X170797944Y-140993471D01*
X170804772Y-141011958D01*
X170809391Y-141023002D01*
X170830972Y-141057375D01*
X170862252Y-141077407D01*
X170905747Y-141084614D01*
X170911691Y-141084689D01*
X170961264Y-141077650D01*
X171003143Y-141059806D01*
X171028514Y-141046862D01*
X171046246Y-141039443D01*
X171051540Y-141038772D01*
X171067454Y-141062707D01*
X171083276Y-141088172D01*
X171096070Y-141110210D01*
X171102897Y-141123864D01*
X171103221Y-141125968D01*
X171028984Y-141169988D01*
X170955590Y-141195426D01*
X170883152Y-141202251D01*
X170836802Y-141196726D01*
X170790136Y-141183131D01*
X170751103Y-141161234D01*
X170712841Y-141126977D01*
X170705193Y-141118846D01*
X170672717Y-141075347D01*
X170651463Y-141025884D01*
X170640451Y-140966988D01*
X170638704Y-140895190D01*
X170639108Y-140884682D01*
X170641277Y-140850975D01*
X170794870Y-140850975D01*
X170957743Y-140850975D01*
X170952630Y-140812855D01*
X170942113Y-140773372D01*
X170922530Y-140749666D01*
X170892609Y-140740521D01*
X170877237Y-140740683D01*
X170841994Y-140750970D01*
X170817063Y-140776198D01*
X170801741Y-140817104D01*
X170801006Y-140820592D01*
X170794870Y-140850975D01*
X170641277Y-140850975D01*
X170641998Y-140839766D01*
X170646937Y-140807004D01*
X170655429Y-140779859D01*
X170668981Y-140751796D01*
X170670232Y-140749492D01*
X170706840Y-140695923D01*
X170750400Y-140658527D01*
X170803234Y-140635971D01*
X170867663Y-140626921D01*
X170884215Y-140626610D01*
X170949108Y-140634657D01*
G37*
G36*
X169749650Y-141819873D02*
G01*
X169749977Y-141896125D01*
X169750789Y-141955799D01*
X169752200Y-142001010D01*
X169754323Y-142033873D01*
X169757272Y-142056504D01*
X169761159Y-142071017D01*
X169763342Y-142075635D01*
X169773159Y-142094619D01*
X169777033Y-142105331D01*
X169769724Y-142112841D01*
X169750290Y-142126309D01*
X169724435Y-142141940D01*
X169671505Y-142172223D01*
X169630831Y-142121213D01*
X169596663Y-142141372D01*
X169554959Y-142157743D01*
X169504599Y-142165569D01*
X169453887Y-142164179D01*
X169418174Y-142155805D01*
X169371142Y-142130151D01*
X169338839Y-142093164D01*
X169320382Y-142043804D01*
X169319480Y-142039302D01*
X169316482Y-142014048D01*
X169313870Y-141974020D01*
X169311803Y-141923139D01*
X169310439Y-141865325D01*
X169309937Y-141804501D01*
X169309937Y-141803429D01*
X169309987Y-141740227D01*
X169310321Y-141693237D01*
X169311214Y-141659971D01*
X169312940Y-141637945D01*
X169315774Y-141624672D01*
X169319991Y-141617667D01*
X169325865Y-141614442D01*
X169330971Y-141613136D01*
X169387126Y-141600685D01*
X169425326Y-141592917D01*
X169445712Y-141589803D01*
X169447063Y-141589739D01*
X169450954Y-141595544D01*
X169454141Y-141614017D01*
X169456710Y-141646477D01*
X169458749Y-141694245D01*
X169460345Y-141758638D01*
X169461086Y-141803109D01*
X169462422Y-141876672D01*
X169464123Y-141933495D01*
X169466324Y-141975531D01*
X169469161Y-142004734D01*
X169472770Y-142023059D01*
X169477019Y-142032148D01*
X169497050Y-142043646D01*
X169526394Y-142047233D01*
X169557391Y-142042842D01*
X169578965Y-142033036D01*
X169585890Y-142027588D01*
X169591076Y-142020586D01*
X169594773Y-142009488D01*
X169597234Y-141991755D01*
X169598710Y-141964845D01*
X169599453Y-141926218D01*
X169599713Y-141873331D01*
X169599742Y-141823023D01*
X169599709Y-141755853D01*
X169600125Y-141704967D01*
X169601763Y-141667953D01*
X169605394Y-141642401D01*
X169611792Y-141625898D01*
X169621727Y-141616035D01*
X169635973Y-141610400D01*
X169655301Y-141606581D01*
X169669856Y-141604125D01*
X169699685Y-141598566D01*
X169724981Y-141593302D01*
X169728285Y-141592533D01*
X169749319Y-141587483D01*
X169749650Y-141819873D01*
G37*
G36*
X171877776Y-141601822D02*
G01*
X171924570Y-141623636D01*
X171936232Y-141632469D01*
X171964481Y-141656240D01*
X171995086Y-141632927D01*
X172041598Y-141607207D01*
X172093051Y-141594768D01*
X172144875Y-141595520D01*
X172192500Y-141609376D01*
X172231356Y-141636248D01*
X172232584Y-141637510D01*
X172259403Y-141665480D01*
X172264255Y-141854197D01*
X172266208Y-141921024D01*
X172268355Y-141971903D01*
X172270966Y-142009582D01*
X172274313Y-142036810D01*
X172278668Y-142056336D01*
X172284303Y-142070909D01*
X172285979Y-142074166D01*
X172296081Y-142094693D01*
X172300092Y-142106629D01*
X172299824Y-142107580D01*
X172287723Y-142115309D01*
X172266482Y-142128179D01*
X172241375Y-142143078D01*
X172217679Y-142156896D01*
X172200669Y-142166522D01*
X172195453Y-142169120D01*
X172187832Y-142163017D01*
X172173526Y-142148316D01*
X172173315Y-142148086D01*
X172155646Y-142127038D01*
X172142721Y-142106009D01*
X172133816Y-142081630D01*
X172128206Y-142050529D01*
X172125168Y-142009334D01*
X172123979Y-141954676D01*
X172123850Y-141917782D01*
X172123292Y-141864973D01*
X172121753Y-141817196D01*
X172119434Y-141778287D01*
X172116538Y-141752083D01*
X172114732Y-141744370D01*
X172099051Y-141725413D01*
X172073417Y-141720532D01*
X172040350Y-141729878D01*
X172023353Y-141738985D01*
X171992970Y-141757509D01*
X171992970Y-142150423D01*
X171843744Y-142150423D01*
X171841232Y-141937744D01*
X171838719Y-141725064D01*
X171805999Y-141721916D01*
X171771242Y-141724870D01*
X171742896Y-141735074D01*
X171712514Y-141751380D01*
X171712514Y-142150423D01*
X171563808Y-142150423D01*
X171560990Y-141905024D01*
X171559956Y-141838495D01*
X171558494Y-141777656D01*
X171556710Y-141725153D01*
X171554709Y-141683636D01*
X171552596Y-141655752D01*
X171550661Y-141644450D01*
X171549534Y-141635449D01*
X171558413Y-141627761D01*
X171580426Y-141619529D01*
X171603868Y-141612840D01*
X171647570Y-141603215D01*
X171676119Y-141602443D01*
X171690908Y-141610665D01*
X171693816Y-141621937D01*
X171697769Y-141634463D01*
X171710876Y-141632939D01*
X171727649Y-141622738D01*
X171773830Y-141601117D01*
X171825701Y-141594230D01*
X171877776Y-141601822D01*
G37*
G36*
X170129595Y-141592220D02*
G01*
X170170648Y-141599379D01*
X170211811Y-141609538D01*
X170247479Y-141621243D01*
X170272045Y-141633043D01*
X170276859Y-141636805D01*
X170279054Y-141650116D01*
X170272990Y-141672141D01*
X170261557Y-141697203D01*
X170247644Y-141719622D01*
X170234143Y-141733723D01*
X170226553Y-141735626D01*
X170208935Y-141729461D01*
X170182828Y-141719823D01*
X170174678Y-141716741D01*
X170130480Y-141705085D01*
X170091867Y-141704562D01*
X170061858Y-141714356D01*
X170043472Y-141733650D01*
X170039124Y-141753400D01*
X170045141Y-141772493D01*
X170064441Y-141788498D01*
X170098900Y-141802503D01*
X170143763Y-141814153D01*
X170203011Y-141831837D01*
X170246947Y-141855977D01*
X170278361Y-141888353D01*
X170289841Y-141907399D01*
X170306119Y-141957740D01*
X170305260Y-142008862D01*
X170288418Y-142057668D01*
X170256748Y-142101064D01*
X170211404Y-142135954D01*
X170202910Y-142140564D01*
X170152244Y-142158478D01*
X170091782Y-142167169D01*
X170028161Y-142166339D01*
X169968013Y-142155689D01*
X169954987Y-142151692D01*
X169903491Y-142132996D01*
X169869551Y-142117558D01*
X169853496Y-142105536D01*
X169852153Y-142101869D01*
X169855941Y-142090032D01*
X169865405Y-142068651D01*
X169877695Y-142043434D01*
X169889961Y-142020089D01*
X169899351Y-142004325D01*
X169902598Y-142000846D01*
X169912196Y-142004429D01*
X169933790Y-142013754D01*
X169958504Y-142024890D01*
X169997289Y-142039471D01*
X170039234Y-142050548D01*
X170061282Y-142054122D01*
X170092619Y-142056103D01*
X170112387Y-142052975D01*
X170127346Y-142043321D01*
X170131424Y-142039426D01*
X170148068Y-142013013D01*
X170149376Y-141985928D01*
X170135423Y-141963394D01*
X170130272Y-141959540D01*
X170110806Y-141950879D01*
X170079498Y-141941045D01*
X170042927Y-141932089D01*
X170040827Y-141931649D01*
X170001840Y-141921731D01*
X169965588Y-141909421D01*
X169940104Y-141897481D01*
X169904706Y-141865499D01*
X169882505Y-141824003D01*
X169873718Y-141776936D01*
X169878562Y-141728243D01*
X169897255Y-141681866D01*
X169926216Y-141645252D01*
X169967061Y-141615263D01*
X170015716Y-141597206D01*
X170075944Y-141589832D01*
X170094257Y-141589510D01*
X170129595Y-141592220D01*
G37*
G36*
X168641767Y-141404301D02*
G01*
X168658799Y-141406911D01*
X168667757Y-141411988D01*
X168671650Y-141418571D01*
X168675770Y-141432010D01*
X168683900Y-141460821D01*
X168695298Y-141502295D01*
X168709225Y-141553721D01*
X168724940Y-141612387D01*
X168736247Y-141654950D01*
X168752260Y-141714586D01*
X168766653Y-141766575D01*
X168778784Y-141808730D01*
X168788010Y-141838863D01*
X168793691Y-141854787D01*
X168795246Y-141855944D01*
X168797883Y-141841912D01*
X168804835Y-141812632D01*
X168815395Y-141770864D01*
X168828857Y-141719370D01*
X168844513Y-141660912D01*
X168855054Y-141622230D01*
X168914031Y-141407214D01*
X169108943Y-141407214D01*
X169138466Y-141734413D01*
X169145540Y-141812757D01*
X169152246Y-141886940D01*
X169158357Y-141954461D01*
X169163648Y-142012820D01*
X169167892Y-142059516D01*
X169170862Y-142092049D01*
X169172151Y-142106018D01*
X169176313Y-142150423D01*
X169022817Y-142150423D01*
X169017213Y-142087320D01*
X169014773Y-142057205D01*
X169011486Y-142012860D01*
X169007666Y-141958716D01*
X169003626Y-141899203D01*
X169000301Y-141848453D01*
X168988994Y-141672688D01*
X168939306Y-141848453D01*
X168922400Y-141908008D01*
X168905791Y-141966077D01*
X168890691Y-142018452D01*
X168878314Y-142060924D01*
X168870347Y-142087722D01*
X168851076Y-142151227D01*
X168716304Y-142145749D01*
X168653866Y-141916710D01*
X168637030Y-141855750D01*
X168621852Y-141802329D01*
X168608977Y-141758592D01*
X168599052Y-141726686D01*
X168592720Y-141708758D01*
X168590628Y-141706367D01*
X168589735Y-141721092D01*
X168587709Y-141751342D01*
X168584764Y-141793994D01*
X168581118Y-141845925D01*
X168576986Y-141904011D01*
X168576076Y-141916710D01*
X168571896Y-141975880D01*
X168568213Y-142029731D01*
X168565236Y-142075090D01*
X168563172Y-142108788D01*
X168562226Y-142127654D01*
X168562189Y-142129389D01*
X168561079Y-142139593D01*
X168555441Y-142145818D01*
X168541575Y-142149045D01*
X168515780Y-142150252D01*
X168482734Y-142150423D01*
X168403415Y-142150423D01*
X168408871Y-142096669D01*
X168411044Y-142074484D01*
X168414695Y-142036324D01*
X168419574Y-141984827D01*
X168425434Y-141922636D01*
X168432023Y-141852391D01*
X168439095Y-141776734D01*
X168443910Y-141725064D01*
X168473493Y-141407214D01*
X168569357Y-141404548D01*
X168613131Y-141403675D01*
X168641767Y-141404301D01*
G37*
G36*
X167887169Y-140424022D02*
G01*
X167940375Y-140433650D01*
X167974339Y-140444544D01*
X168009635Y-140458745D01*
X168041008Y-140473808D01*
X168063200Y-140487288D01*
X168070195Y-140494016D01*
X168068084Y-140505355D01*
X168055301Y-140529708D01*
X168031505Y-140567673D01*
X168006430Y-140605135D01*
X167998124Y-140602362D01*
X167977836Y-140593241D01*
X167954766Y-140582103D01*
X167887286Y-140559007D01*
X167845607Y-140553431D01*
X167812547Y-140552040D01*
X167791477Y-140554367D01*
X167775782Y-140562284D01*
X167758847Y-140577661D01*
X167758426Y-140578081D01*
X167740585Y-140600400D01*
X167730721Y-140621439D01*
X167730033Y-140626506D01*
X167732970Y-140649884D01*
X167743737Y-140667848D01*
X167765264Y-140682720D01*
X167800484Y-140696822D01*
X167830731Y-140706270D01*
X167909986Y-140732444D01*
X167972189Y-140759975D01*
X168018982Y-140790472D01*
X168052009Y-140825541D01*
X168072913Y-140866789D01*
X168083337Y-140915824D01*
X168085278Y-140955232D01*
X168077603Y-141019465D01*
X168053979Y-141074666D01*
X168013505Y-141122898D01*
X168011166Y-141125034D01*
X167961869Y-141158554D01*
X167900163Y-141183348D01*
X167830687Y-141198365D01*
X167758079Y-141202556D01*
X167695429Y-141196482D01*
X167671201Y-141190742D01*
X167639356Y-141181336D01*
X167604468Y-141169870D01*
X167571111Y-141157949D01*
X167543858Y-141147181D01*
X167527284Y-141139171D01*
X167524365Y-141136405D01*
X167527929Y-141127380D01*
X167537328Y-141105802D01*
X167550619Y-141076120D01*
X167552293Y-141072423D01*
X167580222Y-141010828D01*
X167631094Y-141034118D01*
X167674787Y-141050640D01*
X167722438Y-141063113D01*
X167767780Y-141070314D01*
X167804543Y-141071019D01*
X167813448Y-141069679D01*
X167857603Y-141057338D01*
X167886020Y-141041250D01*
X167901640Y-141018451D01*
X167907406Y-140985974D01*
X167907655Y-140974751D01*
X167903529Y-140945836D01*
X167889587Y-140922651D01*
X167863481Y-140903310D01*
X167822865Y-140885931D01*
X167780674Y-140872826D01*
X167715836Y-140852677D01*
X167666591Y-140832354D01*
X167629928Y-140809822D01*
X167602834Y-140783050D01*
X167582298Y-140750003D01*
X167575000Y-140733991D01*
X167559938Y-140675725D01*
X167561777Y-140616929D01*
X167579084Y-140560750D01*
X167610427Y-140510335D01*
X167654375Y-140468830D01*
X167708968Y-140439579D01*
X167761439Y-140426511D01*
X167823375Y-140421260D01*
X167887169Y-140424022D01*
G37*
G36*
X165366086Y-141061592D02*
G01*
X165469748Y-141063276D01*
X165566734Y-141066238D01*
X165653470Y-141070476D01*
X165726386Y-141075992D01*
X165748141Y-141078243D01*
X165964965Y-141107779D01*
X166166475Y-141145616D01*
X166352367Y-141191664D01*
X166522335Y-141245830D01*
X166676076Y-141308022D01*
X166813283Y-141378151D01*
X166876637Y-141416841D01*
X166942257Y-141464158D01*
X167006171Y-141518937D01*
X167064910Y-141577615D01*
X167115006Y-141636626D01*
X167152989Y-141692405D01*
X167163182Y-141711315D01*
X167200171Y-141803724D01*
X167219221Y-141896309D01*
X167220861Y-141992155D01*
X167217434Y-142026935D01*
X167192868Y-142149452D01*
X167150080Y-142273797D01*
X167089407Y-142399554D01*
X167011189Y-142526304D01*
X166915764Y-142653632D01*
X166803471Y-142781119D01*
X166674648Y-142908350D01*
X166529635Y-143034905D01*
X166368771Y-143160369D01*
X166201286Y-143278362D01*
X165944644Y-143443698D01*
X165685986Y-143596369D01*
X165427364Y-143735291D01*
X165170830Y-143859382D01*
X164918437Y-143967558D01*
X164831984Y-144001259D01*
X164772006Y-144023377D01*
X164704637Y-144047120D01*
X164632345Y-144071721D01*
X164557600Y-144096410D01*
X164482872Y-144120416D01*
X164410631Y-144142971D01*
X164343346Y-144163306D01*
X164283487Y-144180650D01*
X164233525Y-144194234D01*
X164195927Y-144203288D01*
X164173166Y-144207044D01*
X164171317Y-144207103D01*
X164162150Y-144198285D01*
X164158893Y-144172136D01*
X164158888Y-144170700D01*
X164160854Y-144122144D01*
X164166198Y-144061965D01*
X164174088Y-143996756D01*
X164183691Y-143933112D01*
X164194176Y-143877625D01*
X164197936Y-143861207D01*
X164225999Y-143762321D01*
X164260705Y-143672079D01*
X164304197Y-143586524D01*
X164358617Y-143501700D01*
X164426110Y-143413650D01*
X164465652Y-143366921D01*
X164509984Y-143312082D01*
X164541297Y-143262742D01*
X164561843Y-143213616D01*
X164573874Y-143159416D01*
X164579387Y-143100005D01*
X164584247Y-143007224D01*
X164733824Y-142949425D01*
X164964375Y-142856528D01*
X165176315Y-142763205D01*
X165369626Y-142669465D01*
X165544291Y-142575318D01*
X165700291Y-142480773D01*
X165788105Y-142421623D01*
X165836523Y-142384800D01*
X165889824Y-142339642D01*
X165944600Y-142289473D01*
X165997447Y-142237619D01*
X166044959Y-142187402D01*
X166083731Y-142142148D01*
X166107257Y-142110089D01*
X166154182Y-142023706D01*
X166185066Y-141934847D01*
X166199647Y-141845698D01*
X166197660Y-141758444D01*
X166178843Y-141675270D01*
X166164164Y-141638329D01*
X166126111Y-141576917D01*
X166070908Y-141520245D01*
X165999614Y-141468804D01*
X165913286Y-141423083D01*
X165812982Y-141383570D01*
X165699760Y-141350755D01*
X165574679Y-141325128D01*
X165450774Y-141308396D01*
X165398156Y-141304561D01*
X165330819Y-141302192D01*
X165252675Y-141301209D01*
X165167640Y-141301535D01*
X165079626Y-141303089D01*
X164992548Y-141305794D01*
X164910319Y-141309569D01*
X164836852Y-141314337D01*
X164776062Y-141320018D01*
X164757195Y-141322387D01*
X164589232Y-141348967D01*
X164421151Y-141382159D01*
X164255179Y-141421242D01*
X164093540Y-141465497D01*
X163938462Y-141514203D01*
X163792171Y-141566639D01*
X163656891Y-141622085D01*
X163534851Y-141679822D01*
X163428275Y-141739128D01*
X163386070Y-141766059D01*
X163302161Y-141828662D01*
X163235760Y-141892355D01*
X163187091Y-141956757D01*
X163156380Y-142021483D01*
X163143853Y-142086151D01*
X163149735Y-142150378D01*
X163152771Y-142161880D01*
X163176412Y-142215687D01*
X163213744Y-142260202D01*
X163265475Y-142295807D01*
X163332310Y-142322885D01*
X163414956Y-142341815D01*
X163505158Y-142352334D01*
X163589153Y-142354231D01*
X163687024Y-142348868D01*
X163795717Y-142336917D01*
X163912175Y-142319047D01*
X164033344Y-142295929D01*
X164156166Y-142268233D01*
X164277587Y-142236628D01*
X164394552Y-142201784D01*
X164504003Y-142164373D01*
X164602886Y-142125063D01*
X164659035Y-142099306D01*
X164748375Y-142050477D01*
X164820734Y-141999726D01*
X164875734Y-141947447D01*
X164912997Y-141894038D01*
X164932144Y-141839893D01*
X164934818Y-141810718D01*
X164926735Y-141758173D01*
X164902609Y-141715010D01*
X164862624Y-141681325D01*
X164806966Y-141657214D01*
X164735818Y-141642770D01*
X164649365Y-141638090D01*
X164602944Y-141639317D01*
X164511967Y-141647347D01*
X164419122Y-141662137D01*
X164326874Y-141682785D01*
X164237688Y-141708386D01*
X164154032Y-141738036D01*
X164078370Y-141770832D01*
X164013168Y-141805870D01*
X163960893Y-141842246D01*
X163924010Y-141879056D01*
X163915552Y-141891284D01*
X163898730Y-141929328D01*
X163899090Y-141960033D01*
X163916596Y-141983352D01*
X163951212Y-141999238D01*
X164002302Y-142007595D01*
X164043560Y-142008169D01*
X164091113Y-142004591D01*
X164141540Y-141997638D01*
X164191419Y-141988085D01*
X164237331Y-141976707D01*
X164275855Y-141964280D01*
X164303569Y-141951580D01*
X164317053Y-141939381D01*
X164317813Y-141936069D01*
X164310044Y-141933474D01*
X164289452Y-141938149D01*
X164272360Y-141944247D01*
X164227338Y-141959141D01*
X164173409Y-141972756D01*
X164117818Y-141983604D01*
X164067812Y-141990197D01*
X164042125Y-141991498D01*
X164001758Y-141987833D01*
X163967650Y-141977992D01*
X163943883Y-141963701D01*
X163934539Y-141946689D01*
X163934523Y-141945949D01*
X163943543Y-141918612D01*
X163969657Y-141889390D01*
X164011445Y-141859013D01*
X164067487Y-141828210D01*
X164136365Y-141797712D01*
X164216657Y-141768247D01*
X164306945Y-141740547D01*
X164363224Y-141725603D01*
X164462673Y-141703156D01*
X164548154Y-141689581D01*
X164622055Y-141684696D01*
X164686767Y-141688318D01*
X164734197Y-141697392D01*
X164788390Y-141718055D01*
X164826440Y-141746751D01*
X164848152Y-141781755D01*
X164853332Y-141821344D01*
X164841784Y-141863792D01*
X164813315Y-141907375D01*
X164767730Y-141950368D01*
X164763128Y-141953888D01*
X164704711Y-141991601D01*
X164629819Y-142029750D01*
X164540635Y-142067598D01*
X164439344Y-142104408D01*
X164328131Y-142139441D01*
X164209180Y-142171960D01*
X164084674Y-142201226D01*
X163956800Y-142226503D01*
X163955171Y-142226794D01*
X163891813Y-142236000D01*
X163820246Y-142242904D01*
X163744165Y-142247469D01*
X163667264Y-142249662D01*
X163593238Y-142249448D01*
X163525781Y-142246791D01*
X163468590Y-142241658D01*
X163425358Y-142234012D01*
X163417629Y-142231849D01*
X163368635Y-142210942D01*
X163327540Y-142182298D01*
X163297977Y-142149063D01*
X163283854Y-142115952D01*
X163283520Y-142065092D01*
X163301532Y-142013718D01*
X163337930Y-141961804D01*
X163392753Y-141909325D01*
X163466038Y-141856253D01*
X163557824Y-141802564D01*
X163668151Y-141748231D01*
X163797057Y-141693229D01*
X163944580Y-141637532D01*
X164056054Y-141599080D01*
X164257051Y-141537222D01*
X164448673Y-141489138D01*
X164633684Y-141454378D01*
X164814847Y-141432494D01*
X164994925Y-141423039D01*
X165135811Y-141423985D01*
X165275813Y-141432400D01*
X165404344Y-141448192D01*
X165520687Y-141470998D01*
X165624124Y-141500452D01*
X165713938Y-141536191D01*
X165789411Y-141577850D01*
X165849825Y-141625066D01*
X165894463Y-141677474D01*
X165922606Y-141734709D01*
X165933538Y-141796409D01*
X165932393Y-141828175D01*
X165922383Y-141879266D01*
X165902119Y-141929003D01*
X165869926Y-141980216D01*
X165824128Y-142035734D01*
X165785594Y-142076149D01*
X165697698Y-142155743D01*
X165594975Y-142232493D01*
X165476451Y-142307012D01*
X165341157Y-142379911D01*
X165191903Y-142450131D01*
X164999893Y-142530798D01*
X164810228Y-142601436D01*
X164619797Y-142662850D01*
X164425487Y-142715848D01*
X164224186Y-142761234D01*
X164012783Y-142799816D01*
X163788165Y-142832398D01*
X163654067Y-142848479D01*
X163589827Y-142854306D01*
X163513850Y-142858966D01*
X163429192Y-142862460D01*
X163338908Y-142864787D01*
X163246054Y-142865946D01*
X163153687Y-142865935D01*
X163064864Y-142864756D01*
X162982639Y-142862406D01*
X162910069Y-142858886D01*
X162850210Y-142854194D01*
X162808023Y-142848673D01*
X162690391Y-142823418D01*
X162589753Y-142791925D01*
X162505300Y-142753675D01*
X162436223Y-142708146D01*
X162381716Y-142654818D01*
X162340969Y-142593169D01*
X162315806Y-142531471D01*
X162301985Y-142466295D01*
X162301726Y-142400244D01*
X162315451Y-142330321D01*
X162343583Y-142253528D01*
X162360091Y-142217903D01*
X162418007Y-142118381D01*
X162493804Y-142019723D01*
X162586665Y-141922532D01*
X162695778Y-141827410D01*
X162820326Y-141734959D01*
X162959495Y-141645781D01*
X163112471Y-141560479D01*
X163278437Y-141479654D01*
X163456580Y-141403909D01*
X163467096Y-141399753D01*
X163674473Y-141322942D01*
X163879774Y-141257004D01*
X164086797Y-141201024D01*
X164299344Y-141154090D01*
X164521214Y-141115286D01*
X164756207Y-141083699D01*
X164803938Y-141078297D01*
X164872646Y-141072322D01*
X164956110Y-141067624D01*
X165050759Y-141064201D01*
X165153019Y-141062055D01*
X165259318Y-141061185D01*
X165366086Y-141061592D01*
G37*
D14*
X187632000Y-149590000D02*
X189632000Y-149590000D01*
X187632000Y-152390000D02*
X187632000Y-149590000D01*
X189632000Y-149590000D02*
X189632000Y-152390000D01*
X189632000Y-152390000D02*
X187632000Y-152390000D01*
X203735436Y-137090000D02*
X205189564Y-137090000D01*
X203735436Y-138910000D02*
X205189564Y-138910000D01*
D16*
X139790000Y-144626000D02*
X139790020Y-144612200D01*
X139790000Y-149626000D02*
X139790020Y-149612200D01*
X139790020Y-144612200D02*
X139809050Y-144190010D01*
X139790020Y-144639800D02*
X139790000Y-144626000D01*
X139790020Y-149612200D02*
X139809050Y-149190010D01*
X139790020Y-149639800D02*
X139790000Y-149626000D01*
X139809050Y-144190010D02*
X139832190Y-143977850D01*
X139809050Y-149190010D02*
X139832190Y-148977850D01*
X139809330Y-145065230D02*
X139790020Y-144639800D01*
X139809330Y-150065230D02*
X139790020Y-149639800D01*
X139832190Y-143977850D02*
X139864580Y-143765640D01*
X139832190Y-148977850D02*
X139864580Y-148765640D01*
X139832460Y-145276220D02*
X139809330Y-145065230D01*
X139832460Y-150276220D02*
X139809330Y-150065230D01*
X139864580Y-143765640D02*
X139913180Y-143523000D01*
X139864580Y-145486360D02*
X139832460Y-145276220D01*
X139864580Y-148765640D02*
X139913180Y-148523000D01*
X139864580Y-150486360D02*
X139832460Y-150276220D01*
X139879300Y-143685230D02*
X139879300Y-145566770D01*
X139879300Y-148685230D02*
X139879300Y-150566770D01*
X139913180Y-143523000D02*
X139974420Y-143280580D01*
X139913180Y-148523000D02*
X139974420Y-148280580D01*
X139913440Y-145730140D02*
X139864580Y-145486360D01*
X139913440Y-150730141D02*
X139864580Y-150486360D01*
X139974420Y-143280580D02*
X140003070Y-143193620D01*
X139974420Y-145971420D02*
X139913440Y-145730140D01*
X139974420Y-148280580D02*
X140003070Y-148193620D01*
X139974420Y-150971419D02*
X139913440Y-150730141D01*
X140003070Y-143193620D02*
X140040000Y-143108720D01*
X140003070Y-148193620D02*
X140040000Y-148108720D01*
X140003390Y-146059230D02*
X139974420Y-145971420D01*
X140003390Y-151059231D02*
X139974420Y-150971419D01*
X140040000Y-143108720D02*
X140040000Y-146143280D01*
X140040000Y-146143280D02*
X140003390Y-146059230D01*
X140040000Y-148108720D02*
X140040000Y-151143281D01*
X140040000Y-151143281D02*
X140003390Y-151059231D01*
X141790000Y-142426000D02*
X145219140Y-142426000D01*
X141790000Y-146826000D02*
X145219140Y-146826000D01*
X141790000Y-147426000D02*
X145219140Y-147426000D01*
X141790000Y-151826000D02*
X145219140Y-151826000D01*
X142578510Y-142426000D02*
X142578510Y-146826000D01*
X142578510Y-147426000D02*
X142578510Y-151826000D01*
X142690000Y-141576000D02*
X142690000Y-153076000D01*
X142690000Y-141576000D02*
X158990000Y-141576000D01*
X142690000Y-141981990D02*
X143040000Y-142176000D01*
X142690000Y-142074970D02*
X143040000Y-142242990D01*
X142690000Y-142494970D02*
X143040000Y-142662990D01*
X142690000Y-143017800D02*
X143040000Y-143039660D01*
X142690000Y-143031990D02*
X143040000Y-143226000D01*
X142690000Y-145520010D02*
X143040000Y-145326000D01*
X142690000Y-146177030D02*
X143040000Y-146009010D01*
X142690000Y-146446470D02*
X143040000Y-146278460D01*
X142690000Y-146770010D02*
X143040000Y-146576000D01*
X142690000Y-146981990D02*
X143040000Y-147176000D01*
X142690000Y-147074970D02*
X143040000Y-147242990D01*
X142690000Y-147494970D02*
X143040000Y-147662990D01*
X142690000Y-148017800D02*
X143040000Y-148039660D01*
X142690000Y-148031990D02*
X143040000Y-148226000D01*
X142690000Y-150520010D02*
X143040000Y-150326000D01*
X142690000Y-151177031D02*
X143040000Y-151009009D01*
X142690000Y-151446469D02*
X143040000Y-151278459D01*
X142690000Y-151770009D02*
X143040000Y-151576000D01*
X142690000Y-153076000D02*
X158990000Y-153076000D01*
X142797160Y-141576000D02*
X142797160Y-153076000D01*
X142990000Y-141576000D02*
X142990000Y-153076000D01*
X143040000Y-143226000D02*
X143040000Y-142176000D01*
X143040000Y-145326000D02*
X143040000Y-143226000D01*
X143040000Y-146576000D02*
X143040000Y-145326000D01*
X143040000Y-148226000D02*
X143040000Y-147176000D01*
X143040000Y-150326000D02*
X143040000Y-148226000D01*
X143040000Y-151576000D02*
X143040000Y-150326000D01*
X143092740Y-142426000D02*
X143092740Y-146826000D01*
X143092740Y-147426000D02*
X143092740Y-151826000D01*
X147090000Y-141076000D02*
X147090000Y-141576000D01*
X147090000Y-141076000D02*
X147098241Y-141076000D01*
X147098241Y-141076000D02*
X147098241Y-141576000D01*
X147098241Y-141076000D02*
X147146591Y-141076000D01*
X147146591Y-141076000D02*
X147146591Y-141576000D01*
X147146591Y-141076000D02*
X148450709Y-141076000D01*
X147390000Y-140776000D02*
X147090000Y-141076000D01*
X147390000Y-140776000D02*
X147395769Y-140776000D01*
X147395769Y-140776000D02*
X147098241Y-141076000D01*
X147395769Y-140776000D02*
X147444119Y-140776000D01*
X147444119Y-140776000D02*
X147146591Y-141076000D01*
X147444119Y-140776000D02*
X148259200Y-140776000D01*
X148259200Y-140776000D02*
X148450709Y-141076000D01*
X148259200Y-140776000D02*
X149353840Y-140776000D01*
X148330431Y-140776000D02*
X148433469Y-141076000D01*
X148433469Y-141076000D02*
X148433469Y-141576000D01*
X148450709Y-141076000D02*
X148450709Y-141576000D01*
X148450709Y-141076000D02*
X149545360Y-141076000D01*
X149324350Y-140776000D02*
X149427390Y-141076000D01*
X149353840Y-140776000D02*
X149390000Y-140776000D01*
X149353840Y-140776000D02*
X149545360Y-141076000D01*
X149427390Y-141076000D02*
X149427390Y-141576000D01*
X149545360Y-141076000D02*
X149545360Y-141576000D01*
X149545360Y-141076000D02*
X149690000Y-141076000D01*
X149690000Y-141076000D02*
X149390000Y-140776000D01*
X149690000Y-141576000D02*
X149690000Y-141076000D01*
X150253760Y-141197900D02*
X150253760Y-141576000D01*
X150253760Y-141197900D02*
X150453760Y-141144400D01*
X150289930Y-141188200D02*
X150289930Y-141576000D01*
X150453760Y-141144400D02*
X150453760Y-141576000D01*
X150453760Y-141144400D02*
X152176230Y-140682800D01*
X151459680Y-140874800D02*
X151459680Y-141576000D01*
X151675270Y-140817000D02*
X151675270Y-141576000D01*
X152290000Y-140685800D02*
X152290000Y-141576000D01*
X152326240Y-140701800D02*
X152290000Y-140685800D01*
X152341760Y-140711500D02*
X152341760Y-141576000D01*
X152381160Y-140747400D02*
X152326240Y-140701800D01*
X152412280Y-140798300D02*
X152381160Y-140747400D01*
X152427230Y-140858600D02*
X152412280Y-140798300D01*
X152427230Y-140858600D02*
X152490000Y-141576000D01*
X158990000Y-141576000D02*
X158990000Y-153076000D01*
X140040010Y-143108720D02*
G75*
G02*
X140653380Y-142590889I897530J-440940D01*
G01*
X140040010Y-148108720D02*
G75*
G02*
X140653380Y-147590889I897530J-440940D01*
G01*
X140653380Y-142590891D02*
G75*
G02*
X141790000Y-142426004I1136620J-3835109D01*
G01*
X140653380Y-146661119D02*
G75*
G02*
X140039998Y-146143281I284020J958619D01*
G01*
X140653380Y-147590891D02*
G75*
G02*
X141790000Y-147426004I1136620J-3835109D01*
G01*
X140653380Y-151661115D02*
G75*
G02*
X140040002Y-151143280I284020J958615D01*
G01*
X141790000Y-146826000D02*
G75*
G02*
X140653379Y-146661113I0J4000000D01*
G01*
X141790000Y-151825997D02*
G75*
G02*
X140653380Y-151661110I0J3999997D01*
G01*
X152176230Y-140682801D02*
G75*
G02*
X152290000Y-140685800I51831J-193174D01*
G01*
D14*
X179504000Y-149590000D02*
X181504000Y-149590000D01*
X179504000Y-152390000D02*
X179504000Y-149590000D01*
X181504000Y-149590000D02*
X181504000Y-152390000D01*
X181504000Y-152390000D02*
X179504000Y-152390000D01*
X210270000Y-121805000D02*
X210270000Y-137825000D01*
X210270000Y-121805000D02*
X222200000Y-121805000D01*
X210270000Y-137825000D02*
X222200000Y-137825000D01*
X214042000Y-138701000D02*
X215058000Y-138701000D01*
X214550000Y-138193000D02*
X214042000Y-138701000D01*
X215058000Y-138701000D02*
X214550000Y-138193000D01*
X225700000Y-121805000D02*
X229140000Y-121805000D01*
X225700000Y-137825000D02*
X229140000Y-137825000D01*
X229140000Y-121805000D02*
X229140000Y-137825000D01*
X195386748Y-137007000D02*
X195909252Y-137007000D01*
X195386748Y-138477000D02*
X195909252Y-138477000D01*
X204272000Y-131118000D02*
X200822000Y-131118000D01*
X204272000Y-131118000D02*
X206222000Y-131118000D01*
X204272000Y-136238000D02*
X202322000Y-136238000D01*
X204272000Y-136238000D02*
X206222000Y-136238000D01*
X199438748Y-137007000D02*
X199961252Y-137007000D01*
X199438748Y-138477000D02*
X199961252Y-138477000D01*
X183350000Y-141710000D02*
X191360000Y-141710000D01*
X191360000Y-135390000D02*
X183350000Y-135390000D01*
X191360000Y-141710000D02*
X191360000Y-135390000D01*
D16*
X213982000Y-152049984D02*
X213982000Y-140549984D01*
X220544770Y-152767384D02*
X220482000Y-152049984D01*
X220544770Y-152767384D02*
X220559720Y-152827684D01*
X220559720Y-152827684D02*
X220590840Y-152878584D01*
X220590840Y-152878584D02*
X220645760Y-152924184D01*
X220630240Y-152914484D02*
X220630240Y-152049984D01*
X220645760Y-152924184D02*
X220682000Y-152940184D01*
X220682000Y-152940184D02*
X220682000Y-152049984D01*
X221296730Y-152808984D02*
X221296730Y-152049984D01*
X221512320Y-152751184D02*
X221512320Y-152049984D01*
X222518240Y-152481584D02*
X220795770Y-152943184D01*
X222518240Y-152481584D02*
X222518240Y-152049984D01*
X222682070Y-152437784D02*
X222682070Y-152049984D01*
X222718240Y-152428084D02*
X222518240Y-152481584D01*
X222718240Y-152428084D02*
X222718240Y-152049984D01*
X223282000Y-152049984D02*
X223282000Y-152549984D01*
X223282000Y-152549984D02*
X223582000Y-152849984D01*
X223426640Y-152549984D02*
X223282000Y-152549984D01*
X223426640Y-152549984D02*
X223426640Y-152049984D01*
X223544610Y-152549984D02*
X223544610Y-152049984D01*
X223618160Y-152849984D02*
X223426640Y-152549984D01*
X223618160Y-152849984D02*
X223582000Y-152849984D01*
X223647650Y-152849984D02*
X223544610Y-152549984D01*
X224521291Y-152549984D02*
X223426640Y-152549984D01*
X224521291Y-152549984D02*
X224521291Y-152049984D01*
X224538531Y-152549984D02*
X224538531Y-152049984D01*
X224641569Y-152849984D02*
X224538531Y-152549984D01*
X224712800Y-152849984D02*
X223618160Y-152849984D01*
X224712800Y-152849984D02*
X224521291Y-152549984D01*
X225527881Y-152849984D02*
X224712800Y-152849984D01*
X225527881Y-152849984D02*
X225825409Y-152549984D01*
X225576231Y-152849984D02*
X225527881Y-152849984D01*
X225576231Y-152849984D02*
X225873759Y-152549984D01*
X225582000Y-152849984D02*
X225576231Y-152849984D01*
X225582000Y-152849984D02*
X225882000Y-152549984D01*
X225825409Y-152549984D02*
X224521291Y-152549984D01*
X225825409Y-152549984D02*
X225825409Y-152049984D01*
X225873759Y-152549984D02*
X225825409Y-152549984D01*
X225873759Y-152549984D02*
X225873759Y-152049984D01*
X225882000Y-152549984D02*
X225873759Y-152549984D01*
X225882000Y-152549984D02*
X225882000Y-152049984D01*
X229879260Y-146199984D02*
X229879260Y-141799984D01*
X229879260Y-151199984D02*
X229879260Y-146799984D01*
X229932000Y-142049984D02*
X229932000Y-143299984D01*
X229932000Y-143299984D02*
X229932000Y-145399984D01*
X229932000Y-145399984D02*
X229932000Y-146449984D01*
X229932000Y-147049984D02*
X229932000Y-148299984D01*
X229932000Y-148299984D02*
X229932000Y-150399984D01*
X229932000Y-150399984D02*
X229932000Y-151449984D01*
X229982000Y-152049984D02*
X229982000Y-140549984D01*
X230174840Y-152049984D02*
X230174840Y-140549984D01*
X230282000Y-140549984D02*
X213982000Y-140549984D01*
X230282000Y-141855975D02*
X229932000Y-142049984D01*
X230282000Y-142179515D02*
X229932000Y-142347525D01*
X230282000Y-142448953D02*
X229932000Y-142616975D01*
X230282000Y-143105974D02*
X229932000Y-143299984D01*
X230282000Y-145593994D02*
X229932000Y-145399984D01*
X230282000Y-145608184D02*
X229932000Y-145586324D01*
X230282000Y-146131014D02*
X229932000Y-145962994D01*
X230282000Y-146551014D02*
X229932000Y-146382994D01*
X230282000Y-146643994D02*
X229932000Y-146449984D01*
X230282000Y-146855974D02*
X229932000Y-147049984D01*
X230282000Y-147179514D02*
X229932000Y-147347524D01*
X230282000Y-147448954D02*
X229932000Y-147616974D01*
X230282000Y-148105974D02*
X229932000Y-148299984D01*
X230282000Y-150593994D02*
X229932000Y-150399984D01*
X230282000Y-150608184D02*
X229932000Y-150586324D01*
X230282000Y-151131014D02*
X229932000Y-150962994D01*
X230282000Y-151551014D02*
X229932000Y-151382994D01*
X230282000Y-151643994D02*
X229932000Y-151449984D01*
X230282000Y-152049984D02*
X213982000Y-152049984D01*
X230282000Y-152049984D02*
X230282000Y-140549984D01*
X230393490Y-146199984D02*
X230393490Y-141799984D01*
X230393490Y-151199984D02*
X230393490Y-146799984D01*
X231182000Y-141799984D02*
X227752860Y-141799984D01*
X231182000Y-146199984D02*
X227752860Y-146199984D01*
X231182000Y-146799984D02*
X227752860Y-146799984D01*
X231182000Y-151199984D02*
X227752860Y-151199984D01*
X232932000Y-142482703D02*
X232968610Y-142566753D01*
X232932000Y-145517264D02*
X232932000Y-142482703D01*
X232932000Y-147482704D02*
X232968610Y-147566754D01*
X232932000Y-150517264D02*
X232932000Y-147482704D01*
X232968610Y-142566753D02*
X232997580Y-142654565D01*
X232968610Y-147566754D02*
X232997580Y-147654564D01*
X232968930Y-145432364D02*
X232932000Y-145517264D01*
X232968930Y-150432364D02*
X232932000Y-150517264D01*
X232997580Y-142654565D02*
X233058560Y-142895843D01*
X232997580Y-145345404D02*
X232968930Y-145432364D01*
X232997580Y-147654564D02*
X233058560Y-147895844D01*
X232997580Y-150345404D02*
X232968930Y-150432364D01*
X233058560Y-142895843D02*
X233107420Y-143139624D01*
X233058560Y-147895844D02*
X233107420Y-148139624D01*
X233058820Y-145102984D02*
X232997580Y-145345404D01*
X233058820Y-150102984D02*
X232997580Y-150345404D01*
X233092700Y-144940754D02*
X233092700Y-143059214D01*
X233092700Y-149940754D02*
X233092700Y-148059214D01*
X233107420Y-143139624D02*
X233139540Y-143349764D01*
X233107420Y-144860344D02*
X233058820Y-145102984D01*
X233107420Y-148139624D02*
X233139540Y-148349764D01*
X233107420Y-149860344D02*
X233058820Y-150102984D01*
X233139540Y-143349764D02*
X233162670Y-143560754D01*
X233139540Y-148349764D02*
X233162670Y-148560754D01*
X233139810Y-144648134D02*
X233107420Y-144860344D01*
X233139810Y-149648134D02*
X233107420Y-149860344D01*
X233162670Y-143560754D02*
X233181980Y-143986184D01*
X233162670Y-148560754D02*
X233181980Y-148986184D01*
X233162950Y-144435974D02*
X233139810Y-144648134D01*
X233162950Y-149435974D02*
X233139810Y-149648134D01*
X233181980Y-143986184D02*
X233182000Y-143999984D01*
X233181980Y-144013784D02*
X233162950Y-144435974D01*
X233181980Y-148986184D02*
X233182000Y-148999984D01*
X233181980Y-149013784D02*
X233162950Y-149435974D01*
X233182000Y-143999984D02*
X233181980Y-144013784D01*
X233182000Y-148999984D02*
X233181980Y-149013784D01*
X220795770Y-152943183D02*
G75*
G02*
X220682000Y-152940184I-51831J193174D01*
G01*
X231182000Y-141799987D02*
G75*
G02*
X232318620Y-141964874I0J-3999997D01*
G01*
X231182000Y-146799984D02*
G75*
G02*
X232318621Y-146964871I0J-4000000D01*
G01*
X232318620Y-141964869D02*
G75*
G02*
X232931998Y-142482704I-284020J-958615D01*
G01*
X232318620Y-146035093D02*
G75*
G02*
X231182000Y-146199980I-1136620J3835109D01*
G01*
X232318620Y-146964865D02*
G75*
G02*
X232932002Y-147482703I-284020J-958619D01*
G01*
X232318620Y-151035093D02*
G75*
G02*
X231182000Y-151199980I-1136620J3835109D01*
G01*
X232931990Y-145517264D02*
G75*
G02*
X232318620Y-146035095I-897530J440940D01*
G01*
X232931990Y-150517264D02*
G75*
G02*
X232318620Y-151035095I-897530J440940D01*
G01*
D14*
X192966000Y-149575000D02*
X194966000Y-149575000D01*
X192966000Y-152375000D02*
X192966000Y-149575000D01*
X194966000Y-149575000D02*
X194966000Y-152375000D01*
X194966000Y-152375000D02*
X192966000Y-152375000D01*
X182298000Y-149590000D02*
X184298000Y-149590000D01*
X182298000Y-152390000D02*
X182298000Y-149590000D01*
X184298000Y-149590000D02*
X184298000Y-152390000D01*
X184298000Y-152390000D02*
X182298000Y-152390000D01*
X193208000Y-126544000D02*
X193208000Y-132964000D01*
X193208000Y-132964000D02*
X193478000Y-132964000D01*
X193478000Y-132964000D02*
X193478000Y-135794000D01*
X199838000Y-132964000D02*
X199838000Y-134064000D01*
X200108000Y-126544000D02*
X200108000Y-132964000D01*
X200108000Y-132964000D02*
X199838000Y-132964000D01*
X178900000Y-125500000D02*
X180900000Y-125500000D01*
X178900000Y-128300000D02*
X178900000Y-125500000D01*
X180900000Y-125500000D02*
X180900000Y-128300000D01*
X180900000Y-128300000D02*
X178900000Y-128300000D01*
X195633000Y-149590000D02*
X197633000Y-149590000D01*
X195633000Y-152390000D02*
X195633000Y-149590000D01*
X197633000Y-149590000D02*
X197633000Y-152390000D01*
X197633000Y-152390000D02*
X195633000Y-152390000D01*
X143760000Y-137725000D02*
X143760000Y-121705000D01*
X147200000Y-121705000D02*
X143760000Y-121705000D01*
X147200000Y-137725000D02*
X143760000Y-137725000D01*
X157842000Y-120829000D02*
X158350000Y-121337000D01*
X158350000Y-121337000D02*
X158858000Y-120829000D01*
X158858000Y-120829000D02*
X157842000Y-120829000D01*
X162630000Y-121705000D02*
X150700000Y-121705000D01*
X162630000Y-137725000D02*
X150700000Y-137725000D01*
X162630000Y-137725000D02*
X162630000Y-121705000D01*
D13*
X181900000Y-128200000D02*
X192060000Y-128200000D01*
X192060000Y-120020000D01*
X181900000Y-120020000D01*
X181900000Y-128200000D01*
D14*
X190299000Y-149575000D02*
X192299000Y-149575000D01*
X190299000Y-152375000D02*
X190299000Y-149575000D01*
X192299000Y-149575000D02*
X192299000Y-152375000D01*
X192299000Y-152375000D02*
X190299000Y-152375000D01*
X184950000Y-149590000D02*
X186950000Y-149590000D01*
X184950000Y-152390000D02*
X184950000Y-149590000D01*
X186950000Y-149590000D02*
X186950000Y-152390000D01*
X186950000Y-152390000D02*
X184950000Y-152390000D01*
%LPC*%
D17*
X193525000Y-122600000D03*
D18*
X196065000Y-122600000D03*
D19*
X177710000Y-150340000D03*
X177710000Y-151640000D03*
D20*
X204000000Y-128100000D03*
X201075000Y-128100000D03*
D19*
X188632000Y-150340000D03*
X188632000Y-151640000D03*
D21*
X176024000Y-138881000D03*
D22*
X176024000Y-128581000D03*
D21*
X168524000Y-138881000D03*
D22*
X168524000Y-128581000D03*
D23*
X204100000Y-123300000D03*
D24*
X203000000Y-138000000D03*
X205925000Y-138000000D03*
D25*
X156090000Y-149276000D03*
X147890000Y-149276000D03*
X156090000Y-144276000D03*
X147890000Y-144276000D03*
D19*
X180504000Y-150340000D03*
X180504000Y-151640000D03*
D26*
X220900000Y-135530000D03*
X220900000Y-124100000D03*
D27*
X214550000Y-134260000D03*
D28*
X212010000Y-132990000D03*
X214550000Y-131720000D03*
X212010000Y-130450000D03*
X214550000Y-129180000D03*
X212010000Y-127910000D03*
X214550000Y-126640000D03*
X212010000Y-125370000D03*
D29*
X223950000Y-137585000D03*
X223950000Y-122045000D03*
D23*
X168100000Y-150300000D03*
D30*
X194698000Y-137742000D03*
X196598000Y-137742000D03*
D31*
X201797000Y-131773000D03*
X201797000Y-133043000D03*
X201797000Y-134313000D03*
X201797000Y-135583000D03*
X206747000Y-135583000D03*
X206747000Y-134313000D03*
X206747000Y-133043000D03*
X206747000Y-131773000D03*
D30*
X198750000Y-137742000D03*
X200650000Y-137742000D03*
D32*
X190100000Y-138550000D03*
X183900000Y-138550000D03*
D25*
X216882000Y-144349984D03*
X225082000Y-144349984D03*
X216882000Y-149349984D03*
X225082000Y-149349984D03*
D19*
X193966000Y-150325000D03*
X193966000Y-151625000D03*
X183298000Y-150340000D03*
X183298000Y-151640000D03*
D33*
X194378000Y-134694000D03*
D34*
X196658000Y-128394000D03*
D33*
X198938000Y-134694000D03*
D19*
X179900000Y-126250000D03*
X179900000Y-127550000D03*
D23*
X205000000Y-150300000D03*
D19*
X196633000Y-150340000D03*
X196633000Y-151640000D03*
D26*
X152000000Y-124000000D03*
X152000000Y-135430000D03*
D27*
X158350000Y-125270000D03*
D28*
X160890000Y-126540000D03*
X158350000Y-127810000D03*
X160890000Y-129080000D03*
X158350000Y-130350000D03*
X160890000Y-131620000D03*
X158350000Y-132890000D03*
X160890000Y-134160000D03*
D29*
X148950000Y-121945000D03*
X148950000Y-137485000D03*
D35*
X183170000Y-131250000D03*
D36*
X185710000Y-131250000D03*
X188250000Y-131250000D03*
X190790000Y-131250000D03*
D19*
X191299000Y-150325000D03*
X191299000Y-151625000D03*
X185950000Y-150340000D03*
X185950000Y-151640000D03*
%LPD*%
M02*
