G04 #@! TF.GenerationSoftware,KiCad,Pcbnew,8.0.0*
G04 #@! TF.CreationDate,2024-12-06T13:06:33-06:00*
G04 #@! TF.ProjectId,led_segment,6c65645f-7365-4676-9d65-6e742e6b6963,rev?*
G04 #@! TF.SameCoordinates,Original*
G04 #@! TF.FileFunction,Copper,L1,Top*
G04 #@! TF.FilePolarity,Positive*
%FSLAX46Y46*%
G04 Gerber Fmt 4.6, Leading zero omitted, Abs format (unit mm)*
G04 Created by KiCad (PCBNEW 8.0.0) date 2024-12-06 13:06:33*
%MOMM*%
%LPD*%
G01*
G04 APERTURE LIST*
G04 Aperture macros list*
%AMRoundRect*
0 Rectangle with rounded corners*
0 $1 Rounding radius*
0 $2 $3 $4 $5 $6 $7 $8 $9 X,Y pos of 4 corners*
0 Add a 4 corners polygon primitive as box body*
4,1,4,$2,$3,$4,$5,$6,$7,$8,$9,$2,$3,0*
0 Add four circle primitives for the rounded corners*
1,1,$1+$1,$2,$3*
1,1,$1+$1,$4,$5*
1,1,$1+$1,$6,$7*
1,1,$1+$1,$8,$9*
0 Add four rect primitives between the rounded corners*
20,1,$1+$1,$2,$3,$4,$5,0*
20,1,$1+$1,$4,$5,$6,$7,0*
20,1,$1+$1,$6,$7,$8,$9,0*
20,1,$1+$1,$8,$9,$2,$3,0*%
G04 Aperture macros list end*
G04 #@! TA.AperFunction,ComponentPad*
%ADD10R,1.800000X1.800000*%
G04 #@! TD*
G04 #@! TA.AperFunction,ComponentPad*
%ADD11C,1.800000*%
G04 #@! TD*
G04 #@! TA.AperFunction,SMDPad,CuDef*
%ADD12R,1.500000X1.000000*%
G04 #@! TD*
G04 #@! TA.AperFunction,SMDPad,CuDef*
%ADD13RoundRect,0.250000X0.312500X0.625000X-0.312500X0.625000X-0.312500X-0.625000X0.312500X-0.625000X0*%
G04 #@! TD*
G04 #@! TA.AperFunction,ComponentPad*
%ADD14C,2.600000*%
G04 #@! TD*
G04 #@! TA.AperFunction,ComponentPad*
%ADD15C,2.900000*%
G04 #@! TD*
G04 #@! TA.AperFunction,SMDPad,CuDef*
%ADD16RoundRect,0.250000X-0.312500X-0.625000X0.312500X-0.625000X0.312500X0.625000X-0.312500X0.625000X0*%
G04 #@! TD*
G04 #@! TA.AperFunction,ComponentPad*
%ADD17O,3.860800X1.930400*%
G04 #@! TD*
G04 #@! TA.AperFunction,ComponentPad*
%ADD18R,1.500000X1.500000*%
G04 #@! TD*
G04 #@! TA.AperFunction,ComponentPad*
%ADD19C,1.500000*%
G04 #@! TD*
G04 #@! TA.AperFunction,ComponentPad*
%ADD20C,3.000000*%
G04 #@! TD*
G04 #@! TA.AperFunction,SMDPad,CuDef*
%ADD21RoundRect,0.250000X-0.250000X-0.475000X0.250000X-0.475000X0.250000X0.475000X-0.250000X0.475000X0*%
G04 #@! TD*
G04 #@! TA.AperFunction,SMDPad,CuDef*
%ADD22RoundRect,0.150000X-0.825000X-0.150000X0.825000X-0.150000X0.825000X0.150000X-0.825000X0.150000X0*%
G04 #@! TD*
G04 #@! TA.AperFunction,SMDPad,CuDef*
%ADD23RoundRect,0.250000X0.750000X1.400000X-0.750000X1.400000X-0.750000X-1.400000X0.750000X-1.400000X0*%
G04 #@! TD*
G04 #@! TA.AperFunction,SMDPad,CuDef*
%ADD24RoundRect,0.250000X0.350000X-0.850000X0.350000X0.850000X-0.350000X0.850000X-0.350000X-0.850000X0*%
G04 #@! TD*
G04 #@! TA.AperFunction,SMDPad,CuDef*
%ADD25RoundRect,0.250000X1.125000X-1.275000X1.125000X1.275000X-1.125000X1.275000X-1.125000X-1.275000X0*%
G04 #@! TD*
G04 #@! TA.AperFunction,SMDPad,CuDef*
%ADD26RoundRect,0.249997X2.650003X-2.950003X2.650003X2.950003X-2.650003X2.950003X-2.650003X-2.950003X0*%
G04 #@! TD*
G04 #@! TA.AperFunction,ComponentPad*
%ADD27RoundRect,0.250000X-0.620000X-0.845000X0.620000X-0.845000X0.620000X0.845000X-0.620000X0.845000X0*%
G04 #@! TD*
G04 #@! TA.AperFunction,ComponentPad*
%ADD28O,1.740000X2.190000*%
G04 #@! TD*
G04 #@! TA.AperFunction,ViaPad*
%ADD29C,0.800000*%
G04 #@! TD*
G04 #@! TA.AperFunction,Conductor*
%ADD30C,0.200000*%
G04 #@! TD*
G04 #@! TA.AperFunction,Conductor*
%ADD31C,0.250000*%
G04 #@! TD*
G04 #@! TA.AperFunction,Conductor*
%ADD32C,2.500000*%
G04 #@! TD*
G04 #@! TA.AperFunction,Conductor*
%ADD33C,3.000000*%
G04 #@! TD*
G04 #@! TA.AperFunction,Conductor*
%ADD34C,7.125000*%
G04 #@! TD*
G04 APERTURE END LIST*
D10*
X193525000Y-122600000D03*
D11*
X196065000Y-122600000D03*
D12*
X177710000Y-150340000D03*
X177710000Y-151640000D03*
D13*
X204000000Y-128100000D03*
X201075000Y-128100000D03*
D12*
X188632000Y-150340000D03*
X188632000Y-151640000D03*
D14*
X176024000Y-138881000D03*
D15*
X176024000Y-128581000D03*
D14*
X168524000Y-138881000D03*
D15*
X168524000Y-128581000D03*
D16*
X203000000Y-138000000D03*
X205925000Y-138000000D03*
D17*
X156090000Y-149276000D03*
X147890000Y-149276000D03*
X156090000Y-144276000D03*
X147890000Y-144276000D03*
D12*
X180504000Y-150340000D03*
X180504000Y-151640000D03*
D18*
X214550000Y-134260000D03*
D19*
X212010000Y-132990000D03*
X214550000Y-131720000D03*
X212010000Y-130450000D03*
X214550000Y-129180000D03*
X212010000Y-127910000D03*
X214550000Y-126640000D03*
X212010000Y-125370000D03*
D20*
X223950000Y-137585000D03*
X223950000Y-122045000D03*
D21*
X194698000Y-137742000D03*
X196598000Y-137742000D03*
D22*
X201797000Y-131773000D03*
X201797000Y-133043000D03*
X201797000Y-134313000D03*
X201797000Y-135583000D03*
X206747000Y-135583000D03*
X206747000Y-134313000D03*
X206747000Y-133043000D03*
X206747000Y-131773000D03*
D21*
X198750000Y-137742000D03*
X200650000Y-137742000D03*
D23*
X190100000Y-138550000D03*
X183900000Y-138550000D03*
D17*
X216882000Y-144349984D03*
X225082000Y-144349984D03*
X216882000Y-149349984D03*
X225082000Y-149349984D03*
D12*
X193966000Y-150325000D03*
X193966000Y-151625000D03*
X183298000Y-150340000D03*
X183298000Y-151640000D03*
D24*
X194378000Y-134694000D03*
D25*
X195133000Y-130069000D03*
X198183000Y-130069000D03*
D26*
X196658000Y-128394000D03*
D25*
X195133000Y-126719000D03*
X198183000Y-126719000D03*
D24*
X198938000Y-134694000D03*
D12*
X179900000Y-126250000D03*
X179900000Y-127550000D03*
X196633000Y-150340000D03*
X196633000Y-151640000D03*
D18*
X158350000Y-125270000D03*
D19*
X160890000Y-126540000D03*
X158350000Y-127810000D03*
X160890000Y-129080000D03*
X158350000Y-130350000D03*
X160890000Y-131620000D03*
X158350000Y-132890000D03*
X160890000Y-134160000D03*
D20*
X148950000Y-121945000D03*
X148950000Y-137485000D03*
D27*
X183170000Y-131250000D03*
D28*
X185710000Y-131250000D03*
X188250000Y-131250000D03*
X190790000Y-131250000D03*
D12*
X191299000Y-150325000D03*
X191299000Y-151625000D03*
X185950000Y-150340000D03*
X185950000Y-151640000D03*
D29*
X177714000Y-148850000D03*
X180504000Y-148840000D03*
X183304000Y-148840000D03*
X185954000Y-148840000D03*
X188629000Y-148840000D03*
X191304000Y-148840000D03*
X203975000Y-135625000D03*
X204150000Y-131775000D03*
X193954000Y-148840000D03*
X196644000Y-148860000D03*
X174925000Y-149525000D03*
X207625000Y-139225000D03*
X174225000Y-148800000D03*
X207625000Y-138000000D03*
D30*
X177710000Y-150340000D02*
X177710000Y-148854000D01*
X177710000Y-148854000D02*
X177714000Y-148850000D01*
X180504000Y-150340000D02*
X180504000Y-148840000D01*
X183298000Y-148846000D02*
X183304000Y-148840000D01*
X183298000Y-150340000D02*
X183298000Y-148846000D01*
X185950000Y-148844000D02*
X185954000Y-148840000D01*
X185950000Y-150340000D02*
X185950000Y-148844000D01*
X188632000Y-148843000D02*
X188629000Y-148840000D01*
X188632000Y-150340000D02*
X188632000Y-148843000D01*
X191299000Y-150325000D02*
X191299000Y-148845000D01*
X191299000Y-148845000D02*
X191304000Y-148840000D01*
D31*
X200650000Y-138450000D02*
X200650000Y-137742000D01*
D32*
X183900000Y-138550000D02*
X183170000Y-137820000D01*
D31*
X197225000Y-139000000D02*
X200100000Y-139000000D01*
X196658000Y-132575000D02*
X196658000Y-137682000D01*
X202771999Y-134313000D02*
X204041999Y-135583000D01*
X196658000Y-128394000D02*
X196658000Y-132575000D01*
X193525000Y-122600000D02*
X193525000Y-125261000D01*
X203999999Y-135625000D02*
X204041999Y-135583000D01*
X196658000Y-137682000D02*
X196598000Y-137742000D01*
X201742000Y-136650000D02*
X202974999Y-136650000D01*
X206764000Y-135600000D02*
X206747000Y-135583000D01*
X196598000Y-131534000D02*
X195133000Y-130069000D01*
X197126000Y-133043000D02*
X196658000Y-132575000D01*
X203975000Y-135625000D02*
X203999999Y-135625000D01*
X200100000Y-139000000D02*
X200650000Y-138450000D01*
X196598000Y-138373000D02*
X197225000Y-139000000D01*
X202974999Y-136650000D02*
X203975000Y-135649999D01*
X204041999Y-135583000D02*
X206747000Y-135583000D01*
X201797000Y-133043000D02*
X197126000Y-133043000D01*
X201797000Y-134313000D02*
X202771999Y-134313000D01*
X196598000Y-137742000D02*
X196598000Y-138373000D01*
D32*
X183170000Y-137820000D02*
X183170000Y-131250000D01*
D31*
X200650000Y-137742000D02*
X201742000Y-136650000D01*
X193525000Y-125261000D02*
X196658000Y-128394000D01*
X203975000Y-135649999D02*
X203975000Y-135625000D01*
X204148000Y-131773000D02*
X204150000Y-131775000D01*
X179900000Y-126250000D02*
X183250000Y-126250000D01*
X201797000Y-131773000D02*
X204148000Y-131773000D01*
X183250000Y-126250000D02*
X188250000Y-131250000D01*
D33*
X190820000Y-126645000D02*
X190820000Y-131250000D01*
X177525000Y-123975000D02*
X188150000Y-123975000D01*
X188150000Y-123975000D02*
X190820000Y-126645000D01*
X176024000Y-128581000D02*
X176024000Y-125476000D01*
D32*
X190790000Y-131250000D02*
X190790000Y-137860000D01*
D33*
X176024000Y-134000000D02*
X176024000Y-138881000D01*
X176024000Y-128581000D02*
X176024000Y-134000000D01*
D32*
X190790000Y-137860000D02*
X190100000Y-138550000D01*
D33*
X176024000Y-125476000D02*
X177525000Y-123975000D01*
D31*
X205150000Y-128100000D02*
X206747000Y-129697000D01*
X205177305Y-131773000D02*
X203262305Y-133688000D01*
X198750000Y-137742000D02*
X198750000Y-134882000D01*
X206747000Y-129697000D02*
X206747000Y-131773000D01*
X206747000Y-131773000D02*
X205177305Y-131773000D01*
X198938000Y-134694000D02*
X199202000Y-134958000D01*
X204000000Y-128100000D02*
X205150000Y-128100000D01*
X198750000Y-134882000D02*
X198938000Y-134694000D01*
X203262305Y-133688000D02*
X199944000Y-133688000D01*
X199944000Y-133688000D02*
X198938000Y-134694000D01*
D34*
X166495569Y-144250000D02*
X166595569Y-144150000D01*
X161469569Y-149276000D02*
X166495569Y-144250000D01*
D33*
X168524000Y-142221569D02*
X166495569Y-144250000D01*
D34*
X156090000Y-149276000D02*
X161469569Y-149276000D01*
D33*
X168524000Y-138881000D02*
X168524000Y-142221569D01*
D34*
X216882000Y-149349984D02*
X225082000Y-149349984D01*
X147890000Y-149276000D02*
X156090000Y-149276000D01*
X166595569Y-144150000D02*
X209030839Y-144150000D01*
X209030839Y-144150000D02*
X214230823Y-149349984D01*
D33*
X168524000Y-128581000D02*
X168524000Y-138881000D01*
D34*
X214230823Y-149349984D02*
X216882000Y-149349984D01*
D30*
X158300000Y-132940000D02*
X158350000Y-132890000D01*
X193966000Y-148852000D02*
X193954000Y-148840000D01*
X193966000Y-150325000D02*
X193966000Y-148852000D01*
X196644000Y-148860000D02*
X196644000Y-150329000D01*
X196644000Y-150329000D02*
X196633000Y-150340000D01*
D31*
X208950000Y-138025000D02*
X208950000Y-133700000D01*
X181925000Y-153000000D02*
X176350000Y-153000000D01*
X207600000Y-139200000D02*
X204200000Y-139200000D01*
X183285000Y-151640000D02*
X181925000Y-153000000D01*
D30*
X177710000Y-151640000D02*
X177283000Y-151213000D01*
D31*
X188632000Y-151640000D02*
X187275000Y-152997000D01*
X204200000Y-139200000D02*
X203000000Y-138000000D01*
X183298000Y-151640000D02*
X183285000Y-151640000D01*
X187275000Y-153000000D02*
X181925000Y-153000000D01*
X207750000Y-139225000D02*
X208950000Y-138025000D01*
X192591000Y-153000000D02*
X187275000Y-153000000D01*
D30*
X177710000Y-151640000D02*
X176350000Y-153000000D01*
X177545000Y-151640000D02*
X177710000Y-151640000D01*
D31*
X208950000Y-133700000D02*
X208293000Y-133043000D01*
X174925000Y-149525000D02*
X174925000Y-151575000D01*
X193966000Y-151625000D02*
X192591000Y-153000000D01*
X174925000Y-151575000D02*
X176350000Y-153000000D01*
X208293000Y-133043000D02*
X206747000Y-133043000D01*
X207625000Y-139225000D02*
X207750000Y-139225000D01*
X187275000Y-152997000D02*
X187275000Y-153000000D01*
X207625000Y-139225000D02*
X207600000Y-139200000D01*
X187750000Y-148115000D02*
X182254305Y-148115000D01*
X207988000Y-134313000D02*
X206747000Y-134313000D01*
X207625000Y-138000000D02*
X207675000Y-138000000D01*
X181900000Y-148469305D02*
X181900000Y-151100000D01*
X208350000Y-134675000D02*
X207988000Y-134313000D01*
X206366092Y-134313000D02*
X206747000Y-134313000D01*
X191299000Y-151625000D02*
X192299000Y-151625000D01*
X194264305Y-148125000D02*
X197525000Y-148125000D01*
X187225000Y-148640000D02*
X187750000Y-148115000D01*
X208350000Y-137325000D02*
X208350000Y-134675000D01*
X197525000Y-148125000D02*
X198300000Y-148900000D01*
X174225000Y-148800000D02*
X174910000Y-148115000D01*
X182254305Y-148115000D02*
X181900000Y-148469305D01*
X187225000Y-151365000D02*
X187225000Y-148640000D01*
X181900000Y-151100000D02*
X181360000Y-151640000D01*
X192625000Y-148765000D02*
X193275000Y-148115000D01*
X192299000Y-151625000D02*
X192625000Y-151299000D01*
X197633000Y-151640000D02*
X196633000Y-151640000D01*
X205925000Y-138000000D02*
X207625000Y-138000000D01*
X193275000Y-148115000D02*
X187750000Y-148115000D01*
X207675000Y-138000000D02*
X208350000Y-137325000D01*
X192625000Y-151299000D02*
X192625000Y-148765000D01*
X185950000Y-151640000D02*
X186950000Y-151640000D01*
X198300000Y-150973000D02*
X197633000Y-151640000D01*
D30*
X180011000Y-151640000D02*
X180504000Y-151640000D01*
D31*
X194254305Y-148115000D02*
X194264305Y-148125000D01*
X186950000Y-151640000D02*
X187225000Y-151365000D01*
X174910000Y-148115000D02*
X182254305Y-148115000D01*
X193275000Y-148115000D02*
X194254305Y-148115000D01*
X198300000Y-148900000D02*
X198300000Y-150973000D01*
X181360000Y-151640000D02*
X180504000Y-151640000D01*
X182010000Y-127550000D02*
X179900000Y-127550000D01*
X185710000Y-131250000D02*
X182010000Y-127550000D01*
X199275000Y-122600000D02*
X196065000Y-122600000D01*
X201075000Y-124400000D02*
X199275000Y-122600000D01*
X201075000Y-128100000D02*
X201075000Y-124400000D01*
G04 #@! TA.AperFunction,Conductor*
G36*
X148142884Y-120018013D02*
G01*
X148160897Y-120061500D01*
X148142884Y-120104987D01*
X148120888Y-120119122D01*
X148120298Y-120119343D01*
X148116837Y-120120633D01*
X148116836Y-120120633D01*
X147865690Y-120257770D01*
X147865685Y-120257773D01*
X147636607Y-120429259D01*
X147636603Y-120429262D01*
X147434262Y-120631603D01*
X147434259Y-120631607D01*
X147262773Y-120860685D01*
X147262770Y-120860690D01*
X147125633Y-121111836D01*
X147125629Y-121111845D01*
X147025631Y-121379950D01*
X147003614Y-121481163D01*
X146966424Y-121652128D01*
X146964802Y-121659583D01*
X146944390Y-121944995D01*
X146944390Y-121945004D01*
X146964802Y-122230416D01*
X146964803Y-122230423D01*
X146964804Y-122230428D01*
X146986555Y-122330416D01*
X147025631Y-122510049D01*
X147125629Y-122778154D01*
X147125633Y-122778163D01*
X147262770Y-123029309D01*
X147262773Y-123029314D01*
X147337632Y-123129314D01*
X147434261Y-123258395D01*
X147636605Y-123460739D01*
X147770191Y-123560740D01*
X147865685Y-123632226D01*
X147865690Y-123632229D01*
X148116836Y-123769366D01*
X148116845Y-123769370D01*
X148384950Y-123869368D01*
X148384953Y-123869368D01*
X148384954Y-123869369D01*
X148664572Y-123930196D01*
X148664581Y-123930196D01*
X148664583Y-123930197D01*
X148949996Y-123950610D01*
X148950000Y-123950610D01*
X148950004Y-123950610D01*
X149235416Y-123930197D01*
X149235416Y-123930196D01*
X149235428Y-123930196D01*
X149515046Y-123869369D01*
X149515049Y-123869368D01*
X149783154Y-123769370D01*
X149783163Y-123769366D01*
X149898615Y-123706324D01*
X150034315Y-123632226D01*
X150053230Y-123618065D01*
X150098838Y-123606424D01*
X150139319Y-123630441D01*
X150151061Y-123675326D01*
X150124500Y-123877069D01*
X150124500Y-124122930D01*
X150156591Y-124366680D01*
X150156594Y-124366693D01*
X150220219Y-124604144D01*
X150220222Y-124604153D01*
X150314306Y-124831292D01*
X150325851Y-124851288D01*
X150437234Y-125044211D01*
X150437235Y-125044212D01*
X150586897Y-125239254D01*
X150760745Y-125413102D01*
X150955787Y-125562764D01*
X150955788Y-125562765D01*
X150999450Y-125587973D01*
X151168708Y-125685694D01*
X151395847Y-125779778D01*
X151417926Y-125785694D01*
X151633306Y-125843405D01*
X151633320Y-125843408D01*
X151633323Y-125843409D01*
X151877073Y-125875500D01*
X151877076Y-125875500D01*
X152122924Y-125875500D01*
X152122927Y-125875500D01*
X152366677Y-125843409D01*
X152366685Y-125843406D01*
X152366693Y-125843405D01*
X152531183Y-125799330D01*
X152604153Y-125779778D01*
X152831292Y-125685694D01*
X153044208Y-125562767D01*
X153057070Y-125552898D01*
X153085365Y-125531186D01*
X153239256Y-125413101D01*
X153413101Y-125239256D01*
X153562767Y-125044208D01*
X153685694Y-124831292D01*
X153779778Y-124604153D01*
X153832229Y-124408402D01*
X153843405Y-124366693D01*
X153843408Y-124366680D01*
X153843409Y-124366677D01*
X153875500Y-124122927D01*
X153875500Y-123877073D01*
X153843409Y-123633323D01*
X153843408Y-123633319D01*
X153843405Y-123633306D01*
X153779780Y-123395855D01*
X153779778Y-123395847D01*
X153685694Y-123168708D01*
X153562767Y-122955792D01*
X153562765Y-122955788D01*
X153562764Y-122955787D01*
X153413102Y-122760745D01*
X153239254Y-122586897D01*
X153044212Y-122437235D01*
X153044211Y-122437234D01*
X152937750Y-122375769D01*
X152831292Y-122314306D01*
X152604153Y-122220222D01*
X152604144Y-122220219D01*
X152366693Y-122156594D01*
X152366680Y-122156591D01*
X152122930Y-122124500D01*
X152122927Y-122124500D01*
X151877073Y-122124500D01*
X151877069Y-122124500D01*
X151633319Y-122156591D01*
X151633306Y-122156594D01*
X151395855Y-122220219D01*
X151395846Y-122220222D01*
X151168709Y-122314305D01*
X151001183Y-122411026D01*
X150954515Y-122417169D01*
X150917172Y-122388515D01*
X150910339Y-122344692D01*
X150913442Y-122330428D01*
X150935196Y-122230428D01*
X150943513Y-122114140D01*
X150955610Y-121945004D01*
X150955610Y-121944995D01*
X150935197Y-121659583D01*
X150935196Y-121659581D01*
X150935196Y-121659572D01*
X150874369Y-121379954D01*
X150874368Y-121379950D01*
X150774370Y-121111845D01*
X150774366Y-121111836D01*
X150637229Y-120860690D01*
X150637226Y-120860685D01*
X150540598Y-120731605D01*
X150465739Y-120631605D01*
X150263395Y-120429261D01*
X150034315Y-120257774D01*
X150034316Y-120257774D01*
X150034314Y-120257773D01*
X150034309Y-120257770D01*
X149783162Y-120120633D01*
X149779702Y-120119343D01*
X149779111Y-120119122D01*
X149744661Y-120087049D01*
X149742980Y-120040009D01*
X149775054Y-120005558D01*
X149800603Y-120000000D01*
X223368043Y-120000000D01*
X223411530Y-120018013D01*
X223429543Y-120061500D01*
X223411530Y-120104987D01*
X223386911Y-120119594D01*
X223387012Y-120119863D01*
X223385525Y-120120417D01*
X223385373Y-120120508D01*
X223384948Y-120120632D01*
X223116845Y-120220629D01*
X223116836Y-120220633D01*
X222865690Y-120357770D01*
X222865685Y-120357773D01*
X222636607Y-120529259D01*
X222636603Y-120529262D01*
X222434262Y-120731603D01*
X222434259Y-120731607D01*
X222262773Y-120960685D01*
X222262770Y-120960690D01*
X222125633Y-121211836D01*
X222125629Y-121211845D01*
X222025631Y-121479950D01*
X221964802Y-121759583D01*
X221944390Y-122044995D01*
X221944390Y-122045004D01*
X221964802Y-122330417D01*
X221964803Y-122330425D01*
X221964804Y-122330428D01*
X221989661Y-122444693D01*
X221981303Y-122491015D01*
X221942638Y-122517860D01*
X221898816Y-122511026D01*
X221864156Y-122491015D01*
X221731292Y-122414306D01*
X221504153Y-122320222D01*
X221504144Y-122320219D01*
X221266693Y-122256594D01*
X221266680Y-122256591D01*
X221022930Y-122224500D01*
X221022927Y-122224500D01*
X220777073Y-122224500D01*
X220777069Y-122224500D01*
X220533319Y-122256591D01*
X220533306Y-122256594D01*
X220295855Y-122320219D01*
X220295846Y-122320222D01*
X220068710Y-122414305D01*
X219855788Y-122537234D01*
X219855787Y-122537235D01*
X219660745Y-122686897D01*
X219486897Y-122860745D01*
X219337235Y-123055787D01*
X219337234Y-123055788D01*
X219214305Y-123268710D01*
X219120222Y-123495846D01*
X219120219Y-123495855D01*
X219056594Y-123733306D01*
X219056591Y-123733319D01*
X219024500Y-123977069D01*
X219024500Y-124222927D01*
X219056591Y-124466680D01*
X219056594Y-124466693D01*
X219120219Y-124704144D01*
X219120222Y-124704153D01*
X219214306Y-124931292D01*
X219239739Y-124975343D01*
X219337234Y-125144211D01*
X219337235Y-125144212D01*
X219486897Y-125339254D01*
X219660745Y-125513102D01*
X219855787Y-125662764D01*
X219855788Y-125662765D01*
X219895503Y-125685694D01*
X220068708Y-125785694D01*
X220295847Y-125879778D01*
X220344650Y-125892854D01*
X220533306Y-125943405D01*
X220533320Y-125943408D01*
X220533323Y-125943409D01*
X220777073Y-125975500D01*
X220777076Y-125975500D01*
X221022924Y-125975500D01*
X221022927Y-125975500D01*
X221266677Y-125943409D01*
X221266685Y-125943406D01*
X221266693Y-125943405D01*
X221382547Y-125912362D01*
X221504153Y-125879778D01*
X221731292Y-125785694D01*
X221944208Y-125662767D01*
X222139256Y-125513101D01*
X222313101Y-125339256D01*
X222462767Y-125144208D01*
X222585694Y-124931292D01*
X222679778Y-124704153D01*
X222728388Y-124522736D01*
X222743405Y-124466693D01*
X222743408Y-124466680D01*
X222743409Y-124466677D01*
X222775500Y-124222927D01*
X222775500Y-123977073D01*
X222748938Y-123775323D01*
X222761120Y-123729860D01*
X222801884Y-123706324D01*
X222846768Y-123718065D01*
X222865685Y-123732226D01*
X222865690Y-123732229D01*
X223116836Y-123869366D01*
X223116845Y-123869370D01*
X223384950Y-123969368D01*
X223384953Y-123969368D01*
X223384954Y-123969369D01*
X223664572Y-124030196D01*
X223664581Y-124030196D01*
X223664583Y-124030197D01*
X223949996Y-124050610D01*
X223950000Y-124050610D01*
X223950004Y-124050610D01*
X224235416Y-124030197D01*
X224235416Y-124030196D01*
X224235428Y-124030196D01*
X224515046Y-123969369D01*
X224515049Y-123969368D01*
X224783154Y-123869370D01*
X224783163Y-123869366D01*
X224953299Y-123776464D01*
X225034315Y-123732226D01*
X225263395Y-123560739D01*
X225465739Y-123358395D01*
X225637226Y-123129315D01*
X225774367Y-122878161D01*
X225780864Y-122860744D01*
X225874368Y-122610049D01*
X225874369Y-122610046D01*
X225935196Y-122330428D01*
X225943078Y-122220219D01*
X225955610Y-122045004D01*
X225955610Y-122044995D01*
X225935197Y-121759583D01*
X225935196Y-121759581D01*
X225935196Y-121759572D01*
X225874369Y-121479954D01*
X225866058Y-121457671D01*
X225774370Y-121211845D01*
X225774366Y-121211836D01*
X225637229Y-120960690D01*
X225637226Y-120960685D01*
X225562367Y-120860685D01*
X225465739Y-120731605D01*
X225263395Y-120529261D01*
X225050985Y-120370253D01*
X225034314Y-120357773D01*
X225034309Y-120357770D01*
X224783163Y-120220633D01*
X224783154Y-120220629D01*
X224515051Y-120120632D01*
X224514627Y-120120508D01*
X224514549Y-120120445D01*
X224512988Y-120119863D01*
X224513181Y-120119343D01*
X224477978Y-120090970D01*
X224472949Y-120044170D01*
X224502487Y-120007521D01*
X224531957Y-120000000D01*
X227791760Y-120000000D01*
X227806478Y-120001787D01*
X228131186Y-120081821D01*
X228138276Y-120084030D01*
X228193535Y-120104987D01*
X228461438Y-120206589D01*
X228468201Y-120209632D01*
X228559925Y-120257773D01*
X228774234Y-120370251D01*
X228780590Y-120374094D01*
X229065015Y-120570419D01*
X229070861Y-120574998D01*
X229329568Y-120804191D01*
X229334808Y-120809431D01*
X229468807Y-120960685D01*
X229564001Y-121068138D01*
X229568580Y-121073984D01*
X229764905Y-121358409D01*
X229768748Y-121364764D01*
X229803011Y-121430047D01*
X229929372Y-121670808D01*
X229932415Y-121677572D01*
X229996003Y-121845239D01*
X230000000Y-121867047D01*
X230000000Y-152455948D01*
X229996003Y-152477756D01*
X229932411Y-152645434D01*
X229929364Y-152652206D01*
X229768748Y-152958234D01*
X229764905Y-152964590D01*
X229568580Y-153249015D01*
X229564001Y-153254861D01*
X229334814Y-153513562D01*
X229329562Y-153518814D01*
X229070861Y-153748001D01*
X229065015Y-153752580D01*
X228780590Y-153948905D01*
X228774234Y-153952748D01*
X228468206Y-154113364D01*
X228461434Y-154116412D01*
X228138276Y-154238969D01*
X228131186Y-154241178D01*
X227795620Y-154323889D01*
X227788315Y-154325228D01*
X227444753Y-154366943D01*
X227438268Y-154367384D01*
X227265464Y-154369993D01*
X227264536Y-154370000D01*
X145604464Y-154370000D01*
X145603536Y-154369993D01*
X145430731Y-154367384D01*
X145424246Y-154366943D01*
X145080684Y-154325228D01*
X145073379Y-154323889D01*
X144737813Y-154241178D01*
X144730723Y-154238969D01*
X144407565Y-154116412D01*
X144400793Y-154113364D01*
X144094765Y-153952748D01*
X144088409Y-153948905D01*
X143803984Y-153752580D01*
X143798138Y-153748001D01*
X143646293Y-153613479D01*
X143539431Y-153518808D01*
X143534191Y-153513568D01*
X143304998Y-153254861D01*
X143300419Y-153249015D01*
X143104094Y-152964590D01*
X143100251Y-152958234D01*
X142939635Y-152652206D01*
X142936587Y-152645434D01*
X142934715Y-152640499D01*
X142827004Y-152356487D01*
X142814030Y-152322276D01*
X142811821Y-152315186D01*
X142805985Y-152291508D01*
X142729107Y-151979607D01*
X142727773Y-151972328D01*
X142686055Y-151628739D01*
X142685616Y-151622283D01*
X142683007Y-151449463D01*
X142683000Y-151448535D01*
X142683000Y-149526000D01*
X145734048Y-149526000D01*
X145739522Y-149560561D01*
X145798630Y-149742476D01*
X145885468Y-149912906D01*
X145997895Y-150067648D01*
X146133151Y-150202904D01*
X146287893Y-150315331D01*
X146458323Y-150402169D01*
X146640239Y-150461277D01*
X146829158Y-150491199D01*
X146829166Y-150491200D01*
X147640000Y-150491200D01*
X147640000Y-149876001D01*
X147700402Y-149901021D01*
X147825981Y-149926000D01*
X147954019Y-149926000D01*
X148079598Y-149901021D01*
X148140000Y-149876001D01*
X148140000Y-150491200D01*
X148950834Y-150491200D01*
X148950841Y-150491199D01*
X149139760Y-150461277D01*
X149321676Y-150402169D01*
X149492106Y-150315331D01*
X149646848Y-150202904D01*
X149646849Y-150202904D01*
X149782104Y-150067649D01*
X149782104Y-150067648D01*
X149894531Y-149912906D01*
X149981369Y-149742476D01*
X150040477Y-149560561D01*
X150045952Y-149526000D01*
X153934048Y-149526000D01*
X153939522Y-149560561D01*
X153998630Y-149742476D01*
X154085468Y-149912906D01*
X154197895Y-150067648D01*
X154333151Y-150202904D01*
X154487893Y-150315331D01*
X154658323Y-150402169D01*
X154840239Y-150461277D01*
X155029158Y-150491199D01*
X155029166Y-150491200D01*
X155840000Y-150491200D01*
X155840000Y-149876001D01*
X155900402Y-149901021D01*
X156025981Y-149926000D01*
X156154019Y-149926000D01*
X156279598Y-149901021D01*
X156340000Y-149876001D01*
X156340000Y-150491200D01*
X157150834Y-150491200D01*
X157150841Y-150491199D01*
X157339760Y-150461277D01*
X157462818Y-150421293D01*
X166249500Y-150421293D01*
X166281163Y-150661796D01*
X166343944Y-150896094D01*
X166343946Y-150896100D01*
X166436776Y-151120212D01*
X166497420Y-151225250D01*
X166558065Y-151330292D01*
X166558066Y-151330293D01*
X166705733Y-151522736D01*
X166877263Y-151694266D01*
X167069706Y-151841933D01*
X167069707Y-151841934D01*
X167114102Y-151867565D01*
X167279788Y-151963224D01*
X167503900Y-152056054D01*
X167668591Y-152100183D01*
X167738203Y-152118836D01*
X167738204Y-152118836D01*
X167738211Y-152118838D01*
X167978712Y-152150500D01*
X167978715Y-152150500D01*
X168221285Y-152150500D01*
X168221288Y-152150500D01*
X168461789Y-152118838D01*
X168696100Y-152056054D01*
X168920212Y-151963224D01*
X169130289Y-151841936D01*
X169322738Y-151694265D01*
X169494265Y-151522738D01*
X169641936Y-151330289D01*
X169763224Y-151120212D01*
X169856054Y-150896100D01*
X169918838Y-150661789D01*
X169950500Y-150421288D01*
X169950500Y-150178712D01*
X169918838Y-149938211D01*
X169912057Y-149912906D01*
X169896507Y-149854872D01*
X169856054Y-149703900D01*
X169763224Y-149479788D01*
X169651320Y-149285965D01*
X169641934Y-149269707D01*
X169641933Y-149269706D01*
X169494266Y-149077263D01*
X169322736Y-148905733D01*
X169184944Y-148800001D01*
X173319540Y-148800001D01*
X173339325Y-148988255D01*
X173397820Y-149168282D01*
X173397821Y-149168284D01*
X173491712Y-149330909D01*
X173492469Y-149332219D01*
X173619122Y-149472882D01*
X173619126Y-149472885D01*
X173619129Y-149472888D01*
X173772270Y-149584151D01*
X173945197Y-149661144D01*
X173993388Y-149671386D01*
X174032179Y-149698045D01*
X174039092Y-149712537D01*
X174060079Y-149777127D01*
X174097821Y-149893284D01*
X174192467Y-150057216D01*
X174283703Y-150158543D01*
X174299500Y-150199694D01*
X174299500Y-151636610D01*
X174323535Y-151757444D01*
X174323536Y-151757449D01*
X174323537Y-151757451D01*
X174370688Y-151871286D01*
X174390184Y-151900463D01*
X174439140Y-151973730D01*
X174439141Y-151973732D01*
X174529765Y-152064357D01*
X174529778Y-152064368D01*
X175864141Y-153398732D01*
X175864142Y-153398733D01*
X175951267Y-153485858D01*
X175985416Y-153508675D01*
X176053710Y-153554309D01*
X176053712Y-153554310D01*
X176053714Y-153554311D01*
X176167548Y-153601463D01*
X176227971Y-153613481D01*
X176248111Y-153617487D01*
X176288391Y-153625500D01*
X176288393Y-153625500D01*
X192652609Y-153625500D01*
X192672747Y-153621493D01*
X192713029Y-153613481D01*
X192773452Y-153601463D01*
X192806792Y-153587652D01*
X192865996Y-153563130D01*
X192887277Y-153554316D01*
X192887278Y-153554315D01*
X192887286Y-153554312D01*
X192938509Y-153520084D01*
X192989733Y-153485858D01*
X193076858Y-153398733D01*
X193076858Y-153398731D01*
X193081916Y-153393674D01*
X193081919Y-153393669D01*
X193832078Y-152643512D01*
X193875565Y-152625499D01*
X194763872Y-152625499D01*
X194823483Y-152619091D01*
X194958331Y-152568796D01*
X195073546Y-152482546D01*
X195159796Y-152367331D01*
X195210091Y-152232483D01*
X195216500Y-152172873D01*
X195216499Y-151077128D01*
X195210091Y-151017517D01*
X195202249Y-150996491D01*
X195202249Y-150953507D01*
X195210091Y-150932483D01*
X195216500Y-150872873D01*
X195216499Y-149777128D01*
X195210091Y-149717517D01*
X195159796Y-149582669D01*
X195073546Y-149467454D01*
X194978370Y-149396205D01*
X194958333Y-149381205D01*
X194958328Y-149381203D01*
X194823484Y-149330909D01*
X194823483Y-149330908D01*
X194810903Y-149329556D01*
X194769591Y-149306997D01*
X194756332Y-149261833D01*
X194764218Y-149237660D01*
X194781179Y-149208284D01*
X194839674Y-149028256D01*
X194857358Y-148859998D01*
X194859460Y-148840001D01*
X194859460Y-148839998D01*
X194857193Y-148818428D01*
X194870562Y-148773296D01*
X194911928Y-148750837D01*
X194918356Y-148750500D01*
X195681746Y-148750500D01*
X195725233Y-148768513D01*
X195743246Y-148812000D01*
X195742909Y-148818428D01*
X195738540Y-148859998D01*
X195738540Y-148860001D01*
X195758325Y-149048255D01*
X195816820Y-149228283D01*
X195831121Y-149253052D01*
X195837264Y-149299720D01*
X195808610Y-149337063D01*
X195784434Y-149344950D01*
X195775518Y-149345908D01*
X195775514Y-149345909D01*
X195640671Y-149396203D01*
X195640666Y-149396205D01*
X195525454Y-149482454D01*
X195439205Y-149597666D01*
X195439203Y-149597671D01*
X195388910Y-149732512D01*
X195388910Y-149732514D01*
X195388909Y-149732517D01*
X195382500Y-149792127D01*
X195382500Y-149792128D01*
X195382500Y-150887872D01*
X195388908Y-150947480D01*
X195396751Y-150968510D01*
X195396751Y-151011487D01*
X195388910Y-151032513D01*
X195388909Y-151032517D01*
X195384113Y-151077127D01*
X195382500Y-151092128D01*
X195382500Y-152187872D01*
X195388908Y-152247481D01*
X195388909Y-152247485D01*
X195416805Y-152322276D01*
X195439204Y-152382331D01*
X195525454Y-152497546D01*
X195640669Y-152583796D01*
X195775517Y-152634091D01*
X195835127Y-152640500D01*
X197430872Y-152640499D01*
X197490483Y-152634091D01*
X197625331Y-152583796D01*
X197740546Y-152497546D01*
X197826796Y-152382331D01*
X197877091Y-152247483D01*
X197877091Y-152247477D01*
X197877975Y-152243742D01*
X197880292Y-152244289D01*
X197899218Y-152209493D01*
X197914349Y-152200498D01*
X197929286Y-152194312D01*
X197980509Y-152160084D01*
X198031733Y-152125858D01*
X198118858Y-152038733D01*
X198118858Y-152038731D01*
X198123916Y-152033674D01*
X198123919Y-152033669D01*
X198785857Y-151371734D01*
X198804580Y-151343714D01*
X198813549Y-151330292D01*
X198854305Y-151269295D01*
X198854305Y-151269294D01*
X198854311Y-151269286D01*
X198901463Y-151155452D01*
X198905741Y-151133943D01*
X198925500Y-151034607D01*
X198925500Y-150911394D01*
X198925500Y-150421293D01*
X203149500Y-150421293D01*
X203181163Y-150661796D01*
X203243944Y-150896094D01*
X203243946Y-150896100D01*
X203336776Y-151120212D01*
X203397420Y-151225250D01*
X203458065Y-151330292D01*
X203458066Y-151330293D01*
X203605733Y-151522736D01*
X203777263Y-151694266D01*
X203969706Y-151841933D01*
X203969707Y-151841934D01*
X204014102Y-151867565D01*
X204179788Y-151963224D01*
X204403900Y-152056054D01*
X204568591Y-152100183D01*
X204638203Y-152118836D01*
X204638204Y-152118836D01*
X204638211Y-152118838D01*
X204878712Y-152150500D01*
X204878715Y-152150500D01*
X205121285Y-152150500D01*
X205121288Y-152150500D01*
X205361789Y-152118838D01*
X205596100Y-152056054D01*
X205820212Y-151963224D01*
X206030289Y-151841936D01*
X206222738Y-151694265D01*
X206394265Y-151522738D01*
X206541936Y-151330289D01*
X206663224Y-151120212D01*
X206756054Y-150896100D01*
X206818838Y-150661789D01*
X206850500Y-150421288D01*
X206850500Y-150178712D01*
X206818838Y-149938211D01*
X206812057Y-149912906D01*
X206796507Y-149854872D01*
X206756054Y-149703900D01*
X206713011Y-149599984D01*
X214726048Y-149599984D01*
X214731522Y-149634545D01*
X214790630Y-149816460D01*
X214877468Y-149986890D01*
X214989895Y-150141632D01*
X215125151Y-150276888D01*
X215279893Y-150389315D01*
X215450323Y-150476153D01*
X215632239Y-150535261D01*
X215821158Y-150565183D01*
X215821166Y-150565184D01*
X216632000Y-150565184D01*
X216632000Y-149949985D01*
X216692402Y-149975005D01*
X216817981Y-149999984D01*
X216946019Y-149999984D01*
X217071598Y-149975005D01*
X217132000Y-149949985D01*
X217132000Y-150565184D01*
X217942834Y-150565184D01*
X217942841Y-150565183D01*
X218131760Y-150535261D01*
X218313676Y-150476153D01*
X218484106Y-150389315D01*
X218638848Y-150276888D01*
X218638849Y-150276888D01*
X218774104Y-150141633D01*
X218774104Y-150141632D01*
X218886531Y-149986890D01*
X218973369Y-149816460D01*
X219032477Y-149634545D01*
X219037952Y-149599984D01*
X222926048Y-149599984D01*
X222931522Y-149634545D01*
X222990630Y-149816460D01*
X223077468Y-149986890D01*
X223189895Y-150141632D01*
X223325151Y-150276888D01*
X223479893Y-150389315D01*
X223650323Y-150476153D01*
X223832239Y-150535261D01*
X224021158Y-150565183D01*
X224021166Y-150565184D01*
X224832000Y-150565184D01*
X224832000Y-149949985D01*
X224892402Y-149975005D01*
X225017981Y-149999984D01*
X225146019Y-149999984D01*
X225271598Y-149975005D01*
X225332000Y-149949985D01*
X225332000Y-150565184D01*
X226142834Y-150565184D01*
X226142841Y-150565183D01*
X226331760Y-150535261D01*
X226513676Y-150476153D01*
X226684106Y-150389315D01*
X226838848Y-150276888D01*
X226838849Y-150276888D01*
X226974104Y-150141633D01*
X226974104Y-150141632D01*
X227086531Y-149986890D01*
X227173369Y-149816460D01*
X227232477Y-149634545D01*
X227237952Y-149599984D01*
X225682001Y-149599984D01*
X225707021Y-149539582D01*
X225732000Y-149414003D01*
X225732000Y-149285965D01*
X225707021Y-149160386D01*
X225682001Y-149099984D01*
X227237951Y-149099984D01*
X227232477Y-149065422D01*
X227173369Y-148883507D01*
X227086531Y-148713077D01*
X226974104Y-148558335D01*
X226838848Y-148423079D01*
X226684106Y-148310652D01*
X226513676Y-148223814D01*
X226331760Y-148164706D01*
X226142841Y-148134784D01*
X225332000Y-148134784D01*
X225332000Y-148749982D01*
X225271598Y-148724963D01*
X225146019Y-148699984D01*
X225017981Y-148699984D01*
X224892402Y-148724963D01*
X224832000Y-148749982D01*
X224832000Y-148134784D01*
X224021158Y-148134784D01*
X223832239Y-148164706D01*
X223650323Y-148223814D01*
X223479893Y-148310652D01*
X223325151Y-148423079D01*
X223325151Y-148423080D01*
X223189896Y-148558335D01*
X223189895Y-148558335D01*
X223077468Y-148713077D01*
X222990630Y-148883507D01*
X222931522Y-149065422D01*
X222926048Y-149099984D01*
X224481999Y-149099984D01*
X224456979Y-149160386D01*
X224432000Y-149285965D01*
X224432000Y-149414003D01*
X224456979Y-149539582D01*
X224481999Y-149599984D01*
X222926048Y-149599984D01*
X219037952Y-149599984D01*
X217482001Y-149599984D01*
X217507021Y-149539582D01*
X217532000Y-149414003D01*
X217532000Y-149285965D01*
X217507021Y-149160386D01*
X217482001Y-149099984D01*
X219037951Y-149099984D01*
X219032477Y-149065422D01*
X218973369Y-148883507D01*
X218886531Y-148713077D01*
X218774104Y-148558335D01*
X218638848Y-148423079D01*
X218484106Y-148310652D01*
X218313676Y-148223814D01*
X218131760Y-148164706D01*
X217942841Y-148134784D01*
X217132000Y-148134784D01*
X217132000Y-148749982D01*
X217071598Y-148724963D01*
X216946019Y-148699984D01*
X216817981Y-148699984D01*
X216692402Y-148724963D01*
X216632000Y-148749982D01*
X216632000Y-148134784D01*
X215821158Y-148134784D01*
X215632239Y-148164706D01*
X215450323Y-148223814D01*
X215279893Y-148310652D01*
X215125151Y-148423079D01*
X215125151Y-148423080D01*
X214989896Y-148558335D01*
X214989895Y-148558335D01*
X214877468Y-148713077D01*
X214790630Y-148883507D01*
X214731522Y-149065422D01*
X214726048Y-149099984D01*
X216281999Y-149099984D01*
X216256979Y-149160386D01*
X216232000Y-149285965D01*
X216232000Y-149414003D01*
X216256979Y-149539582D01*
X216281999Y-149599984D01*
X214726048Y-149599984D01*
X206713011Y-149599984D01*
X206663224Y-149479788D01*
X206551320Y-149285965D01*
X206541934Y-149269707D01*
X206541933Y-149269706D01*
X206394266Y-149077263D01*
X206222736Y-148905733D01*
X206030293Y-148758066D01*
X206030292Y-148758065D01*
X205925250Y-148697420D01*
X205820212Y-148636776D01*
X205596100Y-148543946D01*
X205596094Y-148543944D01*
X205361796Y-148481163D01*
X205361789Y-148481162D01*
X205336185Y-148477791D01*
X205121293Y-148449500D01*
X205121288Y-148449500D01*
X204878712Y-148449500D01*
X204878706Y-148449500D01*
X204638203Y-148481163D01*
X204403905Y-148543944D01*
X204403899Y-148543946D01*
X204179790Y-148636775D01*
X203969707Y-148758065D01*
X203969706Y-148758066D01*
X203777263Y-148905733D01*
X203605733Y-149077263D01*
X203458066Y-149269706D01*
X203458065Y-149269707D01*
X203336775Y-149479790D01*
X203243946Y-149703899D01*
X203243944Y-149703905D01*
X203181163Y-149938203D01*
X203149500Y-150178706D01*
X203149500Y-150421293D01*
X198925500Y-150421293D01*
X198925500Y-148964654D01*
X198925501Y-148964633D01*
X198925501Y-148838392D01*
X198912552Y-148773296D01*
X198901463Y-148717549D01*
X198901461Y-148717544D01*
X198901012Y-148716459D01*
X198901010Y-148716456D01*
X198868006Y-148636776D01*
X198868006Y-148636775D01*
X198854312Y-148603715D01*
X198785858Y-148501267D01*
X198014368Y-147729778D01*
X198014357Y-147729765D01*
X197923732Y-147639141D01*
X197923726Y-147639136D01*
X197872510Y-147604915D01*
X197872509Y-147604915D01*
X197821286Y-147570688D01*
X197740792Y-147537347D01*
X197707453Y-147523537D01*
X197707446Y-147523535D01*
X197586609Y-147499500D01*
X197586607Y-147499500D01*
X197586606Y-147499500D01*
X194372242Y-147499500D01*
X194360244Y-147498318D01*
X194349840Y-147496248D01*
X194315914Y-147489500D01*
X194315912Y-147489500D01*
X194315911Y-147489500D01*
X193336607Y-147489500D01*
X193336606Y-147489500D01*
X187811607Y-147489500D01*
X187811606Y-147489500D01*
X182315912Y-147489500D01*
X182315911Y-147489500D01*
X174971606Y-147489500D01*
X174848393Y-147489500D01*
X174848391Y-147489500D01*
X174814877Y-147496166D01*
X174798119Y-147499500D01*
X174798118Y-147499500D01*
X174727555Y-147513534D01*
X174727541Y-147513539D01*
X174613710Y-147560690D01*
X174511269Y-147629140D01*
X174511267Y-147629141D01*
X174424139Y-147716270D01*
X174258923Y-147881487D01*
X174215436Y-147899500D01*
X174130352Y-147899500D01*
X173945198Y-147938855D01*
X173772273Y-148015847D01*
X173772271Y-148015848D01*
X173772270Y-148015849D01*
X173669216Y-148090722D01*
X173619122Y-148127117D01*
X173492469Y-148267780D01*
X173397820Y-148431717D01*
X173339325Y-148611744D01*
X173319540Y-148799998D01*
X173319540Y-148800001D01*
X169184944Y-148800001D01*
X169130293Y-148758066D01*
X169130292Y-148758065D01*
X169025250Y-148697420D01*
X168920212Y-148636776D01*
X168696100Y-148543946D01*
X168696094Y-148543944D01*
X168461796Y-148481163D01*
X168461789Y-148481162D01*
X168436185Y-148477791D01*
X168221293Y-148449500D01*
X168221288Y-148449500D01*
X167978712Y-148449500D01*
X167978706Y-148449500D01*
X167738203Y-148481163D01*
X167503905Y-148543944D01*
X167503899Y-148543946D01*
X167279790Y-148636775D01*
X167069707Y-148758065D01*
X167069706Y-148758066D01*
X166877263Y-148905733D01*
X166705733Y-149077263D01*
X166558066Y-149269706D01*
X166558065Y-149269707D01*
X166436775Y-149479790D01*
X166343946Y-149703899D01*
X166343944Y-149703905D01*
X166281163Y-149938203D01*
X166249500Y-150178706D01*
X166249500Y-150421293D01*
X157462818Y-150421293D01*
X157521676Y-150402169D01*
X157692106Y-150315331D01*
X157846848Y-150202904D01*
X157846849Y-150202904D01*
X157982104Y-150067649D01*
X157982104Y-150067648D01*
X158094531Y-149912906D01*
X158181369Y-149742476D01*
X158240477Y-149560561D01*
X158245952Y-149526000D01*
X156690001Y-149526000D01*
X156715021Y-149465598D01*
X156740000Y-149340019D01*
X156740000Y-149211981D01*
X156715021Y-149086402D01*
X156690001Y-149026000D01*
X158245951Y-149026000D01*
X158240477Y-148991438D01*
X158181369Y-148809523D01*
X158094531Y-148639093D01*
X157982104Y-148484351D01*
X157846848Y-148349095D01*
X157692106Y-148236668D01*
X157521676Y-148149830D01*
X157339760Y-148090722D01*
X157150841Y-148060800D01*
X156340000Y-148060800D01*
X156340000Y-148675998D01*
X156279598Y-148650979D01*
X156154019Y-148626000D01*
X156025981Y-148626000D01*
X155900402Y-148650979D01*
X155840000Y-148675998D01*
X155840000Y-148060800D01*
X155029158Y-148060800D01*
X154840239Y-148090722D01*
X154658323Y-148149830D01*
X154487893Y-148236668D01*
X154333151Y-148349095D01*
X154333151Y-148349096D01*
X154197896Y-148484351D01*
X154197895Y-148484351D01*
X154085468Y-148639093D01*
X153998630Y-148809523D01*
X153939522Y-148991438D01*
X153934048Y-149026000D01*
X155489999Y-149026000D01*
X155464979Y-149086402D01*
X155440000Y-149211981D01*
X155440000Y-149340019D01*
X155464979Y-149465598D01*
X155489999Y-149526000D01*
X153934048Y-149526000D01*
X150045952Y-149526000D01*
X148490001Y-149526000D01*
X148515021Y-149465598D01*
X148540000Y-149340019D01*
X148540000Y-149211981D01*
X148515021Y-149086402D01*
X148490001Y-149026000D01*
X150045951Y-149026000D01*
X150040477Y-148991438D01*
X149981369Y-148809523D01*
X149894531Y-148639093D01*
X149782104Y-148484351D01*
X149646848Y-148349095D01*
X149492106Y-148236668D01*
X149321676Y-148149830D01*
X149139760Y-148090722D01*
X148950841Y-148060800D01*
X148140000Y-148060800D01*
X148140000Y-148675998D01*
X148079598Y-148650979D01*
X147954019Y-148626000D01*
X147825981Y-148626000D01*
X147700402Y-148650979D01*
X147640000Y-148675998D01*
X147640000Y-148060800D01*
X146829158Y-148060800D01*
X146640239Y-148090722D01*
X146458323Y-148149830D01*
X146287893Y-148236668D01*
X146133151Y-148349095D01*
X146133151Y-148349096D01*
X145997896Y-148484351D01*
X145997895Y-148484351D01*
X145885468Y-148639093D01*
X145798630Y-148809523D01*
X145739522Y-148991438D01*
X145734048Y-149026000D01*
X147289999Y-149026000D01*
X147264979Y-149086402D01*
X147240000Y-149211981D01*
X147240000Y-149340019D01*
X147264979Y-149465598D01*
X147289999Y-149526000D01*
X145734048Y-149526000D01*
X142683000Y-149526000D01*
X142683000Y-144391356D01*
X145459100Y-144391356D01*
X145495191Y-144619221D01*
X145566483Y-144838634D01*
X145671222Y-145044196D01*
X145806825Y-145230837D01*
X145806826Y-145230838D01*
X145806827Y-145230839D01*
X145969961Y-145393973D01*
X146156606Y-145529579D01*
X146362167Y-145634317D01*
X146581578Y-145705608D01*
X146581581Y-145705609D01*
X146809447Y-145741700D01*
X146809451Y-145741700D01*
X148970549Y-145741700D01*
X148970553Y-145741700D01*
X149198419Y-145705609D01*
X149417833Y-145634317D01*
X149623394Y-145529579D01*
X149810039Y-145393973D01*
X149973173Y-145230839D01*
X150108779Y-145044194D01*
X150213517Y-144838633D01*
X150284809Y-144619219D01*
X150320900Y-144391356D01*
X153659100Y-144391356D01*
X153695191Y-144619221D01*
X153766483Y-144838634D01*
X153871222Y-145044196D01*
X154006825Y-145230837D01*
X154006826Y-145230838D01*
X154006827Y-145230839D01*
X154169961Y-145393973D01*
X154356606Y-145529579D01*
X154562167Y-145634317D01*
X154781578Y-145705608D01*
X154781581Y-145705609D01*
X155009447Y-145741700D01*
X155009451Y-145741700D01*
X157170549Y-145741700D01*
X157170553Y-145741700D01*
X157398419Y-145705609D01*
X157617833Y-145634317D01*
X157823394Y-145529579D01*
X158010039Y-145393973D01*
X158173173Y-145230839D01*
X158308779Y-145044194D01*
X158413517Y-144838633D01*
X158484809Y-144619219D01*
X158509181Y-144465340D01*
X214451100Y-144465340D01*
X214487191Y-144693205D01*
X214558483Y-144912618D01*
X214663222Y-145118180D01*
X214798825Y-145304821D01*
X214798826Y-145304822D01*
X214798827Y-145304823D01*
X214961961Y-145467957D01*
X215148606Y-145603563D01*
X215354167Y-145708301D01*
X215573578Y-145779592D01*
X215573581Y-145779593D01*
X215801447Y-145815684D01*
X215801451Y-145815684D01*
X217962549Y-145815684D01*
X217962553Y-145815684D01*
X218190419Y-145779593D01*
X218409833Y-145708301D01*
X218615394Y-145603563D01*
X218802039Y-145467957D01*
X218965173Y-145304823D01*
X219100779Y-145118178D01*
X219205517Y-144912617D01*
X219276809Y-144693203D01*
X219312900Y-144465340D01*
X222651100Y-144465340D01*
X222687191Y-144693205D01*
X222758483Y-144912618D01*
X222863222Y-145118180D01*
X222998825Y-145304821D01*
X222998826Y-145304822D01*
X222998827Y-145304823D01*
X223161961Y-145467957D01*
X223348606Y-145603563D01*
X223554167Y-145708301D01*
X223773578Y-145779592D01*
X223773581Y-145779593D01*
X224001447Y-145815684D01*
X224001451Y-145815684D01*
X226162549Y-145815684D01*
X226162553Y-145815684D01*
X226390419Y-145779593D01*
X226609833Y-145708301D01*
X226815394Y-145603563D01*
X227002039Y-145467957D01*
X227165173Y-145304823D01*
X227300779Y-145118178D01*
X227405517Y-144912617D01*
X227476809Y-144693203D01*
X227512900Y-144465337D01*
X227512900Y-144234631D01*
X227476809Y-144006765D01*
X227405517Y-143787351D01*
X227300779Y-143581790D01*
X227300777Y-143581787D01*
X227165174Y-143395146D01*
X227002037Y-143232009D01*
X226815396Y-143096406D01*
X226609834Y-142991667D01*
X226390420Y-142920375D01*
X226390422Y-142920375D01*
X226162556Y-142884284D01*
X226162553Y-142884284D01*
X224001447Y-142884284D01*
X224001443Y-142884284D01*
X223773578Y-142920375D01*
X223554165Y-142991667D01*
X223348603Y-143096406D01*
X223161962Y-143232009D01*
X223161962Y-143232010D01*
X223161961Y-143232011D01*
X222998827Y-143395145D01*
X222998826Y-143395146D01*
X222998825Y-143395146D01*
X222863222Y-143581787D01*
X222758483Y-143787349D01*
X222687191Y-144006762D01*
X222651100Y-144234627D01*
X222651100Y-144465340D01*
X219312900Y-144465340D01*
X219312900Y-144465337D01*
X219312900Y-144234631D01*
X219276809Y-144006765D01*
X219205517Y-143787351D01*
X219100779Y-143581790D01*
X219100777Y-143581787D01*
X218965174Y-143395146D01*
X218802037Y-143232009D01*
X218615396Y-143096406D01*
X218409834Y-142991667D01*
X218190420Y-142920375D01*
X218190422Y-142920375D01*
X217962556Y-142884284D01*
X217962553Y-142884284D01*
X215801447Y-142884284D01*
X215801443Y-142884284D01*
X215573578Y-142920375D01*
X215354165Y-142991667D01*
X215148603Y-143096406D01*
X214961962Y-143232009D01*
X214961962Y-143232010D01*
X214961961Y-143232011D01*
X214798827Y-143395145D01*
X214798826Y-143395146D01*
X214798825Y-143395146D01*
X214663222Y-143581787D01*
X214558483Y-143787349D01*
X214487191Y-144006762D01*
X214451100Y-144234627D01*
X214451100Y-144465340D01*
X158509181Y-144465340D01*
X158520900Y-144391353D01*
X158520900Y-144160647D01*
X158484809Y-143932781D01*
X158413517Y-143713367D01*
X158308779Y-143507806D01*
X158308777Y-143507803D01*
X158173174Y-143321162D01*
X158010037Y-143158025D01*
X157823396Y-143022422D01*
X157617834Y-142917683D01*
X157398420Y-142846391D01*
X157398422Y-142846391D01*
X157170556Y-142810300D01*
X157170553Y-142810300D01*
X155009447Y-142810300D01*
X155009443Y-142810300D01*
X154781578Y-142846391D01*
X154562165Y-142917683D01*
X154356603Y-143022422D01*
X154169962Y-143158025D01*
X154169962Y-143158026D01*
X154169961Y-143158027D01*
X154006827Y-143321161D01*
X154006826Y-143321162D01*
X154006825Y-143321162D01*
X153871222Y-143507803D01*
X153766483Y-143713365D01*
X153695191Y-143932778D01*
X153659100Y-144160643D01*
X153659100Y-144391356D01*
X150320900Y-144391356D01*
X150320900Y-144391353D01*
X150320900Y-144160647D01*
X150284809Y-143932781D01*
X150213517Y-143713367D01*
X150108779Y-143507806D01*
X150108777Y-143507803D01*
X149973174Y-143321162D01*
X149810037Y-143158025D01*
X149623396Y-143022422D01*
X149417834Y-142917683D01*
X149198420Y-142846391D01*
X149198422Y-142846391D01*
X148970556Y-142810300D01*
X148970553Y-142810300D01*
X146809447Y-142810300D01*
X146809443Y-142810300D01*
X146581578Y-142846391D01*
X146362165Y-142917683D01*
X146156603Y-143022422D01*
X145969962Y-143158025D01*
X145969962Y-143158026D01*
X145969961Y-143158027D01*
X145806827Y-143321161D01*
X145806826Y-143321162D01*
X145806825Y-143321162D01*
X145671222Y-143507803D01*
X145566483Y-143713365D01*
X145495191Y-143932778D01*
X145459100Y-144160643D01*
X145459100Y-144391356D01*
X142683000Y-144391356D01*
X142683000Y-137485004D01*
X146944390Y-137485004D01*
X146964802Y-137770416D01*
X146964803Y-137770423D01*
X146964804Y-137770428D01*
X146965606Y-137774113D01*
X147025631Y-138050049D01*
X147125629Y-138318154D01*
X147125633Y-138318163D01*
X147262770Y-138569309D01*
X147262773Y-138569314D01*
X147337632Y-138669314D01*
X147431431Y-138794615D01*
X147434259Y-138798392D01*
X147434262Y-138798396D01*
X147636605Y-139000739D01*
X147865685Y-139172226D01*
X147865690Y-139172229D01*
X148116836Y-139309366D01*
X148116845Y-139309370D01*
X148384950Y-139409368D01*
X148384953Y-139409368D01*
X148384954Y-139409369D01*
X148664572Y-139470196D01*
X148664581Y-139470196D01*
X148664583Y-139470197D01*
X148949996Y-139490610D01*
X148950000Y-139490610D01*
X148950004Y-139490610D01*
X149235416Y-139470197D01*
X149235416Y-139470196D01*
X149235428Y-139470196D01*
X149515046Y-139409369D01*
X149515049Y-139409368D01*
X149783154Y-139309370D01*
X149783163Y-139309366D01*
X149951014Y-139217712D01*
X150034315Y-139172226D01*
X150263395Y-139000739D01*
X150383129Y-138881005D01*
X166969207Y-138881005D01*
X166988347Y-139124214D01*
X166988348Y-139124221D01*
X167045302Y-139361452D01*
X167045304Y-139361456D01*
X167138670Y-139586863D01*
X167262503Y-139788940D01*
X167808152Y-139243291D01*
X167815049Y-139259942D01*
X167902599Y-139390970D01*
X168014030Y-139502401D01*
X168145058Y-139589951D01*
X168161705Y-139596846D01*
X167616057Y-140142495D01*
X167818136Y-140266329D01*
X168043543Y-140359695D01*
X168043547Y-140359697D01*
X168280778Y-140416651D01*
X168280785Y-140416652D01*
X168523995Y-140435793D01*
X168524005Y-140435793D01*
X168767214Y-140416652D01*
X168767221Y-140416651D01*
X169004452Y-140359697D01*
X169004456Y-140359695D01*
X169229863Y-140266329D01*
X169229868Y-140266326D01*
X169431941Y-140142495D01*
X168886293Y-139596847D01*
X168902942Y-139589951D01*
X169033970Y-139502401D01*
X169145401Y-139390970D01*
X169232951Y-139259942D01*
X169239847Y-139243293D01*
X169785495Y-139788941D01*
X169909326Y-139586868D01*
X169909329Y-139586863D01*
X170002695Y-139361456D01*
X170002697Y-139361452D01*
X170059651Y-139124221D01*
X170059652Y-139124214D01*
X170068474Y-139012123D01*
X174023500Y-139012123D01*
X174057730Y-139272119D01*
X174057732Y-139272128D01*
X174125511Y-139525080D01*
X174125602Y-139525419D01*
X174225957Y-139767697D01*
X174269729Y-139843513D01*
X174357077Y-139994806D01*
X174357078Y-139994807D01*
X174516716Y-140202849D01*
X174702150Y-140388283D01*
X174910192Y-140547921D01*
X174910193Y-140547922D01*
X174958186Y-140575630D01*
X175137303Y-140679043D01*
X175379581Y-140779398D01*
X175484135Y-140807413D01*
X175632871Y-140847267D01*
X175632881Y-140847269D01*
X175632884Y-140847270D01*
X175892880Y-140881500D01*
X175892883Y-140881500D01*
X176155117Y-140881500D01*
X176155120Y-140881500D01*
X176415116Y-140847270D01*
X176415123Y-140847268D01*
X176415128Y-140847267D01*
X176481406Y-140829507D01*
X176668419Y-140779398D01*
X176910697Y-140679043D01*
X177137803Y-140547924D01*
X177345851Y-140388282D01*
X177531282Y-140202851D01*
X177690924Y-139994803D01*
X177822043Y-139767697D01*
X177922398Y-139525419D01*
X177990270Y-139272116D01*
X178024500Y-139012120D01*
X178024500Y-133868880D01*
X178024500Y-128449880D01*
X178024500Y-126330108D01*
X178042513Y-126286621D01*
X178335621Y-125993513D01*
X178379108Y-125975500D01*
X178588000Y-125975500D01*
X178631487Y-125993513D01*
X178649500Y-126037000D01*
X178649500Y-126797872D01*
X178655908Y-126857480D01*
X178663751Y-126878510D01*
X178663751Y-126921487D01*
X178658360Y-126935944D01*
X178655909Y-126942517D01*
X178650365Y-126994079D01*
X178649500Y-127002128D01*
X178649500Y-128097872D01*
X178655908Y-128157481D01*
X178655909Y-128157485D01*
X178706203Y-128292328D01*
X178706205Y-128292333D01*
X178732094Y-128326916D01*
X178792454Y-128407546D01*
X178907669Y-128493796D01*
X179042517Y-128544091D01*
X179102127Y-128550500D01*
X180697872Y-128550499D01*
X180757483Y-128544091D01*
X180892331Y-128493796D01*
X181007546Y-128407546D01*
X181093796Y-128292331D01*
X181100960Y-128273123D01*
X181122450Y-128215508D01*
X181154524Y-128181058D01*
X181180072Y-128175500D01*
X181725436Y-128175500D01*
X181768923Y-128193513D01*
X182984441Y-129409031D01*
X183002454Y-129452518D01*
X182984441Y-129496005D01*
X182948982Y-129513492D01*
X182827751Y-129529453D01*
X182606121Y-129588839D01*
X182606106Y-129588844D01*
X182438767Y-129658157D01*
X182421486Y-129662519D01*
X182397209Y-129665000D01*
X182397196Y-129665002D01*
X182230675Y-129720181D01*
X182230667Y-129720185D01*
X182081343Y-129812288D01*
X181957288Y-129936343D01*
X181879311Y-130062763D01*
X181870456Y-130073962D01*
X181851079Y-130093340D01*
X181711391Y-130275383D01*
X181711390Y-130275384D01*
X181596655Y-130474114D01*
X181508842Y-130686112D01*
X181508839Y-130686121D01*
X181449453Y-130907751D01*
X181419500Y-131135262D01*
X181419500Y-137934739D01*
X181426265Y-137986119D01*
X181445967Y-138135771D01*
X181446936Y-138143131D01*
X181447846Y-138150046D01*
X181449452Y-138162239D01*
X181499442Y-138348804D01*
X181499442Y-138348811D01*
X181508840Y-138383881D01*
X181508842Y-138383887D01*
X181596656Y-138595888D01*
X181711389Y-138794612D01*
X181711391Y-138794615D01*
X181760687Y-138858858D01*
X181851078Y-138976659D01*
X182381487Y-139507068D01*
X182399500Y-139550555D01*
X182399500Y-140000003D01*
X182399501Y-140000009D01*
X182410002Y-140102803D01*
X182465182Y-140269326D01*
X182465185Y-140269332D01*
X182465186Y-140269334D01*
X182557288Y-140418656D01*
X182681344Y-140542712D01*
X182830666Y-140634814D01*
X182830668Y-140634814D01*
X182830673Y-140634817D01*
X182964140Y-140679043D01*
X182997203Y-140689999D01*
X183099991Y-140700500D01*
X184700008Y-140700499D01*
X184802797Y-140689999D01*
X184835860Y-140679043D01*
X184969326Y-140634817D01*
X184969328Y-140634815D01*
X184969334Y-140634814D01*
X185118656Y-140542712D01*
X185242712Y-140418656D01*
X185334814Y-140269334D01*
X185389999Y-140102797D01*
X185400500Y-140000009D01*
X185400499Y-139468534D01*
X185408738Y-139437786D01*
X185473344Y-139325888D01*
X185561158Y-139113887D01*
X185620549Y-138892239D01*
X185650499Y-138664734D01*
X185650499Y-138435266D01*
X185620549Y-138207761D01*
X185561158Y-137986114D01*
X185473344Y-137774112D01*
X185425106Y-137690562D01*
X185408738Y-137662211D01*
X185400499Y-137631461D01*
X185400499Y-137099996D01*
X185400499Y-137099992D01*
X185389999Y-136997203D01*
X185388529Y-136992767D01*
X185334817Y-136830673D01*
X185334814Y-136830667D01*
X185334814Y-136830666D01*
X185242712Y-136681344D01*
X185118656Y-136557288D01*
X184969334Y-136465186D01*
X184969331Y-136465185D01*
X184969329Y-136465184D01*
X184962649Y-136462970D01*
X184927039Y-136432189D01*
X184920500Y-136404594D01*
X184920500Y-132711236D01*
X184938513Y-132667749D01*
X184982000Y-132649736D01*
X185009916Y-132656438D01*
X185183911Y-132745092D01*
X185389071Y-132811753D01*
X185389074Y-132811754D01*
X185602139Y-132845500D01*
X185602143Y-132845500D01*
X185817857Y-132845500D01*
X185817861Y-132845500D01*
X186030926Y-132811754D01*
X186236089Y-132745092D01*
X186428299Y-132647157D01*
X186602821Y-132520359D01*
X186755359Y-132367821D01*
X186882157Y-132193299D01*
X186925203Y-132108814D01*
X186960995Y-132078245D01*
X187007920Y-132081938D01*
X187034796Y-132108814D01*
X187072658Y-132183122D01*
X187077844Y-132193301D01*
X187204639Y-132367819D01*
X187357180Y-132520360D01*
X187531698Y-132647155D01*
X187531701Y-132647157D01*
X187723911Y-132745092D01*
X187929071Y-132811753D01*
X187929074Y-132811754D01*
X188142139Y-132845500D01*
X188142143Y-132845500D01*
X188357857Y-132845500D01*
X188357861Y-132845500D01*
X188570926Y-132811754D01*
X188776089Y-132745092D01*
X188950082Y-132656438D01*
X188997005Y-132652746D01*
X189032797Y-132683316D01*
X189039500Y-132711236D01*
X189039500Y-136425412D01*
X189021487Y-136468899D01*
X189010286Y-136477756D01*
X188881343Y-136557288D01*
X188757288Y-136681343D01*
X188665185Y-136830667D01*
X188665182Y-136830673D01*
X188610003Y-136997194D01*
X188610003Y-136997196D01*
X188610001Y-136997203D01*
X188601000Y-137085307D01*
X188599500Y-137099991D01*
X188599500Y-137631462D01*
X188591261Y-137662212D01*
X188526655Y-137774113D01*
X188438842Y-137986112D01*
X188438840Y-137986118D01*
X188379453Y-138207753D01*
X188349501Y-138435260D01*
X188349501Y-138664739D01*
X188379453Y-138892246D01*
X188433421Y-139093656D01*
X188438842Y-139113887D01*
X188526656Y-139325888D01*
X188577098Y-139413256D01*
X188591261Y-139437787D01*
X188599500Y-139468537D01*
X188599500Y-140000003D01*
X188599501Y-140000009D01*
X188610002Y-140102803D01*
X188665182Y-140269326D01*
X188665185Y-140269332D01*
X188665186Y-140269334D01*
X188757288Y-140418656D01*
X188881344Y-140542712D01*
X189030666Y-140634814D01*
X189030668Y-140634814D01*
X189030673Y-140634817D01*
X189164140Y-140679043D01*
X189197203Y-140689999D01*
X189299991Y-140700500D01*
X190900008Y-140700499D01*
X191002797Y-140689999D01*
X191035860Y-140679043D01*
X191169326Y-140634817D01*
X191169328Y-140634815D01*
X191169334Y-140634814D01*
X191318656Y-140542712D01*
X191442712Y-140418656D01*
X191534814Y-140269334D01*
X191589999Y-140102797D01*
X191600500Y-140000009D01*
X191600499Y-139550552D01*
X191618511Y-139507067D01*
X192108919Y-139016661D01*
X192121136Y-139000739D01*
X192248611Y-138834612D01*
X192363344Y-138635888D01*
X192451158Y-138423887D01*
X192471276Y-138348804D01*
X192481298Y-138311402D01*
X192481300Y-138311393D01*
X192510548Y-138202239D01*
X192518645Y-138140733D01*
X192538227Y-137992000D01*
X193948000Y-137992000D01*
X193948000Y-138264825D01*
X193954403Y-138324380D01*
X194004646Y-138459086D01*
X194004648Y-138459091D01*
X194090811Y-138574188D01*
X194205908Y-138660351D01*
X194205913Y-138660353D01*
X194340619Y-138710596D01*
X194400174Y-138717000D01*
X194448000Y-138717000D01*
X194448000Y-137992000D01*
X194948000Y-137992000D01*
X194948000Y-138717000D01*
X194995826Y-138717000D01*
X195055380Y-138710596D01*
X195190086Y-138660353D01*
X195190091Y-138660351D01*
X195305188Y-138574188D01*
X195391351Y-138459091D01*
X195391353Y-138459086D01*
X195441596Y-138324380D01*
X195448000Y-138264825D01*
X195448000Y-137992000D01*
X194948000Y-137992000D01*
X194448000Y-137992000D01*
X193948000Y-137992000D01*
X192538227Y-137992000D01*
X192540500Y-137974734D01*
X192540500Y-137492000D01*
X193948000Y-137492000D01*
X194448000Y-137492000D01*
X194448000Y-136767000D01*
X194948000Y-136767000D01*
X194948000Y-137492000D01*
X195448000Y-137492000D01*
X195448000Y-137219174D01*
X195441596Y-137159619D01*
X195391353Y-137024913D01*
X195391351Y-137024908D01*
X195305188Y-136909811D01*
X195190091Y-136823648D01*
X195190086Y-136823646D01*
X195055380Y-136773403D01*
X194995826Y-136767000D01*
X194948000Y-136767000D01*
X194448000Y-136767000D01*
X194400174Y-136767000D01*
X194340619Y-136773403D01*
X194205913Y-136823646D01*
X194205908Y-136823648D01*
X194090811Y-136909811D01*
X194004648Y-137024908D01*
X194004646Y-137024913D01*
X193954403Y-137159619D01*
X193948000Y-137219174D01*
X193948000Y-137492000D01*
X192540500Y-137492000D01*
X192540500Y-134944000D01*
X193528000Y-134944000D01*
X193528000Y-135591825D01*
X193534403Y-135651380D01*
X193584646Y-135786086D01*
X193584648Y-135786091D01*
X193670811Y-135901188D01*
X193785908Y-135987351D01*
X193785913Y-135987353D01*
X193920619Y-136037596D01*
X193980174Y-136044000D01*
X194128000Y-136044000D01*
X194128000Y-134944000D01*
X194628000Y-134944000D01*
X194628000Y-136044000D01*
X194775826Y-136044000D01*
X194835380Y-136037596D01*
X194970086Y-135987353D01*
X194970091Y-135987351D01*
X195085188Y-135901188D01*
X195171351Y-135786091D01*
X195171353Y-135786086D01*
X195221596Y-135651380D01*
X195228000Y-135591825D01*
X195228000Y-134944000D01*
X194628000Y-134944000D01*
X194128000Y-134944000D01*
X193528000Y-134944000D01*
X192540500Y-134944000D01*
X192540500Y-134444000D01*
X193528000Y-134444000D01*
X194128000Y-134444000D01*
X194128000Y-133344000D01*
X194628000Y-133344000D01*
X194628000Y-134444000D01*
X195228000Y-134444000D01*
X195228000Y-133796174D01*
X195221596Y-133736619D01*
X195171353Y-133601913D01*
X195171351Y-133601908D01*
X195085188Y-133486811D01*
X194970091Y-133400648D01*
X194970086Y-133400646D01*
X194835380Y-133350403D01*
X194775826Y-133344000D01*
X194628000Y-133344000D01*
X194128000Y-133344000D01*
X193980174Y-133344000D01*
X193920619Y-133350403D01*
X193785913Y-133400646D01*
X193785908Y-133400648D01*
X193670811Y-133486811D01*
X193584648Y-133601908D01*
X193584646Y-133601913D01*
X193534403Y-133736619D01*
X193528000Y-133796174D01*
X193528000Y-134444000D01*
X192540500Y-134444000D01*
X192540500Y-132287485D01*
X192548739Y-132256735D01*
X192618043Y-132136697D01*
X192718398Y-131894419D01*
X192777657Y-131673261D01*
X192786267Y-131641128D01*
X192786269Y-131641119D01*
X192786270Y-131641116D01*
X192820500Y-131381120D01*
X192820500Y-126513880D01*
X192795241Y-126322023D01*
X192786271Y-126253884D01*
X192718398Y-126000581D01*
X192618043Y-125758303D01*
X192603505Y-125733123D01*
X192486924Y-125531197D01*
X192473039Y-125513102D01*
X192374530Y-125384723D01*
X192374529Y-125384722D01*
X192327283Y-125323149D01*
X190552006Y-123547872D01*
X192124500Y-123547872D01*
X192130908Y-123607481D01*
X192130909Y-123607485D01*
X192167774Y-123706324D01*
X192181204Y-123742331D01*
X192267454Y-123857546D01*
X192382669Y-123943796D01*
X192517517Y-123994091D01*
X192577127Y-124000500D01*
X192838000Y-124000499D01*
X192881487Y-124018512D01*
X192899500Y-124061999D01*
X192899500Y-125322610D01*
X192923535Y-125443444D01*
X192923536Y-125443449D01*
X192923537Y-125443451D01*
X192970688Y-125557286D01*
X193003987Y-125607120D01*
X193003988Y-125607121D01*
X193039141Y-125659732D01*
X193128410Y-125749001D01*
X193128420Y-125749010D01*
X193239487Y-125860077D01*
X193257500Y-125903564D01*
X193257500Y-131394012D01*
X193268001Y-131496800D01*
X193268002Y-131496802D01*
X193268003Y-131496811D01*
X193323180Y-131663326D01*
X193323184Y-131663333D01*
X193323185Y-131663336D01*
X193415288Y-131812657D01*
X193539343Y-131936712D01*
X193688664Y-132028815D01*
X193688668Y-132028816D01*
X193688673Y-132028819D01*
X193855188Y-132083996D01*
X193855192Y-132083996D01*
X193855200Y-132083999D01*
X193957988Y-132094500D01*
X193957991Y-132094500D01*
X195971000Y-132094500D01*
X196014487Y-132112513D01*
X196032500Y-132156000D01*
X196032500Y-136545496D01*
X196014487Y-136588983D01*
X196003286Y-136597840D01*
X195879343Y-136674288D01*
X195755288Y-136798343D01*
X195663185Y-136947667D01*
X195663182Y-136947673D01*
X195608003Y-137114194D01*
X195608003Y-137114196D01*
X195608001Y-137114203D01*
X195599278Y-137199586D01*
X195597500Y-137216991D01*
X195597500Y-138267003D01*
X195597501Y-138267008D01*
X195606641Y-138356487D01*
X195608002Y-138369803D01*
X195663182Y-138536326D01*
X195663185Y-138536332D01*
X195663186Y-138536334D01*
X195755288Y-138685656D01*
X195879344Y-138809712D01*
X196028666Y-138901814D01*
X196028668Y-138901814D01*
X196028673Y-138901817D01*
X196190974Y-138955597D01*
X196195203Y-138956999D01*
X196287274Y-138966405D01*
X196324509Y-138984099D01*
X196737592Y-139397182D01*
X196737599Y-139397190D01*
X196826267Y-139485858D01*
X196826266Y-139485858D01*
X196861455Y-139509370D01*
X196885465Y-139525413D01*
X196885473Y-139525418D01*
X196885474Y-139525419D01*
X196928711Y-139554310D01*
X196928713Y-139554311D01*
X196928715Y-139554312D01*
X196946088Y-139561508D01*
X196967062Y-139570196D01*
X196967063Y-139570196D01*
X197042548Y-139601463D01*
X197072698Y-139607460D01*
X197087981Y-139610500D01*
X197087982Y-139610500D01*
X197163389Y-139625499D01*
X197163390Y-139625500D01*
X197163393Y-139625500D01*
X200161610Y-139625500D01*
X200161610Y-139625499D01*
X200237018Y-139610500D01*
X200237019Y-139610500D01*
X200248454Y-139608225D01*
X200282452Y-139601463D01*
X200332945Y-139580548D01*
X200396286Y-139554312D01*
X200463546Y-139509369D01*
X200498733Y-139485858D01*
X200585858Y-139398733D01*
X200585858Y-139398731D01*
X200590916Y-139393674D01*
X200590919Y-139393669D01*
X201009252Y-138975337D01*
X201046492Y-138957643D01*
X201047451Y-138957544D01*
X201052797Y-138956999D01*
X201058245Y-138955193D01*
X201219326Y-138901817D01*
X201219328Y-138901815D01*
X201219334Y-138901814D01*
X201368656Y-138809712D01*
X201492712Y-138685656D01*
X201584814Y-138536334D01*
X201592098Y-138514354D01*
X201635332Y-138383881D01*
X201639999Y-138369797D01*
X201650500Y-138267009D01*
X201650499Y-137651562D01*
X201668511Y-137608077D01*
X201832014Y-137444574D01*
X201875500Y-137426562D01*
X201918987Y-137444575D01*
X201937000Y-137488062D01*
X201937000Y-138675003D01*
X201937001Y-138675009D01*
X201947502Y-138777803D01*
X202002682Y-138944326D01*
X202002685Y-138944332D01*
X202002686Y-138944334D01*
X202094788Y-139093656D01*
X202218844Y-139217712D01*
X202368166Y-139309814D01*
X202368168Y-139309814D01*
X202368173Y-139309817D01*
X202523350Y-139361237D01*
X202534703Y-139364999D01*
X202637491Y-139375500D01*
X203362508Y-139375499D01*
X203449937Y-139366568D01*
X203495027Y-139380067D01*
X203499672Y-139384262D01*
X203712592Y-139597182D01*
X203712599Y-139597190D01*
X203714142Y-139598733D01*
X203801267Y-139685858D01*
X203835416Y-139708675D01*
X203903710Y-139754309D01*
X203903712Y-139754310D01*
X203903714Y-139754311D01*
X204017548Y-139801463D01*
X204077971Y-139813481D01*
X204098111Y-139817487D01*
X204138391Y-139825500D01*
X204138393Y-139825500D01*
X204138394Y-139825500D01*
X206926568Y-139825500D01*
X206970055Y-139843513D01*
X206972271Y-139845848D01*
X207019125Y-139897884D01*
X207019129Y-139897888D01*
X207172270Y-140009151D01*
X207345197Y-140086144D01*
X207530354Y-140125500D01*
X207530355Y-140125500D01*
X207719645Y-140125500D01*
X207719646Y-140125500D01*
X207904803Y-140086144D01*
X208077730Y-140009151D01*
X208230871Y-139897888D01*
X208230875Y-139897883D01*
X208230877Y-139897882D01*
X208328968Y-139788941D01*
X208357533Y-139757216D01*
X208452179Y-139593284D01*
X208510674Y-139413256D01*
X208515953Y-139363017D01*
X208533628Y-139325960D01*
X209345223Y-138514365D01*
X209345237Y-138514354D01*
X209357533Y-138502058D01*
X209435858Y-138423733D01*
X209504311Y-138321286D01*
X209551463Y-138207452D01*
X209575499Y-138086609D01*
X209575500Y-138086609D01*
X209575500Y-135652930D01*
X219024500Y-135652930D01*
X219056591Y-135896680D01*
X219056594Y-135896693D01*
X219120219Y-136134144D01*
X219120222Y-136134153D01*
X219214306Y-136361292D01*
X219262635Y-136445000D01*
X219337234Y-136574211D01*
X219337235Y-136574212D01*
X219486897Y-136769254D01*
X219660745Y-136943102D01*
X219855787Y-137092764D01*
X219855788Y-137092765D01*
X219868304Y-137099991D01*
X220068708Y-137215694D01*
X220295847Y-137309778D01*
X220344650Y-137322854D01*
X220533306Y-137373405D01*
X220533320Y-137373408D01*
X220533323Y-137373409D01*
X220777073Y-137405500D01*
X220777076Y-137405500D01*
X221022924Y-137405500D01*
X221022927Y-137405500D01*
X221266677Y-137373409D01*
X221266685Y-137373406D01*
X221266693Y-137373405D01*
X221392896Y-137339589D01*
X221504153Y-137309778D01*
X221731292Y-137215694D01*
X221898816Y-137118973D01*
X221945482Y-137112830D01*
X221982825Y-137141484D01*
X221989660Y-137185306D01*
X221964802Y-137299582D01*
X221944390Y-137584995D01*
X221944390Y-137585004D01*
X221964802Y-137870416D01*
X221964803Y-137870423D01*
X221964804Y-137870428D01*
X221989970Y-137986113D01*
X222025631Y-138150049D01*
X222125629Y-138418154D01*
X222125633Y-138418163D01*
X222262770Y-138669309D01*
X222262773Y-138669314D01*
X222343983Y-138777797D01*
X222434261Y-138898395D01*
X222636605Y-139100739D01*
X222865538Y-139272116D01*
X222865685Y-139272226D01*
X222865690Y-139272229D01*
X223116836Y-139409366D01*
X223116845Y-139409370D01*
X223384950Y-139509368D01*
X223384953Y-139509368D01*
X223384954Y-139509369D01*
X223664572Y-139570196D01*
X223664581Y-139570196D01*
X223664583Y-139570197D01*
X223949996Y-139590610D01*
X223950000Y-139590610D01*
X223950004Y-139590610D01*
X224235416Y-139570197D01*
X224235416Y-139570196D01*
X224235428Y-139570196D01*
X224515046Y-139509369D01*
X224515049Y-139509368D01*
X224783154Y-139409370D01*
X224783163Y-139409366D01*
X224966291Y-139309370D01*
X225034315Y-139272226D01*
X225263395Y-139100739D01*
X225465739Y-138898395D01*
X225637226Y-138669315D01*
X225771245Y-138423878D01*
X225774366Y-138418163D01*
X225774370Y-138418154D01*
X225874368Y-138150049D01*
X225874369Y-138150046D01*
X225935196Y-137870428D01*
X225950088Y-137662211D01*
X225955610Y-137585004D01*
X225955610Y-137584995D01*
X225935197Y-137299583D01*
X225935196Y-137299581D01*
X225935196Y-137299572D01*
X225874369Y-137019954D01*
X225874368Y-137019950D01*
X225774370Y-136751845D01*
X225774366Y-136751836D01*
X225637229Y-136500690D01*
X225637226Y-136500685D01*
X225590579Y-136438372D01*
X225465739Y-136271605D01*
X225263395Y-136069261D01*
X225068780Y-135923574D01*
X225034314Y-135897773D01*
X225034309Y-135897770D01*
X224783163Y-135760633D01*
X224783154Y-135760629D01*
X224515049Y-135660631D01*
X224370563Y-135629200D01*
X224235428Y-135599804D01*
X224235423Y-135599803D01*
X224235416Y-135599802D01*
X223950004Y-135579390D01*
X223949996Y-135579390D01*
X223664583Y-135599802D01*
X223664574Y-135599803D01*
X223664572Y-135599804D01*
X223577596Y-135618724D01*
X223384950Y-135660631D01*
X223116845Y-135760629D01*
X223116836Y-135760633D01*
X222865690Y-135897770D01*
X222865681Y-135897776D01*
X222846765Y-135911935D01*
X222801156Y-135923574D01*
X222760677Y-135899553D01*
X222748938Y-135854675D01*
X222775500Y-135652927D01*
X222775500Y-135407073D01*
X222743409Y-135163323D01*
X222743408Y-135163319D01*
X222743405Y-135163306D01*
X222679780Y-134925855D01*
X222679778Y-134925847D01*
X222585694Y-134698708D01*
X222462767Y-134485792D01*
X222462765Y-134485788D01*
X222462764Y-134485787D01*
X222313102Y-134290745D01*
X222139254Y-134116897D01*
X221944212Y-133967235D01*
X221944211Y-133967234D01*
X221773855Y-133868880D01*
X221731292Y-133844306D01*
X221504153Y-133750222D01*
X221504144Y-133750219D01*
X221266693Y-133686594D01*
X221266680Y-133686591D01*
X221022930Y-133654500D01*
X221022927Y-133654500D01*
X220777073Y-133654500D01*
X220777069Y-133654500D01*
X220533319Y-133686591D01*
X220533306Y-133686594D01*
X220295855Y-133750219D01*
X220295846Y-133750222D01*
X220068710Y-133844305D01*
X219855788Y-133967234D01*
X219855787Y-133967235D01*
X219660745Y-134116897D01*
X219486897Y-134290745D01*
X219337235Y-134485787D01*
X219337234Y-134485788D01*
X219214305Y-134698710D01*
X219120222Y-134925846D01*
X219120219Y-134925855D01*
X219056594Y-135163306D01*
X219056591Y-135163319D01*
X219024500Y-135407069D01*
X219024500Y-135652930D01*
X209575500Y-135652930D01*
X209575500Y-133638391D01*
X209575499Y-133638390D01*
X209551464Y-133517553D01*
X209551463Y-133517552D01*
X209551463Y-133517548D01*
X209504311Y-133403714D01*
X209504310Y-133403712D01*
X209504309Y-133403710D01*
X209435859Y-133301269D01*
X209435858Y-133301267D01*
X209347197Y-133212606D01*
X209347182Y-133212592D01*
X209124590Y-132990000D01*
X210754723Y-132990000D01*
X210773792Y-133207973D01*
X210773794Y-133207982D01*
X210830424Y-133419329D01*
X210876225Y-133517548D01*
X210922898Y-133617639D01*
X210958511Y-133668500D01*
X211048400Y-133796875D01*
X211048402Y-133796877D01*
X211203123Y-133951598D01*
X211382361Y-134077102D01*
X211580670Y-134169575D01*
X211792023Y-134226207D01*
X212010000Y-134245277D01*
X212227977Y-134226207D01*
X212439330Y-134169575D01*
X212637639Y-134077102D01*
X212816877Y-133951598D01*
X212971598Y-133796877D01*
X213097102Y-133617639D01*
X213182262Y-133435011D01*
X213216966Y-133403212D01*
X213263991Y-133405265D01*
X213295791Y-133439969D01*
X213299500Y-133461003D01*
X213299500Y-135057872D01*
X213305908Y-135117481D01*
X213305909Y-135117485D01*
X213323006Y-135163323D01*
X213356204Y-135252331D01*
X213442454Y-135367546D01*
X213557669Y-135453796D01*
X213692517Y-135504091D01*
X213752127Y-135510500D01*
X215347872Y-135510499D01*
X215407483Y-135504091D01*
X215542331Y-135453796D01*
X215657546Y-135367546D01*
X215743796Y-135252331D01*
X215794091Y-135117483D01*
X215800500Y-135057873D01*
X215800499Y-133462128D01*
X215794091Y-133402517D01*
X215743796Y-133267669D01*
X215657546Y-133152454D01*
X215588314Y-133100627D01*
X215542333Y-133066205D01*
X215542328Y-133066203D01*
X215407487Y-133015910D01*
X215407485Y-133015909D01*
X215407483Y-133015909D01*
X215347873Y-133009500D01*
X215347872Y-133009500D01*
X215021003Y-133009500D01*
X214977516Y-132991487D01*
X214959503Y-132948000D01*
X214977516Y-132904513D01*
X214995010Y-132892263D01*
X215177639Y-132807102D01*
X215356877Y-132681598D01*
X215511598Y-132526877D01*
X215637102Y-132347639D01*
X215729575Y-132149330D01*
X215786207Y-131937977D01*
X215805277Y-131720000D01*
X215786207Y-131502023D01*
X215729575Y-131290670D01*
X215637102Y-131092362D01*
X215511598Y-130913123D01*
X215356877Y-130758402D01*
X215356875Y-130758400D01*
X215214062Y-130658402D01*
X215177639Y-130632898D01*
X215177637Y-130632897D01*
X214979329Y-130540424D01*
X214863558Y-130509404D01*
X214826214Y-130480750D01*
X214820071Y-130434083D01*
X214848725Y-130396739D01*
X214863558Y-130390596D01*
X214888947Y-130383793D01*
X214979330Y-130359575D01*
X215177639Y-130267102D01*
X215356877Y-130141598D01*
X215511598Y-129986877D01*
X215637102Y-129807639D01*
X215729575Y-129609330D01*
X215786207Y-129397977D01*
X215805277Y-129180000D01*
X215786207Y-128962023D01*
X215729575Y-128750670D01*
X215637102Y-128552362D01*
X215511598Y-128373123D01*
X215356877Y-128218402D01*
X215356875Y-128218400D01*
X215214062Y-128118402D01*
X215177639Y-128092898D01*
X215177637Y-128092897D01*
X214979329Y-128000424D01*
X214863558Y-127969404D01*
X214826214Y-127940750D01*
X214820071Y-127894083D01*
X214848725Y-127856739D01*
X214863558Y-127850596D01*
X214898124Y-127841334D01*
X214979330Y-127819575D01*
X215177639Y-127727102D01*
X215356877Y-127601598D01*
X215511598Y-127446877D01*
X215637102Y-127267639D01*
X215729575Y-127069330D01*
X215786207Y-126857977D01*
X215805277Y-126640000D01*
X215786207Y-126422023D01*
X215729575Y-126210670D01*
X215637102Y-126012362D01*
X215511598Y-125833123D01*
X215356877Y-125678402D01*
X215356875Y-125678400D01*
X215214062Y-125578402D01*
X215177639Y-125552898D01*
X215131095Y-125531194D01*
X214979329Y-125460424D01*
X214767982Y-125403794D01*
X214767973Y-125403792D01*
X214550000Y-125384723D01*
X214332026Y-125403792D01*
X214332017Y-125403794D01*
X214120676Y-125460423D01*
X214120672Y-125460424D01*
X214120670Y-125460425D01*
X214120667Y-125460426D01*
X214120660Y-125460429D01*
X213922364Y-125552897D01*
X213922363Y-125552897D01*
X213743122Y-125678402D01*
X213588402Y-125833122D01*
X213462897Y-126012363D01*
X213462897Y-126012364D01*
X213370429Y-126210660D01*
X213370423Y-126210676D01*
X213313794Y-126422017D01*
X213313792Y-126422026D01*
X213294723Y-126640000D01*
X213313792Y-126857973D01*
X213313794Y-126857982D01*
X213370424Y-127069329D01*
X213410687Y-127155673D01*
X213438006Y-127214259D01*
X213462897Y-127267636D01*
X213462897Y-127267637D01*
X213588400Y-127446875D01*
X213743124Y-127601599D01*
X213770363Y-127620672D01*
X213922361Y-127727102D01*
X214068563Y-127795277D01*
X214120670Y-127819575D01*
X214236441Y-127850596D01*
X214273785Y-127879250D01*
X214279928Y-127925917D01*
X214251274Y-127963261D01*
X214236441Y-127969404D01*
X214120676Y-128000423D01*
X214120672Y-128000424D01*
X214120670Y-128000425D01*
X214120667Y-128000426D01*
X214120660Y-128000429D01*
X213922364Y-128092897D01*
X213922363Y-128092897D01*
X213743122Y-128218402D01*
X213588402Y-128373122D01*
X213462897Y-128552363D01*
X213462897Y-128552364D01*
X213370429Y-128750660D01*
X213370423Y-128750676D01*
X213313794Y-128962017D01*
X213313792Y-128962026D01*
X213294723Y-129180000D01*
X213313792Y-129397973D01*
X213313794Y-129397982D01*
X213370424Y-129609329D01*
X213395227Y-129662519D01*
X213462898Y-129807639D01*
X213473207Y-129822362D01*
X213588400Y-129986875D01*
X213588402Y-129986877D01*
X213743123Y-130141598D01*
X213922361Y-130267102D01*
X214068563Y-130335277D01*
X214120670Y-130359575D01*
X214236441Y-130390596D01*
X214273785Y-130419250D01*
X214279928Y-130465917D01*
X214251274Y-130503261D01*
X214236441Y-130509404D01*
X214120676Y-130540423D01*
X214120672Y-130540424D01*
X214120670Y-130540425D01*
X214120667Y-130540426D01*
X214120660Y-130540429D01*
X213922364Y-130632897D01*
X213922363Y-130632897D01*
X213743122Y-130758402D01*
X213588402Y-130913122D01*
X213462897Y-131092363D01*
X213462897Y-131092364D01*
X213370429Y-131290660D01*
X213370423Y-131290676D01*
X213313794Y-131502017D01*
X213313792Y-131502026D01*
X213294723Y-131720000D01*
X213313792Y-131937973D01*
X213313794Y-131937982D01*
X213370424Y-132149329D01*
X213373535Y-132156000D01*
X213462898Y-132347639D01*
X213504508Y-132407064D01*
X213588400Y-132526875D01*
X213743124Y-132681599D01*
X213762226Y-132694974D01*
X213922361Y-132807102D01*
X214104988Y-132892262D01*
X214136788Y-132926966D01*
X214134735Y-132973991D01*
X214100031Y-133005791D01*
X214078997Y-133009500D01*
X213752127Y-133009500D01*
X213692518Y-133015908D01*
X213692514Y-133015909D01*
X213557671Y-133066203D01*
X213557666Y-133066205D01*
X213442454Y-133152454D01*
X213356202Y-133267670D01*
X213355322Y-133269283D01*
X213354499Y-133269945D01*
X213353568Y-133271190D01*
X213353250Y-133270952D01*
X213318669Y-133298815D01*
X213271869Y-133293780D01*
X213242337Y-133257127D01*
X213241943Y-133223890D01*
X213246207Y-133207977D01*
X213265277Y-132990000D01*
X213246207Y-132772023D01*
X213189575Y-132560670D01*
X213097102Y-132362362D01*
X212971598Y-132183123D01*
X212816877Y-132028402D01*
X212816875Y-132028400D01*
X212674062Y-131928402D01*
X212637639Y-131902898D01*
X212619443Y-131894413D01*
X212439329Y-131810424D01*
X212323558Y-131779404D01*
X212286214Y-131750750D01*
X212280071Y-131704083D01*
X212308725Y-131666739D01*
X212323558Y-131660596D01*
X212348947Y-131653793D01*
X212439330Y-131629575D01*
X212637639Y-131537102D01*
X212816877Y-131411598D01*
X212971598Y-131256877D01*
X213097102Y-131077639D01*
X213189575Y-130879330D01*
X213246207Y-130667977D01*
X213265277Y-130450000D01*
X213246207Y-130232023D01*
X213189575Y-130020670D01*
X213097102Y-129822362D01*
X212971598Y-129643123D01*
X212816877Y-129488402D01*
X212816875Y-129488400D01*
X212674062Y-129388402D01*
X212637639Y-129362898D01*
X212591168Y-129341228D01*
X212439329Y-129270424D01*
X212323558Y-129239404D01*
X212286214Y-129210750D01*
X212280071Y-129164083D01*
X212308725Y-129126739D01*
X212323558Y-129120596D01*
X212348947Y-129113793D01*
X212439330Y-129089575D01*
X212637639Y-128997102D01*
X212816877Y-128871598D01*
X212971598Y-128716877D01*
X213097102Y-128537639D01*
X213189575Y-128339330D01*
X213246207Y-128127977D01*
X213265277Y-127910000D01*
X213246207Y-127692023D01*
X213189575Y-127480670D01*
X213097102Y-127282362D01*
X212971598Y-127103123D01*
X212816877Y-126948402D01*
X212816875Y-126948400D01*
X212674062Y-126848402D01*
X212637639Y-126822898D01*
X212637637Y-126822897D01*
X212439329Y-126730424D01*
X212323558Y-126699404D01*
X212286214Y-126670750D01*
X212280071Y-126624083D01*
X212308725Y-126586739D01*
X212323558Y-126580596D01*
X212348947Y-126573793D01*
X212439330Y-126549575D01*
X212637639Y-126457102D01*
X212816877Y-126331598D01*
X212971598Y-126176877D01*
X213097102Y-125997639D01*
X213189575Y-125799330D01*
X213246207Y-125587977D01*
X213265277Y-125370000D01*
X213246207Y-125152023D01*
X213189575Y-124940670D01*
X213097102Y-124742362D01*
X212971598Y-124563123D01*
X212816877Y-124408402D01*
X212816875Y-124408400D01*
X212705320Y-124330289D01*
X212637639Y-124282898D01*
X212626428Y-124277670D01*
X212439329Y-124190424D01*
X212227982Y-124133794D01*
X212227973Y-124133792D01*
X212010000Y-124114723D01*
X211792026Y-124133792D01*
X211792017Y-124133794D01*
X211580676Y-124190423D01*
X211580672Y-124190424D01*
X211580670Y-124190425D01*
X211580667Y-124190426D01*
X211580660Y-124190429D01*
X211382364Y-124282897D01*
X211382363Y-124282897D01*
X211203122Y-124408402D01*
X211048402Y-124563122D01*
X210922897Y-124742363D01*
X210922897Y-124742364D01*
X210830429Y-124940660D01*
X210830423Y-124940676D01*
X210773794Y-125152017D01*
X210773792Y-125152026D01*
X210754723Y-125370000D01*
X210773792Y-125587973D01*
X210773794Y-125587982D01*
X210830424Y-125799329D01*
X210867939Y-125879780D01*
X210922898Y-125997639D01*
X210924958Y-126000581D01*
X211048400Y-126176875D01*
X211048402Y-126176877D01*
X211203123Y-126331598D01*
X211382361Y-126457102D01*
X211556945Y-126538512D01*
X211580670Y-126549575D01*
X211696441Y-126580596D01*
X211733785Y-126609250D01*
X211739928Y-126655917D01*
X211711274Y-126693261D01*
X211696441Y-126699404D01*
X211580676Y-126730423D01*
X211580672Y-126730424D01*
X211580670Y-126730425D01*
X211580667Y-126730426D01*
X211580660Y-126730429D01*
X211382364Y-126822897D01*
X211382363Y-126822897D01*
X211203122Y-126948402D01*
X211048402Y-127103122D01*
X210922897Y-127282363D01*
X210922897Y-127282364D01*
X210830429Y-127480660D01*
X210830423Y-127480676D01*
X210773794Y-127692017D01*
X210773792Y-127692026D01*
X210754723Y-127910000D01*
X210773792Y-128127973D01*
X210773794Y-128127982D01*
X210830424Y-128339329D01*
X210876266Y-128437636D01*
X210922898Y-128537639D01*
X210933207Y-128552362D01*
X211048400Y-128716875D01*
X211203124Y-128871599D01*
X211221943Y-128884776D01*
X211382361Y-128997102D01*
X211528563Y-129065277D01*
X211580670Y-129089575D01*
X211696441Y-129120596D01*
X211733785Y-129149250D01*
X211739928Y-129195917D01*
X211711274Y-129233261D01*
X211696441Y-129239404D01*
X211580676Y-129270423D01*
X211580672Y-129270424D01*
X211580670Y-129270425D01*
X211580667Y-129270426D01*
X211580660Y-129270429D01*
X211382364Y-129362897D01*
X211382363Y-129362897D01*
X211203122Y-129488402D01*
X211048402Y-129643122D01*
X210922897Y-129822363D01*
X210922897Y-129822364D01*
X210830429Y-130020660D01*
X210830423Y-130020676D01*
X210773794Y-130232017D01*
X210773792Y-130232026D01*
X210754723Y-130450000D01*
X210773792Y-130667973D01*
X210773794Y-130667982D01*
X210830424Y-130879329D01*
X210865471Y-130954487D01*
X210922898Y-131077639D01*
X210963246Y-131135262D01*
X211048400Y-131256875D01*
X211048402Y-131256877D01*
X211203123Y-131411598D01*
X211382361Y-131537102D01*
X211528563Y-131605277D01*
X211580670Y-131629575D01*
X211696441Y-131660596D01*
X211733785Y-131689250D01*
X211739928Y-131735917D01*
X211711274Y-131773261D01*
X211696441Y-131779404D01*
X211580676Y-131810423D01*
X211580672Y-131810424D01*
X211580670Y-131810425D01*
X211580667Y-131810426D01*
X211580660Y-131810429D01*
X211382364Y-131902897D01*
X211382363Y-131902897D01*
X211203122Y-132028402D01*
X211048402Y-132183122D01*
X210922897Y-132362363D01*
X210922897Y-132362364D01*
X210830429Y-132560660D01*
X210830423Y-132560676D01*
X210773794Y-132772017D01*
X210773792Y-132772026D01*
X210754723Y-132990000D01*
X209124590Y-132990000D01*
X208781010Y-132646420D01*
X208781006Y-132646415D01*
X208691732Y-132557141D01*
X208691726Y-132557136D01*
X208638069Y-132521284D01*
X208638068Y-132521284D01*
X208589286Y-132488688D01*
X208508792Y-132455347D01*
X208483103Y-132444706D01*
X208475453Y-132441537D01*
X208475444Y-132441534D01*
X208401750Y-132426877D01*
X208401749Y-132426877D01*
X208386035Y-132423751D01*
X208354609Y-132417500D01*
X208354607Y-132417500D01*
X208354606Y-132417500D01*
X208143117Y-132417500D01*
X208099630Y-132399487D01*
X208081617Y-132356000D01*
X208090180Y-132324697D01*
X208173744Y-132183398D01*
X208219598Y-132025569D01*
X208222500Y-131988694D01*
X208222500Y-131557306D01*
X208219598Y-131520431D01*
X208173744Y-131362602D01*
X208090081Y-131221135D01*
X207973865Y-131104919D01*
X207832398Y-131021256D01*
X207832396Y-131021255D01*
X207832394Y-131021254D01*
X207832395Y-131021254D01*
X207674567Y-130975401D01*
X207637697Y-130972500D01*
X207637694Y-130972500D01*
X207434000Y-130972500D01*
X207390513Y-130954487D01*
X207372500Y-130911000D01*
X207372500Y-129635391D01*
X207372499Y-129635390D01*
X207367315Y-129609329D01*
X207348463Y-129514548D01*
X207319034Y-129443500D01*
X207305083Y-129409817D01*
X207301312Y-129400713D01*
X207261564Y-129341228D01*
X207232859Y-129298269D01*
X207232858Y-129298267D01*
X207144197Y-129209606D01*
X207144182Y-129209592D01*
X205638010Y-127703420D01*
X205638006Y-127703415D01*
X205548732Y-127614141D01*
X205548726Y-127614136D01*
X205497510Y-127579915D01*
X205497509Y-127579915D01*
X205446286Y-127545688D01*
X205365792Y-127512347D01*
X205332453Y-127498537D01*
X205332446Y-127498535D01*
X205242626Y-127480670D01*
X205232286Y-127478613D01*
X205211609Y-127474500D01*
X205211607Y-127474500D01*
X205211606Y-127474500D01*
X205123594Y-127474500D01*
X205080107Y-127456487D01*
X205062412Y-127419250D01*
X205052499Y-127322203D01*
X205039298Y-127282364D01*
X204997317Y-127155673D01*
X204997314Y-127155667D01*
X204997314Y-127155666D01*
X204905212Y-127006344D01*
X204781156Y-126882288D01*
X204631834Y-126790186D01*
X204631833Y-126790185D01*
X204631832Y-126790185D01*
X204631826Y-126790182D01*
X204465305Y-126735003D01*
X204465301Y-126735002D01*
X204465297Y-126735001D01*
X204362509Y-126724500D01*
X204362507Y-126724500D01*
X203637496Y-126724500D01*
X203637490Y-126724501D01*
X203594564Y-126728886D01*
X203534703Y-126735001D01*
X203534701Y-126735001D01*
X203534696Y-126735002D01*
X203368173Y-126790182D01*
X203368167Y-126790185D01*
X203218843Y-126882288D01*
X203094788Y-127006343D01*
X203002685Y-127155667D01*
X203002682Y-127155673D01*
X202947503Y-127322194D01*
X202947503Y-127322196D01*
X202947501Y-127322203D01*
X202937587Y-127419250D01*
X202937000Y-127424991D01*
X202937000Y-128775003D01*
X202937001Y-128775008D01*
X202945489Y-128858105D01*
X202947502Y-128877803D01*
X203002682Y-129044326D01*
X203002685Y-129044331D01*
X203002686Y-129044334D01*
X203094788Y-129193656D01*
X203218844Y-129317712D01*
X203368166Y-129409814D01*
X203368168Y-129409814D01*
X203368173Y-129409817D01*
X203530474Y-129463597D01*
X203534703Y-129464999D01*
X203637491Y-129475500D01*
X204362508Y-129475499D01*
X204465297Y-129464999D01*
X204592407Y-129422879D01*
X204631826Y-129409817D01*
X204631828Y-129409815D01*
X204631834Y-129409814D01*
X204781156Y-129317712D01*
X204905212Y-129193656D01*
X204997314Y-129044334D01*
X205018823Y-128979420D01*
X205049601Y-128943808D01*
X205096546Y-128940387D01*
X205120689Y-128955279D01*
X206103487Y-129938077D01*
X206121500Y-129981564D01*
X206121500Y-130911000D01*
X206103487Y-130954487D01*
X206060000Y-130972500D01*
X205856303Y-130972500D01*
X205819432Y-130975401D01*
X205661605Y-131021254D01*
X205520133Y-131104920D01*
X205495567Y-131129487D01*
X205452080Y-131147500D01*
X205115696Y-131147500D01*
X205084270Y-131153751D01*
X205068556Y-131156877D01*
X205068555Y-131156877D01*
X204994860Y-131171534D01*
X204994851Y-131171537D01*
X204948662Y-131190670D01*
X204948661Y-131190670D01*
X204906473Y-131208144D01*
X204859403Y-131208143D01*
X204837235Y-131192476D01*
X204755874Y-131102115D01*
X204755873Y-131102114D01*
X204755871Y-131102112D01*
X204602730Y-130990849D01*
X204573060Y-130977639D01*
X204429801Y-130913855D01*
X204244647Y-130874500D01*
X204244646Y-130874500D01*
X204055354Y-130874500D01*
X204055352Y-130874500D01*
X203870198Y-130913855D01*
X203697273Y-130990847D01*
X203697271Y-130990848D01*
X203697270Y-130990849D01*
X203557546Y-131092364D01*
X203544125Y-131102115D01*
X203521582Y-131127152D01*
X203479097Y-131147416D01*
X203475879Y-131147500D01*
X203091920Y-131147500D01*
X203048433Y-131129487D01*
X203023866Y-131104920D01*
X203023865Y-131104919D01*
X202882398Y-131021256D01*
X202882396Y-131021255D01*
X202882394Y-131021254D01*
X202882395Y-131021254D01*
X202724567Y-130975401D01*
X202687697Y-130972500D01*
X202687694Y-130972500D01*
X200906306Y-130972500D01*
X200906303Y-130972500D01*
X200869432Y-130975401D01*
X200711605Y-131021254D01*
X200570133Y-131104920D01*
X200453920Y-131221133D01*
X200370254Y-131362605D01*
X200324401Y-131520432D01*
X200321500Y-131557302D01*
X200321500Y-131988697D01*
X200324401Y-132025567D01*
X200370254Y-132183394D01*
X200370255Y-132183396D01*
X200370256Y-132183398D01*
X200453819Y-132324696D01*
X200460451Y-132371294D01*
X200432189Y-132408936D01*
X200400883Y-132417500D01*
X197410564Y-132417500D01*
X197367077Y-132399487D01*
X197301513Y-132333923D01*
X197283500Y-132290436D01*
X197283500Y-132156000D01*
X197301513Y-132112513D01*
X197345000Y-132094500D01*
X199358009Y-132094500D01*
X199358012Y-132094500D01*
X199460800Y-132083999D01*
X199460808Y-132083996D01*
X199460811Y-132083996D01*
X199627326Y-132028819D01*
X199627328Y-132028817D01*
X199627336Y-132028815D01*
X199776657Y-131936712D01*
X199900712Y-131812657D01*
X199992815Y-131663336D01*
X199992817Y-131663328D01*
X199992819Y-131663326D01*
X200047996Y-131496811D01*
X200047996Y-131496808D01*
X200047999Y-131496800D01*
X200058500Y-131394012D01*
X200058500Y-129229844D01*
X200076513Y-129186357D01*
X200120000Y-129168344D01*
X200163487Y-129186357D01*
X200168244Y-129191702D01*
X200169785Y-129193652D01*
X200169788Y-129193656D01*
X200293844Y-129317712D01*
X200443166Y-129409814D01*
X200443168Y-129409814D01*
X200443173Y-129409817D01*
X200605474Y-129463597D01*
X200609703Y-129464999D01*
X200712491Y-129475500D01*
X201437508Y-129475499D01*
X201540297Y-129464999D01*
X201667407Y-129422879D01*
X201706826Y-129409817D01*
X201706828Y-129409815D01*
X201706834Y-129409814D01*
X201856156Y-129317712D01*
X201980212Y-129193656D01*
X202072314Y-129044334D01*
X202076735Y-129030994D01*
X202127496Y-128877805D01*
X202127499Y-128877797D01*
X202138000Y-128775009D01*
X202137999Y-127424992D01*
X202127499Y-127322203D01*
X202114298Y-127282364D01*
X202072317Y-127155673D01*
X202072314Y-127155667D01*
X202072314Y-127155666D01*
X201980212Y-127006344D01*
X201856156Y-126882288D01*
X201845151Y-126875500D01*
X201729714Y-126804298D01*
X201702158Y-126766137D01*
X201700500Y-126751954D01*
X201700500Y-124338392D01*
X201688421Y-124277670D01*
X201688421Y-124277669D01*
X201676463Y-124217548D01*
X201676462Y-124217545D01*
X201676459Y-124217537D01*
X201629313Y-124103719D01*
X201629308Y-124103709D01*
X201577323Y-124025909D01*
X201577323Y-124025908D01*
X201560859Y-124001268D01*
X201560854Y-124001262D01*
X201473733Y-123914142D01*
X201473732Y-123914141D01*
X200980884Y-123421293D01*
X202249500Y-123421293D01*
X202281163Y-123661796D01*
X202338848Y-123877075D01*
X202343946Y-123896100D01*
X202436776Y-124120212D01*
X202477316Y-124190429D01*
X202558065Y-124330292D01*
X202558066Y-124330293D01*
X202705733Y-124522736D01*
X202877263Y-124694266D01*
X203069706Y-124841933D01*
X203069707Y-124841934D01*
X203085909Y-124851288D01*
X203279788Y-124963224D01*
X203503900Y-125056054D01*
X203668591Y-125100183D01*
X203738203Y-125118836D01*
X203738204Y-125118836D01*
X203738211Y-125118838D01*
X203978712Y-125150500D01*
X203978715Y-125150500D01*
X204221285Y-125150500D01*
X204221288Y-125150500D01*
X204461789Y-125118838D01*
X204696100Y-125056054D01*
X204920212Y-124963224D01*
X205130289Y-124841936D01*
X205144165Y-124831289D01*
X205238132Y-124759185D01*
X205322738Y-124694265D01*
X205494265Y-124522738D01*
X205641936Y-124330289D01*
X205763224Y-124120212D01*
X205856054Y-123896100D01*
X205918838Y-123661789D01*
X205950500Y-123421288D01*
X205950500Y-123178712D01*
X205918838Y-122938211D01*
X205856054Y-122703900D01*
X205763224Y-122479788D01*
X205641936Y-122269711D01*
X205641934Y-122269707D01*
X205641933Y-122269706D01*
X205494266Y-122077263D01*
X205322736Y-121905733D01*
X205130293Y-121758066D01*
X205130292Y-121758065D01*
X204991004Y-121677648D01*
X204920212Y-121636776D01*
X204696100Y-121543946D01*
X204696094Y-121543944D01*
X204461796Y-121481163D01*
X204461789Y-121481162D01*
X204436185Y-121477791D01*
X204221293Y-121449500D01*
X204221288Y-121449500D01*
X203978712Y-121449500D01*
X203978706Y-121449500D01*
X203738203Y-121481163D01*
X203503905Y-121543944D01*
X203503899Y-121543946D01*
X203279790Y-121636775D01*
X203069707Y-121758065D01*
X203069706Y-121758066D01*
X202877263Y-121905733D01*
X202705733Y-122077263D01*
X202558066Y-122269706D01*
X202558065Y-122269707D01*
X202436775Y-122479790D01*
X202343946Y-122703899D01*
X202343944Y-122703905D01*
X202281163Y-122938203D01*
X202249500Y-123178706D01*
X202249500Y-123421293D01*
X200980884Y-123421293D01*
X199764369Y-122204779D01*
X199764357Y-122204765D01*
X199673732Y-122114141D01*
X199673730Y-122114140D01*
X199617551Y-122076602D01*
X199571291Y-122045691D01*
X199571289Y-122045690D01*
X199571286Y-122045688D01*
X199482057Y-122008729D01*
X199482057Y-122008728D01*
X199482055Y-122008728D01*
X199457456Y-121998538D01*
X199457446Y-121998535D01*
X199397029Y-121986518D01*
X199336609Y-121974500D01*
X199336607Y-121974500D01*
X199336606Y-121974500D01*
X197360119Y-121974500D01*
X197316632Y-121956487D01*
X197303800Y-121937707D01*
X197300925Y-121931153D01*
X197300921Y-121931146D01*
X197173983Y-121736853D01*
X197173979Y-121736847D01*
X197016784Y-121566087D01*
X197016781Y-121566084D01*
X196833633Y-121423535D01*
X196833629Y-121423532D01*
X196833627Y-121423531D01*
X196833626Y-121423530D01*
X196629503Y-121313064D01*
X196608555Y-121305872D01*
X196409976Y-121237700D01*
X196181052Y-121199500D01*
X196181049Y-121199500D01*
X195948951Y-121199500D01*
X195948947Y-121199500D01*
X195720023Y-121237700D01*
X195500499Y-121313063D01*
X195296370Y-121423532D01*
X195296366Y-121423535D01*
X195113218Y-121566084D01*
X195113218Y-121566085D01*
X195028738Y-121657854D01*
X194986032Y-121677648D01*
X194941838Y-121661448D01*
X194922343Y-121622773D01*
X194919091Y-121592518D01*
X194919090Y-121592514D01*
X194909233Y-121566087D01*
X194868796Y-121457669D01*
X194782546Y-121342454D01*
X194713314Y-121290627D01*
X194667333Y-121256205D01*
X194667328Y-121256203D01*
X194532487Y-121205910D01*
X194532485Y-121205909D01*
X194532483Y-121205909D01*
X194472873Y-121199500D01*
X194472871Y-121199500D01*
X192577127Y-121199500D01*
X192517518Y-121205908D01*
X192517514Y-121205909D01*
X192382671Y-121256203D01*
X192382666Y-121256205D01*
X192267454Y-121342454D01*
X192181205Y-121457666D01*
X192181203Y-121457671D01*
X192130910Y-121592512D01*
X192130910Y-121592514D01*
X192130909Y-121592517D01*
X192124500Y-121652127D01*
X192124500Y-121652128D01*
X192124500Y-123547872D01*
X190552006Y-123547872D01*
X189471849Y-122467715D01*
X189342803Y-122368695D01*
X189263813Y-122308083D01*
X189263805Y-122308077D01*
X189224184Y-122285202D01*
X189036697Y-122176957D01*
X188794419Y-122076602D01*
X188794413Y-122076600D01*
X188541123Y-122008730D01*
X188541116Y-122008729D01*
X188411118Y-121991615D01*
X188281123Y-121974500D01*
X188281120Y-121974500D01*
X177393880Y-121974500D01*
X177393876Y-121974500D01*
X177276190Y-121989994D01*
X177246768Y-121993868D01*
X177133877Y-122008730D01*
X176880586Y-122076600D01*
X176880580Y-122076602D01*
X176638305Y-122176956D01*
X176411194Y-122308077D01*
X176411186Y-122308083D01*
X176332197Y-122368695D01*
X176203150Y-122467715D01*
X174516715Y-124154150D01*
X174463942Y-124222927D01*
X174357083Y-124362186D01*
X174357077Y-124362194D01*
X174293608Y-124472128D01*
X174225956Y-124589304D01*
X174125602Y-124831580D01*
X174125600Y-124831586D01*
X174057730Y-125084876D01*
X174045683Y-125176384D01*
X174023500Y-125344874D01*
X174023500Y-139012123D01*
X170068474Y-139012123D01*
X170078793Y-138881005D01*
X170078793Y-138880994D01*
X170059652Y-138637785D01*
X170059651Y-138637778D01*
X170002697Y-138400547D01*
X170002695Y-138400543D01*
X169909329Y-138175136D01*
X169785495Y-137973057D01*
X169239846Y-138518705D01*
X169232951Y-138502058D01*
X169145401Y-138371030D01*
X169033970Y-138259599D01*
X168902942Y-138172049D01*
X168886292Y-138165152D01*
X169431941Y-137619504D01*
X169229863Y-137495670D01*
X169004456Y-137402304D01*
X169004452Y-137402302D01*
X168767221Y-137345348D01*
X168767214Y-137345347D01*
X168524005Y-137326207D01*
X168523995Y-137326207D01*
X168280785Y-137345347D01*
X168280778Y-137345348D01*
X168043547Y-137402302D01*
X168043543Y-137402304D01*
X167818136Y-137495670D01*
X167616058Y-137619504D01*
X168161706Y-138165152D01*
X168145058Y-138172049D01*
X168014030Y-138259599D01*
X167902599Y-138371030D01*
X167815049Y-138502058D01*
X167808152Y-138518706D01*
X167262504Y-137973058D01*
X167138670Y-138175136D01*
X167045304Y-138400543D01*
X167045302Y-138400547D01*
X166988348Y-138637778D01*
X166988347Y-138637785D01*
X166969207Y-138880994D01*
X166969207Y-138881005D01*
X150383129Y-138881005D01*
X150465739Y-138798395D01*
X150637226Y-138569315D01*
X150746170Y-138369799D01*
X150774366Y-138318163D01*
X150774370Y-138318154D01*
X150874368Y-138050049D01*
X150874369Y-138050046D01*
X150935196Y-137770428D01*
X150942936Y-137662211D01*
X150955610Y-137485004D01*
X150955610Y-137484995D01*
X150935197Y-137199586D01*
X150935197Y-137199583D01*
X150935196Y-137199572D01*
X150910339Y-137085306D01*
X150918696Y-137038985D01*
X150957360Y-137012140D01*
X151001181Y-137018972D01*
X151168708Y-137115694D01*
X151395847Y-137209778D01*
X151422770Y-137216992D01*
X151633306Y-137273405D01*
X151633320Y-137273408D01*
X151633323Y-137273409D01*
X151877073Y-137305500D01*
X151877076Y-137305500D01*
X152122924Y-137305500D01*
X152122927Y-137305500D01*
X152366677Y-137273409D01*
X152366685Y-137273406D01*
X152366693Y-137273405D01*
X152485047Y-137241692D01*
X152604153Y-137209778D01*
X152831292Y-137115694D01*
X153044208Y-136992767D01*
X153239256Y-136843101D01*
X153413101Y-136669256D01*
X153562767Y-136474208D01*
X153685694Y-136261292D01*
X153779778Y-136034153D01*
X153817255Y-135894284D01*
X153843405Y-135796693D01*
X153843408Y-135796680D01*
X153843409Y-135796677D01*
X153875500Y-135552927D01*
X153875500Y-135307073D01*
X153843409Y-135063323D01*
X153843408Y-135063319D01*
X153843405Y-135063306D01*
X153779780Y-134825855D01*
X153779778Y-134825847D01*
X153685694Y-134598708D01*
X153562767Y-134385792D01*
X153562765Y-134385788D01*
X153562764Y-134385787D01*
X153413102Y-134190745D01*
X153239254Y-134016897D01*
X153044212Y-133867235D01*
X153044211Y-133867234D01*
X152917344Y-133793988D01*
X152831292Y-133744306D01*
X152604153Y-133650222D01*
X152604144Y-133650219D01*
X152366693Y-133586594D01*
X152366680Y-133586591D01*
X152122930Y-133554500D01*
X152122927Y-133554500D01*
X151877073Y-133554500D01*
X151877069Y-133554500D01*
X151633319Y-133586591D01*
X151633306Y-133586594D01*
X151395855Y-133650219D01*
X151395846Y-133650222D01*
X151187266Y-133736619D01*
X151168708Y-133744306D01*
X151158461Y-133750222D01*
X150955788Y-133867234D01*
X150955787Y-133867235D01*
X150760745Y-134016897D01*
X150586897Y-134190745D01*
X150437235Y-134385787D01*
X150437234Y-134385788D01*
X150314305Y-134598710D01*
X150220222Y-134825846D01*
X150220219Y-134825855D01*
X150156594Y-135063306D01*
X150156591Y-135063319D01*
X150124500Y-135307069D01*
X150124500Y-135552930D01*
X150151061Y-135754673D01*
X150138878Y-135800140D01*
X150098115Y-135823675D01*
X150053232Y-135811934D01*
X150034321Y-135797778D01*
X150034309Y-135797770D01*
X149783163Y-135660633D01*
X149783154Y-135660629D01*
X149515049Y-135560631D01*
X149370563Y-135529200D01*
X149235428Y-135499804D01*
X149235423Y-135499803D01*
X149235416Y-135499802D01*
X148950004Y-135479390D01*
X148949996Y-135479390D01*
X148664583Y-135499802D01*
X148664574Y-135499803D01*
X148664572Y-135499804D01*
X148577596Y-135518724D01*
X148384950Y-135560631D01*
X148116845Y-135660629D01*
X148116836Y-135660633D01*
X147865690Y-135797770D01*
X147865685Y-135797773D01*
X147636607Y-135969259D01*
X147636603Y-135969262D01*
X147434262Y-136171603D01*
X147434259Y-136171607D01*
X147262773Y-136400685D01*
X147262770Y-136400690D01*
X147125633Y-136651836D01*
X147125629Y-136651845D01*
X147025631Y-136919950D01*
X146996107Y-137055673D01*
X146967908Y-137185306D01*
X146964802Y-137199583D01*
X146944390Y-137484995D01*
X146944390Y-137485004D01*
X142683000Y-137485004D01*
X142683000Y-132890000D01*
X157094723Y-132890000D01*
X157113792Y-133107973D01*
X157113794Y-133107982D01*
X157170424Y-133319329D01*
X157186182Y-133353122D01*
X157262898Y-133517639D01*
X157311179Y-133586591D01*
X157388400Y-133696875D01*
X157388402Y-133696877D01*
X157543123Y-133851598D01*
X157722361Y-133977102D01*
X157920670Y-134069575D01*
X158132023Y-134126207D01*
X158350000Y-134145277D01*
X158567977Y-134126207D01*
X158779330Y-134069575D01*
X158977639Y-133977102D01*
X159156877Y-133851598D01*
X159311598Y-133696877D01*
X159437102Y-133517639D01*
X159529575Y-133319330D01*
X159586207Y-133107977D01*
X159605277Y-132890000D01*
X159586207Y-132672023D01*
X159529575Y-132460670D01*
X159437102Y-132262362D01*
X159311598Y-132083123D01*
X159156877Y-131928402D01*
X159156875Y-131928400D01*
X158988394Y-131810429D01*
X158977639Y-131802898D01*
X158927256Y-131779404D01*
X158779329Y-131710424D01*
X158663558Y-131679404D01*
X158626214Y-131650750D01*
X158620071Y-131604083D01*
X158648725Y-131566739D01*
X158663558Y-131560596D01*
X158779330Y-131529575D01*
X158977639Y-131437102D01*
X159156877Y-131311598D01*
X159311598Y-131156877D01*
X159437102Y-130977639D01*
X159529575Y-130779330D01*
X159586207Y-130567977D01*
X159605277Y-130350000D01*
X159586207Y-130132023D01*
X159529575Y-129920670D01*
X159437102Y-129722362D01*
X159311598Y-129543123D01*
X159156877Y-129388402D01*
X159156875Y-129388400D01*
X158988394Y-129270429D01*
X158977639Y-129262898D01*
X158927256Y-129239404D01*
X158779329Y-129170424D01*
X158663558Y-129139404D01*
X158626214Y-129110750D01*
X158620071Y-129064083D01*
X158648725Y-129026739D01*
X158663558Y-129020596D01*
X158779330Y-128989575D01*
X158977639Y-128897102D01*
X159156877Y-128771598D01*
X159311598Y-128616877D01*
X159437102Y-128437639D01*
X159529575Y-128239330D01*
X159586207Y-128027977D01*
X159605277Y-127810000D01*
X159586207Y-127592023D01*
X159529575Y-127380670D01*
X159437102Y-127182362D01*
X159311598Y-127003123D01*
X159156877Y-126848402D01*
X159156875Y-126848400D01*
X159019135Y-126751954D01*
X158977639Y-126722898D01*
X158872333Y-126673793D01*
X158795011Y-126637737D01*
X158763211Y-126603033D01*
X158765264Y-126556008D01*
X158799968Y-126524208D01*
X158821000Y-126520499D01*
X159147872Y-126520499D01*
X159207483Y-126514091D01*
X159342331Y-126463796D01*
X159457546Y-126377546D01*
X159543796Y-126262331D01*
X159543798Y-126262323D01*
X159544671Y-126260727D01*
X159545492Y-126260064D01*
X159546432Y-126258810D01*
X159546752Y-126259049D01*
X159581318Y-126231187D01*
X159628119Y-126236213D01*
X159657659Y-126272860D01*
X159658057Y-126306110D01*
X159653793Y-126322023D01*
X159634723Y-126540000D01*
X159653792Y-126757973D01*
X159653794Y-126757982D01*
X159710424Y-126969329D01*
X159757055Y-127069329D01*
X159802898Y-127167639D01*
X159853150Y-127239407D01*
X159928400Y-127346875D01*
X159928402Y-127346877D01*
X160083123Y-127501598D01*
X160262361Y-127627102D01*
X160460670Y-127719575D01*
X160576441Y-127750596D01*
X160613785Y-127779250D01*
X160619928Y-127825917D01*
X160591274Y-127863261D01*
X160576441Y-127869404D01*
X160460676Y-127900423D01*
X160460672Y-127900424D01*
X160460670Y-127900425D01*
X160460667Y-127900426D01*
X160460660Y-127900429D01*
X160262364Y-127992897D01*
X160262363Y-127992897D01*
X160083122Y-128118402D01*
X159928402Y-128273122D01*
X159802897Y-128452363D01*
X159802897Y-128452364D01*
X159710429Y-128650660D01*
X159710423Y-128650676D01*
X159653794Y-128862017D01*
X159653792Y-128862026D01*
X159634723Y-129080000D01*
X159653792Y-129297973D01*
X159653794Y-129297982D01*
X159710424Y-129509329D01*
X159757055Y-129609329D01*
X159802898Y-129707639D01*
X159844328Y-129766807D01*
X159928400Y-129886875D01*
X160083124Y-130041599D01*
X160136858Y-130079223D01*
X160262361Y-130167102D01*
X160460670Y-130259575D01*
X160576441Y-130290596D01*
X160613785Y-130319250D01*
X160619928Y-130365917D01*
X160591274Y-130403261D01*
X160576441Y-130409404D01*
X160460676Y-130440423D01*
X160460672Y-130440424D01*
X160460670Y-130440425D01*
X160460667Y-130440426D01*
X160460660Y-130440429D01*
X160262364Y-130532897D01*
X160262363Y-130532897D01*
X160083122Y-130658402D01*
X159928402Y-130813122D01*
X159802897Y-130992363D01*
X159802897Y-130992364D01*
X159710429Y-131190660D01*
X159710423Y-131190676D01*
X159653794Y-131402017D01*
X159653792Y-131402026D01*
X159634723Y-131620000D01*
X159653792Y-131837973D01*
X159653794Y-131837982D01*
X159710424Y-132049329D01*
X159802897Y-132247636D01*
X159802897Y-132247637D01*
X159928400Y-132426875D01*
X159928402Y-132426877D01*
X160083123Y-132581598D01*
X160262361Y-132707102D01*
X160441061Y-132790431D01*
X160460670Y-132799575D01*
X160576441Y-132830596D01*
X160613785Y-132859250D01*
X160619928Y-132905917D01*
X160591274Y-132943261D01*
X160576441Y-132949404D01*
X160460676Y-132980423D01*
X160460672Y-132980424D01*
X160460670Y-132980425D01*
X160460667Y-132980426D01*
X160460660Y-132980429D01*
X160262364Y-133072897D01*
X160262363Y-133072897D01*
X160083122Y-133198402D01*
X159928402Y-133353122D01*
X159802897Y-133532363D01*
X159802897Y-133532364D01*
X159710429Y-133730660D01*
X159710423Y-133730676D01*
X159653794Y-133942017D01*
X159653792Y-133942026D01*
X159634723Y-134160000D01*
X159653792Y-134377973D01*
X159653794Y-134377982D01*
X159710424Y-134589329D01*
X159761429Y-134698708D01*
X159791807Y-134763855D01*
X159802897Y-134787636D01*
X159802897Y-134787637D01*
X159928400Y-134966875D01*
X159928402Y-134966877D01*
X160083123Y-135121598D01*
X160262361Y-135247102D01*
X160460670Y-135339575D01*
X160672023Y-135396207D01*
X160890000Y-135415277D01*
X161107977Y-135396207D01*
X161319330Y-135339575D01*
X161517639Y-135247102D01*
X161696877Y-135121598D01*
X161851598Y-134966877D01*
X161977102Y-134787639D01*
X162069575Y-134589330D01*
X162126207Y-134377977D01*
X162145277Y-134160000D01*
X162126207Y-133942023D01*
X162069575Y-133730670D01*
X161977102Y-133532362D01*
X161851598Y-133353123D01*
X161696877Y-133198402D01*
X161696875Y-133198400D01*
X161567731Y-133107973D01*
X161517639Y-133072898D01*
X161503282Y-133066203D01*
X161319329Y-132980424D01*
X161203558Y-132949404D01*
X161166214Y-132920750D01*
X161160071Y-132874083D01*
X161188725Y-132836739D01*
X161203558Y-132830596D01*
X161319330Y-132799575D01*
X161517639Y-132707102D01*
X161696877Y-132581598D01*
X161851598Y-132426877D01*
X161977102Y-132247639D01*
X162069575Y-132049330D01*
X162126207Y-131837977D01*
X162145277Y-131620000D01*
X162126207Y-131402023D01*
X162069575Y-131190670D01*
X161977102Y-130992362D01*
X161851598Y-130813123D01*
X161696877Y-130658402D01*
X161696875Y-130658400D01*
X161528394Y-130540429D01*
X161517639Y-130532898D01*
X161467256Y-130509404D01*
X161319329Y-130440424D01*
X161203558Y-130409404D01*
X161166214Y-130380750D01*
X161160071Y-130334083D01*
X161188725Y-130296739D01*
X161203558Y-130290596D01*
X161319330Y-130259575D01*
X161517639Y-130167102D01*
X161696877Y-130041598D01*
X161851598Y-129886877D01*
X161977102Y-129707639D01*
X162069575Y-129509330D01*
X162126207Y-129297977D01*
X162145277Y-129080000D01*
X162126207Y-128862023D01*
X162069575Y-128650670D01*
X162037087Y-128581000D01*
X166819233Y-128581000D01*
X166838273Y-128835081D01*
X166838274Y-128835083D01*
X166894970Y-129083485D01*
X166988055Y-129320665D01*
X166988057Y-129320668D01*
X167115454Y-129541327D01*
X167115460Y-129541336D01*
X167157452Y-129593991D01*
X167157453Y-129593992D01*
X167697473Y-129053970D01*
X167786087Y-129186590D01*
X167918410Y-129318913D01*
X168051027Y-129407525D01*
X167510814Y-129947738D01*
X167671613Y-130057369D01*
X167901174Y-130167920D01*
X168144658Y-130243025D01*
X168144657Y-130243025D01*
X168396601Y-130280999D01*
X168396603Y-130281000D01*
X168651397Y-130281000D01*
X168651398Y-130280999D01*
X168903341Y-130243025D01*
X169146822Y-130167921D01*
X169376387Y-130057369D01*
X169537184Y-129947738D01*
X168996972Y-129407525D01*
X169129590Y-129318913D01*
X169261913Y-129186590D01*
X169350525Y-129053971D01*
X169890546Y-129593992D01*
X169932539Y-129541336D01*
X169932545Y-129541327D01*
X170059942Y-129320668D01*
X170059944Y-129320665D01*
X170153029Y-129083485D01*
X170209725Y-128835083D01*
X170209726Y-128835081D01*
X170228767Y-128581000D01*
X170228767Y-128580999D01*
X170209726Y-128326918D01*
X170209725Y-128326916D01*
X170153029Y-128078514D01*
X170059944Y-127841334D01*
X170059942Y-127841331D01*
X169932545Y-127620672D01*
X169932539Y-127620663D01*
X169890546Y-127568007D01*
X169350525Y-128108027D01*
X169261913Y-127975410D01*
X169129590Y-127843087D01*
X168996970Y-127754473D01*
X169537184Y-127214260D01*
X169376387Y-127104630D01*
X169146822Y-126994078D01*
X168903341Y-126918974D01*
X168903342Y-126918974D01*
X168651398Y-126881000D01*
X168396601Y-126881000D01*
X168144658Y-126918974D01*
X167901174Y-126994079D01*
X167671613Y-127104630D01*
X167510813Y-127214259D01*
X168051028Y-127754474D01*
X167918410Y-127843087D01*
X167786087Y-127975410D01*
X167697474Y-128108028D01*
X167157452Y-127568006D01*
X167115454Y-127620672D01*
X166988057Y-127841331D01*
X166988055Y-127841334D01*
X166894970Y-128078514D01*
X166838274Y-128326916D01*
X166838273Y-128326918D01*
X166819233Y-128580999D01*
X166819233Y-128581000D01*
X162037087Y-128581000D01*
X161977102Y-128452362D01*
X161851598Y-128273123D01*
X161696877Y-128118402D01*
X161696875Y-128118400D01*
X161528394Y-128000429D01*
X161517639Y-127992898D01*
X161467256Y-127969404D01*
X161319329Y-127900424D01*
X161203558Y-127869404D01*
X161166214Y-127840750D01*
X161160071Y-127794083D01*
X161188725Y-127756739D01*
X161203558Y-127750596D01*
X161319330Y-127719575D01*
X161517639Y-127627102D01*
X161696877Y-127501598D01*
X161851598Y-127346877D01*
X161977102Y-127167639D01*
X162069575Y-126969330D01*
X162126207Y-126757977D01*
X162145277Y-126540000D01*
X162126207Y-126322023D01*
X162069575Y-126110670D01*
X161977102Y-125912362D01*
X161851598Y-125733123D01*
X161696877Y-125578402D01*
X161696875Y-125578400D01*
X161528394Y-125460429D01*
X161517639Y-125452898D01*
X161497365Y-125443444D01*
X161319329Y-125360424D01*
X161107982Y-125303794D01*
X161107973Y-125303792D01*
X160890000Y-125284723D01*
X160672026Y-125303792D01*
X160672017Y-125303794D01*
X160460676Y-125360423D01*
X160460672Y-125360424D01*
X160460670Y-125360425D01*
X160460667Y-125360426D01*
X160460660Y-125360429D01*
X160262364Y-125452897D01*
X160262363Y-125452897D01*
X160083122Y-125578402D01*
X159928402Y-125733122D01*
X159802898Y-125912362D01*
X159717737Y-126094987D01*
X159683033Y-126126786D01*
X159636007Y-126124733D01*
X159604208Y-126090029D01*
X159600499Y-126068995D01*
X159600499Y-126067882D01*
X159600500Y-126067873D01*
X159600499Y-124472128D01*
X159594091Y-124412517D01*
X159592555Y-124408400D01*
X159543796Y-124277670D01*
X159543794Y-124277666D01*
X159498781Y-124217537D01*
X159457546Y-124162454D01*
X159379073Y-124103709D01*
X159342333Y-124076205D01*
X159342328Y-124076203D01*
X159207487Y-124025910D01*
X159207485Y-124025909D01*
X159207483Y-124025909D01*
X159147873Y-124019500D01*
X159147871Y-124019500D01*
X157552127Y-124019500D01*
X157492518Y-124025908D01*
X157492514Y-124025909D01*
X157357671Y-124076203D01*
X157357666Y-124076205D01*
X157242454Y-124162454D01*
X157156205Y-124277666D01*
X157156204Y-124277670D01*
X157105910Y-124412512D01*
X157099500Y-124472128D01*
X157099500Y-126067872D01*
X157105908Y-126127481D01*
X157105909Y-126127485D01*
X157136932Y-126210660D01*
X157155358Y-126260064D01*
X157156203Y-126262328D01*
X157156205Y-126262333D01*
X157187872Y-126304634D01*
X157242454Y-126377546D01*
X157357669Y-126463796D01*
X157492517Y-126514091D01*
X157552127Y-126520500D01*
X157878996Y-126520499D01*
X157922482Y-126538512D01*
X157940495Y-126581999D01*
X157922482Y-126625486D01*
X157904987Y-126637737D01*
X157722362Y-126722898D01*
X157543122Y-126848402D01*
X157388402Y-127003122D01*
X157262897Y-127182363D01*
X157262897Y-127182364D01*
X157170429Y-127380660D01*
X157170423Y-127380676D01*
X157113794Y-127592017D01*
X157113792Y-127592026D01*
X157094723Y-127810000D01*
X157113792Y-128027973D01*
X157113794Y-128027982D01*
X157170424Y-128239329D01*
X157200532Y-128303895D01*
X157262898Y-128437639D01*
X157273207Y-128452362D01*
X157388400Y-128616875D01*
X157543124Y-128771599D01*
X157547993Y-128775008D01*
X157722361Y-128897102D01*
X157847122Y-128955279D01*
X157920670Y-128989575D01*
X158036441Y-129020596D01*
X158073785Y-129049250D01*
X158079928Y-129095917D01*
X158051274Y-129133261D01*
X158036441Y-129139404D01*
X157920676Y-129170423D01*
X157920672Y-129170424D01*
X157920670Y-129170425D01*
X157920667Y-129170426D01*
X157920660Y-129170429D01*
X157722364Y-129262897D01*
X157722363Y-129262897D01*
X157543122Y-129388402D01*
X157388402Y-129543122D01*
X157262897Y-129722363D01*
X157262897Y-129722364D01*
X157170429Y-129920660D01*
X157170423Y-129920676D01*
X157113794Y-130132017D01*
X157113792Y-130132026D01*
X157094723Y-130350000D01*
X157113792Y-130567973D01*
X157113794Y-130567982D01*
X157170424Y-130779329D01*
X157186182Y-130813122D01*
X157262898Y-130977639D01*
X157272148Y-130990849D01*
X157388400Y-131156875D01*
X157388402Y-131156877D01*
X157543123Y-131311598D01*
X157722361Y-131437102D01*
X157861572Y-131502017D01*
X157920670Y-131529575D01*
X158036441Y-131560596D01*
X158073785Y-131589250D01*
X158079928Y-131635917D01*
X158051274Y-131673261D01*
X158036441Y-131679404D01*
X157920676Y-131710423D01*
X157920672Y-131710424D01*
X157920670Y-131710425D01*
X157920667Y-131710426D01*
X157920660Y-131710429D01*
X157722364Y-131802897D01*
X157722363Y-131802897D01*
X157543122Y-131928402D01*
X157388402Y-132083122D01*
X157262897Y-132262363D01*
X157262897Y-132262364D01*
X157170429Y-132460660D01*
X157170423Y-132460676D01*
X157113794Y-132672017D01*
X157113792Y-132672026D01*
X157094723Y-132890000D01*
X142683000Y-132890000D01*
X142683000Y-122874464D01*
X142683007Y-122873536D01*
X142683200Y-122860745D01*
X142685616Y-122700715D01*
X142686054Y-122694261D01*
X142727773Y-122350668D01*
X142729107Y-122343395D01*
X142811822Y-122007809D01*
X142814030Y-122000723D01*
X142817484Y-121991615D01*
X142936591Y-121677554D01*
X142939629Y-121670804D01*
X143100253Y-121364761D01*
X143104094Y-121358409D01*
X143115107Y-121342454D01*
X143300424Y-121073976D01*
X143304991Y-121068146D01*
X143534199Y-120809422D01*
X143539422Y-120804199D01*
X143798146Y-120574991D01*
X143803976Y-120570424D01*
X144088412Y-120374091D01*
X144094761Y-120370253D01*
X144400804Y-120209629D01*
X144407554Y-120206591D01*
X144730726Y-120084028D01*
X144737809Y-120081822D01*
X145039258Y-120007521D01*
X145062522Y-120001787D01*
X145077240Y-120000000D01*
X148099397Y-120000000D01*
X148142884Y-120018013D01*
G37*
G04 #@! TD.AperFunction*
M02*
