M48
; DRILL file {KiCad 8.0.0} date 2024-12-06T13:06:56-0600
; FORMAT={-:-/ absolute / metric / decimal}
; #@! TF.CreationDate,2024-12-06T13:06:56-06:00
; #@! TF.GenerationSoftware,Kicad,Pcbnew,8.0.0
; #@! TF.FileFunction,Plated,1,4,PTH
FMAT,2
METRIC
; #@! TA.AperFunction,Plated,PTH,ViaDrill
T1C0.400
; #@! TA.AperFunction,Plated,PTH,ComponentDrill
T2C0.900
; #@! TA.AperFunction,Plated,PTH,ComponentDrill
T3C1.190
; #@! TA.AperFunction,Plated,PTH,ComponentDrill
T4C1.300
; #@! TA.AperFunction,Plated,PTH,ComponentDrill
T5C1.600
; #@! TA.AperFunction,Plated,PTH,ComponentDrill
T6C1.900
%
G90
G05
T1
X203.975Y-135.625
X207.625Y-138.0
X207.625Y-139.225
T2
X158.35Y-125.27
X158.35Y-127.81
X158.35Y-130.35
X158.35Y-132.89
X160.89Y-126.54
X160.89Y-129.08
X160.89Y-131.62
X160.89Y-134.16
X193.525Y-122.6
X196.065Y-122.6
X212.01Y-125.37
X212.01Y-127.91
X212.01Y-130.45
X212.01Y-132.99
X214.55Y-126.64
X214.55Y-129.18
X214.55Y-131.72
X214.55Y-134.26
T3
X183.17Y-131.25
X185.71Y-131.25
X188.25Y-131.25
X190.79Y-131.25
T4
X147.89Y-144.276
X147.89Y-149.276
X156.09Y-144.276
X156.09Y-149.276
X216.882Y-144.35
X216.882Y-149.35
X225.082Y-144.35
X225.082Y-149.35
T5
X148.95Y-121.945
X148.95Y-137.485
X168.524Y-138.881
X176.024Y-138.881
X223.95Y-122.045
X223.95Y-137.585
T6
X168.524Y-128.581
X176.024Y-128.581
M30
