G04 #@! TF.GenerationSoftware,KiCad,Pcbnew,7.0.9*
G04 #@! TF.CreationDate,2024-08-07T11:51:21-05:00*
G04 #@! TF.ProjectId,led_segment,6c65645f-7365-4676-9d65-6e742e6b6963,rev?*
G04 #@! TF.SameCoordinates,Original*
G04 #@! TF.FileFunction,Legend,Top*
G04 #@! TF.FilePolarity,Positive*
%FSLAX46Y46*%
G04 Gerber Fmt 4.6, Leading zero omitted, Abs format (unit mm)*
G04 Created by KiCad (PCBNEW 7.0.9) date 2024-08-07 11:51:21*
%MOMM*%
%LPD*%
G01*
G04 APERTURE LIST*
G04 Aperture macros list*
%AMRoundRect*
0 Rectangle with rounded corners*
0 $1 Rounding radius*
0 $2 $3 $4 $5 $6 $7 $8 $9 X,Y pos of 4 corners*
0 Add a 4 corners polygon primitive as box body*
4,1,4,$2,$3,$4,$5,$6,$7,$8,$9,$2,$3,0*
0 Add four circle primitives for the rounded corners*
1,1,$1+$1,$2,$3*
1,1,$1+$1,$4,$5*
1,1,$1+$1,$6,$7*
1,1,$1+$1,$8,$9*
0 Add four rect primitives between the rounded corners*
20,1,$1+$1,$2,$3,$4,$5,0*
20,1,$1+$1,$4,$5,$6,$7,0*
20,1,$1+$1,$6,$7,$8,$9,0*
20,1,$1+$1,$8,$9,$2,$3,0*%
G04 Aperture macros list end*
%ADD10C,0.300000*%
%ADD11C,0.150000*%
%ADD12C,0.100000*%
%ADD13C,0.200000*%
%ADD14C,0.120000*%
%ADD15R,4.300000X2.550000*%
%ADD16C,2.000000*%
%ADD17RoundRect,0.176750X1.323250X-0.176750X1.323250X0.176750X-1.323250X0.176750X-1.323250X-0.176750X0*%
%ADD18RoundRect,0.176750X-1.323250X0.176750X-1.323250X-0.176750X1.323250X-0.176750X1.323250X0.176750X0*%
%ADD19C,2.804000*%
%ADD20C,3.104000*%
%ADD21O,4.064800X2.134400*%
%ADD22RoundRect,0.250000X-0.250000X-0.475000X0.250000X-0.475000X0.250000X0.475000X-0.250000X0.475000X0*%
%ADD23RoundRect,0.150000X-0.825000X-0.150000X0.825000X-0.150000X0.825000X0.150000X-0.825000X0.150000X0*%
%ADD24C,3.200000*%
%ADD25RoundRect,0.250000X0.750000X1.400000X-0.750000X1.400000X-0.750000X-1.400000X0.750000X-1.400000X0*%
%ADD26RoundRect,0.250000X0.350000X-0.850000X0.350000X0.850000X-0.350000X0.850000X-0.350000X-0.850000X0*%
%ADD27RoundRect,0.249997X2.650003X-2.950003X2.650003X2.950003X-2.650003X2.950003X-2.650003X-2.950003X0*%
%ADD28RoundRect,0.250000X-0.620000X-0.845000X0.620000X-0.845000X0.620000X0.845000X-0.620000X0.845000X0*%
%ADD29O,1.740000X2.190000*%
G04 APERTURE END LIST*
D10*
X159320000Y-128716000D02*
X158558000Y-128208000D01*
X213422000Y-128970000D02*
X214692000Y-128970000D01*
D11*
X179894000Y-149290000D02*
X193610000Y-149290000D01*
X193610000Y-152338000D01*
X179894000Y-152338000D01*
X179894000Y-149290000D01*
G36*
X179894000Y-149290000D02*
G01*
X193610000Y-149290000D01*
X193610000Y-152338000D01*
X179894000Y-152338000D01*
X179894000Y-149290000D01*
G37*
D10*
X214692000Y-128970000D02*
X213930000Y-128462000D01*
X158050000Y-128716000D02*
X159320000Y-128716000D01*
X159320000Y-128716000D02*
X158558000Y-129224000D01*
X214692000Y-128970000D02*
X213930000Y-129478000D01*
X211682558Y-141536733D02*
X213206368Y-141536733D01*
X160247558Y-142425733D02*
X161771368Y-142425733D01*
D11*
X214552180Y-130513255D02*
X214552180Y-130703731D01*
X214552180Y-130703731D02*
X214504561Y-130798969D01*
X214504561Y-130798969D02*
X214409323Y-130894207D01*
X214409323Y-130894207D02*
X214218847Y-130941826D01*
X214218847Y-130941826D02*
X213885514Y-130941826D01*
X213885514Y-130941826D02*
X213695038Y-130894207D01*
X213695038Y-130894207D02*
X213599800Y-130798969D01*
X213599800Y-130798969D02*
X213552180Y-130703731D01*
X213552180Y-130703731D02*
X213552180Y-130513255D01*
X213552180Y-130513255D02*
X213599800Y-130418017D01*
X213599800Y-130418017D02*
X213695038Y-130322779D01*
X213695038Y-130322779D02*
X213885514Y-130275160D01*
X213885514Y-130275160D02*
X214218847Y-130275160D01*
X214218847Y-130275160D02*
X214409323Y-130322779D01*
X214409323Y-130322779D02*
X214504561Y-130418017D01*
X214504561Y-130418017D02*
X214552180Y-130513255D01*
X214552180Y-131370398D02*
X213742657Y-131370398D01*
X213742657Y-131370398D02*
X213647419Y-131418017D01*
X213647419Y-131418017D02*
X213599800Y-131465636D01*
X213599800Y-131465636D02*
X213552180Y-131560874D01*
X213552180Y-131560874D02*
X213552180Y-131751350D01*
X213552180Y-131751350D02*
X213599800Y-131846588D01*
X213599800Y-131846588D02*
X213647419Y-131894207D01*
X213647419Y-131894207D02*
X213742657Y-131941826D01*
X213742657Y-131941826D02*
X214552180Y-131941826D01*
X214552180Y-132275160D02*
X214552180Y-132846588D01*
X213552180Y-132560874D02*
X214552180Y-132560874D01*
D10*
X211682558Y-151061733D02*
X213206368Y-151061733D01*
X212444463Y-151823638D02*
X212444463Y-150299828D01*
D11*
X174198207Y-143739819D02*
X173864874Y-143263628D01*
X173626779Y-143739819D02*
X173626779Y-142739819D01*
X173626779Y-142739819D02*
X174007731Y-142739819D01*
X174007731Y-142739819D02*
X174102969Y-142787438D01*
X174102969Y-142787438D02*
X174150588Y-142835057D01*
X174150588Y-142835057D02*
X174198207Y-142930295D01*
X174198207Y-142930295D02*
X174198207Y-143073152D01*
X174198207Y-143073152D02*
X174150588Y-143168390D01*
X174150588Y-143168390D02*
X174102969Y-143216009D01*
X174102969Y-143216009D02*
X174007731Y-143263628D01*
X174007731Y-143263628D02*
X173626779Y-143263628D01*
X174579160Y-143692200D02*
X174722017Y-143739819D01*
X174722017Y-143739819D02*
X174960112Y-143739819D01*
X174960112Y-143739819D02*
X175055350Y-143692200D01*
X175055350Y-143692200D02*
X175102969Y-143644580D01*
X175102969Y-143644580D02*
X175150588Y-143549342D01*
X175150588Y-143549342D02*
X175150588Y-143454104D01*
X175150588Y-143454104D02*
X175102969Y-143358866D01*
X175102969Y-143358866D02*
X175055350Y-143311247D01*
X175055350Y-143311247D02*
X174960112Y-143263628D01*
X174960112Y-143263628D02*
X174769636Y-143216009D01*
X174769636Y-143216009D02*
X174674398Y-143168390D01*
X174674398Y-143168390D02*
X174626779Y-143120771D01*
X174626779Y-143120771D02*
X174579160Y-143025533D01*
X174579160Y-143025533D02*
X174579160Y-142930295D01*
X174579160Y-142930295D02*
X174626779Y-142835057D01*
X174626779Y-142835057D02*
X174674398Y-142787438D01*
X174674398Y-142787438D02*
X174769636Y-142739819D01*
X174769636Y-142739819D02*
X175007731Y-142739819D01*
X175007731Y-142739819D02*
X175150588Y-142787438D01*
X176007731Y-143073152D02*
X176007731Y-143739819D01*
X175769636Y-142692200D02*
X175531541Y-143406485D01*
X175531541Y-143406485D02*
X176150588Y-143406485D01*
X176483922Y-142835057D02*
X176531541Y-142787438D01*
X176531541Y-142787438D02*
X176626779Y-142739819D01*
X176626779Y-142739819D02*
X176864874Y-142739819D01*
X176864874Y-142739819D02*
X176960112Y-142787438D01*
X176960112Y-142787438D02*
X177007731Y-142835057D01*
X177007731Y-142835057D02*
X177055350Y-142930295D01*
X177055350Y-142930295D02*
X177055350Y-143025533D01*
X177055350Y-143025533D02*
X177007731Y-143168390D01*
X177007731Y-143168390D02*
X176436303Y-143739819D01*
X176436303Y-143739819D02*
X177055350Y-143739819D01*
X177436303Y-142835057D02*
X177483922Y-142787438D01*
X177483922Y-142787438D02*
X177579160Y-142739819D01*
X177579160Y-142739819D02*
X177817255Y-142739819D01*
X177817255Y-142739819D02*
X177912493Y-142787438D01*
X177912493Y-142787438D02*
X177960112Y-142835057D01*
X177960112Y-142835057D02*
X178007731Y-142930295D01*
X178007731Y-142930295D02*
X178007731Y-143025533D01*
X178007731Y-143025533D02*
X177960112Y-143168390D01*
X177960112Y-143168390D02*
X177388684Y-143739819D01*
X177388684Y-143739819D02*
X178007731Y-143739819D01*
X179674398Y-143739819D02*
X179198208Y-143739819D01*
X179198208Y-143739819D02*
X179198208Y-142739819D01*
X180007732Y-143216009D02*
X180341065Y-143216009D01*
X180483922Y-143739819D02*
X180007732Y-143739819D01*
X180007732Y-143739819D02*
X180007732Y-142739819D01*
X180007732Y-142739819D02*
X180483922Y-142739819D01*
X180912494Y-143739819D02*
X180912494Y-142739819D01*
X180912494Y-142739819D02*
X181150589Y-142739819D01*
X181150589Y-142739819D02*
X181293446Y-142787438D01*
X181293446Y-142787438D02*
X181388684Y-142882676D01*
X181388684Y-142882676D02*
X181436303Y-142977914D01*
X181436303Y-142977914D02*
X181483922Y-143168390D01*
X181483922Y-143168390D02*
X181483922Y-143311247D01*
X181483922Y-143311247D02*
X181436303Y-143501723D01*
X181436303Y-143501723D02*
X181388684Y-143596961D01*
X181388684Y-143596961D02*
X181293446Y-143692200D01*
X181293446Y-143692200D02*
X181150589Y-143739819D01*
X181150589Y-143739819D02*
X180912494Y-143739819D01*
X182674399Y-143739819D02*
X182674399Y-142739819D01*
X182674399Y-142739819D02*
X182912494Y-142739819D01*
X182912494Y-142739819D02*
X183055351Y-142787438D01*
X183055351Y-142787438D02*
X183150589Y-142882676D01*
X183150589Y-142882676D02*
X183198208Y-142977914D01*
X183198208Y-142977914D02*
X183245827Y-143168390D01*
X183245827Y-143168390D02*
X183245827Y-143311247D01*
X183245827Y-143311247D02*
X183198208Y-143501723D01*
X183198208Y-143501723D02*
X183150589Y-143596961D01*
X183150589Y-143596961D02*
X183055351Y-143692200D01*
X183055351Y-143692200D02*
X182912494Y-143739819D01*
X182912494Y-143739819D02*
X182674399Y-143739819D01*
X184055351Y-143692200D02*
X183960113Y-143739819D01*
X183960113Y-143739819D02*
X183769637Y-143739819D01*
X183769637Y-143739819D02*
X183674399Y-143692200D01*
X183674399Y-143692200D02*
X183626780Y-143596961D01*
X183626780Y-143596961D02*
X183626780Y-143216009D01*
X183626780Y-143216009D02*
X183674399Y-143120771D01*
X183674399Y-143120771D02*
X183769637Y-143073152D01*
X183769637Y-143073152D02*
X183960113Y-143073152D01*
X183960113Y-143073152D02*
X184055351Y-143120771D01*
X184055351Y-143120771D02*
X184102970Y-143216009D01*
X184102970Y-143216009D02*
X184102970Y-143311247D01*
X184102970Y-143311247D02*
X183626780Y-143406485D01*
X184960113Y-143692200D02*
X184864875Y-143739819D01*
X184864875Y-143739819D02*
X184674399Y-143739819D01*
X184674399Y-143739819D02*
X184579161Y-143692200D01*
X184579161Y-143692200D02*
X184531542Y-143644580D01*
X184531542Y-143644580D02*
X184483923Y-143549342D01*
X184483923Y-143549342D02*
X184483923Y-143263628D01*
X184483923Y-143263628D02*
X184531542Y-143168390D01*
X184531542Y-143168390D02*
X184579161Y-143120771D01*
X184579161Y-143120771D02*
X184674399Y-143073152D01*
X184674399Y-143073152D02*
X184864875Y-143073152D01*
X184864875Y-143073152D02*
X184960113Y-143120771D01*
X185531542Y-143739819D02*
X185436304Y-143692200D01*
X185436304Y-143692200D02*
X185388685Y-143644580D01*
X185388685Y-143644580D02*
X185341066Y-143549342D01*
X185341066Y-143549342D02*
X185341066Y-143263628D01*
X185341066Y-143263628D02*
X185388685Y-143168390D01*
X185388685Y-143168390D02*
X185436304Y-143120771D01*
X185436304Y-143120771D02*
X185531542Y-143073152D01*
X185531542Y-143073152D02*
X185674399Y-143073152D01*
X185674399Y-143073152D02*
X185769637Y-143120771D01*
X185769637Y-143120771D02*
X185817256Y-143168390D01*
X185817256Y-143168390D02*
X185864875Y-143263628D01*
X185864875Y-143263628D02*
X185864875Y-143549342D01*
X185864875Y-143549342D02*
X185817256Y-143644580D01*
X185817256Y-143644580D02*
X185769637Y-143692200D01*
X185769637Y-143692200D02*
X185674399Y-143739819D01*
X185674399Y-143739819D02*
X185531542Y-143739819D01*
X186722018Y-143739819D02*
X186722018Y-142739819D01*
X186722018Y-143692200D02*
X186626780Y-143739819D01*
X186626780Y-143739819D02*
X186436304Y-143739819D01*
X186436304Y-143739819D02*
X186341066Y-143692200D01*
X186341066Y-143692200D02*
X186293447Y-143644580D01*
X186293447Y-143644580D02*
X186245828Y-143549342D01*
X186245828Y-143549342D02*
X186245828Y-143263628D01*
X186245828Y-143263628D02*
X186293447Y-143168390D01*
X186293447Y-143168390D02*
X186341066Y-143120771D01*
X186341066Y-143120771D02*
X186436304Y-143073152D01*
X186436304Y-143073152D02*
X186626780Y-143073152D01*
X186626780Y-143073152D02*
X186722018Y-143120771D01*
X187579161Y-143692200D02*
X187483923Y-143739819D01*
X187483923Y-143739819D02*
X187293447Y-143739819D01*
X187293447Y-143739819D02*
X187198209Y-143692200D01*
X187198209Y-143692200D02*
X187150590Y-143596961D01*
X187150590Y-143596961D02*
X187150590Y-143216009D01*
X187150590Y-143216009D02*
X187198209Y-143120771D01*
X187198209Y-143120771D02*
X187293447Y-143073152D01*
X187293447Y-143073152D02*
X187483923Y-143073152D01*
X187483923Y-143073152D02*
X187579161Y-143120771D01*
X187579161Y-143120771D02*
X187626780Y-143216009D01*
X187626780Y-143216009D02*
X187626780Y-143311247D01*
X187626780Y-143311247D02*
X187150590Y-143406485D01*
X188055352Y-143739819D02*
X188055352Y-143073152D01*
X188055352Y-143263628D02*
X188102971Y-143168390D01*
X188102971Y-143168390D02*
X188150590Y-143120771D01*
X188150590Y-143120771D02*
X188245828Y-143073152D01*
X188245828Y-143073152D02*
X188341066Y-143073152D01*
X174198207Y-145349819D02*
X173864874Y-144873628D01*
X173626779Y-145349819D02*
X173626779Y-144349819D01*
X173626779Y-144349819D02*
X174007731Y-144349819D01*
X174007731Y-144349819D02*
X174102969Y-144397438D01*
X174102969Y-144397438D02*
X174150588Y-144445057D01*
X174150588Y-144445057D02*
X174198207Y-144540295D01*
X174198207Y-144540295D02*
X174198207Y-144683152D01*
X174198207Y-144683152D02*
X174150588Y-144778390D01*
X174150588Y-144778390D02*
X174102969Y-144826009D01*
X174102969Y-144826009D02*
X174007731Y-144873628D01*
X174007731Y-144873628D02*
X173626779Y-144873628D01*
X175007731Y-145302200D02*
X174912493Y-145349819D01*
X174912493Y-145349819D02*
X174722017Y-145349819D01*
X174722017Y-145349819D02*
X174626779Y-145302200D01*
X174626779Y-145302200D02*
X174579160Y-145206961D01*
X174579160Y-145206961D02*
X174579160Y-144826009D01*
X174579160Y-144826009D02*
X174626779Y-144730771D01*
X174626779Y-144730771D02*
X174722017Y-144683152D01*
X174722017Y-144683152D02*
X174912493Y-144683152D01*
X174912493Y-144683152D02*
X175007731Y-144730771D01*
X175007731Y-144730771D02*
X175055350Y-144826009D01*
X175055350Y-144826009D02*
X175055350Y-144921247D01*
X175055350Y-144921247D02*
X174579160Y-145016485D01*
X175388684Y-144683152D02*
X175626779Y-145349819D01*
X175626779Y-145349819D02*
X175864874Y-144683152D01*
X177531541Y-145349819D02*
X176960113Y-145349819D01*
X177245827Y-145349819D02*
X177245827Y-144349819D01*
X177245827Y-144349819D02*
X177150589Y-144492676D01*
X177150589Y-144492676D02*
X177055351Y-144587914D01*
X177055351Y-144587914D02*
X176960113Y-144635533D01*
X158180180Y-130068779D02*
X159180180Y-130068779D01*
X158180180Y-130544969D02*
X159180180Y-130544969D01*
X159180180Y-130544969D02*
X158180180Y-131116397D01*
X158180180Y-131116397D02*
X159180180Y-131116397D01*
D10*
X159866558Y-151061733D02*
X161390368Y-151061733D01*
X160628463Y-151823638D02*
X160628463Y-150299828D01*
D12*
X220763666Y-121428419D02*
X220763666Y-122142704D01*
X220763666Y-122142704D02*
X220716047Y-122285561D01*
X220716047Y-122285561D02*
X220620809Y-122380800D01*
X220620809Y-122380800D02*
X220477952Y-122428419D01*
X220477952Y-122428419D02*
X220382714Y-122428419D01*
X221192238Y-121523657D02*
X221239857Y-121476038D01*
X221239857Y-121476038D02*
X221335095Y-121428419D01*
X221335095Y-121428419D02*
X221573190Y-121428419D01*
X221573190Y-121428419D02*
X221668428Y-121476038D01*
X221668428Y-121476038D02*
X221716047Y-121523657D01*
X221716047Y-121523657D02*
X221763666Y-121618895D01*
X221763666Y-121618895D02*
X221763666Y-121714133D01*
X221763666Y-121714133D02*
X221716047Y-121856990D01*
X221716047Y-121856990D02*
X221144619Y-122428419D01*
X221144619Y-122428419D02*
X221763666Y-122428419D01*
X151648666Y-121442419D02*
X151648666Y-122156704D01*
X151648666Y-122156704D02*
X151601047Y-122299561D01*
X151601047Y-122299561D02*
X151505809Y-122394800D01*
X151505809Y-122394800D02*
X151362952Y-122442419D01*
X151362952Y-122442419D02*
X151267714Y-122442419D01*
X152648666Y-122442419D02*
X152077238Y-122442419D01*
X152362952Y-122442419D02*
X152362952Y-121442419D01*
X152362952Y-121442419D02*
X152267714Y-121585276D01*
X152267714Y-121585276D02*
X152172476Y-121680514D01*
X152172476Y-121680514D02*
X152077238Y-121728133D01*
X171940666Y-128838609D02*
X171607333Y-128838609D01*
X171607333Y-129362419D02*
X171607333Y-128362419D01*
X171607333Y-128362419D02*
X172083523Y-128362419D01*
X172988285Y-129362419D02*
X172416857Y-129362419D01*
X172702571Y-129362419D02*
X172702571Y-128362419D01*
X172702571Y-128362419D02*
X172607333Y-128505276D01*
X172607333Y-128505276D02*
X172512095Y-128600514D01*
X172512095Y-128600514D02*
X172416857Y-128648133D01*
D11*
X138275714Y-149680819D02*
X137704286Y-149680819D01*
X137990000Y-149680819D02*
X137990000Y-148680819D01*
X137990000Y-148680819D02*
X137894762Y-148823676D01*
X137894762Y-148823676D02*
X137799524Y-148918914D01*
X137799524Y-148918914D02*
X137704286Y-148966533D01*
X195481333Y-139625580D02*
X195433714Y-139673200D01*
X195433714Y-139673200D02*
X195290857Y-139720819D01*
X195290857Y-139720819D02*
X195195619Y-139720819D01*
X195195619Y-139720819D02*
X195052762Y-139673200D01*
X195052762Y-139673200D02*
X194957524Y-139577961D01*
X194957524Y-139577961D02*
X194909905Y-139482723D01*
X194909905Y-139482723D02*
X194862286Y-139292247D01*
X194862286Y-139292247D02*
X194862286Y-139149390D01*
X194862286Y-139149390D02*
X194909905Y-138958914D01*
X194909905Y-138958914D02*
X194957524Y-138863676D01*
X194957524Y-138863676D02*
X195052762Y-138768438D01*
X195052762Y-138768438D02*
X195195619Y-138720819D01*
X195195619Y-138720819D02*
X195290857Y-138720819D01*
X195290857Y-138720819D02*
X195433714Y-138768438D01*
X195433714Y-138768438D02*
X195481333Y-138816057D01*
X195862286Y-138816057D02*
X195909905Y-138768438D01*
X195909905Y-138768438D02*
X196005143Y-138720819D01*
X196005143Y-138720819D02*
X196243238Y-138720819D01*
X196243238Y-138720819D02*
X196338476Y-138768438D01*
X196338476Y-138768438D02*
X196386095Y-138816057D01*
X196386095Y-138816057D02*
X196433714Y-138911295D01*
X196433714Y-138911295D02*
X196433714Y-139006533D01*
X196433714Y-139006533D02*
X196386095Y-139149390D01*
X196386095Y-139149390D02*
X195814667Y-139720819D01*
X195814667Y-139720819D02*
X196433714Y-139720819D01*
X203510095Y-129732819D02*
X203510095Y-130542342D01*
X203510095Y-130542342D02*
X203557714Y-130637580D01*
X203557714Y-130637580D02*
X203605333Y-130685200D01*
X203605333Y-130685200D02*
X203700571Y-130732819D01*
X203700571Y-130732819D02*
X203891047Y-130732819D01*
X203891047Y-130732819D02*
X203986285Y-130685200D01*
X203986285Y-130685200D02*
X204033904Y-130637580D01*
X204033904Y-130637580D02*
X204081523Y-130542342D01*
X204081523Y-130542342D02*
X204081523Y-129732819D01*
X205081523Y-130732819D02*
X204510095Y-130732819D01*
X204795809Y-130732819D02*
X204795809Y-129732819D01*
X204795809Y-129732819D02*
X204700571Y-129875676D01*
X204700571Y-129875676D02*
X204605333Y-129970914D01*
X204605333Y-129970914D02*
X204510095Y-130018533D01*
X199533333Y-139879580D02*
X199485714Y-139927200D01*
X199485714Y-139927200D02*
X199342857Y-139974819D01*
X199342857Y-139974819D02*
X199247619Y-139974819D01*
X199247619Y-139974819D02*
X199104762Y-139927200D01*
X199104762Y-139927200D02*
X199009524Y-139831961D01*
X199009524Y-139831961D02*
X198961905Y-139736723D01*
X198961905Y-139736723D02*
X198914286Y-139546247D01*
X198914286Y-139546247D02*
X198914286Y-139403390D01*
X198914286Y-139403390D02*
X198961905Y-139212914D01*
X198961905Y-139212914D02*
X199009524Y-139117676D01*
X199009524Y-139117676D02*
X199104762Y-139022438D01*
X199104762Y-139022438D02*
X199247619Y-138974819D01*
X199247619Y-138974819D02*
X199342857Y-138974819D01*
X199342857Y-138974819D02*
X199485714Y-139022438D01*
X199485714Y-139022438D02*
X199533333Y-139070057D01*
X200485714Y-139974819D02*
X199914286Y-139974819D01*
X200200000Y-139974819D02*
X200200000Y-138974819D01*
X200200000Y-138974819D02*
X200104762Y-139117676D01*
X200104762Y-139117676D02*
X200009524Y-139212914D01*
X200009524Y-139212914D02*
X199914286Y-139260533D01*
X187031333Y-141711580D02*
X186983714Y-141759200D01*
X186983714Y-141759200D02*
X186840857Y-141806819D01*
X186840857Y-141806819D02*
X186745619Y-141806819D01*
X186745619Y-141806819D02*
X186602762Y-141759200D01*
X186602762Y-141759200D02*
X186507524Y-141663961D01*
X186507524Y-141663961D02*
X186459905Y-141568723D01*
X186459905Y-141568723D02*
X186412286Y-141378247D01*
X186412286Y-141378247D02*
X186412286Y-141235390D01*
X186412286Y-141235390D02*
X186459905Y-141044914D01*
X186459905Y-141044914D02*
X186507524Y-140949676D01*
X186507524Y-140949676D02*
X186602762Y-140854438D01*
X186602762Y-140854438D02*
X186745619Y-140806819D01*
X186745619Y-140806819D02*
X186840857Y-140806819D01*
X186840857Y-140806819D02*
X186983714Y-140854438D01*
X186983714Y-140854438D02*
X187031333Y-140902057D01*
X187364667Y-140806819D02*
X187983714Y-140806819D01*
X187983714Y-140806819D02*
X187650381Y-141187771D01*
X187650381Y-141187771D02*
X187793238Y-141187771D01*
X187793238Y-141187771D02*
X187888476Y-141235390D01*
X187888476Y-141235390D02*
X187936095Y-141283009D01*
X187936095Y-141283009D02*
X187983714Y-141378247D01*
X187983714Y-141378247D02*
X187983714Y-141616342D01*
X187983714Y-141616342D02*
X187936095Y-141711580D01*
X187936095Y-141711580D02*
X187888476Y-141759200D01*
X187888476Y-141759200D02*
X187793238Y-141806819D01*
X187793238Y-141806819D02*
X187507524Y-141806819D01*
X187507524Y-141806819D02*
X187412286Y-141759200D01*
X187412286Y-141759200D02*
X187364667Y-141711580D01*
X216823666Y-138969803D02*
X216823666Y-139684088D01*
X216823666Y-139684088D02*
X216776047Y-139826945D01*
X216776047Y-139826945D02*
X216680809Y-139922184D01*
X216680809Y-139922184D02*
X216537952Y-139969803D01*
X216537952Y-139969803D02*
X216442714Y-139969803D01*
X217776047Y-138969803D02*
X217299857Y-138969803D01*
X217299857Y-138969803D02*
X217252238Y-139445993D01*
X217252238Y-139445993D02*
X217299857Y-139398374D01*
X217299857Y-139398374D02*
X217395095Y-139350755D01*
X217395095Y-139350755D02*
X217633190Y-139350755D01*
X217633190Y-139350755D02*
X217728428Y-139398374D01*
X217728428Y-139398374D02*
X217776047Y-139445993D01*
X217776047Y-139445993D02*
X217823666Y-139541231D01*
X217823666Y-139541231D02*
X217823666Y-139779326D01*
X217823666Y-139779326D02*
X217776047Y-139874564D01*
X217776047Y-139874564D02*
X217728428Y-139922184D01*
X217728428Y-139922184D02*
X217633190Y-139969803D01*
X217633190Y-139969803D02*
X217395095Y-139969803D01*
X217395095Y-139969803D02*
X217299857Y-139922184D01*
X217299857Y-139922184D02*
X217252238Y-139874564D01*
X235267714Y-144854803D02*
X234696286Y-144854803D01*
X234982000Y-144854803D02*
X234982000Y-143854803D01*
X234982000Y-143854803D02*
X234886762Y-143997660D01*
X234886762Y-143997660D02*
X234791524Y-144092898D01*
X234791524Y-144092898D02*
X234696286Y-144140517D01*
X195890095Y-134910819D02*
X195890095Y-135720342D01*
X195890095Y-135720342D02*
X195937714Y-135815580D01*
X195937714Y-135815580D02*
X195985333Y-135863200D01*
X195985333Y-135863200D02*
X196080571Y-135910819D01*
X196080571Y-135910819D02*
X196271047Y-135910819D01*
X196271047Y-135910819D02*
X196366285Y-135863200D01*
X196366285Y-135863200D02*
X196413904Y-135815580D01*
X196413904Y-135815580D02*
X196461523Y-135720342D01*
X196461523Y-135720342D02*
X196461523Y-134910819D01*
X196842476Y-134910819D02*
X197461523Y-134910819D01*
X197461523Y-134910819D02*
X197128190Y-135291771D01*
X197128190Y-135291771D02*
X197271047Y-135291771D01*
X197271047Y-135291771D02*
X197366285Y-135339390D01*
X197366285Y-135339390D02*
X197413904Y-135387009D01*
X197413904Y-135387009D02*
X197461523Y-135482247D01*
X197461523Y-135482247D02*
X197461523Y-135720342D01*
X197461523Y-135720342D02*
X197413904Y-135815580D01*
X197413904Y-135815580D02*
X197366285Y-135863200D01*
X197366285Y-135863200D02*
X197271047Y-135910819D01*
X197271047Y-135910819D02*
X196985333Y-135910819D01*
X196985333Y-135910819D02*
X196890095Y-135863200D01*
X196890095Y-135863200D02*
X196842476Y-135815580D01*
X180556819Y-124731333D02*
X181271104Y-124731333D01*
X181271104Y-124731333D02*
X181413961Y-124778952D01*
X181413961Y-124778952D02*
X181509200Y-124874190D01*
X181509200Y-124874190D02*
X181556819Y-125017047D01*
X181556819Y-125017047D02*
X181556819Y-125112285D01*
X180556819Y-124350380D02*
X180556819Y-123731333D01*
X180556819Y-123731333D02*
X180937771Y-124064666D01*
X180937771Y-124064666D02*
X180937771Y-123921809D01*
X180937771Y-123921809D02*
X180985390Y-123826571D01*
X180985390Y-123826571D02*
X181033009Y-123778952D01*
X181033009Y-123778952D02*
X181128247Y-123731333D01*
X181128247Y-123731333D02*
X181366342Y-123731333D01*
X181366342Y-123731333D02*
X181461580Y-123778952D01*
X181461580Y-123778952D02*
X181509200Y-123826571D01*
X181509200Y-123826571D02*
X181556819Y-123921809D01*
X181556819Y-123921809D02*
X181556819Y-124207523D01*
X181556819Y-124207523D02*
X181509200Y-124302761D01*
X181509200Y-124302761D02*
X181461580Y-124350380D01*
G36*
X197244573Y-144725229D02*
G01*
X197246962Y-144749564D01*
X197248758Y-144786237D01*
X197249781Y-144832070D01*
X197249950Y-144861313D01*
X197249950Y-145006216D01*
X197175161Y-145006216D01*
X197175161Y-144728096D01*
X197204375Y-144722254D01*
X197227297Y-144718145D01*
X197241693Y-144716411D01*
X197241770Y-144716411D01*
X197244573Y-144725229D01*
G37*
G36*
X197241197Y-144611086D02*
G01*
X197256791Y-144630781D01*
X197259298Y-144647499D01*
X197251683Y-144675033D01*
X197232069Y-144691933D01*
X197205302Y-144695680D01*
X197182173Y-144687616D01*
X197169859Y-144671104D01*
X197166097Y-144646630D01*
X197171526Y-144623172D01*
X197177031Y-144615446D01*
X197194512Y-144606808D01*
X197212555Y-144604228D01*
X197241197Y-144611086D01*
G37*
G36*
X197180323Y-142579023D02*
G01*
X197205957Y-142605101D01*
X197217623Y-142633476D01*
X197217795Y-142670671D01*
X197203670Y-142702465D01*
X197179078Y-142726589D01*
X197147851Y-142740773D01*
X197113817Y-142742750D01*
X197080807Y-142730248D01*
X197069396Y-142721293D01*
X197044828Y-142687786D01*
X197037113Y-142651149D01*
X197046086Y-142615313D01*
X197071582Y-142584212D01*
X197075289Y-142581322D01*
X197110277Y-142565406D01*
X197146859Y-142565216D01*
X197180323Y-142579023D01*
G37*
G36*
X197203412Y-143006677D02*
G01*
X197203627Y-143077878D01*
X197204240Y-143133026D01*
X197205433Y-143174764D01*
X197207386Y-143205734D01*
X197210280Y-143228579D01*
X197214296Y-143245942D01*
X197219615Y-143260466D01*
X197220977Y-143263542D01*
X197238337Y-143301766D01*
X197188929Y-143331319D01*
X197161551Y-143346924D01*
X197140302Y-143357634D01*
X197131044Y-143360871D01*
X197119739Y-143354542D01*
X197102733Y-143338938D01*
X197099211Y-143335163D01*
X197085492Y-143319075D01*
X197074834Y-143302972D01*
X197066853Y-143284317D01*
X197061163Y-143260576D01*
X197057383Y-143229212D01*
X197055126Y-143187689D01*
X197054009Y-143133472D01*
X197053649Y-143064024D01*
X197053630Y-143034246D01*
X197053630Y-142811334D01*
X197075055Y-142805957D01*
X197096264Y-142801863D01*
X197127691Y-142797132D01*
X197149843Y-142794308D01*
X197203207Y-142788036D01*
X197203412Y-143006677D01*
G37*
G36*
X198830689Y-144724635D02*
G01*
X198868954Y-144748085D01*
X198896443Y-144784951D01*
X198911543Y-144833393D01*
X198913991Y-144865987D01*
X198906863Y-144919323D01*
X198887066Y-144962516D01*
X198856979Y-144993869D01*
X198818981Y-145011684D01*
X198775453Y-145014262D01*
X198728774Y-144999906D01*
X198727338Y-144999190D01*
X198690793Y-144970899D01*
X198667838Y-144929951D01*
X198658683Y-144876747D01*
X198658512Y-144867130D01*
X198658659Y-144865987D01*
X198745717Y-144865987D01*
X198748923Y-144909108D01*
X198759078Y-144936164D01*
X198776991Y-144948752D01*
X198788346Y-144950124D01*
X198809833Y-144943219D01*
X198820737Y-144926144D01*
X198826906Y-144900322D01*
X198829819Y-144869235D01*
X198829854Y-144865987D01*
X198825693Y-144821731D01*
X198813332Y-144793658D01*
X198792954Y-144782138D01*
X198788346Y-144781850D01*
X198766498Y-144788177D01*
X198752790Y-144808221D01*
X198746412Y-144843577D01*
X198745717Y-144865987D01*
X198658659Y-144865987D01*
X198665485Y-144812728D01*
X198685203Y-144768639D01*
X198716034Y-144736839D01*
X198756340Y-144719303D01*
X198783257Y-144716446D01*
X198830689Y-144724635D01*
G37*
G36*
X196097018Y-144721212D02*
G01*
X196113235Y-144725473D01*
X196145794Y-144741927D01*
X196165393Y-144767257D01*
X196174027Y-144804725D01*
X196174867Y-144826299D01*
X196167611Y-144887086D01*
X196146933Y-144938281D01*
X196114467Y-144977987D01*
X196071846Y-145004307D01*
X196020705Y-145015344D01*
X196011879Y-145015564D01*
X195978524Y-145012157D01*
X195952410Y-144999299D01*
X195939250Y-144988541D01*
X195921507Y-144970700D01*
X195912622Y-144953468D01*
X195909768Y-144929327D01*
X195909750Y-144910056D01*
X195909972Y-144908479D01*
X195997244Y-144908479D01*
X195999766Y-144941133D01*
X196008499Y-144957199D01*
X196025192Y-144958248D01*
X196043788Y-144950231D01*
X196060297Y-144932998D01*
X196074907Y-144903403D01*
X196085360Y-144867779D01*
X196089402Y-144832458D01*
X196089052Y-144823180D01*
X196085545Y-144799261D01*
X196077805Y-144788791D01*
X196062684Y-144786525D01*
X196045726Y-144790631D01*
X196031158Y-144805577D01*
X196018279Y-144828237D01*
X196005166Y-144862585D01*
X195997836Y-144898146D01*
X195997244Y-144908479D01*
X195909972Y-144908479D01*
X195917668Y-144853720D01*
X195938110Y-144804420D01*
X195968671Y-144764337D01*
X196006946Y-144735654D01*
X196050530Y-144720552D01*
X196097018Y-144721212D01*
G37*
G36*
X197406610Y-144721204D02*
G01*
X197412494Y-144728115D01*
X197420448Y-144736816D01*
X197432020Y-144736538D01*
X197452515Y-144727801D01*
X197487692Y-144718704D01*
X197522686Y-144722226D01*
X197551511Y-144736984D01*
X197565093Y-144753805D01*
X197570885Y-144775138D01*
X197575039Y-144810441D01*
X197577048Y-144855022D01*
X197577154Y-144865987D01*
X197578143Y-144906122D01*
X197580562Y-144939984D01*
X197583984Y-144962645D01*
X197586018Y-144968367D01*
X197587490Y-144980921D01*
X197573744Y-144994395D01*
X197566952Y-144998749D01*
X197546546Y-145010896D01*
X197535181Y-145013741D01*
X197525451Y-145006877D01*
X197515495Y-144995908D01*
X197506753Y-144982763D01*
X197500887Y-144963659D01*
X197497139Y-144934549D01*
X197494751Y-144891383D01*
X197494473Y-144883725D01*
X197492644Y-144841167D01*
X197490235Y-144813973D01*
X197486518Y-144798810D01*
X197480762Y-144792346D01*
X197474203Y-144791199D01*
X197454598Y-144792259D01*
X197441421Y-144797494D01*
X197433404Y-144809992D01*
X197429273Y-144832838D01*
X197427757Y-144869118D01*
X197427572Y-144904382D01*
X197427572Y-145006216D01*
X197344396Y-145006216D01*
X197341578Y-144870599D01*
X197338761Y-144734983D01*
X197371076Y-144724334D01*
X197394014Y-144718461D01*
X197406610Y-144721204D01*
G37*
G36*
X197743158Y-144721204D02*
G01*
X197749042Y-144728115D01*
X197756995Y-144736816D01*
X197768568Y-144736538D01*
X197789063Y-144727801D01*
X197824240Y-144718704D01*
X197859233Y-144722226D01*
X197888059Y-144736984D01*
X197901641Y-144753805D01*
X197907433Y-144775138D01*
X197911586Y-144810441D01*
X197913596Y-144855022D01*
X197913702Y-144865987D01*
X197914691Y-144906122D01*
X197917109Y-144939984D01*
X197920531Y-144962645D01*
X197922566Y-144968367D01*
X197924037Y-144980921D01*
X197910292Y-144994395D01*
X197903500Y-144998749D01*
X197883094Y-145010896D01*
X197871729Y-145013741D01*
X197861999Y-145006877D01*
X197852043Y-144995908D01*
X197843300Y-144982763D01*
X197837435Y-144963659D01*
X197833687Y-144934549D01*
X197831299Y-144891383D01*
X197831021Y-144883725D01*
X197829191Y-144841167D01*
X197826783Y-144813973D01*
X197823066Y-144798810D01*
X197817310Y-144792346D01*
X197810751Y-144791199D01*
X197791145Y-144792259D01*
X197777969Y-144797494D01*
X197769951Y-144809992D01*
X197765820Y-144832838D01*
X197764305Y-144869118D01*
X197764120Y-144904382D01*
X197764120Y-145006216D01*
X197680943Y-145006216D01*
X197678126Y-144870599D01*
X197675309Y-144734983D01*
X197707624Y-144724334D01*
X197730562Y-144718461D01*
X197743158Y-144721204D01*
G37*
G36*
X199091613Y-144677976D02*
G01*
X199092644Y-144702383D01*
X199098312Y-144713401D01*
X199112478Y-144716322D01*
X199119659Y-144716411D01*
X199141524Y-144720315D01*
X199147705Y-144731048D01*
X199141500Y-144756963D01*
X199126089Y-144775947D01*
X199109631Y-144781850D01*
X199100886Y-144783090D01*
X199095573Y-144789154D01*
X199093039Y-144803561D01*
X199092631Y-144829830D01*
X199093600Y-144868325D01*
X199096288Y-144954799D01*
X199121042Y-144953169D01*
X199140314Y-144955734D01*
X199149224Y-144970391D01*
X199150599Y-144976541D01*
X199152951Y-144996146D01*
X199151759Y-145005231D01*
X199141131Y-145008179D01*
X199118069Y-145011601D01*
X199101865Y-145013365D01*
X199071983Y-145014776D01*
X199052527Y-145010288D01*
X199035596Y-144997697D01*
X199031545Y-144993740D01*
X199020543Y-144981532D01*
X199013525Y-144968580D01*
X199009602Y-144950524D01*
X199007883Y-144923002D01*
X199007479Y-144881652D01*
X199007476Y-144875761D01*
X199007016Y-144832054D01*
X199005330Y-144803958D01*
X199001960Y-144788403D01*
X198996447Y-144782320D01*
X198993454Y-144781850D01*
X198982373Y-144773579D01*
X198979431Y-144753511D01*
X198983816Y-144730584D01*
X198993454Y-144719791D01*
X199003892Y-144707214D01*
X199007476Y-144687917D01*
X199008800Y-144668766D01*
X199015844Y-144657751D01*
X199033215Y-144650952D01*
X199056627Y-144646105D01*
X199091613Y-144639541D01*
X199091613Y-144677976D01*
G37*
G36*
X198506450Y-144720945D02*
G01*
X198535689Y-144729962D01*
X198556427Y-144739982D01*
X198562897Y-144749621D01*
X198558501Y-144764607D01*
X198557539Y-144766744D01*
X198549606Y-144780037D01*
X198537818Y-144786713D01*
X198516644Y-144788657D01*
X198494422Y-144788250D01*
X198459455Y-144789672D01*
X198442183Y-144795991D01*
X198442639Y-144805971D01*
X198460855Y-144818376D01*
X198493306Y-144830863D01*
X198524808Y-144843350D01*
X198550676Y-144857983D01*
X198561083Y-144866956D01*
X198575929Y-144898479D01*
X198574975Y-144934384D01*
X198558667Y-144969796D01*
X198550787Y-144979663D01*
X198532896Y-144997098D01*
X198514388Y-145006609D01*
X198488090Y-145011057D01*
X198468987Y-145012318D01*
X198432970Y-145011917D01*
X198399783Y-145007853D01*
X198384132Y-145003667D01*
X198357906Y-144991984D01*
X198346763Y-144980483D01*
X198347800Y-144964240D01*
X198352860Y-144950652D01*
X198362398Y-144932085D01*
X198372537Y-144928212D01*
X198384281Y-144933117D01*
X198419025Y-144947021D01*
X198451938Y-144952226D01*
X198476842Y-144947922D01*
X198480466Y-144945742D01*
X198492111Y-144930067D01*
X198486946Y-144914895D01*
X198466754Y-144902722D01*
X198446054Y-144897541D01*
X198403802Y-144884257D01*
X198372647Y-144861139D01*
X198355496Y-144830831D01*
X198353078Y-144813125D01*
X198355824Y-144785316D01*
X198362456Y-144763109D01*
X198362704Y-144762636D01*
X198385246Y-144738863D01*
X198420024Y-144723365D01*
X198462079Y-144717080D01*
X198506450Y-144720945D01*
G37*
G36*
X196840390Y-142792209D02*
G01*
X196894589Y-142813633D01*
X196924809Y-142835003D01*
X196933199Y-142844278D01*
X196933669Y-142854509D01*
X196924981Y-142870687D01*
X196910986Y-142890736D01*
X196892972Y-142914779D01*
X196878662Y-142932030D01*
X196873220Y-142937236D01*
X196861039Y-142936061D01*
X196838951Y-142927594D01*
X196825613Y-142921010D01*
X196786399Y-142906034D01*
X196754685Y-142907180D01*
X196729917Y-142924891D01*
X196711538Y-142959608D01*
X196698992Y-143011771D01*
X196697347Y-143022785D01*
X196692816Y-143083310D01*
X196695978Y-143138568D01*
X196706221Y-143184865D01*
X196722930Y-143218508D01*
X196731357Y-143227655D01*
X196760604Y-143244776D01*
X196793097Y-143246284D01*
X196831787Y-143232106D01*
X196844935Y-143224847D01*
X196869650Y-143212040D01*
X196887927Y-143205614D01*
X196893281Y-143205740D01*
X196902740Y-143215691D01*
X196918146Y-143235647D01*
X196927083Y-143248196D01*
X196941778Y-143273078D01*
X196944738Y-143292052D01*
X196934343Y-143308283D01*
X196908973Y-143324938D01*
X196880682Y-143338896D01*
X196830783Y-143354704D01*
X196773888Y-143361063D01*
X196717422Y-143357819D01*
X196668811Y-143344814D01*
X196665666Y-143343430D01*
X196614108Y-143310061D01*
X196574445Y-143262762D01*
X196547111Y-143202380D01*
X196532543Y-143129761D01*
X196530112Y-143080415D01*
X196536583Y-142998982D01*
X196556180Y-142930579D01*
X196589177Y-142874655D01*
X196635847Y-142830661D01*
X196662855Y-142813800D01*
X196720001Y-142791926D01*
X196780687Y-142784851D01*
X196840390Y-142792209D01*
G37*
G36*
X198172403Y-144722611D02*
G01*
X198195299Y-144728525D01*
X198213569Y-144740826D01*
X198216785Y-144743762D01*
X198240827Y-144777728D01*
X198255660Y-144823296D01*
X198259541Y-144863650D01*
X198259593Y-144894033D01*
X198180130Y-144894033D01*
X198141273Y-144894457D01*
X198117518Y-144896234D01*
X198105280Y-144900124D01*
X198100974Y-144906885D01*
X198100667Y-144910860D01*
X198106586Y-144931598D01*
X198111886Y-144938906D01*
X198130920Y-144947400D01*
X198159417Y-144949703D01*
X198189173Y-144945755D01*
X198205713Y-144939592D01*
X198223114Y-144934249D01*
X198236014Y-144943665D01*
X198237818Y-144946053D01*
X198248716Y-144966561D01*
X198244722Y-144981975D01*
X198224304Y-144996292D01*
X198217207Y-144999810D01*
X198172136Y-145013113D01*
X198124808Y-145013526D01*
X198082534Y-145001183D01*
X198075413Y-144997246D01*
X198042585Y-144967034D01*
X198021051Y-144926206D01*
X198011180Y-144879319D01*
X198013342Y-144830929D01*
X198016850Y-144820009D01*
X198100667Y-144820009D01*
X198108963Y-144825385D01*
X198129685Y-144828375D01*
X198138062Y-144828593D01*
X198161480Y-144826689D01*
X198174504Y-144821932D01*
X198175456Y-144820009D01*
X198168311Y-144794950D01*
X198147974Y-144782763D01*
X198138062Y-144781850D01*
X198113504Y-144789142D01*
X198101562Y-144809894D01*
X198100667Y-144820009D01*
X198016850Y-144820009D01*
X198027905Y-144785594D01*
X198055204Y-144747905D01*
X198074255Y-144732192D01*
X198093892Y-144724119D01*
X198121518Y-144721288D01*
X198137922Y-144721085D01*
X198172403Y-144722611D01*
G37*
G36*
X199742284Y-143762433D02*
G01*
X199743569Y-143787500D01*
X199744641Y-143826158D01*
X199745441Y-143875853D01*
X199745911Y-143934033D01*
X199746011Y-143978176D01*
X199746231Y-144052983D01*
X199746978Y-144111495D01*
X199748387Y-144156109D01*
X199750591Y-144189220D01*
X199753723Y-144213227D01*
X199757918Y-144230527D01*
X199760457Y-144237414D01*
X199767811Y-144257867D01*
X199767750Y-144272672D01*
X199757783Y-144285464D01*
X199735419Y-144299877D01*
X199707502Y-144314721D01*
X199673668Y-144332253D01*
X199631384Y-144287245D01*
X199593552Y-144306545D01*
X199547416Y-144322669D01*
X199494686Y-144329729D01*
X199443611Y-144327112D01*
X199414866Y-144319805D01*
X199383501Y-144303630D01*
X199353664Y-144281433D01*
X199349427Y-144277410D01*
X199320653Y-144248647D01*
X199320653Y-143777047D01*
X199381418Y-143765696D01*
X199414346Y-143760427D01*
X199440652Y-143757814D01*
X199453869Y-143758309D01*
X199457849Y-143764264D01*
X199460891Y-143780254D01*
X199463089Y-143808027D01*
X199464536Y-143849331D01*
X199465326Y-143905911D01*
X199465555Y-143975712D01*
X199465891Y-144052046D01*
X199466946Y-144111054D01*
X199468786Y-144154098D01*
X199471480Y-144182539D01*
X199475096Y-144197736D01*
X199476773Y-144200371D01*
X199497643Y-144209884D01*
X199527405Y-144210952D01*
X199558578Y-144204160D01*
X199581151Y-144192214D01*
X199605783Y-144172838D01*
X199605783Y-143783055D01*
X199670731Y-143768283D01*
X199703413Y-143761003D01*
X199728385Y-143755727D01*
X199740586Y-143753522D01*
X199740846Y-143753510D01*
X199742284Y-143762433D01*
G37*
G36*
X198781954Y-142786986D02*
G01*
X198827881Y-142802077D01*
X198869723Y-142823415D01*
X198877394Y-142828572D01*
X198905002Y-142848231D01*
X198875113Y-142887197D01*
X198856717Y-142910995D01*
X198842525Y-142929026D01*
X198837912Y-142934672D01*
X198825801Y-142935751D01*
X198803049Y-142928002D01*
X198789832Y-142921553D01*
X198749880Y-142906602D01*
X198717247Y-142908547D01*
X198690825Y-142927591D01*
X198680767Y-142941629D01*
X198666497Y-142977127D01*
X198657360Y-143025342D01*
X198654010Y-143080837D01*
X198657100Y-143138177D01*
X198657121Y-143138358D01*
X198663264Y-143175414D01*
X198673088Y-143200883D01*
X198689427Y-143221859D01*
X198691192Y-143223648D01*
X198712099Y-143241414D01*
X198731380Y-143247271D01*
X198752853Y-143245426D01*
X198784498Y-143235877D01*
X198813263Y-143220560D01*
X198813826Y-143220148D01*
X198834712Y-143207418D01*
X198851293Y-143206454D01*
X198867880Y-143218811D01*
X198888782Y-143246040D01*
X198889824Y-143247541D01*
X198904597Y-143271649D01*
X198908514Y-143289591D01*
X198899888Y-143304811D01*
X198877029Y-143320753D01*
X198845947Y-143337047D01*
X198795028Y-143354365D01*
X198737058Y-143361390D01*
X198679406Y-143357905D01*
X198629442Y-143343694D01*
X198628860Y-143343430D01*
X198577348Y-143310036D01*
X198537244Y-143262621D01*
X198509206Y-143202463D01*
X198493894Y-143130840D01*
X198491087Y-143076299D01*
X198498636Y-142995285D01*
X198520304Y-142926289D01*
X198556236Y-142868912D01*
X198571652Y-142852055D01*
X198615823Y-142818670D01*
X198669460Y-142794236D01*
X198724701Y-142782042D01*
X198740941Y-142781262D01*
X198781954Y-142786986D01*
G37*
G36*
X196996383Y-144624831D02*
G01*
X197048956Y-144627599D01*
X197064632Y-144795873D01*
X197071074Y-144863998D01*
X197075871Y-144915715D01*
X197078772Y-144953261D01*
X197079524Y-144978873D01*
X197077877Y-144994788D01*
X197073578Y-145003243D01*
X197066376Y-145006476D01*
X197056018Y-145006723D01*
X197042253Y-145006221D01*
X197040959Y-145006216D01*
X197000243Y-145006216D01*
X196994283Y-144943113D01*
X196991056Y-144901737D01*
X196988865Y-144859889D01*
X196988257Y-144834047D01*
X196986986Y-144809236D01*
X196983805Y-144795734D01*
X196981233Y-144795041D01*
X196975996Y-144806391D01*
X196967153Y-144831803D01*
X196956017Y-144867302D01*
X196945921Y-144901770D01*
X196917567Y-145001541D01*
X196880114Y-145004317D01*
X196842660Y-145007093D01*
X196815226Y-144903320D01*
X196801871Y-144856107D01*
X196791453Y-144827232D01*
X196783705Y-144816612D01*
X196778359Y-144824164D01*
X196775146Y-144849806D01*
X196773831Y-144890527D01*
X196772496Y-144926931D01*
X196769751Y-144960260D01*
X196767331Y-144977001D01*
X196762122Y-144995267D01*
X196752294Y-145003730D01*
X196731897Y-145006122D01*
X196720767Y-145006216D01*
X196680046Y-145006216D01*
X196684742Y-144966484D01*
X196687171Y-144944221D01*
X196690724Y-144909495D01*
X196695042Y-144866044D01*
X196699768Y-144817606D01*
X196704542Y-144767921D01*
X196709007Y-144720726D01*
X196712804Y-144679760D01*
X196715574Y-144648761D01*
X196716960Y-144631467D01*
X196717052Y-144629470D01*
X196725518Y-144625892D01*
X196747407Y-144624324D01*
X196770568Y-144624796D01*
X196824054Y-144627599D01*
X196881826Y-144849621D01*
X196912818Y-144735842D01*
X196943811Y-144622063D01*
X196996383Y-144624831D01*
G37*
G36*
X199040826Y-143765301D02*
G01*
X199092993Y-143788063D01*
X199138015Y-143823512D01*
X199172795Y-143871362D01*
X199181181Y-143889064D01*
X199189082Y-143916144D01*
X199196066Y-143954679D01*
X199200889Y-143997431D01*
X199201631Y-144008258D01*
X199206389Y-144090058D01*
X198892832Y-144090058D01*
X198897945Y-144128178D01*
X198905112Y-144157187D01*
X198916343Y-144180546D01*
X198919003Y-144183917D01*
X198951545Y-144206789D01*
X198993251Y-144216997D01*
X199039465Y-144214471D01*
X199085531Y-144199141D01*
X199106892Y-144186762D01*
X199129696Y-144173033D01*
X199142840Y-144170575D01*
X199149256Y-144175877D01*
X199171590Y-144210038D01*
X199184902Y-144232277D01*
X199190464Y-144246282D01*
X199189549Y-144255740D01*
X199183430Y-144264337D01*
X199180799Y-144267267D01*
X199147147Y-144292748D01*
X199100631Y-144312239D01*
X199046361Y-144324901D01*
X198989449Y-144329894D01*
X198935003Y-144326379D01*
X198891292Y-144314831D01*
X198832917Y-144281807D01*
X198786996Y-144235140D01*
X198754007Y-144175548D01*
X198734432Y-144103748D01*
X198730720Y-144074622D01*
X198730843Y-144007043D01*
X198735959Y-143977876D01*
X198892847Y-143977876D01*
X199051709Y-143977876D01*
X199044505Y-143938483D01*
X199030735Y-143901519D01*
X199008022Y-143878026D01*
X198980266Y-143867890D01*
X198951367Y-143870993D01*
X198925226Y-143887221D01*
X198905745Y-143916457D01*
X198898429Y-143942818D01*
X198892847Y-143977876D01*
X198735959Y-143977876D01*
X198742536Y-143940379D01*
X198764393Y-143880831D01*
X198781246Y-143851891D01*
X198822671Y-143806894D01*
X198872438Y-143776024D01*
X198927452Y-143758994D01*
X198984614Y-143755516D01*
X199040826Y-143765301D01*
G37*
G36*
X199411532Y-144725695D02*
G01*
X199439700Y-144742492D01*
X199448947Y-144753902D01*
X199454546Y-144768445D01*
X199457242Y-144790547D01*
X199457780Y-144824636D01*
X199457464Y-144848031D01*
X199457827Y-144897705D01*
X199461241Y-144931632D01*
X199468009Y-144952555D01*
X199469299Y-144954690D01*
X199477069Y-144970386D01*
X199474097Y-144984185D01*
X199462440Y-145000330D01*
X199447777Y-145016598D01*
X199436717Y-145019595D01*
X199421897Y-145011190D01*
X199421312Y-145010778D01*
X199400291Y-145001296D01*
X199382196Y-145005800D01*
X199361794Y-145011806D01*
X199332322Y-145015247D01*
X199320842Y-145015564D01*
X199278785Y-145008922D01*
X199249969Y-144989111D01*
X199234572Y-144956303D01*
X199231841Y-144928941D01*
X199233427Y-144920538D01*
X199315978Y-144920538D01*
X199322699Y-144941767D01*
X199338414Y-144956760D01*
X199348698Y-144959473D01*
X199363787Y-144953477D01*
X199370200Y-144948255D01*
X199379309Y-144931069D01*
X199381447Y-144909854D01*
X199377011Y-144891949D01*
X199366781Y-144884685D01*
X199341863Y-144890475D01*
X199322689Y-144904640D01*
X199315978Y-144920538D01*
X199233427Y-144920538D01*
X199239732Y-144887130D01*
X199262537Y-144855734D01*
X199298954Y-144835857D01*
X199347685Y-144828605D01*
X199349957Y-144828593D01*
X199371792Y-144827022D01*
X199379912Y-144820022D01*
X199379731Y-144807654D01*
X199369821Y-144788819D01*
X199347733Y-144783841D01*
X199313917Y-144792788D01*
X199305287Y-144796479D01*
X199282027Y-144806243D01*
X199269106Y-144807800D01*
X199259969Y-144800963D01*
X199255308Y-144795047D01*
X199243594Y-144774215D01*
X199246164Y-144758059D01*
X199264557Y-144743357D01*
X199284655Y-144733527D01*
X199328079Y-144720632D01*
X199372265Y-144718131D01*
X199411532Y-144725695D01*
G37*
G36*
X198279546Y-142802914D02*
G01*
X198323701Y-142830982D01*
X198334381Y-142841550D01*
X198342398Y-142850819D01*
X198348415Y-142860686D01*
X198352804Y-142873929D01*
X198355939Y-142893326D01*
X198358191Y-142921654D01*
X198359932Y-142961692D01*
X198361535Y-143016217D01*
X198362427Y-143050760D01*
X198364373Y-143117097D01*
X198366568Y-143167474D01*
X198369281Y-143204629D01*
X198372780Y-143231300D01*
X198377336Y-143250222D01*
X198383217Y-143264135D01*
X198383461Y-143264585D01*
X198394215Y-143285356D01*
X198399657Y-143298028D01*
X198399821Y-143298956D01*
X198392349Y-143305805D01*
X198373471Y-143318040D01*
X198348493Y-143332662D01*
X198322719Y-143346671D01*
X198301454Y-143357069D01*
X198290286Y-143360871D01*
X198277545Y-143354530D01*
X198266843Y-143344512D01*
X198250250Y-143323890D01*
X198237733Y-143302946D01*
X198228618Y-143278545D01*
X198222227Y-143247552D01*
X198217886Y-143206832D01*
X198214919Y-143153248D01*
X198212949Y-143094438D01*
X198208176Y-142926164D01*
X198175456Y-142923617D01*
X198136982Y-142928612D01*
X198112543Y-142939723D01*
X198082351Y-142958378D01*
X198079824Y-143152613D01*
X198077296Y-143346849D01*
X198004703Y-143349582D01*
X197964318Y-143350078D01*
X197939878Y-143347653D01*
X197928814Y-143341994D01*
X197927903Y-143340233D01*
X197926697Y-143328003D01*
X197925430Y-143299630D01*
X197924165Y-143257671D01*
X197922970Y-143204678D01*
X197921911Y-143143208D01*
X197921052Y-143075814D01*
X197921033Y-143073972D01*
X197918371Y-142819792D01*
X197970401Y-142805201D01*
X198006678Y-142795569D01*
X198029297Y-142792058D01*
X198042471Y-142795296D01*
X198050415Y-142805911D01*
X198055037Y-142817827D01*
X198064525Y-142845044D01*
X198116265Y-142817827D01*
X198173518Y-142796086D01*
X198228715Y-142791198D01*
X198279546Y-142802914D01*
G37*
G36*
X199682578Y-144716867D02*
G01*
X199719193Y-144733851D01*
X199741994Y-144761966D01*
X199752856Y-144803503D01*
X199753993Y-144832472D01*
X199747134Y-144853402D01*
X199730716Y-144874574D01*
X199699450Y-144898236D01*
X199662206Y-144909812D01*
X199625409Y-144907923D01*
X199608040Y-144900850D01*
X199577188Y-144874377D01*
X199560815Y-144841975D01*
X199559384Y-144826898D01*
X199585595Y-144826898D01*
X199597641Y-144857025D01*
X199612665Y-144872999D01*
X199630189Y-144880545D01*
X199653270Y-144884155D01*
X199674987Y-144883620D01*
X199688416Y-144878729D01*
X199689920Y-144875336D01*
X199683912Y-144866249D01*
X199682072Y-144865987D01*
X199672900Y-144858474D01*
X199661822Y-144840395D01*
X199661765Y-144840279D01*
X199649307Y-144814570D01*
X199643905Y-144842086D01*
X199637141Y-144864371D01*
X199629913Y-144869254D01*
X199623329Y-144857965D01*
X199618495Y-144831733D01*
X199617023Y-144812233D01*
X199615766Y-144785839D01*
X199643177Y-144785839D01*
X199651041Y-144797976D01*
X199662654Y-144800548D01*
X199676901Y-144796081D01*
X199678239Y-144788862D01*
X199668180Y-144777221D01*
X199654044Y-144774356D01*
X199644121Y-144780981D01*
X199643177Y-144785839D01*
X199615766Y-144785839D01*
X199614240Y-144753805D01*
X199651751Y-144753805D01*
X199682728Y-144758803D01*
X199700305Y-144772228D01*
X199702514Y-144791728D01*
X199695301Y-144805836D01*
X199688644Y-144823881D01*
X199690389Y-144842448D01*
X199698288Y-144855809D01*
X199710094Y-144858236D01*
X199714759Y-144855421D01*
X199725923Y-144835302D01*
X199726783Y-144807116D01*
X199718088Y-144777879D01*
X199704368Y-144758054D01*
X199677001Y-144739094D01*
X199647094Y-144736920D01*
X199620711Y-144745745D01*
X199597498Y-144765443D01*
X199585670Y-144794433D01*
X199585595Y-144826898D01*
X199559384Y-144826898D01*
X199557509Y-144807131D01*
X199565855Y-144773332D01*
X199584441Y-144744066D01*
X199611855Y-144722820D01*
X199646683Y-144713083D01*
X199682578Y-144716867D01*
G37*
G36*
X196456832Y-144608283D02*
G01*
X196483432Y-144614092D01*
X196497980Y-144623876D01*
X196497525Y-144638202D01*
X196484537Y-144653631D01*
X196464303Y-144665606D01*
X196444855Y-144669668D01*
X196419511Y-144676467D01*
X196408909Y-144687750D01*
X196400186Y-144710247D01*
X196405952Y-144721984D01*
X196427878Y-144725718D01*
X196431952Y-144725759D01*
X196454820Y-144726667D01*
X196462948Y-144732369D01*
X196458591Y-144747336D01*
X196450734Y-144762988D01*
X196430140Y-144786489D01*
X196411198Y-144792907D01*
X196401069Y-144794692D01*
X196393371Y-144799245D01*
X196387030Y-144809428D01*
X196380971Y-144828105D01*
X196374121Y-144858139D01*
X196365405Y-144902392D01*
X196360552Y-144927897D01*
X196350317Y-144978230D01*
X196339654Y-145024510D01*
X196329660Y-145062356D01*
X196321433Y-145087384D01*
X196319596Y-145091496D01*
X196300144Y-145122080D01*
X196273401Y-145153885D01*
X196243357Y-145183199D01*
X196213996Y-145206311D01*
X196189305Y-145219508D01*
X196180245Y-145221232D01*
X196173092Y-145213837D01*
X196162220Y-145195817D01*
X196161084Y-145193651D01*
X196149127Y-145166108D01*
X196148892Y-145151057D01*
X196160354Y-145146444D01*
X196160519Y-145146444D01*
X196179297Y-145139288D01*
X196202753Y-145121129D01*
X196225839Y-145096932D01*
X196243504Y-145071662D01*
X196248952Y-145059502D01*
X196253344Y-145042992D01*
X196260304Y-145013431D01*
X196268929Y-144975033D01*
X196278315Y-144932015D01*
X196287558Y-144888592D01*
X196295754Y-144848980D01*
X196301999Y-144817395D01*
X196305391Y-144798052D01*
X196305746Y-144794588D01*
X196297704Y-144792061D01*
X196281783Y-144791199D01*
X196265512Y-144789008D01*
X196260026Y-144778659D01*
X196260749Y-144760857D01*
X196265930Y-144738687D01*
X196279324Y-144728428D01*
X196290285Y-144725800D01*
X196310584Y-144717685D01*
X196323995Y-144698723D01*
X196328945Y-144685939D01*
X196343334Y-144651679D01*
X196360683Y-144630422D01*
X196386112Y-144616602D01*
X196395915Y-144613129D01*
X196425370Y-144607721D01*
X196456832Y-144608283D01*
G37*
G36*
X197633167Y-142797447D02*
G01*
X197690092Y-142818015D01*
X197735027Y-142852718D01*
X197768157Y-142901755D01*
X197789664Y-142965325D01*
X197799735Y-143043626D01*
X197799821Y-143045358D01*
X197803801Y-143127158D01*
X197493012Y-143127158D01*
X197493012Y-143150993D01*
X197500908Y-143190582D01*
X197522674Y-143220796D01*
X197555431Y-143240566D01*
X197596298Y-143248822D01*
X197642393Y-143244493D01*
X197690836Y-143226509D01*
X197693108Y-143225318D01*
X197718151Y-143212270D01*
X197735400Y-143203786D01*
X197740001Y-143201946D01*
X197748835Y-143209580D01*
X197761414Y-143228375D01*
X197774435Y-143252176D01*
X197784597Y-143274826D01*
X197788600Y-143290169D01*
X197788301Y-143292018D01*
X197775935Y-143304707D01*
X197750325Y-143319921D01*
X197716350Y-143335583D01*
X197678888Y-143349616D01*
X197642816Y-143359941D01*
X197619217Y-143364041D01*
X197581039Y-143365103D01*
X197541910Y-143362126D01*
X197530826Y-143360277D01*
X197477911Y-143342084D01*
X197427644Y-143311547D01*
X197387072Y-143273203D01*
X197378964Y-143262491D01*
X197351735Y-143209723D01*
X197333963Y-143146210D01*
X197327032Y-143078069D01*
X197328482Y-143039285D01*
X197337515Y-142991140D01*
X197493012Y-142991140D01*
X197493677Y-143002619D01*
X197498123Y-143009655D01*
X197510028Y-143013334D01*
X197533069Y-143014744D01*
X197570923Y-143014975D01*
X197573565Y-143014975D01*
X197612291Y-143014766D01*
X197635730Y-143013500D01*
X197647295Y-143010219D01*
X197650394Y-143003965D01*
X197648481Y-142993941D01*
X197643802Y-142969655D01*
X197642716Y-142956547D01*
X197634196Y-142932233D01*
X197612408Y-142913975D01*
X197582395Y-142904028D01*
X197549194Y-142904644D01*
X197535499Y-142908600D01*
X197518304Y-142923189D01*
X197503243Y-142948964D01*
X197494143Y-142978490D01*
X197493012Y-142991140D01*
X197337515Y-142991140D01*
X197342566Y-142964219D01*
X197369168Y-142901331D01*
X197407353Y-142851608D01*
X197456185Y-142816038D01*
X197514727Y-142795608D01*
X197564068Y-142790815D01*
X197633167Y-142797447D01*
G37*
G36*
X199291108Y-142798657D02*
G01*
X199346334Y-142822564D01*
X199391306Y-142861987D01*
X199420168Y-142905736D01*
X199429782Y-142931317D01*
X199438996Y-142967403D01*
X199446934Y-143008563D01*
X199452722Y-143049368D01*
X199455487Y-143084386D01*
X199454353Y-143108188D01*
X199453346Y-143111780D01*
X199449096Y-143117530D01*
X199439664Y-143121664D01*
X199422378Y-143124437D01*
X199394566Y-143126107D01*
X199353556Y-143126928D01*
X199296676Y-143127157D01*
X199292900Y-143127158D01*
X199233404Y-143127230D01*
X199190420Y-143128064D01*
X199161765Y-143130581D01*
X199145257Y-143135705D01*
X199138711Y-143144361D01*
X199139944Y-143157471D01*
X199146772Y-143175958D01*
X199151391Y-143187002D01*
X199172972Y-143221375D01*
X199204252Y-143241407D01*
X199247747Y-143248614D01*
X199253691Y-143248689D01*
X199303264Y-143241650D01*
X199345143Y-143223806D01*
X199370514Y-143210862D01*
X199388246Y-143203443D01*
X199393540Y-143202772D01*
X199409454Y-143226707D01*
X199425276Y-143252172D01*
X199438070Y-143274210D01*
X199444897Y-143287864D01*
X199445221Y-143289968D01*
X199370984Y-143333988D01*
X199297590Y-143359426D01*
X199225152Y-143366251D01*
X199178802Y-143360726D01*
X199132136Y-143347131D01*
X199093103Y-143325234D01*
X199054841Y-143290977D01*
X199047193Y-143282846D01*
X199014717Y-143239347D01*
X198993463Y-143189884D01*
X198982451Y-143130988D01*
X198980704Y-143059190D01*
X198981108Y-143048682D01*
X198983277Y-143014975D01*
X199136870Y-143014975D01*
X199299743Y-143014975D01*
X199294630Y-142976855D01*
X199284113Y-142937372D01*
X199264530Y-142913666D01*
X199234609Y-142904521D01*
X199219237Y-142904683D01*
X199183994Y-142914970D01*
X199159063Y-142940198D01*
X199143741Y-142981104D01*
X199143006Y-142984592D01*
X199136870Y-143014975D01*
X198983277Y-143014975D01*
X198983998Y-143003766D01*
X198988937Y-142971004D01*
X198997429Y-142943859D01*
X199010981Y-142915796D01*
X199012232Y-142913492D01*
X199048840Y-142859923D01*
X199092400Y-142822527D01*
X199145234Y-142799971D01*
X199209663Y-142790921D01*
X199226215Y-142790610D01*
X199291108Y-142798657D01*
G37*
G36*
X198091650Y-143983873D02*
G01*
X198091977Y-144060125D01*
X198092789Y-144119799D01*
X198094200Y-144165010D01*
X198096323Y-144197873D01*
X198099272Y-144220504D01*
X198103159Y-144235017D01*
X198105342Y-144239635D01*
X198115159Y-144258619D01*
X198119033Y-144269331D01*
X198111724Y-144276841D01*
X198092290Y-144290309D01*
X198066435Y-144305940D01*
X198013505Y-144336223D01*
X197972831Y-144285213D01*
X197938663Y-144305372D01*
X197896959Y-144321743D01*
X197846599Y-144329569D01*
X197795887Y-144328179D01*
X197760174Y-144319805D01*
X197713142Y-144294151D01*
X197680839Y-144257164D01*
X197662382Y-144207804D01*
X197661480Y-144203302D01*
X197658482Y-144178048D01*
X197655870Y-144138020D01*
X197653803Y-144087139D01*
X197652439Y-144029325D01*
X197651937Y-143968501D01*
X197651937Y-143967429D01*
X197651987Y-143904227D01*
X197652321Y-143857237D01*
X197653214Y-143823971D01*
X197654940Y-143801945D01*
X197657774Y-143788672D01*
X197661991Y-143781667D01*
X197667865Y-143778442D01*
X197672971Y-143777136D01*
X197729126Y-143764685D01*
X197767326Y-143756917D01*
X197787712Y-143753803D01*
X197789063Y-143753739D01*
X197792954Y-143759544D01*
X197796141Y-143778017D01*
X197798710Y-143810477D01*
X197800749Y-143858245D01*
X197802345Y-143922638D01*
X197803086Y-143967109D01*
X197804422Y-144040672D01*
X197806123Y-144097495D01*
X197808324Y-144139531D01*
X197811161Y-144168734D01*
X197814770Y-144187059D01*
X197819019Y-144196148D01*
X197839050Y-144207646D01*
X197868394Y-144211233D01*
X197899391Y-144206842D01*
X197920965Y-144197036D01*
X197927890Y-144191588D01*
X197933076Y-144184586D01*
X197936773Y-144173488D01*
X197939234Y-144155755D01*
X197940710Y-144128845D01*
X197941453Y-144090218D01*
X197941713Y-144037331D01*
X197941742Y-143987023D01*
X197941709Y-143919853D01*
X197942125Y-143868967D01*
X197943763Y-143831953D01*
X197947394Y-143806401D01*
X197953792Y-143789898D01*
X197963727Y-143780035D01*
X197977973Y-143774400D01*
X197997301Y-143770581D01*
X198011856Y-143768125D01*
X198041685Y-143762566D01*
X198066981Y-143757302D01*
X198070285Y-143756533D01*
X198091319Y-143751483D01*
X198091650Y-143983873D01*
G37*
G36*
X200219776Y-143765822D02*
G01*
X200266570Y-143787636D01*
X200278232Y-143796469D01*
X200306481Y-143820240D01*
X200337086Y-143796927D01*
X200383598Y-143771207D01*
X200435051Y-143758768D01*
X200486875Y-143759520D01*
X200534500Y-143773376D01*
X200573356Y-143800248D01*
X200574584Y-143801510D01*
X200601403Y-143829480D01*
X200606255Y-144018197D01*
X200608208Y-144085024D01*
X200610355Y-144135903D01*
X200612966Y-144173582D01*
X200616313Y-144200810D01*
X200620668Y-144220336D01*
X200626303Y-144234909D01*
X200627979Y-144238166D01*
X200638081Y-144258693D01*
X200642092Y-144270629D01*
X200641824Y-144271580D01*
X200629723Y-144279309D01*
X200608482Y-144292179D01*
X200583375Y-144307078D01*
X200559679Y-144320896D01*
X200542669Y-144330522D01*
X200537453Y-144333120D01*
X200529832Y-144327017D01*
X200515526Y-144312316D01*
X200515315Y-144312086D01*
X200497646Y-144291038D01*
X200484721Y-144270009D01*
X200475816Y-144245630D01*
X200470206Y-144214529D01*
X200467168Y-144173334D01*
X200465979Y-144118676D01*
X200465850Y-144081782D01*
X200465292Y-144028973D01*
X200463753Y-143981196D01*
X200461434Y-143942287D01*
X200458538Y-143916083D01*
X200456732Y-143908370D01*
X200441051Y-143889413D01*
X200415417Y-143884532D01*
X200382350Y-143893878D01*
X200365353Y-143902985D01*
X200334970Y-143921509D01*
X200334970Y-144314423D01*
X200185744Y-144314423D01*
X200183232Y-144101744D01*
X200180719Y-143889064D01*
X200147999Y-143885916D01*
X200113242Y-143888870D01*
X200084896Y-143899074D01*
X200054514Y-143915380D01*
X200054514Y-144314423D01*
X199905808Y-144314423D01*
X199902990Y-144069024D01*
X199901956Y-144002495D01*
X199900494Y-143941656D01*
X199898710Y-143889153D01*
X199896709Y-143847636D01*
X199894596Y-143819752D01*
X199892661Y-143808450D01*
X199891534Y-143799449D01*
X199900413Y-143791761D01*
X199922426Y-143783529D01*
X199945868Y-143776840D01*
X199989570Y-143767215D01*
X200018119Y-143766443D01*
X200032908Y-143774665D01*
X200035816Y-143785937D01*
X200039769Y-143798463D01*
X200052876Y-143796939D01*
X200069649Y-143786738D01*
X200115830Y-143765117D01*
X200167701Y-143758230D01*
X200219776Y-143765822D01*
G37*
G36*
X198471595Y-143756220D02*
G01*
X198512648Y-143763379D01*
X198553811Y-143773538D01*
X198589479Y-143785243D01*
X198614045Y-143797043D01*
X198618859Y-143800805D01*
X198621054Y-143814116D01*
X198614990Y-143836141D01*
X198603557Y-143861203D01*
X198589644Y-143883622D01*
X198576143Y-143897723D01*
X198568553Y-143899626D01*
X198550935Y-143893461D01*
X198524828Y-143883823D01*
X198516678Y-143880741D01*
X198472480Y-143869085D01*
X198433867Y-143868562D01*
X198403858Y-143878356D01*
X198385472Y-143897650D01*
X198381124Y-143917400D01*
X198387141Y-143936493D01*
X198406441Y-143952498D01*
X198440900Y-143966503D01*
X198485763Y-143978153D01*
X198545011Y-143995837D01*
X198588947Y-144019977D01*
X198620361Y-144052353D01*
X198631841Y-144071399D01*
X198648119Y-144121740D01*
X198647260Y-144172862D01*
X198630418Y-144221668D01*
X198598748Y-144265064D01*
X198553404Y-144299954D01*
X198544910Y-144304564D01*
X198494244Y-144322478D01*
X198433782Y-144331169D01*
X198370161Y-144330339D01*
X198310013Y-144319689D01*
X198296987Y-144315692D01*
X198245491Y-144296996D01*
X198211551Y-144281558D01*
X198195496Y-144269536D01*
X198194153Y-144265869D01*
X198197941Y-144254032D01*
X198207405Y-144232651D01*
X198219695Y-144207434D01*
X198231961Y-144184089D01*
X198241351Y-144168325D01*
X198244598Y-144164846D01*
X198254196Y-144168429D01*
X198275790Y-144177754D01*
X198300504Y-144188890D01*
X198339289Y-144203471D01*
X198381234Y-144214548D01*
X198403282Y-144218122D01*
X198434619Y-144220103D01*
X198454387Y-144216975D01*
X198469346Y-144207321D01*
X198473424Y-144203426D01*
X198490068Y-144177013D01*
X198491376Y-144149928D01*
X198477423Y-144127394D01*
X198472272Y-144123540D01*
X198452806Y-144114879D01*
X198421498Y-144105045D01*
X198384927Y-144096089D01*
X198382827Y-144095649D01*
X198343840Y-144085731D01*
X198307588Y-144073421D01*
X198282104Y-144061481D01*
X198246706Y-144029499D01*
X198224505Y-143988003D01*
X198215718Y-143940936D01*
X198220562Y-143892243D01*
X198239255Y-143845866D01*
X198268216Y-143809252D01*
X198309061Y-143779263D01*
X198357716Y-143761206D01*
X198417944Y-143753832D01*
X198436257Y-143753510D01*
X198471595Y-143756220D01*
G37*
G36*
X196983767Y-143568301D02*
G01*
X197000799Y-143570911D01*
X197009757Y-143575988D01*
X197013650Y-143582571D01*
X197017770Y-143596010D01*
X197025900Y-143624821D01*
X197037298Y-143666295D01*
X197051225Y-143717721D01*
X197066940Y-143776387D01*
X197078247Y-143818950D01*
X197094260Y-143878586D01*
X197108653Y-143930575D01*
X197120784Y-143972730D01*
X197130010Y-144002863D01*
X197135691Y-144018787D01*
X197137246Y-144019944D01*
X197139883Y-144005912D01*
X197146835Y-143976632D01*
X197157395Y-143934864D01*
X197170857Y-143883370D01*
X197186513Y-143824912D01*
X197197054Y-143786230D01*
X197256031Y-143571214D01*
X197450943Y-143571214D01*
X197480466Y-143898413D01*
X197487540Y-143976757D01*
X197494246Y-144050940D01*
X197500357Y-144118461D01*
X197505648Y-144176820D01*
X197509892Y-144223516D01*
X197512862Y-144256049D01*
X197514151Y-144270018D01*
X197518313Y-144314423D01*
X197364817Y-144314423D01*
X197359213Y-144251320D01*
X197356773Y-144221205D01*
X197353486Y-144176860D01*
X197349666Y-144122716D01*
X197345626Y-144063203D01*
X197342301Y-144012453D01*
X197330994Y-143836688D01*
X197281306Y-144012453D01*
X197264400Y-144072008D01*
X197247791Y-144130077D01*
X197232691Y-144182452D01*
X197220314Y-144224924D01*
X197212347Y-144251722D01*
X197193076Y-144315227D01*
X197058304Y-144309749D01*
X196995866Y-144080710D01*
X196979030Y-144019750D01*
X196963852Y-143966329D01*
X196950977Y-143922592D01*
X196941052Y-143890686D01*
X196934720Y-143872758D01*
X196932628Y-143870367D01*
X196931735Y-143885092D01*
X196929709Y-143915342D01*
X196926764Y-143957994D01*
X196923118Y-144009925D01*
X196918986Y-144068011D01*
X196918076Y-144080710D01*
X196913896Y-144139880D01*
X196910213Y-144193731D01*
X196907236Y-144239090D01*
X196905172Y-144272788D01*
X196904226Y-144291654D01*
X196904189Y-144293389D01*
X196903079Y-144303593D01*
X196897441Y-144309818D01*
X196883575Y-144313045D01*
X196857780Y-144314252D01*
X196824734Y-144314423D01*
X196745415Y-144314423D01*
X196750871Y-144260669D01*
X196753044Y-144238484D01*
X196756695Y-144200324D01*
X196761574Y-144148827D01*
X196767434Y-144086636D01*
X196774023Y-144016391D01*
X196781095Y-143940734D01*
X196785910Y-143889064D01*
X196815493Y-143571214D01*
X196911357Y-143568548D01*
X196955131Y-143567675D01*
X196983767Y-143568301D01*
G37*
G36*
X196229169Y-142588022D02*
G01*
X196282375Y-142597650D01*
X196316339Y-142608544D01*
X196351635Y-142622745D01*
X196383008Y-142637808D01*
X196405200Y-142651288D01*
X196412195Y-142658016D01*
X196410084Y-142669355D01*
X196397301Y-142693708D01*
X196373505Y-142731673D01*
X196348430Y-142769135D01*
X196340124Y-142766362D01*
X196319836Y-142757241D01*
X196296766Y-142746103D01*
X196229286Y-142723007D01*
X196187607Y-142717431D01*
X196154547Y-142716040D01*
X196133477Y-142718367D01*
X196117782Y-142726284D01*
X196100847Y-142741661D01*
X196100426Y-142742081D01*
X196082585Y-142764400D01*
X196072721Y-142785439D01*
X196072033Y-142790506D01*
X196074970Y-142813884D01*
X196085737Y-142831848D01*
X196107264Y-142846720D01*
X196142484Y-142860822D01*
X196172731Y-142870270D01*
X196251986Y-142896444D01*
X196314189Y-142923975D01*
X196360982Y-142954472D01*
X196394009Y-142989541D01*
X196414913Y-143030789D01*
X196425337Y-143079824D01*
X196427278Y-143119232D01*
X196419603Y-143183465D01*
X196395979Y-143238666D01*
X196355505Y-143286898D01*
X196353166Y-143289034D01*
X196303869Y-143322554D01*
X196242163Y-143347348D01*
X196172687Y-143362365D01*
X196100079Y-143366556D01*
X196037429Y-143360482D01*
X196013201Y-143354742D01*
X195981356Y-143345336D01*
X195946468Y-143333870D01*
X195913111Y-143321949D01*
X195885858Y-143311181D01*
X195869284Y-143303171D01*
X195866365Y-143300405D01*
X195869929Y-143291380D01*
X195879328Y-143269802D01*
X195892619Y-143240120D01*
X195894293Y-143236423D01*
X195922222Y-143174828D01*
X195973094Y-143198118D01*
X196016787Y-143214640D01*
X196064438Y-143227113D01*
X196109780Y-143234314D01*
X196146543Y-143235019D01*
X196155448Y-143233679D01*
X196199603Y-143221338D01*
X196228020Y-143205250D01*
X196243640Y-143182451D01*
X196249406Y-143149974D01*
X196249655Y-143138751D01*
X196245529Y-143109836D01*
X196231587Y-143086651D01*
X196205481Y-143067310D01*
X196164865Y-143049931D01*
X196122674Y-143036826D01*
X196057836Y-143016677D01*
X196008591Y-142996354D01*
X195971928Y-142973822D01*
X195944834Y-142947050D01*
X195924298Y-142914003D01*
X195917000Y-142897991D01*
X195901938Y-142839725D01*
X195903777Y-142780929D01*
X195921084Y-142724750D01*
X195952427Y-142674335D01*
X195996375Y-142632830D01*
X196050968Y-142603579D01*
X196103439Y-142590511D01*
X196165375Y-142585260D01*
X196229169Y-142588022D01*
G37*
G36*
X193708086Y-143225592D02*
G01*
X193811748Y-143227276D01*
X193908734Y-143230238D01*
X193995470Y-143234476D01*
X194068386Y-143239992D01*
X194090141Y-143242243D01*
X194306965Y-143271779D01*
X194508475Y-143309616D01*
X194694367Y-143355664D01*
X194864335Y-143409830D01*
X195018076Y-143472022D01*
X195155283Y-143542151D01*
X195218637Y-143580841D01*
X195284257Y-143628158D01*
X195348171Y-143682937D01*
X195406910Y-143741615D01*
X195457006Y-143800626D01*
X195494989Y-143856405D01*
X195505182Y-143875315D01*
X195542171Y-143967724D01*
X195561221Y-144060309D01*
X195562861Y-144156155D01*
X195559434Y-144190935D01*
X195534868Y-144313452D01*
X195492080Y-144437797D01*
X195431407Y-144563554D01*
X195353189Y-144690304D01*
X195257764Y-144817632D01*
X195145471Y-144945119D01*
X195016648Y-145072350D01*
X194871635Y-145198905D01*
X194710771Y-145324369D01*
X194543286Y-145442362D01*
X194286644Y-145607698D01*
X194027986Y-145760369D01*
X193769364Y-145899291D01*
X193512830Y-146023382D01*
X193260437Y-146131558D01*
X193173984Y-146165259D01*
X193114006Y-146187377D01*
X193046637Y-146211120D01*
X192974345Y-146235721D01*
X192899600Y-146260410D01*
X192824872Y-146284416D01*
X192752631Y-146306971D01*
X192685346Y-146327306D01*
X192625487Y-146344650D01*
X192575525Y-146358234D01*
X192537927Y-146367288D01*
X192515166Y-146371044D01*
X192513317Y-146371103D01*
X192504150Y-146362285D01*
X192500893Y-146336136D01*
X192500888Y-146334700D01*
X192502854Y-146286144D01*
X192508198Y-146225965D01*
X192516088Y-146160756D01*
X192525691Y-146097112D01*
X192536176Y-146041625D01*
X192539936Y-146025207D01*
X192567999Y-145926321D01*
X192602705Y-145836079D01*
X192646197Y-145750524D01*
X192700617Y-145665700D01*
X192768110Y-145577650D01*
X192807652Y-145530921D01*
X192851984Y-145476082D01*
X192883297Y-145426742D01*
X192903843Y-145377616D01*
X192915874Y-145323416D01*
X192921387Y-145264005D01*
X192926247Y-145171224D01*
X193075824Y-145113425D01*
X193306375Y-145020528D01*
X193518315Y-144927205D01*
X193711626Y-144833465D01*
X193886291Y-144739318D01*
X194042291Y-144644773D01*
X194130105Y-144585623D01*
X194178523Y-144548800D01*
X194231824Y-144503642D01*
X194286600Y-144453473D01*
X194339447Y-144401619D01*
X194386959Y-144351402D01*
X194425731Y-144306148D01*
X194449257Y-144274089D01*
X194496182Y-144187706D01*
X194527066Y-144098847D01*
X194541647Y-144009698D01*
X194539660Y-143922444D01*
X194520843Y-143839270D01*
X194506164Y-143802329D01*
X194468111Y-143740917D01*
X194412908Y-143684245D01*
X194341614Y-143632804D01*
X194255286Y-143587083D01*
X194154982Y-143547570D01*
X194041760Y-143514755D01*
X193916679Y-143489128D01*
X193792774Y-143472396D01*
X193740156Y-143468561D01*
X193672819Y-143466192D01*
X193594675Y-143465209D01*
X193509640Y-143465535D01*
X193421626Y-143467089D01*
X193334548Y-143469794D01*
X193252319Y-143473569D01*
X193178852Y-143478337D01*
X193118062Y-143484018D01*
X193099195Y-143486387D01*
X192931232Y-143512967D01*
X192763151Y-143546159D01*
X192597179Y-143585242D01*
X192435540Y-143629497D01*
X192280462Y-143678203D01*
X192134171Y-143730639D01*
X191998891Y-143786085D01*
X191876851Y-143843822D01*
X191770275Y-143903128D01*
X191728070Y-143930059D01*
X191644161Y-143992662D01*
X191577760Y-144056355D01*
X191529091Y-144120757D01*
X191498380Y-144185483D01*
X191485853Y-144250151D01*
X191491735Y-144314378D01*
X191494771Y-144325880D01*
X191518412Y-144379687D01*
X191555744Y-144424202D01*
X191607475Y-144459807D01*
X191674310Y-144486885D01*
X191756956Y-144505815D01*
X191847158Y-144516334D01*
X191931153Y-144518231D01*
X192029024Y-144512868D01*
X192137717Y-144500917D01*
X192254175Y-144483047D01*
X192375344Y-144459929D01*
X192498166Y-144432233D01*
X192619587Y-144400628D01*
X192736552Y-144365784D01*
X192846003Y-144328373D01*
X192944886Y-144289063D01*
X193001035Y-144263306D01*
X193090375Y-144214477D01*
X193162734Y-144163726D01*
X193217734Y-144111447D01*
X193254997Y-144058038D01*
X193274144Y-144003893D01*
X193276818Y-143974718D01*
X193268735Y-143922173D01*
X193244609Y-143879010D01*
X193204624Y-143845325D01*
X193148966Y-143821214D01*
X193077818Y-143806770D01*
X192991365Y-143802090D01*
X192944944Y-143803317D01*
X192853967Y-143811347D01*
X192761122Y-143826137D01*
X192668874Y-143846785D01*
X192579688Y-143872386D01*
X192496032Y-143902036D01*
X192420370Y-143934832D01*
X192355168Y-143969870D01*
X192302893Y-144006246D01*
X192266010Y-144043056D01*
X192257552Y-144055284D01*
X192240730Y-144093328D01*
X192241090Y-144124033D01*
X192258596Y-144147352D01*
X192293212Y-144163238D01*
X192344302Y-144171595D01*
X192385560Y-144172169D01*
X192433113Y-144168591D01*
X192483540Y-144161638D01*
X192533419Y-144152085D01*
X192579331Y-144140707D01*
X192617855Y-144128280D01*
X192645569Y-144115580D01*
X192659053Y-144103381D01*
X192659813Y-144100069D01*
X192652044Y-144097474D01*
X192631452Y-144102149D01*
X192614360Y-144108247D01*
X192569338Y-144123141D01*
X192515409Y-144136756D01*
X192459818Y-144147604D01*
X192409812Y-144154197D01*
X192384125Y-144155498D01*
X192343758Y-144151833D01*
X192309650Y-144141992D01*
X192285883Y-144127701D01*
X192276539Y-144110689D01*
X192276523Y-144109949D01*
X192285543Y-144082612D01*
X192311657Y-144053390D01*
X192353445Y-144023013D01*
X192409487Y-143992210D01*
X192478365Y-143961712D01*
X192558657Y-143932247D01*
X192648945Y-143904547D01*
X192705224Y-143889603D01*
X192804673Y-143867156D01*
X192890154Y-143853581D01*
X192964055Y-143848696D01*
X193028767Y-143852318D01*
X193076197Y-143861392D01*
X193130390Y-143882055D01*
X193168440Y-143910751D01*
X193190152Y-143945755D01*
X193195332Y-143985344D01*
X193183784Y-144027792D01*
X193155315Y-144071375D01*
X193109730Y-144114368D01*
X193105128Y-144117888D01*
X193046711Y-144155601D01*
X192971819Y-144193750D01*
X192882635Y-144231598D01*
X192781344Y-144268408D01*
X192670131Y-144303441D01*
X192551180Y-144335960D01*
X192426674Y-144365226D01*
X192298800Y-144390503D01*
X192297171Y-144390794D01*
X192233813Y-144400000D01*
X192162246Y-144406904D01*
X192086165Y-144411469D01*
X192009264Y-144413662D01*
X191935238Y-144413448D01*
X191867781Y-144410791D01*
X191810590Y-144405658D01*
X191767358Y-144398012D01*
X191759629Y-144395849D01*
X191710635Y-144374942D01*
X191669540Y-144346298D01*
X191639977Y-144313063D01*
X191625854Y-144279952D01*
X191625520Y-144229092D01*
X191643532Y-144177718D01*
X191679930Y-144125804D01*
X191734753Y-144073325D01*
X191808038Y-144020253D01*
X191899824Y-143966564D01*
X192010151Y-143912231D01*
X192139057Y-143857229D01*
X192286580Y-143801532D01*
X192398054Y-143763080D01*
X192599051Y-143701222D01*
X192790673Y-143653138D01*
X192975684Y-143618378D01*
X193156847Y-143596494D01*
X193336925Y-143587039D01*
X193477811Y-143587985D01*
X193617813Y-143596400D01*
X193746344Y-143612192D01*
X193862687Y-143634998D01*
X193966124Y-143664452D01*
X194055938Y-143700191D01*
X194131411Y-143741850D01*
X194191825Y-143789066D01*
X194236463Y-143841474D01*
X194264606Y-143898709D01*
X194275538Y-143960409D01*
X194274393Y-143992175D01*
X194264383Y-144043266D01*
X194244119Y-144093003D01*
X194211926Y-144144216D01*
X194166128Y-144199734D01*
X194127594Y-144240149D01*
X194039698Y-144319743D01*
X193936975Y-144396493D01*
X193818451Y-144471012D01*
X193683157Y-144543911D01*
X193533903Y-144614131D01*
X193341893Y-144694798D01*
X193152228Y-144765436D01*
X192961797Y-144826850D01*
X192767487Y-144879848D01*
X192566186Y-144925234D01*
X192354783Y-144963816D01*
X192130165Y-144996398D01*
X191996067Y-145012479D01*
X191931827Y-145018306D01*
X191855850Y-145022966D01*
X191771192Y-145026460D01*
X191680908Y-145028787D01*
X191588054Y-145029946D01*
X191495687Y-145029935D01*
X191406864Y-145028756D01*
X191324639Y-145026406D01*
X191252069Y-145022886D01*
X191192210Y-145018194D01*
X191150023Y-145012673D01*
X191032391Y-144987418D01*
X190931753Y-144955925D01*
X190847300Y-144917675D01*
X190778223Y-144872146D01*
X190723716Y-144818818D01*
X190682969Y-144757169D01*
X190657806Y-144695471D01*
X190643985Y-144630295D01*
X190643726Y-144564244D01*
X190657451Y-144494321D01*
X190685583Y-144417528D01*
X190702091Y-144381903D01*
X190760007Y-144282381D01*
X190835804Y-144183723D01*
X190928665Y-144086532D01*
X191037778Y-143991410D01*
X191162326Y-143898959D01*
X191301495Y-143809781D01*
X191454471Y-143724479D01*
X191620437Y-143643654D01*
X191798580Y-143567909D01*
X191809096Y-143563753D01*
X192016473Y-143486942D01*
X192221774Y-143421004D01*
X192428797Y-143365024D01*
X192641344Y-143318090D01*
X192863214Y-143279286D01*
X193098207Y-143247699D01*
X193145938Y-143242297D01*
X193214646Y-143236322D01*
X193298110Y-143231624D01*
X193392759Y-143228201D01*
X193495019Y-143226055D01*
X193601318Y-143225185D01*
X193708086Y-143225592D01*
G37*
D13*
X158990000Y-141576000D02*
X158990000Y-153076000D01*
X152427230Y-140858600D02*
X152490000Y-141576000D01*
X152427230Y-140858600D02*
X152412280Y-140798300D01*
X152412280Y-140798300D02*
X152381160Y-140747400D01*
X152381160Y-140747400D02*
X152326240Y-140701800D01*
X152341760Y-140711500D02*
X152341760Y-141576000D01*
X152326240Y-140701800D02*
X152290000Y-140685800D01*
X152290000Y-140685800D02*
X152290000Y-141576000D01*
X151675270Y-140817000D02*
X151675270Y-141576000D01*
X151459680Y-140874800D02*
X151459680Y-141576000D01*
X150453760Y-141144400D02*
X152176230Y-140682800D01*
X150453760Y-141144400D02*
X150453760Y-141576000D01*
X150289930Y-141188200D02*
X150289930Y-141576000D01*
X150253760Y-141197900D02*
X150453760Y-141144400D01*
X150253760Y-141197900D02*
X150253760Y-141576000D01*
X149690000Y-141576000D02*
X149690000Y-141076000D01*
X149690000Y-141076000D02*
X149390000Y-140776000D01*
X149545360Y-141076000D02*
X149690000Y-141076000D01*
X149545360Y-141076000D02*
X149545360Y-141576000D01*
X149427390Y-141076000D02*
X149427390Y-141576000D01*
X149353840Y-140776000D02*
X149545360Y-141076000D01*
X149353840Y-140776000D02*
X149390000Y-140776000D01*
X149324350Y-140776000D02*
X149427390Y-141076000D01*
X148450709Y-141076000D02*
X149545360Y-141076000D01*
X148450709Y-141076000D02*
X148450709Y-141576000D01*
X148433469Y-141076000D02*
X148433469Y-141576000D01*
X148330431Y-140776000D02*
X148433469Y-141076000D01*
X148259200Y-140776000D02*
X149353840Y-140776000D01*
X148259200Y-140776000D02*
X148450709Y-141076000D01*
X147444119Y-140776000D02*
X148259200Y-140776000D01*
X147444119Y-140776000D02*
X147146591Y-141076000D01*
X147395769Y-140776000D02*
X147444119Y-140776000D01*
X147395769Y-140776000D02*
X147098241Y-141076000D01*
X147390000Y-140776000D02*
X147395769Y-140776000D01*
X147390000Y-140776000D02*
X147090000Y-141076000D01*
X147146591Y-141076000D02*
X148450709Y-141076000D01*
X147146591Y-141076000D02*
X147146591Y-141576000D01*
X147098241Y-141076000D02*
X147146591Y-141076000D01*
X147098241Y-141076000D02*
X147098241Y-141576000D01*
X147090000Y-141076000D02*
X147098241Y-141076000D01*
X147090000Y-141076000D02*
X147090000Y-141576000D01*
X143092740Y-147426000D02*
X143092740Y-151826000D01*
X143092740Y-142426000D02*
X143092740Y-146826000D01*
X143040000Y-151576000D02*
X143040000Y-150326000D01*
X143040000Y-150326000D02*
X143040000Y-148226000D01*
X143040000Y-148226000D02*
X143040000Y-147176000D01*
X143040000Y-146576000D02*
X143040000Y-145326000D01*
X143040000Y-145326000D02*
X143040000Y-143226000D01*
X143040000Y-143226000D02*
X143040000Y-142176000D01*
X142990000Y-141576000D02*
X142990000Y-153076000D01*
X142797160Y-141576000D02*
X142797160Y-153076000D01*
X142690000Y-153076000D02*
X158990000Y-153076000D01*
X142690000Y-151770009D02*
X143040000Y-151576000D01*
X142690000Y-151446469D02*
X143040000Y-151278459D01*
X142690000Y-151177031D02*
X143040000Y-151009009D01*
X142690000Y-150520010D02*
X143040000Y-150326000D01*
X142690000Y-148031990D02*
X143040000Y-148226000D01*
X142690000Y-148017800D02*
X143040000Y-148039660D01*
X142690000Y-147494970D02*
X143040000Y-147662990D01*
X142690000Y-147074970D02*
X143040000Y-147242990D01*
X142690000Y-146981990D02*
X143040000Y-147176000D01*
X142690000Y-146770010D02*
X143040000Y-146576000D01*
X142690000Y-146446470D02*
X143040000Y-146278460D01*
X142690000Y-146177030D02*
X143040000Y-146009010D01*
X142690000Y-145520010D02*
X143040000Y-145326000D01*
X142690000Y-143031990D02*
X143040000Y-143226000D01*
X142690000Y-143017800D02*
X143040000Y-143039660D01*
X142690000Y-142494970D02*
X143040000Y-142662990D01*
X142690000Y-142074970D02*
X143040000Y-142242990D01*
X142690000Y-141981990D02*
X143040000Y-142176000D01*
X142690000Y-141576000D02*
X158990000Y-141576000D01*
X142690000Y-141576000D02*
X142690000Y-153076000D01*
X142578510Y-147426000D02*
X142578510Y-151826000D01*
X142578510Y-142426000D02*
X142578510Y-146826000D01*
X141790000Y-151826000D02*
X145219140Y-151826000D01*
X141790000Y-147426000D02*
X145219140Y-147426000D01*
X141790000Y-146826000D02*
X145219140Y-146826000D01*
X141790000Y-142426000D02*
X145219140Y-142426000D01*
X140040000Y-151143281D02*
X140003390Y-151059231D01*
X140040000Y-148108720D02*
X140040000Y-151143281D01*
X140040000Y-146143280D02*
X140003390Y-146059230D01*
X140040000Y-143108720D02*
X140040000Y-146143280D01*
X140003390Y-151059231D02*
X139974420Y-150971419D01*
X140003390Y-146059230D02*
X139974420Y-145971420D01*
X140003070Y-148193620D02*
X140040000Y-148108720D01*
X140003070Y-143193620D02*
X140040000Y-143108720D01*
X139974420Y-150971419D02*
X139913440Y-150730141D01*
X139974420Y-148280580D02*
X140003070Y-148193620D01*
X139974420Y-145971420D02*
X139913440Y-145730140D01*
X139974420Y-143280580D02*
X140003070Y-143193620D01*
X139913440Y-150730141D02*
X139864580Y-150486360D01*
X139913440Y-145730140D02*
X139864580Y-145486360D01*
X139913180Y-148523000D02*
X139974420Y-148280580D01*
X139913180Y-143523000D02*
X139974420Y-143280580D01*
X139879300Y-148685230D02*
X139879300Y-150566770D01*
X139879300Y-143685230D02*
X139879300Y-145566770D01*
X139864580Y-150486360D02*
X139832460Y-150276220D01*
X139864580Y-148765640D02*
X139913180Y-148523000D01*
X139864580Y-145486360D02*
X139832460Y-145276220D01*
X139864580Y-143765640D02*
X139913180Y-143523000D01*
X139832460Y-150276220D02*
X139809330Y-150065230D01*
X139832460Y-145276220D02*
X139809330Y-145065230D01*
X139832190Y-148977850D02*
X139864580Y-148765640D01*
X139832190Y-143977850D02*
X139864580Y-143765640D01*
X139809330Y-150065230D02*
X139790020Y-149639800D01*
X139809330Y-145065230D02*
X139790020Y-144639800D01*
X139809050Y-149190010D02*
X139832190Y-148977850D01*
X139809050Y-144190010D02*
X139832190Y-143977850D01*
X139790020Y-149639800D02*
X139790000Y-149626000D01*
X139790020Y-149612200D02*
X139809050Y-149190010D01*
X139790020Y-144639800D02*
X139790000Y-144626000D01*
X139790020Y-144612200D02*
X139809050Y-144190010D01*
X139790000Y-149626000D02*
X139790020Y-149612200D01*
X139790000Y-144626000D02*
X139790020Y-144612200D01*
X152290000Y-140685800D02*
G75*
G03*
X152176230Y-140682801I-61939J-190175D01*
G01*
X140653380Y-151661110D02*
G75*
G03*
X141790000Y-151825997I1136620J3835110D01*
G01*
X140653379Y-146661113D02*
G75*
G03*
X141790000Y-146826000I1136621J3835113D01*
G01*
X140039963Y-151143299D02*
G75*
G03*
X140653380Y-151661116I897537J440999D01*
G01*
X141790000Y-147426004D02*
G75*
G03*
X140653380Y-147590891I0J-3999996D01*
G01*
X140039960Y-146143299D02*
G75*
G03*
X140653380Y-146661119I897540J440999D01*
G01*
X141790000Y-142426004D02*
G75*
G03*
X140653380Y-142590891I0J-3999996D01*
G01*
X140653380Y-147590889D02*
G75*
G03*
X140040010Y-148108720I284160J-958771D01*
G01*
X140653380Y-142590889D02*
G75*
G03*
X140040010Y-143108720I284160J-958771D01*
G01*
D14*
X195386748Y-137007000D02*
X195909252Y-137007000D01*
X195386748Y-138477000D02*
X195909252Y-138477000D01*
X204272000Y-131118000D02*
X200822000Y-131118000D01*
X204272000Y-131118000D02*
X206222000Y-131118000D01*
X204272000Y-136238000D02*
X202322000Y-136238000D01*
X204272000Y-136238000D02*
X206222000Y-136238000D01*
X199438748Y-137007000D02*
X199961252Y-137007000D01*
X199438748Y-138477000D02*
X199961252Y-138477000D01*
X191558000Y-140512000D02*
X191558000Y-134192000D01*
X191558000Y-134192000D02*
X183548000Y-134192000D01*
X183548000Y-140512000D02*
X191558000Y-140512000D01*
D13*
X213982000Y-152049984D02*
X213982000Y-140549984D01*
X220544770Y-152767384D02*
X220482000Y-152049984D01*
X220544770Y-152767384D02*
X220559720Y-152827684D01*
X220559720Y-152827684D02*
X220590840Y-152878584D01*
X220590840Y-152878584D02*
X220645760Y-152924184D01*
X220630240Y-152914484D02*
X220630240Y-152049984D01*
X220645760Y-152924184D02*
X220682000Y-152940184D01*
X220682000Y-152940184D02*
X220682000Y-152049984D01*
X221296730Y-152808984D02*
X221296730Y-152049984D01*
X221512320Y-152751184D02*
X221512320Y-152049984D01*
X222518240Y-152481584D02*
X220795770Y-152943184D01*
X222518240Y-152481584D02*
X222518240Y-152049984D01*
X222682070Y-152437784D02*
X222682070Y-152049984D01*
X222718240Y-152428084D02*
X222518240Y-152481584D01*
X222718240Y-152428084D02*
X222718240Y-152049984D01*
X223282000Y-152049984D02*
X223282000Y-152549984D01*
X223282000Y-152549984D02*
X223582000Y-152849984D01*
X223426640Y-152549984D02*
X223282000Y-152549984D01*
X223426640Y-152549984D02*
X223426640Y-152049984D01*
X223544610Y-152549984D02*
X223544610Y-152049984D01*
X223618160Y-152849984D02*
X223426640Y-152549984D01*
X223618160Y-152849984D02*
X223582000Y-152849984D01*
X223647650Y-152849984D02*
X223544610Y-152549984D01*
X224521291Y-152549984D02*
X223426640Y-152549984D01*
X224521291Y-152549984D02*
X224521291Y-152049984D01*
X224538531Y-152549984D02*
X224538531Y-152049984D01*
X224641569Y-152849984D02*
X224538531Y-152549984D01*
X224712800Y-152849984D02*
X223618160Y-152849984D01*
X224712800Y-152849984D02*
X224521291Y-152549984D01*
X225527881Y-152849984D02*
X224712800Y-152849984D01*
X225527881Y-152849984D02*
X225825409Y-152549984D01*
X225576231Y-152849984D02*
X225527881Y-152849984D01*
X225576231Y-152849984D02*
X225873759Y-152549984D01*
X225582000Y-152849984D02*
X225576231Y-152849984D01*
X225582000Y-152849984D02*
X225882000Y-152549984D01*
X225825409Y-152549984D02*
X224521291Y-152549984D01*
X225825409Y-152549984D02*
X225825409Y-152049984D01*
X225873759Y-152549984D02*
X225825409Y-152549984D01*
X225873759Y-152549984D02*
X225873759Y-152049984D01*
X225882000Y-152549984D02*
X225873759Y-152549984D01*
X225882000Y-152549984D02*
X225882000Y-152049984D01*
X229879260Y-146199984D02*
X229879260Y-141799984D01*
X229879260Y-151199984D02*
X229879260Y-146799984D01*
X229932000Y-142049984D02*
X229932000Y-143299984D01*
X229932000Y-143299984D02*
X229932000Y-145399984D01*
X229932000Y-145399984D02*
X229932000Y-146449984D01*
X229932000Y-147049984D02*
X229932000Y-148299984D01*
X229932000Y-148299984D02*
X229932000Y-150399984D01*
X229932000Y-150399984D02*
X229932000Y-151449984D01*
X229982000Y-152049984D02*
X229982000Y-140549984D01*
X230174840Y-152049984D02*
X230174840Y-140549984D01*
X230282000Y-140549984D02*
X213982000Y-140549984D01*
X230282000Y-141855975D02*
X229932000Y-142049984D01*
X230282000Y-142179515D02*
X229932000Y-142347525D01*
X230282000Y-142448953D02*
X229932000Y-142616975D01*
X230282000Y-143105974D02*
X229932000Y-143299984D01*
X230282000Y-145593994D02*
X229932000Y-145399984D01*
X230282000Y-145608184D02*
X229932000Y-145586324D01*
X230282000Y-146131014D02*
X229932000Y-145962994D01*
X230282000Y-146551014D02*
X229932000Y-146382994D01*
X230282000Y-146643994D02*
X229932000Y-146449984D01*
X230282000Y-146855974D02*
X229932000Y-147049984D01*
X230282000Y-147179514D02*
X229932000Y-147347524D01*
X230282000Y-147448954D02*
X229932000Y-147616974D01*
X230282000Y-148105974D02*
X229932000Y-148299984D01*
X230282000Y-150593994D02*
X229932000Y-150399984D01*
X230282000Y-150608184D02*
X229932000Y-150586324D01*
X230282000Y-151131014D02*
X229932000Y-150962994D01*
X230282000Y-151551014D02*
X229932000Y-151382994D01*
X230282000Y-151643994D02*
X229932000Y-151449984D01*
X230282000Y-152049984D02*
X213982000Y-152049984D01*
X230282000Y-152049984D02*
X230282000Y-140549984D01*
X230393490Y-146199984D02*
X230393490Y-141799984D01*
X230393490Y-151199984D02*
X230393490Y-146799984D01*
X231182000Y-141799984D02*
X227752860Y-141799984D01*
X231182000Y-146199984D02*
X227752860Y-146199984D01*
X231182000Y-146799984D02*
X227752860Y-146799984D01*
X231182000Y-151199984D02*
X227752860Y-151199984D01*
X232932000Y-142482703D02*
X232968610Y-142566753D01*
X232932000Y-145517264D02*
X232932000Y-142482703D01*
X232932000Y-147482704D02*
X232968610Y-147566754D01*
X232932000Y-150517264D02*
X232932000Y-147482704D01*
X232968610Y-142566753D02*
X232997580Y-142654565D01*
X232968610Y-147566754D02*
X232997580Y-147654564D01*
X232968930Y-145432364D02*
X232932000Y-145517264D01*
X232968930Y-150432364D02*
X232932000Y-150517264D01*
X232997580Y-142654565D02*
X233058560Y-142895843D01*
X232997580Y-145345404D02*
X232968930Y-145432364D01*
X232997580Y-147654564D02*
X233058560Y-147895844D01*
X232997580Y-150345404D02*
X232968930Y-150432364D01*
X233058560Y-142895843D02*
X233107420Y-143139624D01*
X233058560Y-147895844D02*
X233107420Y-148139624D01*
X233058820Y-145102984D02*
X232997580Y-145345404D01*
X233058820Y-150102984D02*
X232997580Y-150345404D01*
X233092700Y-144940754D02*
X233092700Y-143059214D01*
X233092700Y-149940754D02*
X233092700Y-148059214D01*
X233107420Y-143139624D02*
X233139540Y-143349764D01*
X233107420Y-144860344D02*
X233058820Y-145102984D01*
X233107420Y-148139624D02*
X233139540Y-148349764D01*
X233107420Y-149860344D02*
X233058820Y-150102984D01*
X233139540Y-143349764D02*
X233162670Y-143560754D01*
X233139540Y-148349764D02*
X233162670Y-148560754D01*
X233139810Y-144648134D02*
X233107420Y-144860344D01*
X233139810Y-149648134D02*
X233107420Y-149860344D01*
X233162670Y-143560754D02*
X233181980Y-143986184D01*
X233162670Y-148560754D02*
X233181980Y-148986184D01*
X233162950Y-144435974D02*
X233139810Y-144648134D01*
X233162950Y-149435974D02*
X233139810Y-149648134D01*
X233181980Y-143986184D02*
X233182000Y-143999984D01*
X233181980Y-144013784D02*
X233162950Y-144435974D01*
X233181980Y-148986184D02*
X233182000Y-148999984D01*
X233181980Y-149013784D02*
X233162950Y-149435974D01*
X233182000Y-143999984D02*
X233181980Y-144013784D01*
X233182000Y-148999984D02*
X233181980Y-149013784D01*
X220682000Y-152940184D02*
G75*
G03*
X220795770Y-152943183I61939J190175D01*
G01*
X232318620Y-141964874D02*
G75*
G03*
X231182000Y-141799987I-1136620J-3835110D01*
G01*
X232318621Y-146964871D02*
G75*
G03*
X231182000Y-146799984I-1136621J-3835113D01*
G01*
X232932037Y-142482685D02*
G75*
G03*
X232318620Y-141964868I-897537J-440999D01*
G01*
X231182000Y-146199980D02*
G75*
G03*
X232318620Y-146035093I0J3999996D01*
G01*
X232932040Y-147482685D02*
G75*
G03*
X232318620Y-146964865I-897540J-440999D01*
G01*
X231182000Y-151199980D02*
G75*
G03*
X232318620Y-151035093I0J3999996D01*
G01*
X232318620Y-146035095D02*
G75*
G03*
X232931990Y-145517264I-284160J958771D01*
G01*
X232318620Y-151035095D02*
G75*
G03*
X232931990Y-150517264I-284160J958771D01*
G01*
D14*
X193208000Y-132964000D02*
X193478000Y-132964000D01*
X193478000Y-132964000D02*
X193478000Y-135794000D01*
X199838000Y-132964000D02*
X199838000Y-134064000D01*
X200108000Y-132964000D02*
X199838000Y-132964000D01*
X193208000Y-126544000D02*
X193208000Y-132964000D01*
X200108000Y-126544000D02*
X200108000Y-132964000D01*
D12*
X181864000Y-128726500D02*
X192024000Y-128726500D01*
X192024000Y-128726500D02*
X192024000Y-120546500D01*
X192024000Y-120546500D02*
X181864000Y-120546500D01*
X181864000Y-120546500D02*
X181864000Y-128726500D01*
%LPC*%
D15*
X224790000Y-138532000D03*
D16*
X218290000Y-135897000D03*
X218290000Y-124047000D03*
D15*
X224790000Y-121412000D03*
D17*
X217244000Y-133542000D03*
X217270000Y-132522000D03*
X217244000Y-131502000D03*
X217244000Y-130482000D03*
X217244000Y-129462000D03*
X217244000Y-128442000D03*
X217244000Y-127422000D03*
X217244000Y-126402000D03*
D15*
X148336000Y-121426000D03*
D16*
X154836000Y-124061000D03*
X154836000Y-135911000D03*
D15*
X148336000Y-138546000D03*
D18*
X155882000Y-126416000D03*
X155856000Y-127436000D03*
X155882000Y-128456000D03*
X155882000Y-129476000D03*
X155882000Y-130496000D03*
X155882000Y-131516000D03*
X155882000Y-132536000D03*
X155882000Y-133556000D03*
D19*
X176024000Y-138881000D03*
D20*
X176024000Y-128581000D03*
D19*
X168524000Y-138881000D03*
D20*
X168524000Y-128581000D03*
D21*
X156090000Y-149276000D03*
X147890000Y-149276000D03*
X156090000Y-144276000D03*
X147890000Y-144276000D03*
D22*
X194698000Y-137742000D03*
X196598000Y-137742000D03*
D23*
X201797000Y-131773000D03*
X201797000Y-133043000D03*
X201797000Y-134313000D03*
X201797000Y-135583000D03*
X206747000Y-135583000D03*
X206747000Y-134313000D03*
X206747000Y-133043000D03*
X206747000Y-131773000D03*
D22*
X198750000Y-137742000D03*
X200650000Y-137742000D03*
D24*
X204913000Y-149417000D03*
D25*
X190298000Y-137352000D03*
X184098000Y-137352000D03*
D21*
X216882000Y-144349984D03*
X225082000Y-144349984D03*
X216882000Y-149349984D03*
X225082000Y-149349984D03*
D24*
X210755000Y-123255000D03*
D26*
X194378000Y-134694000D03*
D27*
X196658000Y-128394000D03*
D26*
X198938000Y-134694000D03*
D24*
X168210000Y-149417000D03*
D28*
X183134000Y-131776500D03*
D29*
X185674000Y-131776500D03*
X188214000Y-131776500D03*
X190754000Y-131776500D03*
D24*
X162749000Y-123255000D03*
%LPD*%
M02*
