G04 #@! TF.GenerationSoftware,KiCad,Pcbnew,7.0.9*
G04 #@! TF.CreationDate,2024-08-07T11:51:21-05:00*
G04 #@! TF.ProjectId,led_segment,6c65645f-7365-4676-9d65-6e742e6b6963,rev?*
G04 #@! TF.SameCoordinates,Original*
G04 #@! TF.FileFunction,Copper,L2,Bot*
G04 #@! TF.FilePolarity,Positive*
%FSLAX46Y46*%
G04 Gerber Fmt 4.6, Leading zero omitted, Abs format (unit mm)*
G04 Created by KiCad (PCBNEW 7.0.9) date 2024-08-07 11:51:21*
%MOMM*%
%LPD*%
G01*
G04 APERTURE LIST*
G04 Aperture macros list*
%AMRoundRect*
0 Rectangle with rounded corners*
0 $1 Rounding radius*
0 $2 $3 $4 $5 $6 $7 $8 $9 X,Y pos of 4 corners*
0 Add a 4 corners polygon primitive as box body*
4,1,4,$2,$3,$4,$5,$6,$7,$8,$9,$2,$3,0*
0 Add four circle primitives for the rounded corners*
1,1,$1+$1,$2,$3*
1,1,$1+$1,$4,$5*
1,1,$1+$1,$6,$7*
1,1,$1+$1,$8,$9*
0 Add four rect primitives between the rounded corners*
20,1,$1+$1,$2,$3,$4,$5,0*
20,1,$1+$1,$4,$5,$6,$7,0*
20,1,$1+$1,$6,$7,$8,$9,0*
20,1,$1+$1,$8,$9,$2,$3,0*%
G04 Aperture macros list end*
G04 #@! TA.AperFunction,ComponentPad*
%ADD10R,4.300000X2.550000*%
G04 #@! TD*
G04 #@! TA.AperFunction,ComponentPad*
%ADD11C,2.600000*%
G04 #@! TD*
G04 #@! TA.AperFunction,ComponentPad*
%ADD12C,2.900000*%
G04 #@! TD*
G04 #@! TA.AperFunction,ComponentPad*
%ADD13O,3.860800X1.930400*%
G04 #@! TD*
G04 #@! TA.AperFunction,ComponentPad*
%ADD14RoundRect,0.250000X-0.620000X-0.845000X0.620000X-0.845000X0.620000X0.845000X-0.620000X0.845000X0*%
G04 #@! TD*
G04 #@! TA.AperFunction,ComponentPad*
%ADD15O,1.740000X2.190000*%
G04 #@! TD*
G04 #@! TA.AperFunction,ViaPad*
%ADD16C,0.800000*%
G04 #@! TD*
G04 #@! TA.AperFunction,Conductor*
%ADD17C,0.250000*%
G04 #@! TD*
G04 #@! TA.AperFunction,Conductor*
%ADD18C,7.000000*%
G04 #@! TD*
G04 #@! TA.AperFunction,Conductor*
%ADD19C,1.000000*%
G04 #@! TD*
G04 APERTURE END LIST*
D10*
X224790000Y-138532000D03*
X224790000Y-121412000D03*
X148336000Y-121426000D03*
X148336000Y-138546000D03*
D11*
X176024000Y-138881000D03*
D12*
X176024000Y-128581000D03*
D11*
X168524000Y-138881000D03*
D12*
X168524000Y-128581000D03*
D13*
X156090000Y-149276000D03*
X147890000Y-149276000D03*
X156090000Y-144276000D03*
X147890000Y-144276000D03*
X216882000Y-144349984D03*
X225082000Y-144349984D03*
X216882000Y-149349984D03*
X225082000Y-149349984D03*
D14*
X183134000Y-131776500D03*
D15*
X185674000Y-131776500D03*
X188214000Y-131776500D03*
X190754000Y-131776500D03*
D16*
X204526000Y-137742000D03*
X201738000Y-130240000D03*
D17*
X188214000Y-133350000D02*
X188214000Y-131776500D01*
X189738000Y-134874000D02*
X188214000Y-133350000D01*
X197104000Y-134874000D02*
X189738000Y-134874000D01*
X201738000Y-130240000D02*
X197104000Y-134874000D01*
D18*
X216882000Y-149349984D02*
X225082000Y-149349984D01*
D19*
X168524000Y-141536957D02*
X165993957Y-144067000D01*
D18*
X160784957Y-149276000D02*
X165993957Y-144067000D01*
X209036227Y-144067000D02*
X214319211Y-149349984D01*
X147890000Y-149276000D02*
X156090000Y-149276000D01*
X214319211Y-149349984D02*
X216882000Y-149349984D01*
X165993957Y-144067000D02*
X209036227Y-144067000D01*
D19*
X168524000Y-138881000D02*
X168524000Y-141536957D01*
D18*
X156090000Y-149276000D02*
X160784957Y-149276000D01*
G04 #@! TA.AperFunction,Conductor*
G36*
X185094315Y-131621174D02*
G01*
X185073866Y-131776500D01*
X185094315Y-131931826D01*
X185133530Y-132026500D01*
X183674470Y-132026500D01*
X183713685Y-131931826D01*
X183734134Y-131776500D01*
X183713685Y-131621174D01*
X183674470Y-131526500D01*
X185133530Y-131526500D01*
X185094315Y-131621174D01*
G37*
G04 #@! TD.AperFunction*
G04 #@! TA.AperFunction,Conductor*
G36*
X145628539Y-120099685D02*
G01*
X145674294Y-120152489D01*
X145685500Y-120204000D01*
X145685500Y-122748870D01*
X145685501Y-122748876D01*
X145691908Y-122808483D01*
X145742202Y-122943328D01*
X145742206Y-122943335D01*
X145828452Y-123058544D01*
X145828455Y-123058547D01*
X145943664Y-123144793D01*
X145943671Y-123144797D01*
X146078517Y-123195091D01*
X146078516Y-123195091D01*
X146085444Y-123195835D01*
X146138127Y-123201500D01*
X150533872Y-123201499D01*
X150593483Y-123195091D01*
X150728331Y-123144796D01*
X150843546Y-123058546D01*
X150929796Y-122943331D01*
X150980091Y-122808483D01*
X150986500Y-122748873D01*
X150986499Y-120203999D01*
X151006184Y-120136961D01*
X151058987Y-120091206D01*
X151110499Y-120080000D01*
X222015500Y-120080000D01*
X222082539Y-120099685D01*
X222128294Y-120152489D01*
X222139500Y-120204000D01*
X222139500Y-122734870D01*
X222139501Y-122734876D01*
X222145908Y-122794483D01*
X222196202Y-122929328D01*
X222196206Y-122929335D01*
X222282452Y-123044544D01*
X222282455Y-123044547D01*
X222397664Y-123130793D01*
X222397671Y-123130797D01*
X222532517Y-123181091D01*
X222532516Y-123181091D01*
X222539444Y-123181835D01*
X222592127Y-123187500D01*
X226987872Y-123187499D01*
X227047483Y-123181091D01*
X227182331Y-123130796D01*
X227297546Y-123044546D01*
X227383796Y-122929331D01*
X227434091Y-122794483D01*
X227440500Y-122734873D01*
X227440499Y-120203999D01*
X227460184Y-120136961D01*
X227512987Y-120091206D01*
X227564499Y-120080000D01*
X228080341Y-120080000D01*
X228117224Y-120085613D01*
X228258465Y-120129625D01*
X228263696Y-120131520D01*
X228414376Y-120193933D01*
X228570988Y-120264419D01*
X228575535Y-120266694D01*
X228719746Y-120346397D01*
X228865779Y-120434676D01*
X228869517Y-120437128D01*
X229003564Y-120532239D01*
X229005923Y-120533999D01*
X229138742Y-120638055D01*
X229141792Y-120640607D01*
X229264588Y-120750345D01*
X229267097Y-120752716D01*
X229386281Y-120871900D01*
X229388653Y-120874410D01*
X229498387Y-120997202D01*
X229500943Y-121000256D01*
X229605007Y-121133085D01*
X229606766Y-121135444D01*
X229701841Y-121269439D01*
X229704336Y-121273243D01*
X229787116Y-121410176D01*
X229805000Y-121474327D01*
X229805000Y-152215084D01*
X229785315Y-152282123D01*
X229732511Y-152327878D01*
X229682089Y-152339079D01*
X228042853Y-152353479D01*
X227975643Y-152334384D01*
X227929426Y-152281984D01*
X227918876Y-152212916D01*
X227947341Y-152149108D01*
X227948791Y-152147435D01*
X227949386Y-152146760D01*
X227949390Y-152146757D01*
X228213610Y-151847359D01*
X228446706Y-151523142D01*
X228646363Y-151177326D01*
X228810595Y-150813350D01*
X228937771Y-150434830D01*
X229026627Y-150045528D01*
X229076279Y-149649314D01*
X229080383Y-149484763D01*
X229086234Y-149250140D01*
X229086234Y-149250125D01*
X229073483Y-149079975D01*
X229056393Y-148851928D01*
X228987053Y-148458681D01*
X228878903Y-148074292D01*
X228876237Y-148067500D01*
X228733023Y-147702594D01*
X228733018Y-147702582D01*
X228550847Y-147347245D01*
X228334201Y-147011811D01*
X228085233Y-146699615D01*
X227806418Y-146413760D01*
X227500526Y-146157086D01*
X227170598Y-145932145D01*
X227170597Y-145932144D01*
X226880382Y-145774102D01*
X226830920Y-145724752D01*
X226815991Y-145656496D01*
X226840334Y-145591004D01*
X226871864Y-145561393D01*
X226950230Y-145510194D01*
X226950237Y-145510189D01*
X227128873Y-145345741D01*
X227128882Y-145345731D01*
X227278018Y-145154122D01*
X227278024Y-145154113D01*
X227393586Y-144940571D01*
X227393592Y-144940557D01*
X227472434Y-144710903D01*
X227490943Y-144599984D01*
X225682728Y-144599984D01*
X225705100Y-144552441D01*
X225735873Y-144391122D01*
X225725561Y-144227218D01*
X225684220Y-144099984D01*
X227490942Y-144099984D01*
X227490942Y-144099983D01*
X227472434Y-143989064D01*
X227393592Y-143759410D01*
X227393586Y-143759396D01*
X227278024Y-143545854D01*
X227278018Y-143545845D01*
X227128882Y-143354236D01*
X227128873Y-143354226D01*
X226950237Y-143189778D01*
X226950226Y-143189770D01*
X226746949Y-143056962D01*
X226524577Y-142959422D01*
X226524578Y-142959422D01*
X226289194Y-142899814D01*
X226289183Y-142899812D01*
X226107804Y-142884784D01*
X225332000Y-142884784D01*
X225332000Y-143745673D01*
X225323183Y-143740826D01*
X225164114Y-143699984D01*
X225041106Y-143699984D01*
X224919067Y-143715401D01*
X224832000Y-143749873D01*
X224832000Y-142884784D01*
X224056196Y-142884784D01*
X223874816Y-142899812D01*
X223874805Y-142899814D01*
X223639421Y-142959422D01*
X223417050Y-143056962D01*
X223213773Y-143189770D01*
X223213762Y-143189778D01*
X223035126Y-143354226D01*
X223035117Y-143354236D01*
X222885981Y-143545845D01*
X222885975Y-143545854D01*
X222770413Y-143759396D01*
X222770407Y-143759410D01*
X222691565Y-143989064D01*
X222673057Y-144099983D01*
X222673058Y-144099984D01*
X224481272Y-144099984D01*
X224458900Y-144147527D01*
X224428127Y-144308846D01*
X224438439Y-144472750D01*
X224479780Y-144599984D01*
X222673057Y-144599984D01*
X222691565Y-144710903D01*
X222770407Y-144940557D01*
X222770413Y-144940571D01*
X222885975Y-145154113D01*
X222888290Y-145157655D01*
X222908482Y-145224543D01*
X222889307Y-145291730D01*
X222836852Y-145337884D01*
X222784486Y-145349484D01*
X219179514Y-145349484D01*
X219112475Y-145329799D01*
X219066720Y-145276995D01*
X219056776Y-145207837D01*
X219075710Y-145157655D01*
X219078024Y-145154113D01*
X219193586Y-144940571D01*
X219193592Y-144940557D01*
X219272434Y-144710903D01*
X219290943Y-144599984D01*
X217482728Y-144599984D01*
X217505100Y-144552441D01*
X217535873Y-144391122D01*
X217525561Y-144227218D01*
X217484220Y-144099984D01*
X219290942Y-144099984D01*
X219290942Y-144099983D01*
X219272434Y-143989064D01*
X219193592Y-143759410D01*
X219193586Y-143759396D01*
X219078024Y-143545854D01*
X219078018Y-143545845D01*
X218928882Y-143354236D01*
X218928873Y-143354226D01*
X218750237Y-143189778D01*
X218750226Y-143189770D01*
X218546949Y-143056962D01*
X218324577Y-142959422D01*
X218324578Y-142959422D01*
X218089194Y-142899814D01*
X218089183Y-142899812D01*
X217907804Y-142884784D01*
X217132000Y-142884784D01*
X217132000Y-143745673D01*
X217123183Y-143740826D01*
X216964114Y-143699984D01*
X216841106Y-143699984D01*
X216719067Y-143715401D01*
X216632000Y-143749873D01*
X216632000Y-142884784D01*
X215856196Y-142884784D01*
X215674816Y-142899812D01*
X215674805Y-142899814D01*
X215439421Y-142959422D01*
X215217050Y-143056962D01*
X215013773Y-143189770D01*
X215013762Y-143189778D01*
X214835126Y-143354226D01*
X214835117Y-143354236D01*
X214685981Y-143545845D01*
X214685975Y-143545854D01*
X214584870Y-143732682D01*
X214535651Y-143782273D01*
X214467434Y-143797381D01*
X214401878Y-143773211D01*
X214388138Y-143761349D01*
X211882665Y-141255877D01*
X211760645Y-141130776D01*
X211760644Y-141130775D01*
X211760642Y-141130773D01*
X211760634Y-141130766D01*
X211665002Y-141050522D01*
X211572449Y-140966768D01*
X211513716Y-140923420D01*
X211510681Y-140921030D01*
X211454750Y-140874099D01*
X211351589Y-140803765D01*
X211251172Y-140729655D01*
X211251170Y-140729653D01*
X211251161Y-140729647D01*
X211188387Y-140692353D01*
X211185152Y-140690291D01*
X211124825Y-140649161D01*
X211124822Y-140649159D01*
X211124820Y-140649158D01*
X211015186Y-140589455D01*
X210907866Y-140525696D01*
X210907867Y-140525696D01*
X210841698Y-140494841D01*
X210838248Y-140493100D01*
X210774139Y-140458188D01*
X210774132Y-140458185D01*
X210774128Y-140458183D01*
X210659109Y-140409699D01*
X210545965Y-140356939D01*
X210545961Y-140356937D01*
X210545955Y-140356935D01*
X210545948Y-140356932D01*
X210477054Y-140332825D01*
X210473464Y-140331442D01*
X210434674Y-140315091D01*
X210406188Y-140303083D01*
X210406184Y-140303082D01*
X210406185Y-140303082D01*
X210406182Y-140303081D01*
X210286878Y-140266280D01*
X210169056Y-140225053D01*
X210169055Y-140225052D01*
X210169050Y-140225051D01*
X210098096Y-140207922D01*
X210094371Y-140206899D01*
X210058706Y-140195898D01*
X210024609Y-140185381D01*
X210024602Y-140185379D01*
X210024597Y-140185378D01*
X210024587Y-140185375D01*
X209902245Y-140160644D01*
X209780888Y-140131349D01*
X209708560Y-140121368D01*
X209704750Y-140120720D01*
X209662569Y-140112193D01*
X209633213Y-140106259D01*
X209633210Y-140106258D01*
X209633207Y-140106258D01*
X209509001Y-140093829D01*
X209385323Y-140076762D01*
X209312382Y-140074033D01*
X209308527Y-140073768D01*
X209235885Y-140066500D01*
X209235884Y-140066500D01*
X209111047Y-140066500D01*
X208986293Y-140061831D01*
X208940382Y-140064697D01*
X208913417Y-140066380D01*
X208909573Y-140066500D01*
X177633364Y-140066500D01*
X177566325Y-140046815D01*
X177520570Y-139994011D01*
X177510626Y-139924853D01*
X177525977Y-139880500D01*
X177532684Y-139868883D01*
X177540774Y-139854870D01*
X222139500Y-139854870D01*
X222139501Y-139854876D01*
X222145908Y-139914483D01*
X222196202Y-140049328D01*
X222196206Y-140049335D01*
X222282452Y-140164544D01*
X222282455Y-140164547D01*
X222397664Y-140250793D01*
X222397671Y-140250797D01*
X222532517Y-140301091D01*
X222532516Y-140301091D01*
X222539444Y-140301835D01*
X222592127Y-140307500D01*
X226987872Y-140307499D01*
X227047483Y-140301091D01*
X227182331Y-140250796D01*
X227297546Y-140164546D01*
X227383796Y-140049331D01*
X227434091Y-139914483D01*
X227440500Y-139854873D01*
X227440499Y-137209128D01*
X227434091Y-137149517D01*
X227433338Y-137147499D01*
X227383797Y-137014671D01*
X227383793Y-137014664D01*
X227297547Y-136899455D01*
X227297544Y-136899452D01*
X227182335Y-136813206D01*
X227182328Y-136813202D01*
X227047482Y-136762908D01*
X227047483Y-136762908D01*
X226987883Y-136756501D01*
X226987881Y-136756500D01*
X226987873Y-136756500D01*
X226987864Y-136756500D01*
X222592129Y-136756500D01*
X222592123Y-136756501D01*
X222532516Y-136762908D01*
X222397671Y-136813202D01*
X222397664Y-136813206D01*
X222282455Y-136899452D01*
X222282452Y-136899455D01*
X222196206Y-137014664D01*
X222196202Y-137014671D01*
X222145908Y-137149517D01*
X222140453Y-137200262D01*
X222139501Y-137209123D01*
X222139500Y-137209135D01*
X222139500Y-139854870D01*
X177540774Y-139854870D01*
X177650743Y-139664398D01*
X177749334Y-139413195D01*
X177809383Y-139150103D01*
X177829549Y-138881000D01*
X177809383Y-138611897D01*
X177749334Y-138348805D01*
X177650743Y-138097602D01*
X177515815Y-137863898D01*
X177347561Y-137652915D01*
X177347560Y-137652914D01*
X177347557Y-137652910D01*
X177149741Y-137469365D01*
X176926775Y-137317349D01*
X176926769Y-137317346D01*
X176926768Y-137317345D01*
X176926767Y-137317344D01*
X176683643Y-137200263D01*
X176683645Y-137200263D01*
X176425773Y-137120720D01*
X176425767Y-137120718D01*
X176158936Y-137080500D01*
X176158929Y-137080500D01*
X175889071Y-137080500D01*
X175889063Y-137080500D01*
X175622232Y-137120718D01*
X175622226Y-137120720D01*
X175364358Y-137200262D01*
X175121230Y-137317346D01*
X174898258Y-137469365D01*
X174700442Y-137652910D01*
X174532185Y-137863898D01*
X174397258Y-138097599D01*
X174397256Y-138097603D01*
X174298666Y-138348804D01*
X174298664Y-138348811D01*
X174238616Y-138611898D01*
X174218451Y-138880995D01*
X174218451Y-138881004D01*
X174238616Y-139150101D01*
X174298664Y-139413188D01*
X174298666Y-139413195D01*
X174397257Y-139664398D01*
X174515311Y-139868876D01*
X174522023Y-139880500D01*
X174538496Y-139948400D01*
X174515643Y-140014427D01*
X174460722Y-140057618D01*
X174414636Y-140066500D01*
X170133364Y-140066500D01*
X170066325Y-140046815D01*
X170020570Y-139994011D01*
X170010626Y-139924853D01*
X170025977Y-139880500D01*
X170032684Y-139868883D01*
X170150743Y-139664398D01*
X170249334Y-139413195D01*
X170309383Y-139150103D01*
X170329549Y-138881000D01*
X170309383Y-138611897D01*
X170249334Y-138348805D01*
X170150743Y-138097602D01*
X170015815Y-137863898D01*
X169847561Y-137652915D01*
X169847560Y-137652914D01*
X169847557Y-137652910D01*
X169649741Y-137469365D01*
X169426775Y-137317349D01*
X169426769Y-137317346D01*
X169426768Y-137317345D01*
X169426767Y-137317344D01*
X169183643Y-137200263D01*
X169183645Y-137200263D01*
X168925773Y-137120720D01*
X168925767Y-137120718D01*
X168658936Y-137080500D01*
X168658929Y-137080500D01*
X168389071Y-137080500D01*
X168389063Y-137080500D01*
X168122232Y-137120718D01*
X168122226Y-137120720D01*
X167864358Y-137200262D01*
X167621230Y-137317346D01*
X167398258Y-137469365D01*
X167200442Y-137652910D01*
X167032185Y-137863898D01*
X166897258Y-138097599D01*
X166897256Y-138097603D01*
X166798666Y-138348804D01*
X166798664Y-138348811D01*
X166738616Y-138611898D01*
X166718451Y-138880995D01*
X166718451Y-138881004D01*
X166738616Y-139150101D01*
X166798664Y-139413188D01*
X166798666Y-139413195D01*
X166897257Y-139664398D01*
X167015311Y-139868876D01*
X167022023Y-139880500D01*
X167038496Y-139948400D01*
X167015643Y-140014427D01*
X166960722Y-140057618D01*
X166914636Y-140066500D01*
X166018883Y-140066500D01*
X165844186Y-140064321D01*
X165719820Y-140075202D01*
X165595137Y-140081424D01*
X165522960Y-140092303D01*
X165519124Y-140092760D01*
X165446396Y-140099123D01*
X165323711Y-140122336D01*
X165200283Y-140140940D01*
X165129551Y-140158951D01*
X165125776Y-140159787D01*
X165054041Y-140173361D01*
X165013275Y-140185381D01*
X164934296Y-140208668D01*
X164813321Y-140239472D01*
X164813312Y-140239475D01*
X164744714Y-140264443D01*
X164741044Y-140265651D01*
X164671043Y-140286291D01*
X164671029Y-140286296D01*
X164555417Y-140333341D01*
X164438089Y-140376045D01*
X164372310Y-140407722D01*
X164368779Y-140409289D01*
X164301178Y-140436798D01*
X164301174Y-140436800D01*
X164190796Y-140495136D01*
X164078312Y-140549306D01*
X164016026Y-140587367D01*
X164012669Y-140589278D01*
X163948131Y-140623388D01*
X163948120Y-140623395D01*
X163844118Y-140692419D01*
X163737591Y-140757517D01*
X163679392Y-140801600D01*
X163676241Y-140803836D01*
X163615418Y-140844204D01*
X163518806Y-140923240D01*
X163419294Y-140998617D01*
X163419273Y-140998635D01*
X163365767Y-141048282D01*
X163362854Y-141050820D01*
X163306366Y-141097031D01*
X163306359Y-141097037D01*
X163218086Y-141185309D01*
X163126567Y-141270226D01*
X163126563Y-141270230D01*
X163078254Y-141324970D01*
X163075608Y-141327786D01*
X159164215Y-145239181D01*
X159102892Y-145272666D01*
X159076534Y-145275500D01*
X158387514Y-145275500D01*
X158320475Y-145255815D01*
X158274720Y-145203011D01*
X158264776Y-145133853D01*
X158283710Y-145083671D01*
X158286024Y-145080129D01*
X158401586Y-144866587D01*
X158401592Y-144866573D01*
X158480434Y-144636919D01*
X158498943Y-144526000D01*
X156690728Y-144526000D01*
X156713100Y-144478457D01*
X156743873Y-144317138D01*
X156733561Y-144153234D01*
X156692220Y-144026000D01*
X158498942Y-144026000D01*
X158498942Y-144025999D01*
X158480434Y-143915080D01*
X158401592Y-143685426D01*
X158401586Y-143685412D01*
X158286024Y-143471870D01*
X158286018Y-143471861D01*
X158136882Y-143280252D01*
X158136873Y-143280242D01*
X157958237Y-143115794D01*
X157958226Y-143115786D01*
X157754949Y-142982978D01*
X157532577Y-142885438D01*
X157532578Y-142885438D01*
X157297194Y-142825830D01*
X157297183Y-142825828D01*
X157115804Y-142810800D01*
X156340000Y-142810800D01*
X156340000Y-143671689D01*
X156331183Y-143666842D01*
X156172114Y-143626000D01*
X156049106Y-143626000D01*
X155927067Y-143641417D01*
X155840000Y-143675889D01*
X155840000Y-142810800D01*
X155064196Y-142810800D01*
X154882816Y-142825828D01*
X154882805Y-142825830D01*
X154647421Y-142885438D01*
X154425050Y-142982978D01*
X154221773Y-143115786D01*
X154221762Y-143115794D01*
X154043126Y-143280242D01*
X154043117Y-143280252D01*
X153893981Y-143471861D01*
X153893975Y-143471870D01*
X153778413Y-143685412D01*
X153778407Y-143685426D01*
X153699565Y-143915080D01*
X153681057Y-144025999D01*
X153681058Y-144026000D01*
X155489272Y-144026000D01*
X155466900Y-144073543D01*
X155436127Y-144234862D01*
X155446439Y-144398766D01*
X155487780Y-144526000D01*
X153681057Y-144526000D01*
X153699565Y-144636919D01*
X153778407Y-144866573D01*
X153778413Y-144866587D01*
X153893975Y-145080129D01*
X153896290Y-145083671D01*
X153916482Y-145150559D01*
X153897307Y-145217746D01*
X153844852Y-145263900D01*
X153792486Y-145275500D01*
X150187514Y-145275500D01*
X150120475Y-145255815D01*
X150074720Y-145203011D01*
X150064776Y-145133853D01*
X150083710Y-145083671D01*
X150086024Y-145080129D01*
X150201586Y-144866587D01*
X150201592Y-144866573D01*
X150280434Y-144636919D01*
X150298943Y-144526000D01*
X148490728Y-144526000D01*
X148513100Y-144478457D01*
X148543873Y-144317138D01*
X148533561Y-144153234D01*
X148492220Y-144026000D01*
X150298942Y-144026000D01*
X150298942Y-144025999D01*
X150280434Y-143915080D01*
X150201592Y-143685426D01*
X150201586Y-143685412D01*
X150086024Y-143471870D01*
X150086018Y-143471861D01*
X149936882Y-143280252D01*
X149936873Y-143280242D01*
X149758237Y-143115794D01*
X149758226Y-143115786D01*
X149554949Y-142982978D01*
X149332577Y-142885438D01*
X149332578Y-142885438D01*
X149097194Y-142825830D01*
X149097183Y-142825828D01*
X148915804Y-142810800D01*
X148140000Y-142810800D01*
X148140000Y-143671689D01*
X148131183Y-143666842D01*
X147972114Y-143626000D01*
X147849106Y-143626000D01*
X147727067Y-143641417D01*
X147640000Y-143675889D01*
X147640000Y-142810800D01*
X146864196Y-142810800D01*
X146682816Y-142825828D01*
X146682805Y-142825830D01*
X146447421Y-142885438D01*
X146225050Y-142982978D01*
X146021773Y-143115786D01*
X146021762Y-143115794D01*
X145843126Y-143280242D01*
X145843117Y-143280252D01*
X145693981Y-143471861D01*
X145693975Y-143471870D01*
X145578413Y-143685412D01*
X145578407Y-143685426D01*
X145499565Y-143915080D01*
X145481057Y-144025999D01*
X145481058Y-144026000D01*
X147289272Y-144026000D01*
X147266900Y-144073543D01*
X147236127Y-144234862D01*
X147246439Y-144398766D01*
X147287780Y-144526000D01*
X145481057Y-144526000D01*
X145499565Y-144636919D01*
X145578407Y-144866573D01*
X145578413Y-144866587D01*
X145693975Y-145080129D01*
X145693981Y-145080138D01*
X145843117Y-145271747D01*
X145843126Y-145271757D01*
X146021762Y-145436205D01*
X146021765Y-145436206D01*
X146101498Y-145488299D01*
X146146854Y-145541446D01*
X146156278Y-145610677D01*
X146126776Y-145674013D01*
X146087479Y-145703828D01*
X145974355Y-145758306D01*
X145633637Y-145966514D01*
X145633626Y-145966522D01*
X145315337Y-146207617D01*
X145315326Y-146207626D01*
X145022604Y-146479232D01*
X144758386Y-146778629D01*
X144525299Y-147102835D01*
X144525286Y-147102855D01*
X144325638Y-147448655D01*
X144161404Y-147812634D01*
X144034229Y-148191151D01*
X144034228Y-148191155D01*
X143945373Y-148580452D01*
X143895720Y-148976676D01*
X143885765Y-149375843D01*
X143885765Y-149375854D01*
X143915606Y-149774049D01*
X143915608Y-149774063D01*
X143984947Y-150167305D01*
X144093094Y-150551684D01*
X144093098Y-150551697D01*
X144238976Y-150923389D01*
X144238981Y-150923401D01*
X144415391Y-151267500D01*
X144421153Y-151278739D01*
X144637799Y-151614173D01*
X144886767Y-151926369D01*
X145165582Y-152212224D01*
X145471474Y-152468898D01*
X145801402Y-152693839D01*
X146071985Y-152841190D01*
X146121447Y-152890540D01*
X146136376Y-152958796D01*
X146112033Y-153024288D01*
X146056147Y-153066222D01*
X146013771Y-153074085D01*
X143264996Y-153098232D01*
X143197786Y-153079137D01*
X143157790Y-153038387D01*
X143149267Y-153024288D01*
X143081882Y-152912820D01*
X143064000Y-152848672D01*
X143064000Y-139868870D01*
X145685500Y-139868870D01*
X145685501Y-139868876D01*
X145691908Y-139928483D01*
X145742202Y-140063328D01*
X145742206Y-140063335D01*
X145828452Y-140178544D01*
X145828455Y-140178547D01*
X145943664Y-140264793D01*
X145943671Y-140264797D01*
X146078517Y-140315091D01*
X146078516Y-140315091D01*
X146085444Y-140315835D01*
X146138127Y-140321500D01*
X150533872Y-140321499D01*
X150593483Y-140315091D01*
X150728331Y-140264796D01*
X150843546Y-140178546D01*
X150929796Y-140063331D01*
X150980091Y-139928483D01*
X150986500Y-139868873D01*
X150986499Y-137223128D01*
X150980091Y-137163517D01*
X150979338Y-137161499D01*
X150929797Y-137028671D01*
X150929793Y-137028664D01*
X150843547Y-136913455D01*
X150843544Y-136913452D01*
X150728335Y-136827206D01*
X150728328Y-136827202D01*
X150593482Y-136776908D01*
X150593483Y-136776908D01*
X150533883Y-136770501D01*
X150533881Y-136770500D01*
X150533873Y-136770500D01*
X150533864Y-136770500D01*
X146138129Y-136770500D01*
X146138123Y-136770501D01*
X146078516Y-136776908D01*
X145943671Y-136827202D01*
X145943664Y-136827206D01*
X145828455Y-136913452D01*
X145828452Y-136913455D01*
X145742206Y-137028664D01*
X145742202Y-137028671D01*
X145691908Y-137163517D01*
X145687005Y-137209127D01*
X145685501Y-137223123D01*
X145685500Y-137223135D01*
X145685500Y-139868870D01*
X143064000Y-139868870D01*
X143064000Y-135967330D01*
X153581710Y-135967330D01*
X153611925Y-136190387D01*
X153611926Y-136190390D01*
X153681483Y-136404465D01*
X153788146Y-136602678D01*
X153788148Y-136602681D01*
X153928489Y-136778663D01*
X153928491Y-136778664D01*
X153928492Y-136778666D01*
X154098004Y-136926765D01*
X154291236Y-137042215D01*
X154500407Y-137120718D01*
X154501976Y-137121307D01*
X154723450Y-137161500D01*
X154723453Y-137161500D01*
X154892148Y-137161500D01*
X154892155Y-137161500D01*
X155060188Y-137146377D01*
X155060192Y-137146376D01*
X155277160Y-137086496D01*
X155277162Y-137086495D01*
X155277170Y-137086493D01*
X155479973Y-136988829D01*
X155662078Y-136856522D01*
X155817632Y-136693825D01*
X155941635Y-136505968D01*
X156030103Y-136298988D01*
X156080191Y-136079537D01*
X156085859Y-135953330D01*
X217035710Y-135953330D01*
X217065925Y-136176387D01*
X217065926Y-136176390D01*
X217135483Y-136390465D01*
X217242146Y-136588678D01*
X217242148Y-136588681D01*
X217382489Y-136764663D01*
X217382491Y-136764664D01*
X217382492Y-136764666D01*
X217552004Y-136912765D01*
X217745236Y-137028215D01*
X217955976Y-137107307D01*
X218177450Y-137147500D01*
X218177453Y-137147500D01*
X218346148Y-137147500D01*
X218346155Y-137147500D01*
X218514188Y-137132377D01*
X218556433Y-137120718D01*
X218731160Y-137072496D01*
X218731162Y-137072495D01*
X218731170Y-137072493D01*
X218933973Y-136974829D01*
X219116078Y-136842522D01*
X219271632Y-136679825D01*
X219395635Y-136491968D01*
X219484103Y-136284988D01*
X219534191Y-136065537D01*
X219544290Y-135840670D01*
X219514075Y-135617613D01*
X219444517Y-135403536D01*
X219440401Y-135395888D01*
X219337853Y-135205321D01*
X219337851Y-135205318D01*
X219197510Y-135029336D01*
X219124419Y-134965478D01*
X219027996Y-134881235D01*
X218834764Y-134765785D01*
X218716775Y-134721503D01*
X218624023Y-134686692D01*
X218402550Y-134646500D01*
X218402547Y-134646500D01*
X218233845Y-134646500D01*
X218195399Y-134649960D01*
X218065813Y-134661622D01*
X218065807Y-134661623D01*
X217848839Y-134721503D01*
X217848826Y-134721508D01*
X217646033Y-134819167D01*
X217646025Y-134819171D01*
X217463927Y-134951473D01*
X217463925Y-134951474D01*
X217308366Y-135114176D01*
X217184363Y-135302033D01*
X217095899Y-135509004D01*
X217095895Y-135509017D01*
X217045810Y-135728457D01*
X217045808Y-135728468D01*
X217035710Y-135953325D01*
X217035710Y-135953330D01*
X156085859Y-135953330D01*
X156090290Y-135854670D01*
X156060075Y-135631613D01*
X155990517Y-135417536D01*
X155883852Y-135219319D01*
X155743508Y-135043334D01*
X155573996Y-134895235D01*
X155380764Y-134779785D01*
X155262775Y-134735503D01*
X155170023Y-134700692D01*
X154948550Y-134660500D01*
X154948547Y-134660500D01*
X154779845Y-134660500D01*
X154741399Y-134663960D01*
X154611813Y-134675622D01*
X154611807Y-134675623D01*
X154394839Y-134735503D01*
X154394826Y-134735508D01*
X154192033Y-134833167D01*
X154192025Y-134833171D01*
X154009927Y-134965473D01*
X154009925Y-134965474D01*
X153854366Y-135128176D01*
X153730363Y-135316033D01*
X153641899Y-135523004D01*
X153641895Y-135523017D01*
X153591810Y-135742457D01*
X153591808Y-135742468D01*
X153581710Y-135967325D01*
X153581710Y-135967330D01*
X143064000Y-135967330D01*
X143064000Y-131526500D01*
X181764000Y-131526500D01*
X182593530Y-131526500D01*
X182554315Y-131621174D01*
X182533866Y-131776500D01*
X182554315Y-131931826D01*
X182593530Y-132026500D01*
X181764001Y-132026500D01*
X181764001Y-132671486D01*
X181774494Y-132774197D01*
X181829641Y-132940619D01*
X181829643Y-132940624D01*
X181921684Y-133089845D01*
X182045654Y-133213815D01*
X182194875Y-133305856D01*
X182194880Y-133305858D01*
X182361302Y-133361005D01*
X182361309Y-133361006D01*
X182464019Y-133371499D01*
X182883999Y-133371499D01*
X182884000Y-133371498D01*
X182884000Y-132316969D01*
X182978674Y-132356185D01*
X183095003Y-132371500D01*
X183172997Y-132371500D01*
X183289326Y-132356185D01*
X183384000Y-132316969D01*
X183384000Y-133371499D01*
X183803972Y-133371499D01*
X183803986Y-133371498D01*
X183906697Y-133361005D01*
X184073119Y-133305858D01*
X184073124Y-133305856D01*
X184222345Y-133213815D01*
X184346315Y-133089845D01*
X184438355Y-132940625D01*
X184439724Y-132937690D01*
X184441200Y-132936013D01*
X184442149Y-132934475D01*
X184442411Y-132934637D01*
X184485894Y-132885249D01*
X184553087Y-132866094D01*
X184619969Y-132886307D01*
X184641632Y-132904290D01*
X184765603Y-133033639D01*
X184765604Y-133033640D01*
X184953097Y-133172310D01*
X185161338Y-133277303D01*
X185384330Y-133345593D01*
X185384328Y-133345593D01*
X185423999Y-133350673D01*
X185424000Y-133350673D01*
X185424000Y-132316969D01*
X185518674Y-132356185D01*
X185635003Y-132371500D01*
X185712997Y-132371500D01*
X185829326Y-132356185D01*
X185924000Y-132316969D01*
X185924000Y-133349074D01*
X186076618Y-133316183D01*
X186076619Y-133316183D01*
X186293005Y-133229232D01*
X186491592Y-133106958D01*
X186666656Y-132952882D01*
X186666660Y-132952878D01*
X186813157Y-132771445D01*
X186813164Y-132771434D01*
X186835789Y-132730935D01*
X186885668Y-132682008D01*
X186954081Y-132667815D01*
X187019307Y-132692862D01*
X187046778Y-132721971D01*
X187080403Y-132771720D01*
X187143847Y-132865588D01*
X187305272Y-133034016D01*
X187492839Y-133172740D01*
X187518268Y-133185560D01*
X187569266Y-133233318D01*
X187586381Y-133292388D01*
X187588500Y-133359814D01*
X187588500Y-133389343D01*
X187588501Y-133389360D01*
X187589368Y-133396231D01*
X187589826Y-133402050D01*
X187591290Y-133448624D01*
X187591291Y-133448627D01*
X187596880Y-133467867D01*
X187600824Y-133486911D01*
X187603336Y-133506791D01*
X187620490Y-133550119D01*
X187622382Y-133555647D01*
X187635381Y-133600388D01*
X187645580Y-133617634D01*
X187654138Y-133635103D01*
X187661514Y-133653732D01*
X187688898Y-133691423D01*
X187692106Y-133696307D01*
X187715827Y-133736416D01*
X187715833Y-133736424D01*
X187729990Y-133750580D01*
X187742628Y-133765376D01*
X187754405Y-133781586D01*
X187754406Y-133781587D01*
X187790309Y-133811288D01*
X187794620Y-133815210D01*
X188930882Y-134951473D01*
X189237197Y-135257788D01*
X189247022Y-135270051D01*
X189247243Y-135269869D01*
X189252214Y-135275878D01*
X189273043Y-135295437D01*
X189302635Y-135323226D01*
X189323529Y-135344120D01*
X189329011Y-135348373D01*
X189333443Y-135352157D01*
X189367418Y-135384062D01*
X189384976Y-135393714D01*
X189401235Y-135404395D01*
X189417064Y-135416673D01*
X189459838Y-135435182D01*
X189465056Y-135437738D01*
X189505908Y-135460197D01*
X189525316Y-135465180D01*
X189543717Y-135471480D01*
X189562104Y-135479437D01*
X189605488Y-135486308D01*
X189608119Y-135486725D01*
X189613839Y-135487909D01*
X189658981Y-135499500D01*
X189679016Y-135499500D01*
X189698414Y-135501026D01*
X189718194Y-135504159D01*
X189718195Y-135504160D01*
X189718195Y-135504159D01*
X189718196Y-135504160D01*
X189764584Y-135499775D01*
X189770422Y-135499500D01*
X197021257Y-135499500D01*
X197036877Y-135501224D01*
X197036904Y-135500939D01*
X197044660Y-135501671D01*
X197044667Y-135501673D01*
X197113814Y-135499500D01*
X197143350Y-135499500D01*
X197150228Y-135498630D01*
X197156041Y-135498172D01*
X197202627Y-135496709D01*
X197221869Y-135491117D01*
X197240912Y-135487174D01*
X197260792Y-135484664D01*
X197304122Y-135467507D01*
X197309646Y-135465617D01*
X197313396Y-135464527D01*
X197354390Y-135452618D01*
X197371629Y-135442422D01*
X197389103Y-135433862D01*
X197407727Y-135426488D01*
X197407727Y-135426487D01*
X197407732Y-135426486D01*
X197445449Y-135399082D01*
X197450305Y-135395892D01*
X197490420Y-135372170D01*
X197504589Y-135357999D01*
X197519379Y-135345368D01*
X197535587Y-135333594D01*
X197565299Y-135297676D01*
X197569212Y-135293376D01*
X201685771Y-131176819D01*
X201747094Y-131143334D01*
X201773452Y-131140500D01*
X201832644Y-131140500D01*
X201832646Y-131140500D01*
X202017803Y-131101144D01*
X202190730Y-131024151D01*
X202343871Y-130912888D01*
X202470533Y-130772216D01*
X202565179Y-130608284D01*
X202623674Y-130428256D01*
X202643460Y-130240000D01*
X202623674Y-130051744D01*
X202565179Y-129871716D01*
X202470533Y-129707784D01*
X202343871Y-129567112D01*
X202343870Y-129567111D01*
X202190734Y-129455851D01*
X202190729Y-129455848D01*
X202017807Y-129378857D01*
X202017802Y-129378855D01*
X201872001Y-129347865D01*
X201832646Y-129339500D01*
X201643354Y-129339500D01*
X201610897Y-129346398D01*
X201458197Y-129378855D01*
X201458192Y-129378857D01*
X201285270Y-129455848D01*
X201285265Y-129455851D01*
X201132129Y-129567111D01*
X201005466Y-129707785D01*
X200910821Y-129871715D01*
X200910818Y-129871722D01*
X200852327Y-130051740D01*
X200852326Y-130051744D01*
X200844405Y-130127105D01*
X200834678Y-130219651D01*
X200808093Y-130284266D01*
X200799038Y-130294370D01*
X196881228Y-134212181D01*
X196819905Y-134245666D01*
X196793547Y-134248500D01*
X190048453Y-134248500D01*
X189981414Y-134228815D01*
X189960772Y-134212181D01*
X189031763Y-133283172D01*
X188998278Y-133221849D01*
X189003262Y-133152157D01*
X189037520Y-133102408D01*
X189115228Y-133034016D01*
X189207018Y-132953231D01*
X189353578Y-132771720D01*
X189376103Y-132731399D01*
X189425982Y-132682472D01*
X189494395Y-132668279D01*
X189559621Y-132693326D01*
X189587092Y-132722435D01*
X189683847Y-132865588D01*
X189683849Y-132865590D01*
X189845272Y-133034016D01*
X189845273Y-133034017D01*
X190032834Y-133172737D01*
X190032836Y-133172738D01*
X190032839Y-133172740D01*
X190241153Y-133277770D01*
X190464220Y-133346083D01*
X190695624Y-133375716D01*
X190928707Y-133365814D01*
X191156765Y-133316664D01*
X191373235Y-133229679D01*
X191571891Y-133107362D01*
X191747018Y-132953231D01*
X191893578Y-132771720D01*
X192007354Y-132568052D01*
X192085073Y-132348084D01*
X192124500Y-132118147D01*
X192124500Y-131493284D01*
X192109670Y-131319047D01*
X192050885Y-131093281D01*
X191954792Y-130880698D01*
X191824153Y-130687412D01*
X191662728Y-130518984D01*
X191662727Y-130518983D01*
X191662726Y-130518982D01*
X191475165Y-130380262D01*
X191468122Y-130376711D01*
X191266847Y-130275230D01*
X191043780Y-130206917D01*
X191043778Y-130206916D01*
X191043776Y-130206916D01*
X190812370Y-130177283D01*
X190579299Y-130187185D01*
X190579290Y-130187186D01*
X190351233Y-130236336D01*
X190351230Y-130236337D01*
X190134768Y-130323319D01*
X189936110Y-130445637D01*
X189760980Y-130599770D01*
X189760977Y-130599773D01*
X189614426Y-130781273D01*
X189614421Y-130781279D01*
X189591895Y-130821603D01*
X189542014Y-130870529D01*
X189473601Y-130884720D01*
X189408375Y-130859671D01*
X189380907Y-130830564D01*
X189375181Y-130822092D01*
X189284153Y-130687412D01*
X189122728Y-130518984D01*
X189122727Y-130518983D01*
X189122726Y-130518982D01*
X188935165Y-130380262D01*
X188928122Y-130376711D01*
X188726847Y-130275230D01*
X188503780Y-130206917D01*
X188503778Y-130206916D01*
X188503776Y-130206916D01*
X188272370Y-130177283D01*
X188039299Y-130187185D01*
X188039290Y-130187186D01*
X187811233Y-130236336D01*
X187811230Y-130236337D01*
X187594768Y-130323319D01*
X187396110Y-130445637D01*
X187220980Y-130599770D01*
X187220977Y-130599773D01*
X187074426Y-130781273D01*
X187074422Y-130781279D01*
X187051622Y-130822092D01*
X187001741Y-130871017D01*
X186933328Y-130885209D01*
X186868103Y-130860160D01*
X186840633Y-130831052D01*
X186743763Y-130687727D01*
X186582396Y-130519360D01*
X186582395Y-130519359D01*
X186394902Y-130380689D01*
X186186661Y-130275696D01*
X185963675Y-130207407D01*
X185963669Y-130207406D01*
X185924000Y-130202325D01*
X185924000Y-131236030D01*
X185829326Y-131196815D01*
X185712997Y-131181500D01*
X185635003Y-131181500D01*
X185518674Y-131196815D01*
X185424000Y-131236030D01*
X185424000Y-130203924D01*
X185423999Y-130203924D01*
X185271380Y-130236816D01*
X185271379Y-130236816D01*
X185054994Y-130323767D01*
X184856407Y-130446041D01*
X184681343Y-130600117D01*
X184648549Y-130640732D01*
X184591117Y-130680525D01*
X184521290Y-130682950D01*
X184461236Y-130647239D01*
X184439690Y-130615235D01*
X184438358Y-130612380D01*
X184346315Y-130463154D01*
X184222345Y-130339184D01*
X184073124Y-130247143D01*
X184073119Y-130247141D01*
X183906697Y-130191994D01*
X183906690Y-130191993D01*
X183803986Y-130181500D01*
X183384000Y-130181500D01*
X183384000Y-131236030D01*
X183289326Y-131196815D01*
X183172997Y-131181500D01*
X183095003Y-131181500D01*
X182978674Y-131196815D01*
X182884000Y-131236030D01*
X182884000Y-130181500D01*
X182464028Y-130181500D01*
X182464012Y-130181501D01*
X182361302Y-130191994D01*
X182194880Y-130247141D01*
X182194875Y-130247143D01*
X182045654Y-130339184D01*
X181921684Y-130463154D01*
X181829643Y-130612375D01*
X181829641Y-130612380D01*
X181774494Y-130778802D01*
X181774493Y-130778809D01*
X181764000Y-130881513D01*
X181764000Y-131526500D01*
X143064000Y-131526500D01*
X143064000Y-128581001D01*
X166568518Y-128581001D01*
X166588422Y-128859299D01*
X166647727Y-129131916D01*
X166647729Y-129131923D01*
X166708266Y-129294230D01*
X166745231Y-129393338D01*
X166745233Y-129393342D01*
X166878940Y-129638207D01*
X166878945Y-129638215D01*
X167046138Y-129861560D01*
X167046154Y-129861578D01*
X167243421Y-130058845D01*
X167243439Y-130058861D01*
X167466784Y-130226054D01*
X167466792Y-130226059D01*
X167711657Y-130359766D01*
X167711661Y-130359768D01*
X167711663Y-130359769D01*
X167973077Y-130457271D01*
X168109391Y-130486924D01*
X168245700Y-130516577D01*
X168245702Y-130516577D01*
X168245706Y-130516578D01*
X168493014Y-130534265D01*
X168523999Y-130536482D01*
X168524000Y-130536482D01*
X168524001Y-130536482D01*
X168551881Y-130534487D01*
X168802294Y-130516578D01*
X169074923Y-130457271D01*
X169336337Y-130359769D01*
X169581213Y-130226056D01*
X169804568Y-130058855D01*
X170001855Y-129861568D01*
X170169056Y-129638213D01*
X170302769Y-129393337D01*
X170400271Y-129131923D01*
X170459578Y-128859294D01*
X170479482Y-128581001D01*
X174068518Y-128581001D01*
X174088422Y-128859299D01*
X174147727Y-129131916D01*
X174147729Y-129131923D01*
X174208266Y-129294230D01*
X174245231Y-129393338D01*
X174245233Y-129393342D01*
X174378940Y-129638207D01*
X174378945Y-129638215D01*
X174546138Y-129861560D01*
X174546154Y-129861578D01*
X174743421Y-130058845D01*
X174743439Y-130058861D01*
X174966784Y-130226054D01*
X174966792Y-130226059D01*
X175211657Y-130359766D01*
X175211661Y-130359768D01*
X175211663Y-130359769D01*
X175473077Y-130457271D01*
X175609391Y-130486924D01*
X175745700Y-130516577D01*
X175745702Y-130516577D01*
X175745706Y-130516578D01*
X175993014Y-130534265D01*
X176023999Y-130536482D01*
X176024000Y-130536482D01*
X176024001Y-130536482D01*
X176051881Y-130534487D01*
X176302294Y-130516578D01*
X176574923Y-130457271D01*
X176836337Y-130359769D01*
X177081213Y-130226056D01*
X177304568Y-130058855D01*
X177501855Y-129861568D01*
X177669056Y-129638213D01*
X177802769Y-129393337D01*
X177900271Y-129131923D01*
X177959578Y-128859294D01*
X177979482Y-128581000D01*
X177959578Y-128302706D01*
X177900271Y-128030077D01*
X177802769Y-127768663D01*
X177669056Y-127523787D01*
X177669054Y-127523784D01*
X177501861Y-127300439D01*
X177501845Y-127300421D01*
X177304578Y-127103154D01*
X177304560Y-127103138D01*
X177081215Y-126935945D01*
X177081207Y-126935940D01*
X176836342Y-126802233D01*
X176836338Y-126802231D01*
X176737230Y-126765266D01*
X176574923Y-126704729D01*
X176574919Y-126704728D01*
X176574916Y-126704727D01*
X176302299Y-126645422D01*
X176024001Y-126625518D01*
X176023999Y-126625518D01*
X175745700Y-126645422D01*
X175473083Y-126704727D01*
X175473078Y-126704728D01*
X175473077Y-126704729D01*
X175409875Y-126728301D01*
X175211661Y-126802231D01*
X175211657Y-126802233D01*
X174966792Y-126935940D01*
X174966784Y-126935945D01*
X174743439Y-127103138D01*
X174743421Y-127103154D01*
X174546154Y-127300421D01*
X174546138Y-127300439D01*
X174378945Y-127523784D01*
X174378940Y-127523792D01*
X174245233Y-127768657D01*
X174245231Y-127768661D01*
X174147727Y-128030083D01*
X174088422Y-128302700D01*
X174068518Y-128580998D01*
X174068518Y-128581001D01*
X170479482Y-128581001D01*
X170479482Y-128581000D01*
X170459578Y-128302706D01*
X170400271Y-128030077D01*
X170302769Y-127768663D01*
X170169056Y-127523787D01*
X170169054Y-127523784D01*
X170001861Y-127300439D01*
X170001845Y-127300421D01*
X169804578Y-127103154D01*
X169804560Y-127103138D01*
X169581215Y-126935945D01*
X169581207Y-126935940D01*
X169336342Y-126802233D01*
X169336338Y-126802231D01*
X169237230Y-126765266D01*
X169074923Y-126704729D01*
X169074919Y-126704728D01*
X169074916Y-126704727D01*
X168802299Y-126645422D01*
X168524001Y-126625518D01*
X168523999Y-126625518D01*
X168245700Y-126645422D01*
X167973083Y-126704727D01*
X167973078Y-126704728D01*
X167973077Y-126704729D01*
X167909875Y-126728301D01*
X167711661Y-126802231D01*
X167711657Y-126802233D01*
X167466792Y-126935940D01*
X167466784Y-126935945D01*
X167243439Y-127103138D01*
X167243421Y-127103154D01*
X167046154Y-127300421D01*
X167046138Y-127300439D01*
X166878945Y-127523784D01*
X166878940Y-127523792D01*
X166745233Y-127768657D01*
X166745231Y-127768661D01*
X166647727Y-128030083D01*
X166588422Y-128302700D01*
X166568518Y-128580998D01*
X166568518Y-128581001D01*
X143064000Y-128581001D01*
X143064000Y-124117330D01*
X153581710Y-124117330D01*
X153611925Y-124340387D01*
X153611926Y-124340390D01*
X153681483Y-124554465D01*
X153788146Y-124752678D01*
X153788148Y-124752681D01*
X153928489Y-124928663D01*
X153928491Y-124928664D01*
X153928492Y-124928666D01*
X154098004Y-125076765D01*
X154291236Y-125192215D01*
X154501976Y-125271307D01*
X154723450Y-125311500D01*
X154723453Y-125311500D01*
X154892148Y-125311500D01*
X154892155Y-125311500D01*
X155060188Y-125296377D01*
X155060192Y-125296376D01*
X155277160Y-125236496D01*
X155277162Y-125236495D01*
X155277170Y-125236493D01*
X155479973Y-125138829D01*
X155662078Y-125006522D01*
X155817632Y-124843825D01*
X155941635Y-124655968D01*
X155989998Y-124542819D01*
X156030100Y-124448995D01*
X156030099Y-124448995D01*
X156030103Y-124448988D01*
X156080191Y-124229537D01*
X156090290Y-124004670D01*
X156060075Y-123781613D01*
X155990517Y-123567536D01*
X155883852Y-123369319D01*
X155846725Y-123322763D01*
X160894787Y-123322763D01*
X160924413Y-123592013D01*
X160924415Y-123592024D01*
X160992926Y-123854082D01*
X160992928Y-123854088D01*
X161098870Y-124103390D01*
X161167309Y-124215531D01*
X161239979Y-124334605D01*
X161239986Y-124334615D01*
X161413253Y-124542819D01*
X161413259Y-124542824D01*
X161518240Y-124636887D01*
X161614998Y-124723582D01*
X161840910Y-124873044D01*
X162086176Y-124988020D01*
X162086183Y-124988022D01*
X162086185Y-124988023D01*
X162345557Y-125066057D01*
X162345564Y-125066058D01*
X162345569Y-125066060D01*
X162613561Y-125105500D01*
X162613566Y-125105500D01*
X162816636Y-125105500D01*
X162868133Y-125101730D01*
X163019156Y-125090677D01*
X163144466Y-125062763D01*
X163283546Y-125031782D01*
X163283548Y-125031781D01*
X163283553Y-125031780D01*
X163536558Y-124935014D01*
X163772777Y-124802441D01*
X163987177Y-124636888D01*
X164175186Y-124441881D01*
X164332799Y-124221579D01*
X164406787Y-124077669D01*
X164456649Y-123980690D01*
X164456651Y-123980684D01*
X164456656Y-123980675D01*
X164544118Y-123724305D01*
X164593319Y-123457933D01*
X164598259Y-123322763D01*
X208900787Y-123322763D01*
X208930413Y-123592013D01*
X208930415Y-123592024D01*
X208998926Y-123854082D01*
X208998928Y-123854088D01*
X209104870Y-124103390D01*
X209173309Y-124215531D01*
X209245979Y-124334605D01*
X209245986Y-124334615D01*
X209419253Y-124542819D01*
X209419259Y-124542824D01*
X209524240Y-124636887D01*
X209620998Y-124723582D01*
X209846910Y-124873044D01*
X210092176Y-124988020D01*
X210092183Y-124988022D01*
X210092185Y-124988023D01*
X210351557Y-125066057D01*
X210351564Y-125066058D01*
X210351569Y-125066060D01*
X210619561Y-125105500D01*
X210619566Y-125105500D01*
X210822636Y-125105500D01*
X210874133Y-125101730D01*
X211025156Y-125090677D01*
X211150466Y-125062763D01*
X211289546Y-125031782D01*
X211289548Y-125031781D01*
X211289553Y-125031780D01*
X211542558Y-124935014D01*
X211778777Y-124802441D01*
X211993177Y-124636888D01*
X212181186Y-124441881D01*
X212338799Y-124221579D01*
X212399594Y-124103330D01*
X217035710Y-124103330D01*
X217065925Y-124326387D01*
X217065926Y-124326390D01*
X217135483Y-124540465D01*
X217242146Y-124738678D01*
X217242148Y-124738681D01*
X217382489Y-124914663D01*
X217382491Y-124914664D01*
X217382492Y-124914666D01*
X217552004Y-125062765D01*
X217745236Y-125178215D01*
X217955976Y-125257307D01*
X218177450Y-125297500D01*
X218177453Y-125297500D01*
X218346148Y-125297500D01*
X218346155Y-125297500D01*
X218514188Y-125282377D01*
X218554299Y-125271307D01*
X218731160Y-125222496D01*
X218731162Y-125222495D01*
X218731170Y-125222493D01*
X218933973Y-125124829D01*
X219116078Y-124992522D01*
X219271632Y-124829825D01*
X219395635Y-124641968D01*
X219484103Y-124434988D01*
X219534191Y-124215537D01*
X219544290Y-123990670D01*
X219514075Y-123767613D01*
X219444517Y-123553536D01*
X219337852Y-123355319D01*
X219215184Y-123201499D01*
X219197510Y-123179336D01*
X219157976Y-123144796D01*
X219027996Y-123031235D01*
X218834764Y-122915785D01*
X218729394Y-122876239D01*
X218624023Y-122836692D01*
X218402550Y-122796500D01*
X218402547Y-122796500D01*
X218233845Y-122796500D01*
X218195399Y-122799960D01*
X218065813Y-122811622D01*
X218065807Y-122811623D01*
X217848839Y-122871503D01*
X217848826Y-122871508D01*
X217646033Y-122969167D01*
X217646025Y-122969171D01*
X217463927Y-123101473D01*
X217463925Y-123101474D01*
X217308366Y-123264176D01*
X217184363Y-123452033D01*
X217095899Y-123659004D01*
X217095895Y-123659017D01*
X217045810Y-123878457D01*
X217045808Y-123878468D01*
X217035710Y-124103325D01*
X217035710Y-124103330D01*
X212399594Y-124103330D01*
X212412787Y-124077669D01*
X212462649Y-123980690D01*
X212462651Y-123980684D01*
X212462656Y-123980675D01*
X212550118Y-123724305D01*
X212599319Y-123457933D01*
X212609212Y-123187235D01*
X212579586Y-122917982D01*
X212511072Y-122655912D01*
X212405130Y-122406610D01*
X212264018Y-122175390D01*
X212174747Y-122068119D01*
X212090746Y-121967180D01*
X212090740Y-121967175D01*
X211889002Y-121786418D01*
X211663092Y-121636957D01*
X211598853Y-121606843D01*
X211417824Y-121521980D01*
X211417819Y-121521978D01*
X211417814Y-121521976D01*
X211158442Y-121443942D01*
X211158428Y-121443939D01*
X211042791Y-121426921D01*
X210890439Y-121404500D01*
X210687369Y-121404500D01*
X210687364Y-121404500D01*
X210484844Y-121419323D01*
X210484831Y-121419325D01*
X210220453Y-121478217D01*
X210220446Y-121478220D01*
X209967439Y-121574987D01*
X209731226Y-121707557D01*
X209516822Y-121873112D01*
X209328822Y-122068109D01*
X209328816Y-122068116D01*
X209171202Y-122288419D01*
X209171199Y-122288424D01*
X209047350Y-122529309D01*
X209047343Y-122529327D01*
X208959884Y-122785685D01*
X208959881Y-122785699D01*
X208910681Y-123052068D01*
X208910680Y-123052075D01*
X208900787Y-123322763D01*
X164598259Y-123322763D01*
X164603212Y-123187235D01*
X164573586Y-122917982D01*
X164505072Y-122655912D01*
X164399130Y-122406610D01*
X164258018Y-122175390D01*
X164168747Y-122068119D01*
X164084746Y-121967180D01*
X164084740Y-121967175D01*
X163883002Y-121786418D01*
X163657092Y-121636957D01*
X163592853Y-121606843D01*
X163411824Y-121521980D01*
X163411819Y-121521978D01*
X163411814Y-121521976D01*
X163152442Y-121443942D01*
X163152428Y-121443939D01*
X163036791Y-121426921D01*
X162884439Y-121404500D01*
X162681369Y-121404500D01*
X162681364Y-121404500D01*
X162478844Y-121419323D01*
X162478831Y-121419325D01*
X162214453Y-121478217D01*
X162214446Y-121478220D01*
X161961439Y-121574987D01*
X161725226Y-121707557D01*
X161510822Y-121873112D01*
X161322822Y-122068109D01*
X161322816Y-122068116D01*
X161165202Y-122288419D01*
X161165199Y-122288424D01*
X161041350Y-122529309D01*
X161041343Y-122529327D01*
X160953884Y-122785685D01*
X160953881Y-122785699D01*
X160904681Y-123052068D01*
X160904680Y-123052075D01*
X160894787Y-123322763D01*
X155846725Y-123322763D01*
X155800002Y-123264175D01*
X155743510Y-123193336D01*
X155736527Y-123187235D01*
X155573996Y-123045235D01*
X155380764Y-122929785D01*
X155233458Y-122874500D01*
X155170023Y-122850692D01*
X154948550Y-122810500D01*
X154948547Y-122810500D01*
X154779845Y-122810500D01*
X154741399Y-122813960D01*
X154611813Y-122825622D01*
X154611807Y-122825623D01*
X154394839Y-122885503D01*
X154394826Y-122885508D01*
X154192033Y-122983167D01*
X154192025Y-122983171D01*
X154009927Y-123115473D01*
X154009925Y-123115474D01*
X153854366Y-123278176D01*
X153730363Y-123466033D01*
X153641899Y-123673004D01*
X153641895Y-123673017D01*
X153591810Y-123892457D01*
X153591808Y-123892468D01*
X153582336Y-124103389D01*
X153581710Y-124117330D01*
X143064000Y-124117330D01*
X143064000Y-121474325D01*
X143081881Y-121410180D01*
X143164681Y-121273213D01*
X143167121Y-121269492D01*
X143262275Y-121135384D01*
X143263976Y-121133104D01*
X143368085Y-121000219D01*
X143370581Y-120997237D01*
X143480381Y-120874371D01*
X143482682Y-120871936D01*
X143601936Y-120752682D01*
X143604371Y-120750381D01*
X143727237Y-120640581D01*
X143730219Y-120638085D01*
X143863097Y-120533982D01*
X143865393Y-120532269D01*
X143999494Y-120437119D01*
X144003208Y-120434684D01*
X144149239Y-120346404D01*
X144293487Y-120266681D01*
X144297998Y-120264425D01*
X144454614Y-120193937D01*
X144605309Y-120131517D01*
X144610535Y-120129625D01*
X144733827Y-120091206D01*
X144751773Y-120085614D01*
X144788662Y-120080000D01*
X145561500Y-120080000D01*
X145628539Y-120099685D01*
G37*
G04 #@! TD.AperFunction*
M02*
