G04 #@! TF.GenerationSoftware,KiCad,Pcbnew,7.0.9*
G04 #@! TF.CreationDate,2024-08-07T11:51:21-05:00*
G04 #@! TF.ProjectId,led_segment,6c65645f-7365-4676-9d65-6e742e6b6963,rev?*
G04 #@! TF.SameCoordinates,Original*
G04 #@! TF.FileFunction,Soldermask,Top*
G04 #@! TF.FilePolarity,Negative*
%FSLAX46Y46*%
G04 Gerber Fmt 4.6, Leading zero omitted, Abs format (unit mm)*
G04 Created by KiCad (PCBNEW 7.0.9) date 2024-08-07 11:51:21*
%MOMM*%
%LPD*%
G01*
G04 APERTURE LIST*
G04 Aperture macros list*
%AMRoundRect*
0 Rectangle with rounded corners*
0 $1 Rounding radius*
0 $2 $3 $4 $5 $6 $7 $8 $9 X,Y pos of 4 corners*
0 Add a 4 corners polygon primitive as box body*
4,1,4,$2,$3,$4,$5,$6,$7,$8,$9,$2,$3,0*
0 Add four circle primitives for the rounded corners*
1,1,$1+$1,$2,$3*
1,1,$1+$1,$4,$5*
1,1,$1+$1,$6,$7*
1,1,$1+$1,$8,$9*
0 Add four rect primitives between the rounded corners*
20,1,$1+$1,$2,$3,$4,$5,0*
20,1,$1+$1,$4,$5,$6,$7,0*
20,1,$1+$1,$6,$7,$8,$9,0*
20,1,$1+$1,$8,$9,$2,$3,0*%
G04 Aperture macros list end*
%ADD10R,4.300000X2.550000*%
%ADD11C,2.000000*%
%ADD12RoundRect,0.176750X1.323250X-0.176750X1.323250X0.176750X-1.323250X0.176750X-1.323250X-0.176750X0*%
%ADD13RoundRect,0.176750X-1.323250X0.176750X-1.323250X-0.176750X1.323250X-0.176750X1.323250X0.176750X0*%
%ADD14C,2.804000*%
%ADD15C,3.104000*%
%ADD16O,4.064800X2.134400*%
%ADD17RoundRect,0.250000X-0.250000X-0.475000X0.250000X-0.475000X0.250000X0.475000X-0.250000X0.475000X0*%
%ADD18RoundRect,0.150000X-0.825000X-0.150000X0.825000X-0.150000X0.825000X0.150000X-0.825000X0.150000X0*%
%ADD19C,3.200000*%
%ADD20RoundRect,0.250000X0.750000X1.400000X-0.750000X1.400000X-0.750000X-1.400000X0.750000X-1.400000X0*%
%ADD21RoundRect,0.250000X0.350000X-0.850000X0.350000X0.850000X-0.350000X0.850000X-0.350000X-0.850000X0*%
%ADD22RoundRect,0.249997X2.650003X-2.950003X2.650003X2.950003X-2.650003X2.950003X-2.650003X-2.950003X0*%
%ADD23RoundRect,0.250000X-0.620000X-0.845000X0.620000X-0.845000X0.620000X0.845000X-0.620000X0.845000X0*%
%ADD24O,1.740000X2.190000*%
G04 APERTURE END LIST*
D10*
X224790000Y-138532000D03*
D11*
X218290000Y-135897000D03*
X218290000Y-124047000D03*
D10*
X224790000Y-121412000D03*
D12*
X217244000Y-133542000D03*
X217270000Y-132522000D03*
X217244000Y-131502000D03*
X217244000Y-130482000D03*
X217244000Y-129462000D03*
X217244000Y-128442000D03*
X217244000Y-127422000D03*
X217244000Y-126402000D03*
D10*
X148336000Y-121426000D03*
D11*
X154836000Y-124061000D03*
X154836000Y-135911000D03*
D10*
X148336000Y-138546000D03*
D13*
X155882000Y-126416000D03*
X155856000Y-127436000D03*
X155882000Y-128456000D03*
X155882000Y-129476000D03*
X155882000Y-130496000D03*
X155882000Y-131516000D03*
X155882000Y-132536000D03*
X155882000Y-133556000D03*
D14*
X176024000Y-138881000D03*
D15*
X176024000Y-128581000D03*
D14*
X168524000Y-138881000D03*
D15*
X168524000Y-128581000D03*
D16*
X156090000Y-149276000D03*
X147890000Y-149276000D03*
X156090000Y-144276000D03*
X147890000Y-144276000D03*
D17*
X194698000Y-137742000D03*
X196598000Y-137742000D03*
D18*
X201797000Y-131773000D03*
X201797000Y-133043000D03*
X201797000Y-134313000D03*
X201797000Y-135583000D03*
X206747000Y-135583000D03*
X206747000Y-134313000D03*
X206747000Y-133043000D03*
X206747000Y-131773000D03*
D17*
X198750000Y-137742000D03*
X200650000Y-137742000D03*
D19*
X204913000Y-149417000D03*
D20*
X190298000Y-137352000D03*
X184098000Y-137352000D03*
D16*
X216882000Y-144349984D03*
X225082000Y-144349984D03*
X216882000Y-149349984D03*
X225082000Y-149349984D03*
D19*
X210755000Y-123255000D03*
D21*
X194378000Y-134694000D03*
D22*
X196658000Y-128394000D03*
D21*
X198938000Y-134694000D03*
D19*
X168210000Y-149417000D03*
D23*
X183134000Y-131776500D03*
D24*
X185674000Y-131776500D03*
X188214000Y-131776500D03*
X190754000Y-131776500D03*
D19*
X162749000Y-123255000D03*
M02*
