G04 #@! TF.GenerationSoftware,KiCad,Pcbnew,7.0.9*
G04 #@! TF.CreationDate,2024-08-07T11:51:21-05:00*
G04 #@! TF.ProjectId,led_segment,6c65645f-7365-4676-9d65-6e742e6b6963,rev?*
G04 #@! TF.SameCoordinates,Original*
G04 #@! TF.FileFunction,Copper,L1,Top*
G04 #@! TF.FilePolarity,Positive*
%FSLAX46Y46*%
G04 Gerber Fmt 4.6, Leading zero omitted, Abs format (unit mm)*
G04 Created by KiCad (PCBNEW 7.0.9) date 2024-08-07 11:51:21*
%MOMM*%
%LPD*%
G01*
G04 APERTURE LIST*
G04 Aperture macros list*
%AMRoundRect*
0 Rectangle with rounded corners*
0 $1 Rounding radius*
0 $2 $3 $4 $5 $6 $7 $8 $9 X,Y pos of 4 corners*
0 Add a 4 corners polygon primitive as box body*
4,1,4,$2,$3,$4,$5,$6,$7,$8,$9,$2,$3,0*
0 Add four circle primitives for the rounded corners*
1,1,$1+$1,$2,$3*
1,1,$1+$1,$4,$5*
1,1,$1+$1,$6,$7*
1,1,$1+$1,$8,$9*
0 Add four rect primitives between the rounded corners*
20,1,$1+$1,$2,$3,$4,$5,0*
20,1,$1+$1,$4,$5,$6,$7,0*
20,1,$1+$1,$6,$7,$8,$9,0*
20,1,$1+$1,$8,$9,$2,$3,0*%
G04 Aperture macros list end*
G04 #@! TA.AperFunction,ComponentPad*
%ADD10R,4.300000X2.550000*%
G04 #@! TD*
G04 #@! TA.AperFunction,SMDPad,CuDef*
%ADD11RoundRect,0.176750X1.323250X-0.176750X1.323250X0.176750X-1.323250X0.176750X-1.323250X-0.176750X0*%
G04 #@! TD*
G04 #@! TA.AperFunction,SMDPad,CuDef*
%ADD12RoundRect,0.176750X-1.323250X0.176750X-1.323250X-0.176750X1.323250X-0.176750X1.323250X0.176750X0*%
G04 #@! TD*
G04 #@! TA.AperFunction,ComponentPad*
%ADD13C,2.600000*%
G04 #@! TD*
G04 #@! TA.AperFunction,ComponentPad*
%ADD14C,2.900000*%
G04 #@! TD*
G04 #@! TA.AperFunction,ComponentPad*
%ADD15O,3.860800X1.930400*%
G04 #@! TD*
G04 #@! TA.AperFunction,SMDPad,CuDef*
%ADD16RoundRect,0.250000X-0.250000X-0.475000X0.250000X-0.475000X0.250000X0.475000X-0.250000X0.475000X0*%
G04 #@! TD*
G04 #@! TA.AperFunction,SMDPad,CuDef*
%ADD17RoundRect,0.150000X-0.825000X-0.150000X0.825000X-0.150000X0.825000X0.150000X-0.825000X0.150000X0*%
G04 #@! TD*
G04 #@! TA.AperFunction,SMDPad,CuDef*
%ADD18RoundRect,0.250000X0.750000X1.400000X-0.750000X1.400000X-0.750000X-1.400000X0.750000X-1.400000X0*%
G04 #@! TD*
G04 #@! TA.AperFunction,SMDPad,CuDef*
%ADD19RoundRect,0.250000X0.350000X-0.850000X0.350000X0.850000X-0.350000X0.850000X-0.350000X-0.850000X0*%
G04 #@! TD*
G04 #@! TA.AperFunction,SMDPad,CuDef*
%ADD20RoundRect,0.250000X1.125000X-1.275000X1.125000X1.275000X-1.125000X1.275000X-1.125000X-1.275000X0*%
G04 #@! TD*
G04 #@! TA.AperFunction,SMDPad,CuDef*
%ADD21RoundRect,0.249997X2.650003X-2.950003X2.650003X2.950003X-2.650003X2.950003X-2.650003X-2.950003X0*%
G04 #@! TD*
G04 #@! TA.AperFunction,ComponentPad*
%ADD22RoundRect,0.250000X-0.620000X-0.845000X0.620000X-0.845000X0.620000X0.845000X-0.620000X0.845000X0*%
G04 #@! TD*
G04 #@! TA.AperFunction,ComponentPad*
%ADD23O,1.740000X2.190000*%
G04 #@! TD*
G04 #@! TA.AperFunction,ViaPad*
%ADD24C,0.800000*%
G04 #@! TD*
G04 #@! TA.AperFunction,Conductor*
%ADD25C,1.000000*%
G04 #@! TD*
G04 #@! TA.AperFunction,Conductor*
%ADD26C,0.250000*%
G04 #@! TD*
G04 APERTURE END LIST*
D10*
X224790000Y-138532000D03*
X224790000Y-121412000D03*
D11*
X217244000Y-133542000D03*
X217270000Y-132522000D03*
X217244000Y-131502000D03*
X217244000Y-130482000D03*
X217244000Y-129462000D03*
X217244000Y-128442000D03*
X217244000Y-127422000D03*
X217244000Y-126402000D03*
D10*
X148336000Y-121426000D03*
X148336000Y-138546000D03*
D12*
X155882000Y-126416000D03*
X155856000Y-127436000D03*
X155882000Y-128456000D03*
X155882000Y-129476000D03*
X155882000Y-130496000D03*
X155882000Y-131516000D03*
X155882000Y-132536000D03*
X155882000Y-133556000D03*
D13*
X176024000Y-138881000D03*
D14*
X176024000Y-128581000D03*
D13*
X168524000Y-138881000D03*
D14*
X168524000Y-128581000D03*
D15*
X156090000Y-149276000D03*
X147890000Y-149276000D03*
X156090000Y-144276000D03*
X147890000Y-144276000D03*
D16*
X194698000Y-137742000D03*
X196598000Y-137742000D03*
D17*
X201797000Y-131773000D03*
X201797000Y-133043000D03*
X201797000Y-134313000D03*
X201797000Y-135583000D03*
X206747000Y-135583000D03*
X206747000Y-134313000D03*
X206747000Y-133043000D03*
X206747000Y-131773000D03*
D16*
X198750000Y-137742000D03*
X200650000Y-137742000D03*
D18*
X190298000Y-137352000D03*
X184098000Y-137352000D03*
D15*
X216882000Y-144349984D03*
X225082000Y-144349984D03*
X216882000Y-149349984D03*
X225082000Y-149349984D03*
D19*
X194378000Y-134694000D03*
D20*
X195133000Y-130069000D03*
X198183000Y-130069000D03*
D21*
X196658000Y-128394000D03*
D20*
X195133000Y-126719000D03*
X198183000Y-126719000D03*
D19*
X198938000Y-134694000D03*
D22*
X183134000Y-131776500D03*
D23*
X185674000Y-131776500D03*
X188214000Y-131776500D03*
X190754000Y-131776500D03*
D24*
X204526000Y-137742000D03*
X201738000Y-130240000D03*
D25*
X188779000Y-128581000D02*
X190754000Y-130556000D01*
X190754000Y-130556000D02*
X190754000Y-131776500D01*
X176024000Y-128581000D02*
X188779000Y-128581000D01*
D26*
X215190000Y-127436000D02*
X217122000Y-127436000D01*
X214692000Y-125922000D02*
X214692000Y-126938000D01*
X217576456Y-125414000D02*
X215200000Y-125414000D01*
X217598456Y-125436000D02*
X217576456Y-125414000D01*
X218737544Y-125436000D02*
X217598456Y-125436000D01*
X218759544Y-125414000D02*
X218737544Y-125436000D01*
X221042000Y-125414000D02*
X218759544Y-125414000D01*
X221804000Y-126176000D02*
X221042000Y-125414000D01*
X221804000Y-148528000D02*
X221804000Y-126176000D01*
X218940000Y-151392000D02*
X221804000Y-148528000D01*
X152716000Y-147766000D02*
X158304000Y-147766000D01*
X150938000Y-145988000D02*
X152716000Y-147766000D01*
X215200000Y-125414000D02*
X214692000Y-125922000D01*
X158304000Y-147766000D02*
X161930000Y-151392000D01*
X154294000Y-126416000D02*
X150938000Y-129772000D01*
X155794000Y-126416000D02*
X154294000Y-126416000D01*
X150938000Y-129772000D02*
X150938000Y-145988000D01*
X214692000Y-126938000D02*
X215190000Y-127436000D01*
X161930000Y-151392000D02*
X218940000Y-151392000D01*
X219250000Y-126416000D02*
X217122000Y-126416000D01*
X220534000Y-127700000D02*
X219250000Y-126416000D01*
X217740000Y-147258000D02*
X220534000Y-144464000D01*
X155764000Y-147258000D02*
X217740000Y-147258000D01*
X151700000Y-130004000D02*
X151700000Y-143194000D01*
X151700000Y-143194000D02*
X155764000Y-147258000D01*
X154268000Y-127436000D02*
X151700000Y-130004000D01*
X220534000Y-144464000D02*
X220534000Y-127700000D01*
X155768000Y-127436000D02*
X154268000Y-127436000D01*
X161352000Y-146242000D02*
X210628000Y-146242000D01*
X155794000Y-128456000D02*
X154294000Y-128456000D01*
X216793000Y-133885000D02*
X217122000Y-133556000D01*
X152462000Y-130288000D02*
X152462000Y-137352000D01*
X216793000Y-140077000D02*
X216793000Y-133885000D01*
X152462000Y-137352000D02*
X161352000Y-146242000D01*
X154294000Y-128456000D02*
X152462000Y-130288000D01*
X210628000Y-146242000D02*
X216793000Y-140077000D01*
X215648000Y-132536000D02*
X217148000Y-132536000D01*
X215200000Y-132984000D02*
X215648000Y-132536000D01*
X155794000Y-131516000D02*
X154294000Y-131516000D01*
X160844000Y-143956000D02*
X209866000Y-143956000D01*
X153373000Y-132437000D02*
X153373000Y-136485000D01*
X215200000Y-138622000D02*
X215200000Y-132984000D01*
X153373000Y-136485000D02*
X160844000Y-143956000D01*
X209866000Y-143956000D02*
X215200000Y-138622000D01*
X154294000Y-131516000D02*
X153373000Y-132437000D01*
X207580000Y-141416000D02*
X209866000Y-139130000D01*
X155794000Y-132536000D02*
X157298000Y-132536000D01*
X166178000Y-141416000D02*
X207580000Y-141416000D01*
X209866000Y-139130000D02*
X209866000Y-134304000D01*
X214694000Y-129476000D02*
X217122000Y-129476000D01*
X209866000Y-134304000D02*
X214694000Y-129476000D01*
X157298000Y-132536000D02*
X166178000Y-141416000D01*
X213168000Y-138876000D02*
X213168000Y-132950000D01*
X155794000Y-133556000D02*
X164924000Y-142686000D01*
X215622000Y-130496000D02*
X217122000Y-130496000D01*
X213168000Y-132950000D02*
X215622000Y-130496000D01*
X209358000Y-142686000D02*
X213168000Y-138876000D01*
X164924000Y-142686000D02*
X209358000Y-142686000D01*
X200650000Y-137742000D02*
X199262000Y-139130000D01*
X200650000Y-137742000D02*
X204526000Y-137742000D01*
X197986000Y-139130000D02*
X196598000Y-137742000D01*
X196598000Y-137742000D02*
X196598000Y-131534000D01*
X204588000Y-137742000D02*
X206747000Y-135583000D01*
X201157000Y-133043000D02*
X201797000Y-133043000D01*
X183134000Y-131776500D02*
X183134000Y-136388000D01*
X196598000Y-131534000D02*
X195133000Y-130069000D01*
X183134000Y-136388000D02*
X184098000Y-137352000D01*
X199262000Y-139130000D02*
X197986000Y-139130000D01*
X204526000Y-137742000D02*
X204588000Y-137742000D01*
X201797000Y-133043000D02*
X201797000Y-134313000D01*
X198183000Y-130069000D02*
X201157000Y-133043000D01*
X201797000Y-130299000D02*
X201738000Y-130240000D01*
X201797000Y-131773000D02*
X201797000Y-130299000D01*
X190298000Y-137352000D02*
X190298000Y-132232500D01*
X190298000Y-132232500D02*
X190754000Y-131776500D01*
D25*
X176024000Y-128581000D02*
X176024000Y-138881000D01*
D26*
X198938000Y-137554000D02*
X198750000Y-137742000D01*
X203181092Y-134958000D02*
X206366092Y-131773000D01*
X198938000Y-134694000D02*
X198938000Y-137554000D01*
X206366092Y-131773000D02*
X206747000Y-131773000D01*
X198938000Y-134694000D02*
X199202000Y-134958000D01*
X199202000Y-134958000D02*
X203181092Y-134958000D01*
X171440000Y-140654000D02*
X169478000Y-138692000D01*
X194698000Y-137742000D02*
X191786000Y-140654000D01*
X194698000Y-137742000D02*
X194698000Y-135014000D01*
X194698000Y-135014000D02*
X194378000Y-134694000D01*
X191786000Y-140654000D02*
X171440000Y-140654000D01*
D25*
X168524000Y-128581000D02*
X168524000Y-138881000D01*
D26*
X206747000Y-134313000D02*
X207721999Y-134313000D01*
X209612000Y-129478000D02*
X203516000Y-123382000D01*
X165415072Y-123382000D02*
X159321072Y-129476000D01*
X203516000Y-123382000D02*
X165415072Y-123382000D01*
X159321072Y-129476000D02*
X155794000Y-129476000D01*
X209612000Y-132422999D02*
X209612000Y-129478000D01*
X207721999Y-134313000D02*
X209612000Y-132422999D01*
X208596000Y-132168999D02*
X208596000Y-130748000D01*
X208596000Y-130748000D02*
X202717000Y-124869000D01*
X207721999Y-133043000D02*
X208596000Y-132168999D01*
X202717000Y-124869000D02*
X165961000Y-124869000D01*
X206747000Y-133043000D02*
X207721999Y-133043000D01*
X160334000Y-130496000D02*
X155794000Y-130496000D01*
X165961000Y-124869000D02*
X160334000Y-130496000D01*
M02*
