M48
; DRILL file {KiCad 7.0.9} date Wed Aug  7 11:51:30 2024
; FORMAT={-:-/ absolute / metric / decimal}
; #@! TF.CreationDate,2024-08-07T11:51:30-05:00
; #@! TF.GenerationSoftware,Kicad,Pcbnew,7.0.9
; #@! TF.FileFunction,Plated,1,2,PTH
FMAT,2
METRIC
; #@! TA.AperFunction,Plated,PTH,ViaDrill
T1C0.400
; #@! TA.AperFunction,Plated,PTH,ComponentDrill
T2C0.900
; #@! TA.AperFunction,Plated,PTH,ComponentDrill
T3C1.190
; #@! TA.AperFunction,Plated,PTH,ComponentDrill
T4C1.300
; #@! TA.AperFunction,Plated,PTH,ComponentDrill
T5C1.600
; #@! TA.AperFunction,Plated,PTH,ComponentDrill
T6C1.900
%
G90
G05
T1
X201.738Y-130.24
X204.526Y-137.742
T2
X148.336Y-121.426
X148.336Y-138.546
X224.79Y-121.412
X224.79Y-138.532
T3
X183.134Y-131.776
X185.674Y-131.776
X188.214Y-131.776
X190.754Y-131.776
T4
X147.89Y-144.276
X147.89Y-149.276
X156.09Y-144.276
X156.09Y-149.276
X216.882Y-144.35
X216.882Y-149.35
X225.082Y-144.35
X225.082Y-149.35
T5
X168.524Y-138.881
X176.024Y-138.881
T6
X168.524Y-128.581
X176.024Y-128.581
T0
M30
