%TF.GenerationSoftware,KiCad,Pcbnew,7.0.9*%
%TF.CreationDate,2024-08-07T11:51:31-05:00*%
%TF.ProjectId,led_segment,6c65645f-7365-4676-9d65-6e742e6b6963,rev?*%
%TF.SameCoordinates,Original*%
%TF.FileFunction,Drillmap*%
%TF.FilePolarity,Positive*%
%FSLAX45Y45*%
G04 Gerber Fmt 4.5, Leading zero omitted, Abs format (unit mm)*
G04 Created by KiCad (PCBNEW 7.0.9) date 2024-08-07 11:51:31*
%MOMM*%
%LPD*%
G01*
G04 APERTURE LIST*
%ADD10C,0.100000*%
%ADD11C,0.200000*%
%ADD12C,0.119000*%
%ADD13C,0.130000*%
%ADD14C,0.160000*%
%ADD15C,0.190000*%
G04 APERTURE END LIST*
D10*
X14560400Y-15437000D02*
X22726500Y-15437000D01*
X14560400Y-11995300D02*
G75*
G03*
X14268300Y-12287400I0J-292100D01*
G01*
X22726500Y-15437000D02*
G75*
G03*
X23018600Y-15144900I0J292100D01*
G01*
X22726500Y-11995300D02*
X14560400Y-11995300D01*
X14268300Y-15144900D02*
X14268300Y-12287400D01*
X14268300Y-15144900D02*
G75*
G03*
X14560400Y-15437000I292100J0D01*
G01*
X23018600Y-15144900D02*
X23018600Y-12287400D01*
X23018600Y-12287400D02*
G75*
G03*
X22726500Y-11995300I-292100J0D01*
G01*
D11*
D10*
X20153800Y-13004000D02*
X20193800Y-13044000D01*
X20193800Y-13004000D02*
X20153800Y-13044000D01*
X20432600Y-13754200D02*
X20472600Y-13794200D01*
X20472600Y-13754200D02*
X20432600Y-13794200D01*
X14878600Y-12142600D02*
G75*
G03*
X14878600Y-12142600I-45000J0D01*
G01*
X14878600Y-13854600D02*
G75*
G03*
X14878600Y-13854600I-45000J0D01*
G01*
X22524000Y-12141200D02*
G75*
G03*
X22524000Y-12141200I-45000J0D01*
G01*
X22524000Y-13853200D02*
G75*
G03*
X22524000Y-13853200I-45000J0D01*
G01*
D12*
X18313400Y-13118150D02*
X18313400Y-13237150D01*
X18253900Y-13177650D02*
X18372900Y-13177650D01*
X18567400Y-13118150D02*
X18567400Y-13237150D01*
X18507900Y-13177650D02*
X18626900Y-13177650D01*
X18821400Y-13118150D02*
X18821400Y-13237150D01*
X18761900Y-13177650D02*
X18880900Y-13177650D01*
X19075400Y-13118150D02*
X19075400Y-13237150D01*
X19015900Y-13177650D02*
X19134900Y-13177650D01*
D13*
X14834962Y-14473562D02*
X14834962Y-14381638D01*
X14743038Y-14381638D01*
X14743038Y-14473562D01*
X14834962Y-14473562D01*
X14834962Y-14973562D02*
X14834962Y-14881638D01*
X14743038Y-14881638D01*
X14743038Y-14973562D01*
X14834962Y-14973562D01*
X15654962Y-14473562D02*
X15654962Y-14381638D01*
X15563038Y-14381638D01*
X15563038Y-14473562D01*
X15654962Y-14473562D01*
X15654962Y-14973562D02*
X15654962Y-14881638D01*
X15563038Y-14881638D01*
X15563038Y-14973562D01*
X15654962Y-14973562D01*
X21734162Y-14480961D02*
X21734162Y-14389036D01*
X21642238Y-14389036D01*
X21642238Y-14480961D01*
X21734162Y-14480961D01*
X21734162Y-14980961D02*
X21734162Y-14889036D01*
X21642238Y-14889036D01*
X21642238Y-14980961D01*
X21734162Y-14980961D01*
X22554162Y-14480961D02*
X22554162Y-14389036D01*
X22462238Y-14389036D01*
X22462238Y-14480961D01*
X22554162Y-14480961D01*
X22554162Y-14980961D02*
X22554162Y-14889036D01*
X22462238Y-14889036D01*
X22462238Y-14980961D01*
X22554162Y-14980961D01*
D14*
X16852400Y-13968100D02*
X16932400Y-13888100D01*
X16852400Y-13808100D01*
X16772400Y-13888100D01*
X16852400Y-13968100D01*
X17602400Y-13968100D02*
X17682400Y-13888100D01*
X17602400Y-13808100D01*
X17522400Y-13888100D01*
X17602400Y-13968100D01*
D15*
X16757400Y-12763100D02*
X16947400Y-12953100D01*
X16947400Y-12763100D02*
X16757400Y-12953100D01*
X16947400Y-12858100D02*
G75*
G03*
X16947400Y-12858100I-95000J0D01*
G01*
X17507400Y-12763100D02*
X17697400Y-12953100D01*
X17697400Y-12763100D02*
X17507400Y-12953100D01*
X17697400Y-12858100D02*
G75*
G03*
X17697400Y-12858100I-95000J0D01*
G01*
D11*
X14524077Y-15753484D02*
X14524077Y-15553484D01*
X14524077Y-15553484D02*
X14571696Y-15553484D01*
X14571696Y-15553484D02*
X14600267Y-15563008D01*
X14600267Y-15563008D02*
X14619315Y-15582055D01*
X14619315Y-15582055D02*
X14628839Y-15601103D01*
X14628839Y-15601103D02*
X14638362Y-15639198D01*
X14638362Y-15639198D02*
X14638362Y-15667769D01*
X14638362Y-15667769D02*
X14628839Y-15705865D01*
X14628839Y-15705865D02*
X14619315Y-15724912D01*
X14619315Y-15724912D02*
X14600267Y-15743960D01*
X14600267Y-15743960D02*
X14571696Y-15753484D01*
X14571696Y-15753484D02*
X14524077Y-15753484D01*
X14724077Y-15753484D02*
X14724077Y-15620150D01*
X14724077Y-15658246D02*
X14733601Y-15639198D01*
X14733601Y-15639198D02*
X14743124Y-15629674D01*
X14743124Y-15629674D02*
X14762172Y-15620150D01*
X14762172Y-15620150D02*
X14781220Y-15620150D01*
X14847886Y-15753484D02*
X14847886Y-15620150D01*
X14847886Y-15553484D02*
X14838362Y-15563008D01*
X14838362Y-15563008D02*
X14847886Y-15572531D01*
X14847886Y-15572531D02*
X14857410Y-15563008D01*
X14857410Y-15563008D02*
X14847886Y-15553484D01*
X14847886Y-15553484D02*
X14847886Y-15572531D01*
X14971696Y-15753484D02*
X14952648Y-15743960D01*
X14952648Y-15743960D02*
X14943124Y-15724912D01*
X14943124Y-15724912D02*
X14943124Y-15553484D01*
X15076458Y-15753484D02*
X15057410Y-15743960D01*
X15057410Y-15743960D02*
X15047886Y-15724912D01*
X15047886Y-15724912D02*
X15047886Y-15553484D01*
X15305029Y-15753484D02*
X15305029Y-15553484D01*
X15305029Y-15553484D02*
X15371696Y-15696341D01*
X15371696Y-15696341D02*
X15438362Y-15553484D01*
X15438362Y-15553484D02*
X15438362Y-15753484D01*
X15619315Y-15753484D02*
X15619315Y-15648722D01*
X15619315Y-15648722D02*
X15609791Y-15629674D01*
X15609791Y-15629674D02*
X15590743Y-15620150D01*
X15590743Y-15620150D02*
X15552648Y-15620150D01*
X15552648Y-15620150D02*
X15533601Y-15629674D01*
X15619315Y-15743960D02*
X15600267Y-15753484D01*
X15600267Y-15753484D02*
X15552648Y-15753484D01*
X15552648Y-15753484D02*
X15533601Y-15743960D01*
X15533601Y-15743960D02*
X15524077Y-15724912D01*
X15524077Y-15724912D02*
X15524077Y-15705865D01*
X15524077Y-15705865D02*
X15533601Y-15686817D01*
X15533601Y-15686817D02*
X15552648Y-15677293D01*
X15552648Y-15677293D02*
X15600267Y-15677293D01*
X15600267Y-15677293D02*
X15619315Y-15667769D01*
X15714553Y-15620150D02*
X15714553Y-15820150D01*
X15714553Y-15629674D02*
X15733601Y-15620150D01*
X15733601Y-15620150D02*
X15771696Y-15620150D01*
X15771696Y-15620150D02*
X15790743Y-15629674D01*
X15790743Y-15629674D02*
X15800267Y-15639198D01*
X15800267Y-15639198D02*
X15809791Y-15658246D01*
X15809791Y-15658246D02*
X15809791Y-15715388D01*
X15809791Y-15715388D02*
X15800267Y-15734436D01*
X15800267Y-15734436D02*
X15790743Y-15743960D01*
X15790743Y-15743960D02*
X15771696Y-15753484D01*
X15771696Y-15753484D02*
X15733601Y-15753484D01*
X15733601Y-15753484D02*
X15714553Y-15743960D01*
X15895505Y-15734436D02*
X15905029Y-15743960D01*
X15905029Y-15743960D02*
X15895505Y-15753484D01*
X15895505Y-15753484D02*
X15885982Y-15743960D01*
X15885982Y-15743960D02*
X15895505Y-15734436D01*
X15895505Y-15734436D02*
X15895505Y-15753484D01*
X15895505Y-15629674D02*
X15905029Y-15639198D01*
X15905029Y-15639198D02*
X15895505Y-15648722D01*
X15895505Y-15648722D02*
X15885982Y-15639198D01*
X15885982Y-15639198D02*
X15895505Y-15629674D01*
X15895505Y-15629674D02*
X15895505Y-15648722D01*
D10*
X14223300Y-16062000D02*
X14263300Y-16102000D01*
X14263300Y-16062000D02*
X14223300Y-16102000D01*
D11*
X14562172Y-15973484D02*
X14581220Y-15973484D01*
X14581220Y-15973484D02*
X14600267Y-15983008D01*
X14600267Y-15983008D02*
X14609791Y-15992531D01*
X14609791Y-15992531D02*
X14619315Y-16011579D01*
X14619315Y-16011579D02*
X14628839Y-16049674D01*
X14628839Y-16049674D02*
X14628839Y-16097293D01*
X14628839Y-16097293D02*
X14619315Y-16135388D01*
X14619315Y-16135388D02*
X14609791Y-16154436D01*
X14609791Y-16154436D02*
X14600267Y-16163960D01*
X14600267Y-16163960D02*
X14581220Y-16173484D01*
X14581220Y-16173484D02*
X14562172Y-16173484D01*
X14562172Y-16173484D02*
X14543124Y-16163960D01*
X14543124Y-16163960D02*
X14533601Y-16154436D01*
X14533601Y-16154436D02*
X14524077Y-16135388D01*
X14524077Y-16135388D02*
X14514553Y-16097293D01*
X14514553Y-16097293D02*
X14514553Y-16049674D01*
X14514553Y-16049674D02*
X14524077Y-16011579D01*
X14524077Y-16011579D02*
X14533601Y-15992531D01*
X14533601Y-15992531D02*
X14543124Y-15983008D01*
X14543124Y-15983008D02*
X14562172Y-15973484D01*
X14714553Y-16154436D02*
X14724077Y-16163960D01*
X14724077Y-16163960D02*
X14714553Y-16173484D01*
X14714553Y-16173484D02*
X14705029Y-16163960D01*
X14705029Y-16163960D02*
X14714553Y-16154436D01*
X14714553Y-16154436D02*
X14714553Y-16173484D01*
X14895505Y-16040150D02*
X14895505Y-16173484D01*
X14847886Y-15963960D02*
X14800267Y-16106817D01*
X14800267Y-16106817D02*
X14924077Y-16106817D01*
X15038362Y-15973484D02*
X15057410Y-15973484D01*
X15057410Y-15973484D02*
X15076458Y-15983008D01*
X15076458Y-15983008D02*
X15085982Y-15992531D01*
X15085982Y-15992531D02*
X15095505Y-16011579D01*
X15095505Y-16011579D02*
X15105029Y-16049674D01*
X15105029Y-16049674D02*
X15105029Y-16097293D01*
X15105029Y-16097293D02*
X15095505Y-16135388D01*
X15095505Y-16135388D02*
X15085982Y-16154436D01*
X15085982Y-16154436D02*
X15076458Y-16163960D01*
X15076458Y-16163960D02*
X15057410Y-16173484D01*
X15057410Y-16173484D02*
X15038362Y-16173484D01*
X15038362Y-16173484D02*
X15019315Y-16163960D01*
X15019315Y-16163960D02*
X15009791Y-16154436D01*
X15009791Y-16154436D02*
X15000267Y-16135388D01*
X15000267Y-16135388D02*
X14990743Y-16097293D01*
X14990743Y-16097293D02*
X14990743Y-16049674D01*
X14990743Y-16049674D02*
X15000267Y-16011579D01*
X15000267Y-16011579D02*
X15009791Y-15992531D01*
X15009791Y-15992531D02*
X15019315Y-15983008D01*
X15019315Y-15983008D02*
X15038362Y-15973484D01*
X15228839Y-15973484D02*
X15247886Y-15973484D01*
X15247886Y-15973484D02*
X15266934Y-15983008D01*
X15266934Y-15983008D02*
X15276458Y-15992531D01*
X15276458Y-15992531D02*
X15285982Y-16011579D01*
X15285982Y-16011579D02*
X15295505Y-16049674D01*
X15295505Y-16049674D02*
X15295505Y-16097293D01*
X15295505Y-16097293D02*
X15285982Y-16135388D01*
X15285982Y-16135388D02*
X15276458Y-16154436D01*
X15276458Y-16154436D02*
X15266934Y-16163960D01*
X15266934Y-16163960D02*
X15247886Y-16173484D01*
X15247886Y-16173484D02*
X15228839Y-16173484D01*
X15228839Y-16173484D02*
X15209791Y-16163960D01*
X15209791Y-16163960D02*
X15200267Y-16154436D01*
X15200267Y-16154436D02*
X15190743Y-16135388D01*
X15190743Y-16135388D02*
X15181220Y-16097293D01*
X15181220Y-16097293D02*
X15181220Y-16049674D01*
X15181220Y-16049674D02*
X15190743Y-16011579D01*
X15190743Y-16011579D02*
X15200267Y-15992531D01*
X15200267Y-15992531D02*
X15209791Y-15983008D01*
X15209791Y-15983008D02*
X15228839Y-15973484D01*
X15381220Y-16173484D02*
X15381220Y-16040150D01*
X15381220Y-16059198D02*
X15390743Y-16049674D01*
X15390743Y-16049674D02*
X15409791Y-16040150D01*
X15409791Y-16040150D02*
X15438363Y-16040150D01*
X15438363Y-16040150D02*
X15457410Y-16049674D01*
X15457410Y-16049674D02*
X15466934Y-16068722D01*
X15466934Y-16068722D02*
X15466934Y-16173484D01*
X15466934Y-16068722D02*
X15476458Y-16049674D01*
X15476458Y-16049674D02*
X15495505Y-16040150D01*
X15495505Y-16040150D02*
X15524077Y-16040150D01*
X15524077Y-16040150D02*
X15543124Y-16049674D01*
X15543124Y-16049674D02*
X15552648Y-16068722D01*
X15552648Y-16068722D02*
X15552648Y-16173484D01*
X15647886Y-16173484D02*
X15647886Y-16040150D01*
X15647886Y-16059198D02*
X15657410Y-16049674D01*
X15657410Y-16049674D02*
X15676458Y-16040150D01*
X15676458Y-16040150D02*
X15705029Y-16040150D01*
X15705029Y-16040150D02*
X15724077Y-16049674D01*
X15724077Y-16049674D02*
X15733601Y-16068722D01*
X15733601Y-16068722D02*
X15733601Y-16173484D01*
X15733601Y-16068722D02*
X15743124Y-16049674D01*
X15743124Y-16049674D02*
X15762172Y-16040150D01*
X15762172Y-16040150D02*
X15790743Y-16040150D01*
X15790743Y-16040150D02*
X15809791Y-16049674D01*
X15809791Y-16049674D02*
X15819315Y-16068722D01*
X15819315Y-16068722D02*
X15819315Y-16173484D01*
X16209791Y-15963960D02*
X16038363Y-16221103D01*
X16466934Y-15973484D02*
X16485982Y-15973484D01*
X16485982Y-15973484D02*
X16505029Y-15983008D01*
X16505029Y-15983008D02*
X16514553Y-15992531D01*
X16514553Y-15992531D02*
X16524077Y-16011579D01*
X16524077Y-16011579D02*
X16533601Y-16049674D01*
X16533601Y-16049674D02*
X16533601Y-16097293D01*
X16533601Y-16097293D02*
X16524077Y-16135388D01*
X16524077Y-16135388D02*
X16514553Y-16154436D01*
X16514553Y-16154436D02*
X16505029Y-16163960D01*
X16505029Y-16163960D02*
X16485982Y-16173484D01*
X16485982Y-16173484D02*
X16466934Y-16173484D01*
X16466934Y-16173484D02*
X16447886Y-16163960D01*
X16447886Y-16163960D02*
X16438363Y-16154436D01*
X16438363Y-16154436D02*
X16428839Y-16135388D01*
X16428839Y-16135388D02*
X16419315Y-16097293D01*
X16419315Y-16097293D02*
X16419315Y-16049674D01*
X16419315Y-16049674D02*
X16428839Y-16011579D01*
X16428839Y-16011579D02*
X16438363Y-15992531D01*
X16438363Y-15992531D02*
X16447886Y-15983008D01*
X16447886Y-15983008D02*
X16466934Y-15973484D01*
X16619315Y-16154436D02*
X16628839Y-16163960D01*
X16628839Y-16163960D02*
X16619315Y-16173484D01*
X16619315Y-16173484D02*
X16609791Y-16163960D01*
X16609791Y-16163960D02*
X16619315Y-16154436D01*
X16619315Y-16154436D02*
X16619315Y-16173484D01*
X16752648Y-15973484D02*
X16771696Y-15973484D01*
X16771696Y-15973484D02*
X16790744Y-15983008D01*
X16790744Y-15983008D02*
X16800268Y-15992531D01*
X16800268Y-15992531D02*
X16809791Y-16011579D01*
X16809791Y-16011579D02*
X16819315Y-16049674D01*
X16819315Y-16049674D02*
X16819315Y-16097293D01*
X16819315Y-16097293D02*
X16809791Y-16135388D01*
X16809791Y-16135388D02*
X16800268Y-16154436D01*
X16800268Y-16154436D02*
X16790744Y-16163960D01*
X16790744Y-16163960D02*
X16771696Y-16173484D01*
X16771696Y-16173484D02*
X16752648Y-16173484D01*
X16752648Y-16173484D02*
X16733601Y-16163960D01*
X16733601Y-16163960D02*
X16724077Y-16154436D01*
X16724077Y-16154436D02*
X16714553Y-16135388D01*
X16714553Y-16135388D02*
X16705029Y-16097293D01*
X16705029Y-16097293D02*
X16705029Y-16049674D01*
X16705029Y-16049674D02*
X16714553Y-16011579D01*
X16714553Y-16011579D02*
X16724077Y-15992531D01*
X16724077Y-15992531D02*
X16733601Y-15983008D01*
X16733601Y-15983008D02*
X16752648Y-15973484D01*
X17009791Y-16173484D02*
X16895506Y-16173484D01*
X16952648Y-16173484D02*
X16952648Y-15973484D01*
X16952648Y-15973484D02*
X16933601Y-16002055D01*
X16933601Y-16002055D02*
X16914553Y-16021103D01*
X16914553Y-16021103D02*
X16895506Y-16030627D01*
X17190744Y-15973484D02*
X17095506Y-15973484D01*
X17095506Y-15973484D02*
X17085982Y-16068722D01*
X17085982Y-16068722D02*
X17095506Y-16059198D01*
X17095506Y-16059198D02*
X17114553Y-16049674D01*
X17114553Y-16049674D02*
X17162172Y-16049674D01*
X17162172Y-16049674D02*
X17181220Y-16059198D01*
X17181220Y-16059198D02*
X17190744Y-16068722D01*
X17190744Y-16068722D02*
X17200268Y-16087769D01*
X17200268Y-16087769D02*
X17200268Y-16135388D01*
X17200268Y-16135388D02*
X17190744Y-16154436D01*
X17190744Y-16154436D02*
X17181220Y-16163960D01*
X17181220Y-16163960D02*
X17162172Y-16173484D01*
X17162172Y-16173484D02*
X17114553Y-16173484D01*
X17114553Y-16173484D02*
X17095506Y-16163960D01*
X17095506Y-16163960D02*
X17085982Y-16154436D01*
X17266934Y-15973484D02*
X17400268Y-15973484D01*
X17400268Y-15973484D02*
X17314553Y-16173484D01*
X17466934Y-15973484D02*
X17466934Y-16011579D01*
X17543125Y-15973484D02*
X17543125Y-16011579D01*
X17838363Y-16249674D02*
X17828839Y-16240150D01*
X17828839Y-16240150D02*
X17809791Y-16211579D01*
X17809791Y-16211579D02*
X17800268Y-16192531D01*
X17800268Y-16192531D02*
X17790744Y-16163960D01*
X17790744Y-16163960D02*
X17781220Y-16116341D01*
X17781220Y-16116341D02*
X17781220Y-16078246D01*
X17781220Y-16078246D02*
X17790744Y-16030627D01*
X17790744Y-16030627D02*
X17800268Y-16002055D01*
X17800268Y-16002055D02*
X17809791Y-15983008D01*
X17809791Y-15983008D02*
X17828839Y-15954436D01*
X17828839Y-15954436D02*
X17838363Y-15944912D01*
X17905030Y-15992531D02*
X17914553Y-15983008D01*
X17914553Y-15983008D02*
X17933601Y-15973484D01*
X17933601Y-15973484D02*
X17981220Y-15973484D01*
X17981220Y-15973484D02*
X18000268Y-15983008D01*
X18000268Y-15983008D02*
X18009791Y-15992531D01*
X18009791Y-15992531D02*
X18019315Y-16011579D01*
X18019315Y-16011579D02*
X18019315Y-16030627D01*
X18019315Y-16030627D02*
X18009791Y-16059198D01*
X18009791Y-16059198D02*
X17895506Y-16173484D01*
X17895506Y-16173484D02*
X18019315Y-16173484D01*
X18257411Y-16173484D02*
X18257411Y-15973484D01*
X18343125Y-16173484D02*
X18343125Y-16068722D01*
X18343125Y-16068722D02*
X18333601Y-16049674D01*
X18333601Y-16049674D02*
X18314553Y-16040150D01*
X18314553Y-16040150D02*
X18285982Y-16040150D01*
X18285982Y-16040150D02*
X18266934Y-16049674D01*
X18266934Y-16049674D02*
X18257411Y-16059198D01*
X18466934Y-16173484D02*
X18447887Y-16163960D01*
X18447887Y-16163960D02*
X18438363Y-16154436D01*
X18438363Y-16154436D02*
X18428839Y-16135388D01*
X18428839Y-16135388D02*
X18428839Y-16078246D01*
X18428839Y-16078246D02*
X18438363Y-16059198D01*
X18438363Y-16059198D02*
X18447887Y-16049674D01*
X18447887Y-16049674D02*
X18466934Y-16040150D01*
X18466934Y-16040150D02*
X18495506Y-16040150D01*
X18495506Y-16040150D02*
X18514553Y-16049674D01*
X18514553Y-16049674D02*
X18524077Y-16059198D01*
X18524077Y-16059198D02*
X18533601Y-16078246D01*
X18533601Y-16078246D02*
X18533601Y-16135388D01*
X18533601Y-16135388D02*
X18524077Y-16154436D01*
X18524077Y-16154436D02*
X18514553Y-16163960D01*
X18514553Y-16163960D02*
X18495506Y-16173484D01*
X18495506Y-16173484D02*
X18466934Y-16173484D01*
X18647887Y-16173484D02*
X18628839Y-16163960D01*
X18628839Y-16163960D02*
X18619315Y-16144912D01*
X18619315Y-16144912D02*
X18619315Y-15973484D01*
X18800268Y-16163960D02*
X18781220Y-16173484D01*
X18781220Y-16173484D02*
X18743125Y-16173484D01*
X18743125Y-16173484D02*
X18724077Y-16163960D01*
X18724077Y-16163960D02*
X18714553Y-16144912D01*
X18714553Y-16144912D02*
X18714553Y-16068722D01*
X18714553Y-16068722D02*
X18724077Y-16049674D01*
X18724077Y-16049674D02*
X18743125Y-16040150D01*
X18743125Y-16040150D02*
X18781220Y-16040150D01*
X18781220Y-16040150D02*
X18800268Y-16049674D01*
X18800268Y-16049674D02*
X18809792Y-16068722D01*
X18809792Y-16068722D02*
X18809792Y-16087769D01*
X18809792Y-16087769D02*
X18714553Y-16106817D01*
X18885982Y-16163960D02*
X18905030Y-16173484D01*
X18905030Y-16173484D02*
X18943125Y-16173484D01*
X18943125Y-16173484D02*
X18962173Y-16163960D01*
X18962173Y-16163960D02*
X18971696Y-16144912D01*
X18971696Y-16144912D02*
X18971696Y-16135388D01*
X18971696Y-16135388D02*
X18962173Y-16116341D01*
X18962173Y-16116341D02*
X18943125Y-16106817D01*
X18943125Y-16106817D02*
X18914553Y-16106817D01*
X18914553Y-16106817D02*
X18895506Y-16097293D01*
X18895506Y-16097293D02*
X18885982Y-16078246D01*
X18885982Y-16078246D02*
X18885982Y-16068722D01*
X18885982Y-16068722D02*
X18895506Y-16049674D01*
X18895506Y-16049674D02*
X18914553Y-16040150D01*
X18914553Y-16040150D02*
X18943125Y-16040150D01*
X18943125Y-16040150D02*
X18962173Y-16049674D01*
X19038363Y-16249674D02*
X19047887Y-16240150D01*
X19047887Y-16240150D02*
X19066934Y-16211579D01*
X19066934Y-16211579D02*
X19076458Y-16192531D01*
X19076458Y-16192531D02*
X19085982Y-16163960D01*
X19085982Y-16163960D02*
X19095506Y-16116341D01*
X19095506Y-16116341D02*
X19095506Y-16078246D01*
X19095506Y-16078246D02*
X19085982Y-16030627D01*
X19085982Y-16030627D02*
X19076458Y-16002055D01*
X19076458Y-16002055D02*
X19066934Y-15983008D01*
X19066934Y-15983008D02*
X19047887Y-15954436D01*
X19047887Y-15954436D02*
X19038363Y-15944912D01*
D10*
X14263300Y-16346000D02*
G75*
G03*
X14263300Y-16346000I-45000J0D01*
G01*
D11*
X14562172Y-16237484D02*
X14581220Y-16237484D01*
X14581220Y-16237484D02*
X14600267Y-16247008D01*
X14600267Y-16247008D02*
X14609791Y-16256531D01*
X14609791Y-16256531D02*
X14619315Y-16275579D01*
X14619315Y-16275579D02*
X14628839Y-16313674D01*
X14628839Y-16313674D02*
X14628839Y-16361293D01*
X14628839Y-16361293D02*
X14619315Y-16399388D01*
X14619315Y-16399388D02*
X14609791Y-16418436D01*
X14609791Y-16418436D02*
X14600267Y-16427960D01*
X14600267Y-16427960D02*
X14581220Y-16437484D01*
X14581220Y-16437484D02*
X14562172Y-16437484D01*
X14562172Y-16437484D02*
X14543124Y-16427960D01*
X14543124Y-16427960D02*
X14533601Y-16418436D01*
X14533601Y-16418436D02*
X14524077Y-16399388D01*
X14524077Y-16399388D02*
X14514553Y-16361293D01*
X14514553Y-16361293D02*
X14514553Y-16313674D01*
X14514553Y-16313674D02*
X14524077Y-16275579D01*
X14524077Y-16275579D02*
X14533601Y-16256531D01*
X14533601Y-16256531D02*
X14543124Y-16247008D01*
X14543124Y-16247008D02*
X14562172Y-16237484D01*
X14714553Y-16418436D02*
X14724077Y-16427960D01*
X14724077Y-16427960D02*
X14714553Y-16437484D01*
X14714553Y-16437484D02*
X14705029Y-16427960D01*
X14705029Y-16427960D02*
X14714553Y-16418436D01*
X14714553Y-16418436D02*
X14714553Y-16437484D01*
X14819315Y-16437484D02*
X14857410Y-16437484D01*
X14857410Y-16437484D02*
X14876458Y-16427960D01*
X14876458Y-16427960D02*
X14885982Y-16418436D01*
X14885982Y-16418436D02*
X14905029Y-16389865D01*
X14905029Y-16389865D02*
X14914553Y-16351769D01*
X14914553Y-16351769D02*
X14914553Y-16275579D01*
X14914553Y-16275579D02*
X14905029Y-16256531D01*
X14905029Y-16256531D02*
X14895505Y-16247008D01*
X14895505Y-16247008D02*
X14876458Y-16237484D01*
X14876458Y-16237484D02*
X14838362Y-16237484D01*
X14838362Y-16237484D02*
X14819315Y-16247008D01*
X14819315Y-16247008D02*
X14809791Y-16256531D01*
X14809791Y-16256531D02*
X14800267Y-16275579D01*
X14800267Y-16275579D02*
X14800267Y-16323198D01*
X14800267Y-16323198D02*
X14809791Y-16342246D01*
X14809791Y-16342246D02*
X14819315Y-16351769D01*
X14819315Y-16351769D02*
X14838362Y-16361293D01*
X14838362Y-16361293D02*
X14876458Y-16361293D01*
X14876458Y-16361293D02*
X14895505Y-16351769D01*
X14895505Y-16351769D02*
X14905029Y-16342246D01*
X14905029Y-16342246D02*
X14914553Y-16323198D01*
X15038362Y-16237484D02*
X15057410Y-16237484D01*
X15057410Y-16237484D02*
X15076458Y-16247008D01*
X15076458Y-16247008D02*
X15085982Y-16256531D01*
X15085982Y-16256531D02*
X15095505Y-16275579D01*
X15095505Y-16275579D02*
X15105029Y-16313674D01*
X15105029Y-16313674D02*
X15105029Y-16361293D01*
X15105029Y-16361293D02*
X15095505Y-16399388D01*
X15095505Y-16399388D02*
X15085982Y-16418436D01*
X15085982Y-16418436D02*
X15076458Y-16427960D01*
X15076458Y-16427960D02*
X15057410Y-16437484D01*
X15057410Y-16437484D02*
X15038362Y-16437484D01*
X15038362Y-16437484D02*
X15019315Y-16427960D01*
X15019315Y-16427960D02*
X15009791Y-16418436D01*
X15009791Y-16418436D02*
X15000267Y-16399388D01*
X15000267Y-16399388D02*
X14990743Y-16361293D01*
X14990743Y-16361293D02*
X14990743Y-16313674D01*
X14990743Y-16313674D02*
X15000267Y-16275579D01*
X15000267Y-16275579D02*
X15009791Y-16256531D01*
X15009791Y-16256531D02*
X15019315Y-16247008D01*
X15019315Y-16247008D02*
X15038362Y-16237484D01*
X15228839Y-16237484D02*
X15247886Y-16237484D01*
X15247886Y-16237484D02*
X15266934Y-16247008D01*
X15266934Y-16247008D02*
X15276458Y-16256531D01*
X15276458Y-16256531D02*
X15285982Y-16275579D01*
X15285982Y-16275579D02*
X15295505Y-16313674D01*
X15295505Y-16313674D02*
X15295505Y-16361293D01*
X15295505Y-16361293D02*
X15285982Y-16399388D01*
X15285982Y-16399388D02*
X15276458Y-16418436D01*
X15276458Y-16418436D02*
X15266934Y-16427960D01*
X15266934Y-16427960D02*
X15247886Y-16437484D01*
X15247886Y-16437484D02*
X15228839Y-16437484D01*
X15228839Y-16437484D02*
X15209791Y-16427960D01*
X15209791Y-16427960D02*
X15200267Y-16418436D01*
X15200267Y-16418436D02*
X15190743Y-16399388D01*
X15190743Y-16399388D02*
X15181220Y-16361293D01*
X15181220Y-16361293D02*
X15181220Y-16313674D01*
X15181220Y-16313674D02*
X15190743Y-16275579D01*
X15190743Y-16275579D02*
X15200267Y-16256531D01*
X15200267Y-16256531D02*
X15209791Y-16247008D01*
X15209791Y-16247008D02*
X15228839Y-16237484D01*
X15381220Y-16437484D02*
X15381220Y-16304150D01*
X15381220Y-16323198D02*
X15390743Y-16313674D01*
X15390743Y-16313674D02*
X15409791Y-16304150D01*
X15409791Y-16304150D02*
X15438363Y-16304150D01*
X15438363Y-16304150D02*
X15457410Y-16313674D01*
X15457410Y-16313674D02*
X15466934Y-16332722D01*
X15466934Y-16332722D02*
X15466934Y-16437484D01*
X15466934Y-16332722D02*
X15476458Y-16313674D01*
X15476458Y-16313674D02*
X15495505Y-16304150D01*
X15495505Y-16304150D02*
X15524077Y-16304150D01*
X15524077Y-16304150D02*
X15543124Y-16313674D01*
X15543124Y-16313674D02*
X15552648Y-16332722D01*
X15552648Y-16332722D02*
X15552648Y-16437484D01*
X15647886Y-16437484D02*
X15647886Y-16304150D01*
X15647886Y-16323198D02*
X15657410Y-16313674D01*
X15657410Y-16313674D02*
X15676458Y-16304150D01*
X15676458Y-16304150D02*
X15705029Y-16304150D01*
X15705029Y-16304150D02*
X15724077Y-16313674D01*
X15724077Y-16313674D02*
X15733601Y-16332722D01*
X15733601Y-16332722D02*
X15733601Y-16437484D01*
X15733601Y-16332722D02*
X15743124Y-16313674D01*
X15743124Y-16313674D02*
X15762172Y-16304150D01*
X15762172Y-16304150D02*
X15790743Y-16304150D01*
X15790743Y-16304150D02*
X15809791Y-16313674D01*
X15809791Y-16313674D02*
X15819315Y-16332722D01*
X15819315Y-16332722D02*
X15819315Y-16437484D01*
X16209791Y-16227960D02*
X16038363Y-16485103D01*
X16466934Y-16237484D02*
X16485982Y-16237484D01*
X16485982Y-16237484D02*
X16505029Y-16247008D01*
X16505029Y-16247008D02*
X16514553Y-16256531D01*
X16514553Y-16256531D02*
X16524077Y-16275579D01*
X16524077Y-16275579D02*
X16533601Y-16313674D01*
X16533601Y-16313674D02*
X16533601Y-16361293D01*
X16533601Y-16361293D02*
X16524077Y-16399388D01*
X16524077Y-16399388D02*
X16514553Y-16418436D01*
X16514553Y-16418436D02*
X16505029Y-16427960D01*
X16505029Y-16427960D02*
X16485982Y-16437484D01*
X16485982Y-16437484D02*
X16466934Y-16437484D01*
X16466934Y-16437484D02*
X16447886Y-16427960D01*
X16447886Y-16427960D02*
X16438363Y-16418436D01*
X16438363Y-16418436D02*
X16428839Y-16399388D01*
X16428839Y-16399388D02*
X16419315Y-16361293D01*
X16419315Y-16361293D02*
X16419315Y-16313674D01*
X16419315Y-16313674D02*
X16428839Y-16275579D01*
X16428839Y-16275579D02*
X16438363Y-16256531D01*
X16438363Y-16256531D02*
X16447886Y-16247008D01*
X16447886Y-16247008D02*
X16466934Y-16237484D01*
X16619315Y-16418436D02*
X16628839Y-16427960D01*
X16628839Y-16427960D02*
X16619315Y-16437484D01*
X16619315Y-16437484D02*
X16609791Y-16427960D01*
X16609791Y-16427960D02*
X16619315Y-16418436D01*
X16619315Y-16418436D02*
X16619315Y-16437484D01*
X16752648Y-16237484D02*
X16771696Y-16237484D01*
X16771696Y-16237484D02*
X16790744Y-16247008D01*
X16790744Y-16247008D02*
X16800268Y-16256531D01*
X16800268Y-16256531D02*
X16809791Y-16275579D01*
X16809791Y-16275579D02*
X16819315Y-16313674D01*
X16819315Y-16313674D02*
X16819315Y-16361293D01*
X16819315Y-16361293D02*
X16809791Y-16399388D01*
X16809791Y-16399388D02*
X16800268Y-16418436D01*
X16800268Y-16418436D02*
X16790744Y-16427960D01*
X16790744Y-16427960D02*
X16771696Y-16437484D01*
X16771696Y-16437484D02*
X16752648Y-16437484D01*
X16752648Y-16437484D02*
X16733601Y-16427960D01*
X16733601Y-16427960D02*
X16724077Y-16418436D01*
X16724077Y-16418436D02*
X16714553Y-16399388D01*
X16714553Y-16399388D02*
X16705029Y-16361293D01*
X16705029Y-16361293D02*
X16705029Y-16313674D01*
X16705029Y-16313674D02*
X16714553Y-16275579D01*
X16714553Y-16275579D02*
X16724077Y-16256531D01*
X16724077Y-16256531D02*
X16733601Y-16247008D01*
X16733601Y-16247008D02*
X16752648Y-16237484D01*
X16885982Y-16237484D02*
X17009791Y-16237484D01*
X17009791Y-16237484D02*
X16943125Y-16313674D01*
X16943125Y-16313674D02*
X16971696Y-16313674D01*
X16971696Y-16313674D02*
X16990744Y-16323198D01*
X16990744Y-16323198D02*
X17000268Y-16332722D01*
X17000268Y-16332722D02*
X17009791Y-16351769D01*
X17009791Y-16351769D02*
X17009791Y-16399388D01*
X17009791Y-16399388D02*
X17000268Y-16418436D01*
X17000268Y-16418436D02*
X16990744Y-16427960D01*
X16990744Y-16427960D02*
X16971696Y-16437484D01*
X16971696Y-16437484D02*
X16914553Y-16437484D01*
X16914553Y-16437484D02*
X16895506Y-16427960D01*
X16895506Y-16427960D02*
X16885982Y-16418436D01*
X17190744Y-16237484D02*
X17095506Y-16237484D01*
X17095506Y-16237484D02*
X17085982Y-16332722D01*
X17085982Y-16332722D02*
X17095506Y-16323198D01*
X17095506Y-16323198D02*
X17114553Y-16313674D01*
X17114553Y-16313674D02*
X17162172Y-16313674D01*
X17162172Y-16313674D02*
X17181220Y-16323198D01*
X17181220Y-16323198D02*
X17190744Y-16332722D01*
X17190744Y-16332722D02*
X17200268Y-16351769D01*
X17200268Y-16351769D02*
X17200268Y-16399388D01*
X17200268Y-16399388D02*
X17190744Y-16418436D01*
X17190744Y-16418436D02*
X17181220Y-16427960D01*
X17181220Y-16427960D02*
X17162172Y-16437484D01*
X17162172Y-16437484D02*
X17114553Y-16437484D01*
X17114553Y-16437484D02*
X17095506Y-16427960D01*
X17095506Y-16427960D02*
X17085982Y-16418436D01*
X17371696Y-16304150D02*
X17371696Y-16437484D01*
X17324077Y-16227960D02*
X17276458Y-16370817D01*
X17276458Y-16370817D02*
X17400268Y-16370817D01*
X17466934Y-16237484D02*
X17466934Y-16275579D01*
X17543125Y-16237484D02*
X17543125Y-16275579D01*
X17838363Y-16513674D02*
X17828839Y-16504150D01*
X17828839Y-16504150D02*
X17809791Y-16475579D01*
X17809791Y-16475579D02*
X17800268Y-16456531D01*
X17800268Y-16456531D02*
X17790744Y-16427960D01*
X17790744Y-16427960D02*
X17781220Y-16380341D01*
X17781220Y-16380341D02*
X17781220Y-16342246D01*
X17781220Y-16342246D02*
X17790744Y-16294627D01*
X17790744Y-16294627D02*
X17800268Y-16266055D01*
X17800268Y-16266055D02*
X17809791Y-16247008D01*
X17809791Y-16247008D02*
X17828839Y-16218436D01*
X17828839Y-16218436D02*
X17838363Y-16208912D01*
X18000268Y-16304150D02*
X18000268Y-16437484D01*
X17952649Y-16227960D02*
X17905030Y-16370817D01*
X17905030Y-16370817D02*
X18028839Y-16370817D01*
X18257411Y-16437484D02*
X18257411Y-16237484D01*
X18343125Y-16437484D02*
X18343125Y-16332722D01*
X18343125Y-16332722D02*
X18333601Y-16313674D01*
X18333601Y-16313674D02*
X18314553Y-16304150D01*
X18314553Y-16304150D02*
X18285982Y-16304150D01*
X18285982Y-16304150D02*
X18266934Y-16313674D01*
X18266934Y-16313674D02*
X18257411Y-16323198D01*
X18466934Y-16437484D02*
X18447887Y-16427960D01*
X18447887Y-16427960D02*
X18438363Y-16418436D01*
X18438363Y-16418436D02*
X18428839Y-16399388D01*
X18428839Y-16399388D02*
X18428839Y-16342246D01*
X18428839Y-16342246D02*
X18438363Y-16323198D01*
X18438363Y-16323198D02*
X18447887Y-16313674D01*
X18447887Y-16313674D02*
X18466934Y-16304150D01*
X18466934Y-16304150D02*
X18495506Y-16304150D01*
X18495506Y-16304150D02*
X18514553Y-16313674D01*
X18514553Y-16313674D02*
X18524077Y-16323198D01*
X18524077Y-16323198D02*
X18533601Y-16342246D01*
X18533601Y-16342246D02*
X18533601Y-16399388D01*
X18533601Y-16399388D02*
X18524077Y-16418436D01*
X18524077Y-16418436D02*
X18514553Y-16427960D01*
X18514553Y-16427960D02*
X18495506Y-16437484D01*
X18495506Y-16437484D02*
X18466934Y-16437484D01*
X18647887Y-16437484D02*
X18628839Y-16427960D01*
X18628839Y-16427960D02*
X18619315Y-16408912D01*
X18619315Y-16408912D02*
X18619315Y-16237484D01*
X18800268Y-16427960D02*
X18781220Y-16437484D01*
X18781220Y-16437484D02*
X18743125Y-16437484D01*
X18743125Y-16437484D02*
X18724077Y-16427960D01*
X18724077Y-16427960D02*
X18714553Y-16408912D01*
X18714553Y-16408912D02*
X18714553Y-16332722D01*
X18714553Y-16332722D02*
X18724077Y-16313674D01*
X18724077Y-16313674D02*
X18743125Y-16304150D01*
X18743125Y-16304150D02*
X18781220Y-16304150D01*
X18781220Y-16304150D02*
X18800268Y-16313674D01*
X18800268Y-16313674D02*
X18809792Y-16332722D01*
X18809792Y-16332722D02*
X18809792Y-16351769D01*
X18809792Y-16351769D02*
X18714553Y-16370817D01*
X18885982Y-16427960D02*
X18905030Y-16437484D01*
X18905030Y-16437484D02*
X18943125Y-16437484D01*
X18943125Y-16437484D02*
X18962173Y-16427960D01*
X18962173Y-16427960D02*
X18971696Y-16408912D01*
X18971696Y-16408912D02*
X18971696Y-16399388D01*
X18971696Y-16399388D02*
X18962173Y-16380341D01*
X18962173Y-16380341D02*
X18943125Y-16370817D01*
X18943125Y-16370817D02*
X18914553Y-16370817D01*
X18914553Y-16370817D02*
X18895506Y-16361293D01*
X18895506Y-16361293D02*
X18885982Y-16342246D01*
X18885982Y-16342246D02*
X18885982Y-16332722D01*
X18885982Y-16332722D02*
X18895506Y-16313674D01*
X18895506Y-16313674D02*
X18914553Y-16304150D01*
X18914553Y-16304150D02*
X18943125Y-16304150D01*
X18943125Y-16304150D02*
X18962173Y-16313674D01*
X19038363Y-16513674D02*
X19047887Y-16504150D01*
X19047887Y-16504150D02*
X19066934Y-16475579D01*
X19066934Y-16475579D02*
X19076458Y-16456531D01*
X19076458Y-16456531D02*
X19085982Y-16427960D01*
X19085982Y-16427960D02*
X19095506Y-16380341D01*
X19095506Y-16380341D02*
X19095506Y-16342246D01*
X19095506Y-16342246D02*
X19085982Y-16294627D01*
X19085982Y-16294627D02*
X19076458Y-16266055D01*
X19076458Y-16266055D02*
X19066934Y-16247008D01*
X19066934Y-16247008D02*
X19047887Y-16218436D01*
X19047887Y-16218436D02*
X19038363Y-16208912D01*
D12*
X14203800Y-16550500D02*
X14203800Y-16669500D01*
X14144300Y-16610000D02*
X14263300Y-16610000D01*
D11*
X14628839Y-16701484D02*
X14514553Y-16701484D01*
X14571696Y-16701484D02*
X14571696Y-16501484D01*
X14571696Y-16501484D02*
X14552648Y-16530055D01*
X14552648Y-16530055D02*
X14533601Y-16549103D01*
X14533601Y-16549103D02*
X14514553Y-16558627D01*
X14714553Y-16682436D02*
X14724077Y-16691960D01*
X14724077Y-16691960D02*
X14714553Y-16701484D01*
X14714553Y-16701484D02*
X14705029Y-16691960D01*
X14705029Y-16691960D02*
X14714553Y-16682436D01*
X14714553Y-16682436D02*
X14714553Y-16701484D01*
X14914553Y-16701484D02*
X14800267Y-16701484D01*
X14857410Y-16701484D02*
X14857410Y-16501484D01*
X14857410Y-16501484D02*
X14838362Y-16530055D01*
X14838362Y-16530055D02*
X14819315Y-16549103D01*
X14819315Y-16549103D02*
X14800267Y-16558627D01*
X15009791Y-16701484D02*
X15047886Y-16701484D01*
X15047886Y-16701484D02*
X15066934Y-16691960D01*
X15066934Y-16691960D02*
X15076458Y-16682436D01*
X15076458Y-16682436D02*
X15095505Y-16653865D01*
X15095505Y-16653865D02*
X15105029Y-16615769D01*
X15105029Y-16615769D02*
X15105029Y-16539579D01*
X15105029Y-16539579D02*
X15095505Y-16520531D01*
X15095505Y-16520531D02*
X15085982Y-16511008D01*
X15085982Y-16511008D02*
X15066934Y-16501484D01*
X15066934Y-16501484D02*
X15028839Y-16501484D01*
X15028839Y-16501484D02*
X15009791Y-16511008D01*
X15009791Y-16511008D02*
X15000267Y-16520531D01*
X15000267Y-16520531D02*
X14990743Y-16539579D01*
X14990743Y-16539579D02*
X14990743Y-16587198D01*
X14990743Y-16587198D02*
X15000267Y-16606246D01*
X15000267Y-16606246D02*
X15009791Y-16615769D01*
X15009791Y-16615769D02*
X15028839Y-16625293D01*
X15028839Y-16625293D02*
X15066934Y-16625293D01*
X15066934Y-16625293D02*
X15085982Y-16615769D01*
X15085982Y-16615769D02*
X15095505Y-16606246D01*
X15095505Y-16606246D02*
X15105029Y-16587198D01*
X15228839Y-16501484D02*
X15247886Y-16501484D01*
X15247886Y-16501484D02*
X15266934Y-16511008D01*
X15266934Y-16511008D02*
X15276458Y-16520531D01*
X15276458Y-16520531D02*
X15285982Y-16539579D01*
X15285982Y-16539579D02*
X15295505Y-16577674D01*
X15295505Y-16577674D02*
X15295505Y-16625293D01*
X15295505Y-16625293D02*
X15285982Y-16663388D01*
X15285982Y-16663388D02*
X15276458Y-16682436D01*
X15276458Y-16682436D02*
X15266934Y-16691960D01*
X15266934Y-16691960D02*
X15247886Y-16701484D01*
X15247886Y-16701484D02*
X15228839Y-16701484D01*
X15228839Y-16701484D02*
X15209791Y-16691960D01*
X15209791Y-16691960D02*
X15200267Y-16682436D01*
X15200267Y-16682436D02*
X15190743Y-16663388D01*
X15190743Y-16663388D02*
X15181220Y-16625293D01*
X15181220Y-16625293D02*
X15181220Y-16577674D01*
X15181220Y-16577674D02*
X15190743Y-16539579D01*
X15190743Y-16539579D02*
X15200267Y-16520531D01*
X15200267Y-16520531D02*
X15209791Y-16511008D01*
X15209791Y-16511008D02*
X15228839Y-16501484D01*
X15381220Y-16701484D02*
X15381220Y-16568150D01*
X15381220Y-16587198D02*
X15390743Y-16577674D01*
X15390743Y-16577674D02*
X15409791Y-16568150D01*
X15409791Y-16568150D02*
X15438363Y-16568150D01*
X15438363Y-16568150D02*
X15457410Y-16577674D01*
X15457410Y-16577674D02*
X15466934Y-16596722D01*
X15466934Y-16596722D02*
X15466934Y-16701484D01*
X15466934Y-16596722D02*
X15476458Y-16577674D01*
X15476458Y-16577674D02*
X15495505Y-16568150D01*
X15495505Y-16568150D02*
X15524077Y-16568150D01*
X15524077Y-16568150D02*
X15543124Y-16577674D01*
X15543124Y-16577674D02*
X15552648Y-16596722D01*
X15552648Y-16596722D02*
X15552648Y-16701484D01*
X15647886Y-16701484D02*
X15647886Y-16568150D01*
X15647886Y-16587198D02*
X15657410Y-16577674D01*
X15657410Y-16577674D02*
X15676458Y-16568150D01*
X15676458Y-16568150D02*
X15705029Y-16568150D01*
X15705029Y-16568150D02*
X15724077Y-16577674D01*
X15724077Y-16577674D02*
X15733601Y-16596722D01*
X15733601Y-16596722D02*
X15733601Y-16701484D01*
X15733601Y-16596722D02*
X15743124Y-16577674D01*
X15743124Y-16577674D02*
X15762172Y-16568150D01*
X15762172Y-16568150D02*
X15790743Y-16568150D01*
X15790743Y-16568150D02*
X15809791Y-16577674D01*
X15809791Y-16577674D02*
X15819315Y-16596722D01*
X15819315Y-16596722D02*
X15819315Y-16701484D01*
X16209791Y-16491960D02*
X16038363Y-16749103D01*
X16466934Y-16501484D02*
X16485982Y-16501484D01*
X16485982Y-16501484D02*
X16505029Y-16511008D01*
X16505029Y-16511008D02*
X16514553Y-16520531D01*
X16514553Y-16520531D02*
X16524077Y-16539579D01*
X16524077Y-16539579D02*
X16533601Y-16577674D01*
X16533601Y-16577674D02*
X16533601Y-16625293D01*
X16533601Y-16625293D02*
X16524077Y-16663388D01*
X16524077Y-16663388D02*
X16514553Y-16682436D01*
X16514553Y-16682436D02*
X16505029Y-16691960D01*
X16505029Y-16691960D02*
X16485982Y-16701484D01*
X16485982Y-16701484D02*
X16466934Y-16701484D01*
X16466934Y-16701484D02*
X16447886Y-16691960D01*
X16447886Y-16691960D02*
X16438363Y-16682436D01*
X16438363Y-16682436D02*
X16428839Y-16663388D01*
X16428839Y-16663388D02*
X16419315Y-16625293D01*
X16419315Y-16625293D02*
X16419315Y-16577674D01*
X16419315Y-16577674D02*
X16428839Y-16539579D01*
X16428839Y-16539579D02*
X16438363Y-16520531D01*
X16438363Y-16520531D02*
X16447886Y-16511008D01*
X16447886Y-16511008D02*
X16466934Y-16501484D01*
X16619315Y-16682436D02*
X16628839Y-16691960D01*
X16628839Y-16691960D02*
X16619315Y-16701484D01*
X16619315Y-16701484D02*
X16609791Y-16691960D01*
X16609791Y-16691960D02*
X16619315Y-16682436D01*
X16619315Y-16682436D02*
X16619315Y-16701484D01*
X16752648Y-16501484D02*
X16771696Y-16501484D01*
X16771696Y-16501484D02*
X16790744Y-16511008D01*
X16790744Y-16511008D02*
X16800268Y-16520531D01*
X16800268Y-16520531D02*
X16809791Y-16539579D01*
X16809791Y-16539579D02*
X16819315Y-16577674D01*
X16819315Y-16577674D02*
X16819315Y-16625293D01*
X16819315Y-16625293D02*
X16809791Y-16663388D01*
X16809791Y-16663388D02*
X16800268Y-16682436D01*
X16800268Y-16682436D02*
X16790744Y-16691960D01*
X16790744Y-16691960D02*
X16771696Y-16701484D01*
X16771696Y-16701484D02*
X16752648Y-16701484D01*
X16752648Y-16701484D02*
X16733601Y-16691960D01*
X16733601Y-16691960D02*
X16724077Y-16682436D01*
X16724077Y-16682436D02*
X16714553Y-16663388D01*
X16714553Y-16663388D02*
X16705029Y-16625293D01*
X16705029Y-16625293D02*
X16705029Y-16577674D01*
X16705029Y-16577674D02*
X16714553Y-16539579D01*
X16714553Y-16539579D02*
X16724077Y-16520531D01*
X16724077Y-16520531D02*
X16733601Y-16511008D01*
X16733601Y-16511008D02*
X16752648Y-16501484D01*
X16990744Y-16568150D02*
X16990744Y-16701484D01*
X16943125Y-16491960D02*
X16895506Y-16634817D01*
X16895506Y-16634817D02*
X17019315Y-16634817D01*
X17181220Y-16501484D02*
X17143125Y-16501484D01*
X17143125Y-16501484D02*
X17124077Y-16511008D01*
X17124077Y-16511008D02*
X17114553Y-16520531D01*
X17114553Y-16520531D02*
X17095506Y-16549103D01*
X17095506Y-16549103D02*
X17085982Y-16587198D01*
X17085982Y-16587198D02*
X17085982Y-16663388D01*
X17085982Y-16663388D02*
X17095506Y-16682436D01*
X17095506Y-16682436D02*
X17105029Y-16691960D01*
X17105029Y-16691960D02*
X17124077Y-16701484D01*
X17124077Y-16701484D02*
X17162172Y-16701484D01*
X17162172Y-16701484D02*
X17181220Y-16691960D01*
X17181220Y-16691960D02*
X17190744Y-16682436D01*
X17190744Y-16682436D02*
X17200268Y-16663388D01*
X17200268Y-16663388D02*
X17200268Y-16615769D01*
X17200268Y-16615769D02*
X17190744Y-16596722D01*
X17190744Y-16596722D02*
X17181220Y-16587198D01*
X17181220Y-16587198D02*
X17162172Y-16577674D01*
X17162172Y-16577674D02*
X17124077Y-16577674D01*
X17124077Y-16577674D02*
X17105029Y-16587198D01*
X17105029Y-16587198D02*
X17095506Y-16596722D01*
X17095506Y-16596722D02*
X17085982Y-16615769D01*
X17295506Y-16701484D02*
X17333601Y-16701484D01*
X17333601Y-16701484D02*
X17352649Y-16691960D01*
X17352649Y-16691960D02*
X17362172Y-16682436D01*
X17362172Y-16682436D02*
X17381220Y-16653865D01*
X17381220Y-16653865D02*
X17390744Y-16615769D01*
X17390744Y-16615769D02*
X17390744Y-16539579D01*
X17390744Y-16539579D02*
X17381220Y-16520531D01*
X17381220Y-16520531D02*
X17371696Y-16511008D01*
X17371696Y-16511008D02*
X17352649Y-16501484D01*
X17352649Y-16501484D02*
X17314553Y-16501484D01*
X17314553Y-16501484D02*
X17295506Y-16511008D01*
X17295506Y-16511008D02*
X17285982Y-16520531D01*
X17285982Y-16520531D02*
X17276458Y-16539579D01*
X17276458Y-16539579D02*
X17276458Y-16587198D01*
X17276458Y-16587198D02*
X17285982Y-16606246D01*
X17285982Y-16606246D02*
X17295506Y-16615769D01*
X17295506Y-16615769D02*
X17314553Y-16625293D01*
X17314553Y-16625293D02*
X17352649Y-16625293D01*
X17352649Y-16625293D02*
X17371696Y-16615769D01*
X17371696Y-16615769D02*
X17381220Y-16606246D01*
X17381220Y-16606246D02*
X17390744Y-16587198D01*
X17466934Y-16501484D02*
X17466934Y-16539579D01*
X17543125Y-16501484D02*
X17543125Y-16539579D01*
X17838363Y-16777674D02*
X17828839Y-16768150D01*
X17828839Y-16768150D02*
X17809791Y-16739579D01*
X17809791Y-16739579D02*
X17800268Y-16720531D01*
X17800268Y-16720531D02*
X17790744Y-16691960D01*
X17790744Y-16691960D02*
X17781220Y-16644341D01*
X17781220Y-16644341D02*
X17781220Y-16606246D01*
X17781220Y-16606246D02*
X17790744Y-16558627D01*
X17790744Y-16558627D02*
X17800268Y-16530055D01*
X17800268Y-16530055D02*
X17809791Y-16511008D01*
X17809791Y-16511008D02*
X17828839Y-16482436D01*
X17828839Y-16482436D02*
X17838363Y-16472912D01*
X18000268Y-16568150D02*
X18000268Y-16701484D01*
X17952649Y-16491960D02*
X17905030Y-16634817D01*
X17905030Y-16634817D02*
X18028839Y-16634817D01*
X18257411Y-16701484D02*
X18257411Y-16501484D01*
X18343125Y-16701484D02*
X18343125Y-16596722D01*
X18343125Y-16596722D02*
X18333601Y-16577674D01*
X18333601Y-16577674D02*
X18314553Y-16568150D01*
X18314553Y-16568150D02*
X18285982Y-16568150D01*
X18285982Y-16568150D02*
X18266934Y-16577674D01*
X18266934Y-16577674D02*
X18257411Y-16587198D01*
X18466934Y-16701484D02*
X18447887Y-16691960D01*
X18447887Y-16691960D02*
X18438363Y-16682436D01*
X18438363Y-16682436D02*
X18428839Y-16663388D01*
X18428839Y-16663388D02*
X18428839Y-16606246D01*
X18428839Y-16606246D02*
X18438363Y-16587198D01*
X18438363Y-16587198D02*
X18447887Y-16577674D01*
X18447887Y-16577674D02*
X18466934Y-16568150D01*
X18466934Y-16568150D02*
X18495506Y-16568150D01*
X18495506Y-16568150D02*
X18514553Y-16577674D01*
X18514553Y-16577674D02*
X18524077Y-16587198D01*
X18524077Y-16587198D02*
X18533601Y-16606246D01*
X18533601Y-16606246D02*
X18533601Y-16663388D01*
X18533601Y-16663388D02*
X18524077Y-16682436D01*
X18524077Y-16682436D02*
X18514553Y-16691960D01*
X18514553Y-16691960D02*
X18495506Y-16701484D01*
X18495506Y-16701484D02*
X18466934Y-16701484D01*
X18647887Y-16701484D02*
X18628839Y-16691960D01*
X18628839Y-16691960D02*
X18619315Y-16672912D01*
X18619315Y-16672912D02*
X18619315Y-16501484D01*
X18800268Y-16691960D02*
X18781220Y-16701484D01*
X18781220Y-16701484D02*
X18743125Y-16701484D01*
X18743125Y-16701484D02*
X18724077Y-16691960D01*
X18724077Y-16691960D02*
X18714553Y-16672912D01*
X18714553Y-16672912D02*
X18714553Y-16596722D01*
X18714553Y-16596722D02*
X18724077Y-16577674D01*
X18724077Y-16577674D02*
X18743125Y-16568150D01*
X18743125Y-16568150D02*
X18781220Y-16568150D01*
X18781220Y-16568150D02*
X18800268Y-16577674D01*
X18800268Y-16577674D02*
X18809792Y-16596722D01*
X18809792Y-16596722D02*
X18809792Y-16615769D01*
X18809792Y-16615769D02*
X18714553Y-16634817D01*
X18885982Y-16691960D02*
X18905030Y-16701484D01*
X18905030Y-16701484D02*
X18943125Y-16701484D01*
X18943125Y-16701484D02*
X18962173Y-16691960D01*
X18962173Y-16691960D02*
X18971696Y-16672912D01*
X18971696Y-16672912D02*
X18971696Y-16663388D01*
X18971696Y-16663388D02*
X18962173Y-16644341D01*
X18962173Y-16644341D02*
X18943125Y-16634817D01*
X18943125Y-16634817D02*
X18914553Y-16634817D01*
X18914553Y-16634817D02*
X18895506Y-16625293D01*
X18895506Y-16625293D02*
X18885982Y-16606246D01*
X18885982Y-16606246D02*
X18885982Y-16596722D01*
X18885982Y-16596722D02*
X18895506Y-16577674D01*
X18895506Y-16577674D02*
X18914553Y-16568150D01*
X18914553Y-16568150D02*
X18943125Y-16568150D01*
X18943125Y-16568150D02*
X18962173Y-16577674D01*
X19038363Y-16777674D02*
X19047887Y-16768150D01*
X19047887Y-16768150D02*
X19066934Y-16739579D01*
X19066934Y-16739579D02*
X19076458Y-16720531D01*
X19076458Y-16720531D02*
X19085982Y-16691960D01*
X19085982Y-16691960D02*
X19095506Y-16644341D01*
X19095506Y-16644341D02*
X19095506Y-16606246D01*
X19095506Y-16606246D02*
X19085982Y-16558627D01*
X19085982Y-16558627D02*
X19076458Y-16530055D01*
X19076458Y-16530055D02*
X19066934Y-16511008D01*
X19066934Y-16511008D02*
X19047887Y-16482436D01*
X19047887Y-16482436D02*
X19038363Y-16472912D01*
D13*
X14244262Y-16919962D02*
X14244262Y-16828038D01*
X14152338Y-16828038D01*
X14152338Y-16919962D01*
X14244262Y-16919962D01*
D11*
X14628839Y-16965484D02*
X14514553Y-16965484D01*
X14571696Y-16965484D02*
X14571696Y-16765484D01*
X14571696Y-16765484D02*
X14552648Y-16794055D01*
X14552648Y-16794055D02*
X14533601Y-16813103D01*
X14533601Y-16813103D02*
X14514553Y-16822627D01*
X14714553Y-16946436D02*
X14724077Y-16955960D01*
X14724077Y-16955960D02*
X14714553Y-16965484D01*
X14714553Y-16965484D02*
X14705029Y-16955960D01*
X14705029Y-16955960D02*
X14714553Y-16946436D01*
X14714553Y-16946436D02*
X14714553Y-16965484D01*
X14790743Y-16765484D02*
X14914553Y-16765484D01*
X14914553Y-16765484D02*
X14847886Y-16841674D01*
X14847886Y-16841674D02*
X14876458Y-16841674D01*
X14876458Y-16841674D02*
X14895505Y-16851198D01*
X14895505Y-16851198D02*
X14905029Y-16860722D01*
X14905029Y-16860722D02*
X14914553Y-16879770D01*
X14914553Y-16879770D02*
X14914553Y-16927389D01*
X14914553Y-16927389D02*
X14905029Y-16946436D01*
X14905029Y-16946436D02*
X14895505Y-16955960D01*
X14895505Y-16955960D02*
X14876458Y-16965484D01*
X14876458Y-16965484D02*
X14819315Y-16965484D01*
X14819315Y-16965484D02*
X14800267Y-16955960D01*
X14800267Y-16955960D02*
X14790743Y-16946436D01*
X15038362Y-16765484D02*
X15057410Y-16765484D01*
X15057410Y-16765484D02*
X15076458Y-16775008D01*
X15076458Y-16775008D02*
X15085982Y-16784531D01*
X15085982Y-16784531D02*
X15095505Y-16803579D01*
X15095505Y-16803579D02*
X15105029Y-16841674D01*
X15105029Y-16841674D02*
X15105029Y-16889293D01*
X15105029Y-16889293D02*
X15095505Y-16927389D01*
X15095505Y-16927389D02*
X15085982Y-16946436D01*
X15085982Y-16946436D02*
X15076458Y-16955960D01*
X15076458Y-16955960D02*
X15057410Y-16965484D01*
X15057410Y-16965484D02*
X15038362Y-16965484D01*
X15038362Y-16965484D02*
X15019315Y-16955960D01*
X15019315Y-16955960D02*
X15009791Y-16946436D01*
X15009791Y-16946436D02*
X15000267Y-16927389D01*
X15000267Y-16927389D02*
X14990743Y-16889293D01*
X14990743Y-16889293D02*
X14990743Y-16841674D01*
X14990743Y-16841674D02*
X15000267Y-16803579D01*
X15000267Y-16803579D02*
X15009791Y-16784531D01*
X15009791Y-16784531D02*
X15019315Y-16775008D01*
X15019315Y-16775008D02*
X15038362Y-16765484D01*
X15228839Y-16765484D02*
X15247886Y-16765484D01*
X15247886Y-16765484D02*
X15266934Y-16775008D01*
X15266934Y-16775008D02*
X15276458Y-16784531D01*
X15276458Y-16784531D02*
X15285982Y-16803579D01*
X15285982Y-16803579D02*
X15295505Y-16841674D01*
X15295505Y-16841674D02*
X15295505Y-16889293D01*
X15295505Y-16889293D02*
X15285982Y-16927389D01*
X15285982Y-16927389D02*
X15276458Y-16946436D01*
X15276458Y-16946436D02*
X15266934Y-16955960D01*
X15266934Y-16955960D02*
X15247886Y-16965484D01*
X15247886Y-16965484D02*
X15228839Y-16965484D01*
X15228839Y-16965484D02*
X15209791Y-16955960D01*
X15209791Y-16955960D02*
X15200267Y-16946436D01*
X15200267Y-16946436D02*
X15190743Y-16927389D01*
X15190743Y-16927389D02*
X15181220Y-16889293D01*
X15181220Y-16889293D02*
X15181220Y-16841674D01*
X15181220Y-16841674D02*
X15190743Y-16803579D01*
X15190743Y-16803579D02*
X15200267Y-16784531D01*
X15200267Y-16784531D02*
X15209791Y-16775008D01*
X15209791Y-16775008D02*
X15228839Y-16765484D01*
X15381220Y-16965484D02*
X15381220Y-16832150D01*
X15381220Y-16851198D02*
X15390743Y-16841674D01*
X15390743Y-16841674D02*
X15409791Y-16832150D01*
X15409791Y-16832150D02*
X15438363Y-16832150D01*
X15438363Y-16832150D02*
X15457410Y-16841674D01*
X15457410Y-16841674D02*
X15466934Y-16860722D01*
X15466934Y-16860722D02*
X15466934Y-16965484D01*
X15466934Y-16860722D02*
X15476458Y-16841674D01*
X15476458Y-16841674D02*
X15495505Y-16832150D01*
X15495505Y-16832150D02*
X15524077Y-16832150D01*
X15524077Y-16832150D02*
X15543124Y-16841674D01*
X15543124Y-16841674D02*
X15552648Y-16860722D01*
X15552648Y-16860722D02*
X15552648Y-16965484D01*
X15647886Y-16965484D02*
X15647886Y-16832150D01*
X15647886Y-16851198D02*
X15657410Y-16841674D01*
X15657410Y-16841674D02*
X15676458Y-16832150D01*
X15676458Y-16832150D02*
X15705029Y-16832150D01*
X15705029Y-16832150D02*
X15724077Y-16841674D01*
X15724077Y-16841674D02*
X15733601Y-16860722D01*
X15733601Y-16860722D02*
X15733601Y-16965484D01*
X15733601Y-16860722D02*
X15743124Y-16841674D01*
X15743124Y-16841674D02*
X15762172Y-16832150D01*
X15762172Y-16832150D02*
X15790743Y-16832150D01*
X15790743Y-16832150D02*
X15809791Y-16841674D01*
X15809791Y-16841674D02*
X15819315Y-16860722D01*
X15819315Y-16860722D02*
X15819315Y-16965484D01*
X16209791Y-16755960D02*
X16038363Y-17013103D01*
X16466934Y-16765484D02*
X16485982Y-16765484D01*
X16485982Y-16765484D02*
X16505029Y-16775008D01*
X16505029Y-16775008D02*
X16514553Y-16784531D01*
X16514553Y-16784531D02*
X16524077Y-16803579D01*
X16524077Y-16803579D02*
X16533601Y-16841674D01*
X16533601Y-16841674D02*
X16533601Y-16889293D01*
X16533601Y-16889293D02*
X16524077Y-16927389D01*
X16524077Y-16927389D02*
X16514553Y-16946436D01*
X16514553Y-16946436D02*
X16505029Y-16955960D01*
X16505029Y-16955960D02*
X16485982Y-16965484D01*
X16485982Y-16965484D02*
X16466934Y-16965484D01*
X16466934Y-16965484D02*
X16447886Y-16955960D01*
X16447886Y-16955960D02*
X16438363Y-16946436D01*
X16438363Y-16946436D02*
X16428839Y-16927389D01*
X16428839Y-16927389D02*
X16419315Y-16889293D01*
X16419315Y-16889293D02*
X16419315Y-16841674D01*
X16419315Y-16841674D02*
X16428839Y-16803579D01*
X16428839Y-16803579D02*
X16438363Y-16784531D01*
X16438363Y-16784531D02*
X16447886Y-16775008D01*
X16447886Y-16775008D02*
X16466934Y-16765484D01*
X16619315Y-16946436D02*
X16628839Y-16955960D01*
X16628839Y-16955960D02*
X16619315Y-16965484D01*
X16619315Y-16965484D02*
X16609791Y-16955960D01*
X16609791Y-16955960D02*
X16619315Y-16946436D01*
X16619315Y-16946436D02*
X16619315Y-16965484D01*
X16752648Y-16765484D02*
X16771696Y-16765484D01*
X16771696Y-16765484D02*
X16790744Y-16775008D01*
X16790744Y-16775008D02*
X16800268Y-16784531D01*
X16800268Y-16784531D02*
X16809791Y-16803579D01*
X16809791Y-16803579D02*
X16819315Y-16841674D01*
X16819315Y-16841674D02*
X16819315Y-16889293D01*
X16819315Y-16889293D02*
X16809791Y-16927389D01*
X16809791Y-16927389D02*
X16800268Y-16946436D01*
X16800268Y-16946436D02*
X16790744Y-16955960D01*
X16790744Y-16955960D02*
X16771696Y-16965484D01*
X16771696Y-16965484D02*
X16752648Y-16965484D01*
X16752648Y-16965484D02*
X16733601Y-16955960D01*
X16733601Y-16955960D02*
X16724077Y-16946436D01*
X16724077Y-16946436D02*
X16714553Y-16927389D01*
X16714553Y-16927389D02*
X16705029Y-16889293D01*
X16705029Y-16889293D02*
X16705029Y-16841674D01*
X16705029Y-16841674D02*
X16714553Y-16803579D01*
X16714553Y-16803579D02*
X16724077Y-16784531D01*
X16724077Y-16784531D02*
X16733601Y-16775008D01*
X16733601Y-16775008D02*
X16752648Y-16765484D01*
X17000268Y-16765484D02*
X16905029Y-16765484D01*
X16905029Y-16765484D02*
X16895506Y-16860722D01*
X16895506Y-16860722D02*
X16905029Y-16851198D01*
X16905029Y-16851198D02*
X16924077Y-16841674D01*
X16924077Y-16841674D02*
X16971696Y-16841674D01*
X16971696Y-16841674D02*
X16990744Y-16851198D01*
X16990744Y-16851198D02*
X17000268Y-16860722D01*
X17000268Y-16860722D02*
X17009791Y-16879770D01*
X17009791Y-16879770D02*
X17009791Y-16927389D01*
X17009791Y-16927389D02*
X17000268Y-16946436D01*
X17000268Y-16946436D02*
X16990744Y-16955960D01*
X16990744Y-16955960D02*
X16971696Y-16965484D01*
X16971696Y-16965484D02*
X16924077Y-16965484D01*
X16924077Y-16965484D02*
X16905029Y-16955960D01*
X16905029Y-16955960D02*
X16895506Y-16946436D01*
X17200268Y-16965484D02*
X17085982Y-16965484D01*
X17143125Y-16965484D02*
X17143125Y-16765484D01*
X17143125Y-16765484D02*
X17124077Y-16794055D01*
X17124077Y-16794055D02*
X17105029Y-16813103D01*
X17105029Y-16813103D02*
X17085982Y-16822627D01*
X17276458Y-16784531D02*
X17285982Y-16775008D01*
X17285982Y-16775008D02*
X17305029Y-16765484D01*
X17305029Y-16765484D02*
X17352649Y-16765484D01*
X17352649Y-16765484D02*
X17371696Y-16775008D01*
X17371696Y-16775008D02*
X17381220Y-16784531D01*
X17381220Y-16784531D02*
X17390744Y-16803579D01*
X17390744Y-16803579D02*
X17390744Y-16822627D01*
X17390744Y-16822627D02*
X17381220Y-16851198D01*
X17381220Y-16851198D02*
X17266934Y-16965484D01*
X17266934Y-16965484D02*
X17390744Y-16965484D01*
X17466934Y-16765484D02*
X17466934Y-16803579D01*
X17543125Y-16765484D02*
X17543125Y-16803579D01*
X17838363Y-17041674D02*
X17828839Y-17032150D01*
X17828839Y-17032150D02*
X17809791Y-17003579D01*
X17809791Y-17003579D02*
X17800268Y-16984531D01*
X17800268Y-16984531D02*
X17790744Y-16955960D01*
X17790744Y-16955960D02*
X17781220Y-16908341D01*
X17781220Y-16908341D02*
X17781220Y-16870246D01*
X17781220Y-16870246D02*
X17790744Y-16822627D01*
X17790744Y-16822627D02*
X17800268Y-16794055D01*
X17800268Y-16794055D02*
X17809791Y-16775008D01*
X17809791Y-16775008D02*
X17828839Y-16746436D01*
X17828839Y-16746436D02*
X17838363Y-16736912D01*
X17943125Y-16851198D02*
X17924077Y-16841674D01*
X17924077Y-16841674D02*
X17914553Y-16832150D01*
X17914553Y-16832150D02*
X17905030Y-16813103D01*
X17905030Y-16813103D02*
X17905030Y-16803579D01*
X17905030Y-16803579D02*
X17914553Y-16784531D01*
X17914553Y-16784531D02*
X17924077Y-16775008D01*
X17924077Y-16775008D02*
X17943125Y-16765484D01*
X17943125Y-16765484D02*
X17981220Y-16765484D01*
X17981220Y-16765484D02*
X18000268Y-16775008D01*
X18000268Y-16775008D02*
X18009791Y-16784531D01*
X18009791Y-16784531D02*
X18019315Y-16803579D01*
X18019315Y-16803579D02*
X18019315Y-16813103D01*
X18019315Y-16813103D02*
X18009791Y-16832150D01*
X18009791Y-16832150D02*
X18000268Y-16841674D01*
X18000268Y-16841674D02*
X17981220Y-16851198D01*
X17981220Y-16851198D02*
X17943125Y-16851198D01*
X17943125Y-16851198D02*
X17924077Y-16860722D01*
X17924077Y-16860722D02*
X17914553Y-16870246D01*
X17914553Y-16870246D02*
X17905030Y-16889293D01*
X17905030Y-16889293D02*
X17905030Y-16927389D01*
X17905030Y-16927389D02*
X17914553Y-16946436D01*
X17914553Y-16946436D02*
X17924077Y-16955960D01*
X17924077Y-16955960D02*
X17943125Y-16965484D01*
X17943125Y-16965484D02*
X17981220Y-16965484D01*
X17981220Y-16965484D02*
X18000268Y-16955960D01*
X18000268Y-16955960D02*
X18009791Y-16946436D01*
X18009791Y-16946436D02*
X18019315Y-16927389D01*
X18019315Y-16927389D02*
X18019315Y-16889293D01*
X18019315Y-16889293D02*
X18009791Y-16870246D01*
X18009791Y-16870246D02*
X18000268Y-16860722D01*
X18000268Y-16860722D02*
X17981220Y-16851198D01*
X18257411Y-16965484D02*
X18257411Y-16765484D01*
X18343125Y-16965484D02*
X18343125Y-16860722D01*
X18343125Y-16860722D02*
X18333601Y-16841674D01*
X18333601Y-16841674D02*
X18314553Y-16832150D01*
X18314553Y-16832150D02*
X18285982Y-16832150D01*
X18285982Y-16832150D02*
X18266934Y-16841674D01*
X18266934Y-16841674D02*
X18257411Y-16851198D01*
X18466934Y-16965484D02*
X18447887Y-16955960D01*
X18447887Y-16955960D02*
X18438363Y-16946436D01*
X18438363Y-16946436D02*
X18428839Y-16927389D01*
X18428839Y-16927389D02*
X18428839Y-16870246D01*
X18428839Y-16870246D02*
X18438363Y-16851198D01*
X18438363Y-16851198D02*
X18447887Y-16841674D01*
X18447887Y-16841674D02*
X18466934Y-16832150D01*
X18466934Y-16832150D02*
X18495506Y-16832150D01*
X18495506Y-16832150D02*
X18514553Y-16841674D01*
X18514553Y-16841674D02*
X18524077Y-16851198D01*
X18524077Y-16851198D02*
X18533601Y-16870246D01*
X18533601Y-16870246D02*
X18533601Y-16927389D01*
X18533601Y-16927389D02*
X18524077Y-16946436D01*
X18524077Y-16946436D02*
X18514553Y-16955960D01*
X18514553Y-16955960D02*
X18495506Y-16965484D01*
X18495506Y-16965484D02*
X18466934Y-16965484D01*
X18647887Y-16965484D02*
X18628839Y-16955960D01*
X18628839Y-16955960D02*
X18619315Y-16936912D01*
X18619315Y-16936912D02*
X18619315Y-16765484D01*
X18800268Y-16955960D02*
X18781220Y-16965484D01*
X18781220Y-16965484D02*
X18743125Y-16965484D01*
X18743125Y-16965484D02*
X18724077Y-16955960D01*
X18724077Y-16955960D02*
X18714553Y-16936912D01*
X18714553Y-16936912D02*
X18714553Y-16860722D01*
X18714553Y-16860722D02*
X18724077Y-16841674D01*
X18724077Y-16841674D02*
X18743125Y-16832150D01*
X18743125Y-16832150D02*
X18781220Y-16832150D01*
X18781220Y-16832150D02*
X18800268Y-16841674D01*
X18800268Y-16841674D02*
X18809792Y-16860722D01*
X18809792Y-16860722D02*
X18809792Y-16879770D01*
X18809792Y-16879770D02*
X18714553Y-16898817D01*
X18885982Y-16955960D02*
X18905030Y-16965484D01*
X18905030Y-16965484D02*
X18943125Y-16965484D01*
X18943125Y-16965484D02*
X18962173Y-16955960D01*
X18962173Y-16955960D02*
X18971696Y-16936912D01*
X18971696Y-16936912D02*
X18971696Y-16927389D01*
X18971696Y-16927389D02*
X18962173Y-16908341D01*
X18962173Y-16908341D02*
X18943125Y-16898817D01*
X18943125Y-16898817D02*
X18914553Y-16898817D01*
X18914553Y-16898817D02*
X18895506Y-16889293D01*
X18895506Y-16889293D02*
X18885982Y-16870246D01*
X18885982Y-16870246D02*
X18885982Y-16860722D01*
X18885982Y-16860722D02*
X18895506Y-16841674D01*
X18895506Y-16841674D02*
X18914553Y-16832150D01*
X18914553Y-16832150D02*
X18943125Y-16832150D01*
X18943125Y-16832150D02*
X18962173Y-16841674D01*
X19038363Y-17041674D02*
X19047887Y-17032150D01*
X19047887Y-17032150D02*
X19066934Y-17003579D01*
X19066934Y-17003579D02*
X19076458Y-16984531D01*
X19076458Y-16984531D02*
X19085982Y-16955960D01*
X19085982Y-16955960D02*
X19095506Y-16908341D01*
X19095506Y-16908341D02*
X19095506Y-16870246D01*
X19095506Y-16870246D02*
X19085982Y-16822627D01*
X19085982Y-16822627D02*
X19076458Y-16794055D01*
X19076458Y-16794055D02*
X19066934Y-16775008D01*
X19066934Y-16775008D02*
X19047887Y-16746436D01*
X19047887Y-16746436D02*
X19038363Y-16736912D01*
D14*
X14183300Y-17218000D02*
X14263300Y-17138000D01*
X14183300Y-17058000D01*
X14103300Y-17138000D01*
X14183300Y-17218000D01*
D11*
X14628839Y-17229484D02*
X14514553Y-17229484D01*
X14571696Y-17229484D02*
X14571696Y-17029484D01*
X14571696Y-17029484D02*
X14552648Y-17058055D01*
X14552648Y-17058055D02*
X14533601Y-17077103D01*
X14533601Y-17077103D02*
X14514553Y-17086627D01*
X14714553Y-17210436D02*
X14724077Y-17219960D01*
X14724077Y-17219960D02*
X14714553Y-17229484D01*
X14714553Y-17229484D02*
X14705029Y-17219960D01*
X14705029Y-17219960D02*
X14714553Y-17210436D01*
X14714553Y-17210436D02*
X14714553Y-17229484D01*
X14895505Y-17029484D02*
X14857410Y-17029484D01*
X14857410Y-17029484D02*
X14838362Y-17039008D01*
X14838362Y-17039008D02*
X14828839Y-17048531D01*
X14828839Y-17048531D02*
X14809791Y-17077103D01*
X14809791Y-17077103D02*
X14800267Y-17115198D01*
X14800267Y-17115198D02*
X14800267Y-17191389D01*
X14800267Y-17191389D02*
X14809791Y-17210436D01*
X14809791Y-17210436D02*
X14819315Y-17219960D01*
X14819315Y-17219960D02*
X14838362Y-17229484D01*
X14838362Y-17229484D02*
X14876458Y-17229484D01*
X14876458Y-17229484D02*
X14895505Y-17219960D01*
X14895505Y-17219960D02*
X14905029Y-17210436D01*
X14905029Y-17210436D02*
X14914553Y-17191389D01*
X14914553Y-17191389D02*
X14914553Y-17143770D01*
X14914553Y-17143770D02*
X14905029Y-17124722D01*
X14905029Y-17124722D02*
X14895505Y-17115198D01*
X14895505Y-17115198D02*
X14876458Y-17105674D01*
X14876458Y-17105674D02*
X14838362Y-17105674D01*
X14838362Y-17105674D02*
X14819315Y-17115198D01*
X14819315Y-17115198D02*
X14809791Y-17124722D01*
X14809791Y-17124722D02*
X14800267Y-17143770D01*
X15038362Y-17029484D02*
X15057410Y-17029484D01*
X15057410Y-17029484D02*
X15076458Y-17039008D01*
X15076458Y-17039008D02*
X15085982Y-17048531D01*
X15085982Y-17048531D02*
X15095505Y-17067579D01*
X15095505Y-17067579D02*
X15105029Y-17105674D01*
X15105029Y-17105674D02*
X15105029Y-17153293D01*
X15105029Y-17153293D02*
X15095505Y-17191389D01*
X15095505Y-17191389D02*
X15085982Y-17210436D01*
X15085982Y-17210436D02*
X15076458Y-17219960D01*
X15076458Y-17219960D02*
X15057410Y-17229484D01*
X15057410Y-17229484D02*
X15038362Y-17229484D01*
X15038362Y-17229484D02*
X15019315Y-17219960D01*
X15019315Y-17219960D02*
X15009791Y-17210436D01*
X15009791Y-17210436D02*
X15000267Y-17191389D01*
X15000267Y-17191389D02*
X14990743Y-17153293D01*
X14990743Y-17153293D02*
X14990743Y-17105674D01*
X14990743Y-17105674D02*
X15000267Y-17067579D01*
X15000267Y-17067579D02*
X15009791Y-17048531D01*
X15009791Y-17048531D02*
X15019315Y-17039008D01*
X15019315Y-17039008D02*
X15038362Y-17029484D01*
X15228839Y-17029484D02*
X15247886Y-17029484D01*
X15247886Y-17029484D02*
X15266934Y-17039008D01*
X15266934Y-17039008D02*
X15276458Y-17048531D01*
X15276458Y-17048531D02*
X15285982Y-17067579D01*
X15285982Y-17067579D02*
X15295505Y-17105674D01*
X15295505Y-17105674D02*
X15295505Y-17153293D01*
X15295505Y-17153293D02*
X15285982Y-17191389D01*
X15285982Y-17191389D02*
X15276458Y-17210436D01*
X15276458Y-17210436D02*
X15266934Y-17219960D01*
X15266934Y-17219960D02*
X15247886Y-17229484D01*
X15247886Y-17229484D02*
X15228839Y-17229484D01*
X15228839Y-17229484D02*
X15209791Y-17219960D01*
X15209791Y-17219960D02*
X15200267Y-17210436D01*
X15200267Y-17210436D02*
X15190743Y-17191389D01*
X15190743Y-17191389D02*
X15181220Y-17153293D01*
X15181220Y-17153293D02*
X15181220Y-17105674D01*
X15181220Y-17105674D02*
X15190743Y-17067579D01*
X15190743Y-17067579D02*
X15200267Y-17048531D01*
X15200267Y-17048531D02*
X15209791Y-17039008D01*
X15209791Y-17039008D02*
X15228839Y-17029484D01*
X15381220Y-17229484D02*
X15381220Y-17096150D01*
X15381220Y-17115198D02*
X15390743Y-17105674D01*
X15390743Y-17105674D02*
X15409791Y-17096150D01*
X15409791Y-17096150D02*
X15438363Y-17096150D01*
X15438363Y-17096150D02*
X15457410Y-17105674D01*
X15457410Y-17105674D02*
X15466934Y-17124722D01*
X15466934Y-17124722D02*
X15466934Y-17229484D01*
X15466934Y-17124722D02*
X15476458Y-17105674D01*
X15476458Y-17105674D02*
X15495505Y-17096150D01*
X15495505Y-17096150D02*
X15524077Y-17096150D01*
X15524077Y-17096150D02*
X15543124Y-17105674D01*
X15543124Y-17105674D02*
X15552648Y-17124722D01*
X15552648Y-17124722D02*
X15552648Y-17229484D01*
X15647886Y-17229484D02*
X15647886Y-17096150D01*
X15647886Y-17115198D02*
X15657410Y-17105674D01*
X15657410Y-17105674D02*
X15676458Y-17096150D01*
X15676458Y-17096150D02*
X15705029Y-17096150D01*
X15705029Y-17096150D02*
X15724077Y-17105674D01*
X15724077Y-17105674D02*
X15733601Y-17124722D01*
X15733601Y-17124722D02*
X15733601Y-17229484D01*
X15733601Y-17124722D02*
X15743124Y-17105674D01*
X15743124Y-17105674D02*
X15762172Y-17096150D01*
X15762172Y-17096150D02*
X15790743Y-17096150D01*
X15790743Y-17096150D02*
X15809791Y-17105674D01*
X15809791Y-17105674D02*
X15819315Y-17124722D01*
X15819315Y-17124722D02*
X15819315Y-17229484D01*
X16209791Y-17019960D02*
X16038363Y-17277103D01*
X16466934Y-17029484D02*
X16485982Y-17029484D01*
X16485982Y-17029484D02*
X16505029Y-17039008D01*
X16505029Y-17039008D02*
X16514553Y-17048531D01*
X16514553Y-17048531D02*
X16524077Y-17067579D01*
X16524077Y-17067579D02*
X16533601Y-17105674D01*
X16533601Y-17105674D02*
X16533601Y-17153293D01*
X16533601Y-17153293D02*
X16524077Y-17191389D01*
X16524077Y-17191389D02*
X16514553Y-17210436D01*
X16514553Y-17210436D02*
X16505029Y-17219960D01*
X16505029Y-17219960D02*
X16485982Y-17229484D01*
X16485982Y-17229484D02*
X16466934Y-17229484D01*
X16466934Y-17229484D02*
X16447886Y-17219960D01*
X16447886Y-17219960D02*
X16438363Y-17210436D01*
X16438363Y-17210436D02*
X16428839Y-17191389D01*
X16428839Y-17191389D02*
X16419315Y-17153293D01*
X16419315Y-17153293D02*
X16419315Y-17105674D01*
X16419315Y-17105674D02*
X16428839Y-17067579D01*
X16428839Y-17067579D02*
X16438363Y-17048531D01*
X16438363Y-17048531D02*
X16447886Y-17039008D01*
X16447886Y-17039008D02*
X16466934Y-17029484D01*
X16619315Y-17210436D02*
X16628839Y-17219960D01*
X16628839Y-17219960D02*
X16619315Y-17229484D01*
X16619315Y-17229484D02*
X16609791Y-17219960D01*
X16609791Y-17219960D02*
X16619315Y-17210436D01*
X16619315Y-17210436D02*
X16619315Y-17229484D01*
X16752648Y-17029484D02*
X16771696Y-17029484D01*
X16771696Y-17029484D02*
X16790744Y-17039008D01*
X16790744Y-17039008D02*
X16800268Y-17048531D01*
X16800268Y-17048531D02*
X16809791Y-17067579D01*
X16809791Y-17067579D02*
X16819315Y-17105674D01*
X16819315Y-17105674D02*
X16819315Y-17153293D01*
X16819315Y-17153293D02*
X16809791Y-17191389D01*
X16809791Y-17191389D02*
X16800268Y-17210436D01*
X16800268Y-17210436D02*
X16790744Y-17219960D01*
X16790744Y-17219960D02*
X16771696Y-17229484D01*
X16771696Y-17229484D02*
X16752648Y-17229484D01*
X16752648Y-17229484D02*
X16733601Y-17219960D01*
X16733601Y-17219960D02*
X16724077Y-17210436D01*
X16724077Y-17210436D02*
X16714553Y-17191389D01*
X16714553Y-17191389D02*
X16705029Y-17153293D01*
X16705029Y-17153293D02*
X16705029Y-17105674D01*
X16705029Y-17105674D02*
X16714553Y-17067579D01*
X16714553Y-17067579D02*
X16724077Y-17048531D01*
X16724077Y-17048531D02*
X16733601Y-17039008D01*
X16733601Y-17039008D02*
X16752648Y-17029484D01*
X16990744Y-17029484D02*
X16952648Y-17029484D01*
X16952648Y-17029484D02*
X16933601Y-17039008D01*
X16933601Y-17039008D02*
X16924077Y-17048531D01*
X16924077Y-17048531D02*
X16905029Y-17077103D01*
X16905029Y-17077103D02*
X16895506Y-17115198D01*
X16895506Y-17115198D02*
X16895506Y-17191389D01*
X16895506Y-17191389D02*
X16905029Y-17210436D01*
X16905029Y-17210436D02*
X16914553Y-17219960D01*
X16914553Y-17219960D02*
X16933601Y-17229484D01*
X16933601Y-17229484D02*
X16971696Y-17229484D01*
X16971696Y-17229484D02*
X16990744Y-17219960D01*
X16990744Y-17219960D02*
X17000268Y-17210436D01*
X17000268Y-17210436D02*
X17009791Y-17191389D01*
X17009791Y-17191389D02*
X17009791Y-17143770D01*
X17009791Y-17143770D02*
X17000268Y-17124722D01*
X17000268Y-17124722D02*
X16990744Y-17115198D01*
X16990744Y-17115198D02*
X16971696Y-17105674D01*
X16971696Y-17105674D02*
X16933601Y-17105674D01*
X16933601Y-17105674D02*
X16914553Y-17115198D01*
X16914553Y-17115198D02*
X16905029Y-17124722D01*
X16905029Y-17124722D02*
X16895506Y-17143770D01*
X17076458Y-17029484D02*
X17200268Y-17029484D01*
X17200268Y-17029484D02*
X17133601Y-17105674D01*
X17133601Y-17105674D02*
X17162172Y-17105674D01*
X17162172Y-17105674D02*
X17181220Y-17115198D01*
X17181220Y-17115198D02*
X17190744Y-17124722D01*
X17190744Y-17124722D02*
X17200268Y-17143770D01*
X17200268Y-17143770D02*
X17200268Y-17191389D01*
X17200268Y-17191389D02*
X17190744Y-17210436D01*
X17190744Y-17210436D02*
X17181220Y-17219960D01*
X17181220Y-17219960D02*
X17162172Y-17229484D01*
X17162172Y-17229484D02*
X17105029Y-17229484D01*
X17105029Y-17229484D02*
X17085982Y-17219960D01*
X17085982Y-17219960D02*
X17076458Y-17210436D01*
X17324077Y-17029484D02*
X17343125Y-17029484D01*
X17343125Y-17029484D02*
X17362172Y-17039008D01*
X17362172Y-17039008D02*
X17371696Y-17048531D01*
X17371696Y-17048531D02*
X17381220Y-17067579D01*
X17381220Y-17067579D02*
X17390744Y-17105674D01*
X17390744Y-17105674D02*
X17390744Y-17153293D01*
X17390744Y-17153293D02*
X17381220Y-17191389D01*
X17381220Y-17191389D02*
X17371696Y-17210436D01*
X17371696Y-17210436D02*
X17362172Y-17219960D01*
X17362172Y-17219960D02*
X17343125Y-17229484D01*
X17343125Y-17229484D02*
X17324077Y-17229484D01*
X17324077Y-17229484D02*
X17305029Y-17219960D01*
X17305029Y-17219960D02*
X17295506Y-17210436D01*
X17295506Y-17210436D02*
X17285982Y-17191389D01*
X17285982Y-17191389D02*
X17276458Y-17153293D01*
X17276458Y-17153293D02*
X17276458Y-17105674D01*
X17276458Y-17105674D02*
X17285982Y-17067579D01*
X17285982Y-17067579D02*
X17295506Y-17048531D01*
X17295506Y-17048531D02*
X17305029Y-17039008D01*
X17305029Y-17039008D02*
X17324077Y-17029484D01*
X17466934Y-17029484D02*
X17466934Y-17067579D01*
X17543125Y-17029484D02*
X17543125Y-17067579D01*
X17838363Y-17305674D02*
X17828839Y-17296150D01*
X17828839Y-17296150D02*
X17809791Y-17267579D01*
X17809791Y-17267579D02*
X17800268Y-17248531D01*
X17800268Y-17248531D02*
X17790744Y-17219960D01*
X17790744Y-17219960D02*
X17781220Y-17172341D01*
X17781220Y-17172341D02*
X17781220Y-17134246D01*
X17781220Y-17134246D02*
X17790744Y-17086627D01*
X17790744Y-17086627D02*
X17800268Y-17058055D01*
X17800268Y-17058055D02*
X17809791Y-17039008D01*
X17809791Y-17039008D02*
X17828839Y-17010436D01*
X17828839Y-17010436D02*
X17838363Y-17000912D01*
X17905030Y-17048531D02*
X17914553Y-17039008D01*
X17914553Y-17039008D02*
X17933601Y-17029484D01*
X17933601Y-17029484D02*
X17981220Y-17029484D01*
X17981220Y-17029484D02*
X18000268Y-17039008D01*
X18000268Y-17039008D02*
X18009791Y-17048531D01*
X18009791Y-17048531D02*
X18019315Y-17067579D01*
X18019315Y-17067579D02*
X18019315Y-17086627D01*
X18019315Y-17086627D02*
X18009791Y-17115198D01*
X18009791Y-17115198D02*
X17895506Y-17229484D01*
X17895506Y-17229484D02*
X18019315Y-17229484D01*
X18257411Y-17229484D02*
X18257411Y-17029484D01*
X18343125Y-17229484D02*
X18343125Y-17124722D01*
X18343125Y-17124722D02*
X18333601Y-17105674D01*
X18333601Y-17105674D02*
X18314553Y-17096150D01*
X18314553Y-17096150D02*
X18285982Y-17096150D01*
X18285982Y-17096150D02*
X18266934Y-17105674D01*
X18266934Y-17105674D02*
X18257411Y-17115198D01*
X18466934Y-17229484D02*
X18447887Y-17219960D01*
X18447887Y-17219960D02*
X18438363Y-17210436D01*
X18438363Y-17210436D02*
X18428839Y-17191389D01*
X18428839Y-17191389D02*
X18428839Y-17134246D01*
X18428839Y-17134246D02*
X18438363Y-17115198D01*
X18438363Y-17115198D02*
X18447887Y-17105674D01*
X18447887Y-17105674D02*
X18466934Y-17096150D01*
X18466934Y-17096150D02*
X18495506Y-17096150D01*
X18495506Y-17096150D02*
X18514553Y-17105674D01*
X18514553Y-17105674D02*
X18524077Y-17115198D01*
X18524077Y-17115198D02*
X18533601Y-17134246D01*
X18533601Y-17134246D02*
X18533601Y-17191389D01*
X18533601Y-17191389D02*
X18524077Y-17210436D01*
X18524077Y-17210436D02*
X18514553Y-17219960D01*
X18514553Y-17219960D02*
X18495506Y-17229484D01*
X18495506Y-17229484D02*
X18466934Y-17229484D01*
X18647887Y-17229484D02*
X18628839Y-17219960D01*
X18628839Y-17219960D02*
X18619315Y-17200912D01*
X18619315Y-17200912D02*
X18619315Y-17029484D01*
X18800268Y-17219960D02*
X18781220Y-17229484D01*
X18781220Y-17229484D02*
X18743125Y-17229484D01*
X18743125Y-17229484D02*
X18724077Y-17219960D01*
X18724077Y-17219960D02*
X18714553Y-17200912D01*
X18714553Y-17200912D02*
X18714553Y-17124722D01*
X18714553Y-17124722D02*
X18724077Y-17105674D01*
X18724077Y-17105674D02*
X18743125Y-17096150D01*
X18743125Y-17096150D02*
X18781220Y-17096150D01*
X18781220Y-17096150D02*
X18800268Y-17105674D01*
X18800268Y-17105674D02*
X18809792Y-17124722D01*
X18809792Y-17124722D02*
X18809792Y-17143770D01*
X18809792Y-17143770D02*
X18714553Y-17162817D01*
X18885982Y-17219960D02*
X18905030Y-17229484D01*
X18905030Y-17229484D02*
X18943125Y-17229484D01*
X18943125Y-17229484D02*
X18962173Y-17219960D01*
X18962173Y-17219960D02*
X18971696Y-17200912D01*
X18971696Y-17200912D02*
X18971696Y-17191389D01*
X18971696Y-17191389D02*
X18962173Y-17172341D01*
X18962173Y-17172341D02*
X18943125Y-17162817D01*
X18943125Y-17162817D02*
X18914553Y-17162817D01*
X18914553Y-17162817D02*
X18895506Y-17153293D01*
X18895506Y-17153293D02*
X18885982Y-17134246D01*
X18885982Y-17134246D02*
X18885982Y-17124722D01*
X18885982Y-17124722D02*
X18895506Y-17105674D01*
X18895506Y-17105674D02*
X18914553Y-17096150D01*
X18914553Y-17096150D02*
X18943125Y-17096150D01*
X18943125Y-17096150D02*
X18962173Y-17105674D01*
X19038363Y-17305674D02*
X19047887Y-17296150D01*
X19047887Y-17296150D02*
X19066934Y-17267579D01*
X19066934Y-17267579D02*
X19076458Y-17248531D01*
X19076458Y-17248531D02*
X19085982Y-17219960D01*
X19085982Y-17219960D02*
X19095506Y-17172341D01*
X19095506Y-17172341D02*
X19095506Y-17134246D01*
X19095506Y-17134246D02*
X19085982Y-17086627D01*
X19085982Y-17086627D02*
X19076458Y-17058055D01*
X19076458Y-17058055D02*
X19066934Y-17039008D01*
X19066934Y-17039008D02*
X19047887Y-17010436D01*
X19047887Y-17010436D02*
X19038363Y-17000912D01*
D15*
X14073300Y-17323000D02*
X14263300Y-17513000D01*
X14263300Y-17323000D02*
X14073300Y-17513000D01*
X14263300Y-17418000D02*
G75*
G03*
X14263300Y-17418000I-95000J0D01*
G01*
D11*
X14628839Y-17509484D02*
X14514553Y-17509484D01*
X14571696Y-17509484D02*
X14571696Y-17309484D01*
X14571696Y-17309484D02*
X14552648Y-17338055D01*
X14552648Y-17338055D02*
X14533601Y-17357103D01*
X14533601Y-17357103D02*
X14514553Y-17366627D01*
X14714553Y-17490436D02*
X14724077Y-17499960D01*
X14724077Y-17499960D02*
X14714553Y-17509484D01*
X14714553Y-17509484D02*
X14705029Y-17499960D01*
X14705029Y-17499960D02*
X14714553Y-17490436D01*
X14714553Y-17490436D02*
X14714553Y-17509484D01*
X14819315Y-17509484D02*
X14857410Y-17509484D01*
X14857410Y-17509484D02*
X14876458Y-17499960D01*
X14876458Y-17499960D02*
X14885982Y-17490436D01*
X14885982Y-17490436D02*
X14905029Y-17461865D01*
X14905029Y-17461865D02*
X14914553Y-17423770D01*
X14914553Y-17423770D02*
X14914553Y-17347579D01*
X14914553Y-17347579D02*
X14905029Y-17328531D01*
X14905029Y-17328531D02*
X14895505Y-17319008D01*
X14895505Y-17319008D02*
X14876458Y-17309484D01*
X14876458Y-17309484D02*
X14838362Y-17309484D01*
X14838362Y-17309484D02*
X14819315Y-17319008D01*
X14819315Y-17319008D02*
X14809791Y-17328531D01*
X14809791Y-17328531D02*
X14800267Y-17347579D01*
X14800267Y-17347579D02*
X14800267Y-17395198D01*
X14800267Y-17395198D02*
X14809791Y-17414246D01*
X14809791Y-17414246D02*
X14819315Y-17423770D01*
X14819315Y-17423770D02*
X14838362Y-17433293D01*
X14838362Y-17433293D02*
X14876458Y-17433293D01*
X14876458Y-17433293D02*
X14895505Y-17423770D01*
X14895505Y-17423770D02*
X14905029Y-17414246D01*
X14905029Y-17414246D02*
X14914553Y-17395198D01*
X15038362Y-17309484D02*
X15057410Y-17309484D01*
X15057410Y-17309484D02*
X15076458Y-17319008D01*
X15076458Y-17319008D02*
X15085982Y-17328531D01*
X15085982Y-17328531D02*
X15095505Y-17347579D01*
X15095505Y-17347579D02*
X15105029Y-17385674D01*
X15105029Y-17385674D02*
X15105029Y-17433293D01*
X15105029Y-17433293D02*
X15095505Y-17471389D01*
X15095505Y-17471389D02*
X15085982Y-17490436D01*
X15085982Y-17490436D02*
X15076458Y-17499960D01*
X15076458Y-17499960D02*
X15057410Y-17509484D01*
X15057410Y-17509484D02*
X15038362Y-17509484D01*
X15038362Y-17509484D02*
X15019315Y-17499960D01*
X15019315Y-17499960D02*
X15009791Y-17490436D01*
X15009791Y-17490436D02*
X15000267Y-17471389D01*
X15000267Y-17471389D02*
X14990743Y-17433293D01*
X14990743Y-17433293D02*
X14990743Y-17385674D01*
X14990743Y-17385674D02*
X15000267Y-17347579D01*
X15000267Y-17347579D02*
X15009791Y-17328531D01*
X15009791Y-17328531D02*
X15019315Y-17319008D01*
X15019315Y-17319008D02*
X15038362Y-17309484D01*
X15228839Y-17309484D02*
X15247886Y-17309484D01*
X15247886Y-17309484D02*
X15266934Y-17319008D01*
X15266934Y-17319008D02*
X15276458Y-17328531D01*
X15276458Y-17328531D02*
X15285982Y-17347579D01*
X15285982Y-17347579D02*
X15295505Y-17385674D01*
X15295505Y-17385674D02*
X15295505Y-17433293D01*
X15295505Y-17433293D02*
X15285982Y-17471389D01*
X15285982Y-17471389D02*
X15276458Y-17490436D01*
X15276458Y-17490436D02*
X15266934Y-17499960D01*
X15266934Y-17499960D02*
X15247886Y-17509484D01*
X15247886Y-17509484D02*
X15228839Y-17509484D01*
X15228839Y-17509484D02*
X15209791Y-17499960D01*
X15209791Y-17499960D02*
X15200267Y-17490436D01*
X15200267Y-17490436D02*
X15190743Y-17471389D01*
X15190743Y-17471389D02*
X15181220Y-17433293D01*
X15181220Y-17433293D02*
X15181220Y-17385674D01*
X15181220Y-17385674D02*
X15190743Y-17347579D01*
X15190743Y-17347579D02*
X15200267Y-17328531D01*
X15200267Y-17328531D02*
X15209791Y-17319008D01*
X15209791Y-17319008D02*
X15228839Y-17309484D01*
X15381220Y-17509484D02*
X15381220Y-17376150D01*
X15381220Y-17395198D02*
X15390743Y-17385674D01*
X15390743Y-17385674D02*
X15409791Y-17376150D01*
X15409791Y-17376150D02*
X15438363Y-17376150D01*
X15438363Y-17376150D02*
X15457410Y-17385674D01*
X15457410Y-17385674D02*
X15466934Y-17404722D01*
X15466934Y-17404722D02*
X15466934Y-17509484D01*
X15466934Y-17404722D02*
X15476458Y-17385674D01*
X15476458Y-17385674D02*
X15495505Y-17376150D01*
X15495505Y-17376150D02*
X15524077Y-17376150D01*
X15524077Y-17376150D02*
X15543124Y-17385674D01*
X15543124Y-17385674D02*
X15552648Y-17404722D01*
X15552648Y-17404722D02*
X15552648Y-17509484D01*
X15647886Y-17509484D02*
X15647886Y-17376150D01*
X15647886Y-17395198D02*
X15657410Y-17385674D01*
X15657410Y-17385674D02*
X15676458Y-17376150D01*
X15676458Y-17376150D02*
X15705029Y-17376150D01*
X15705029Y-17376150D02*
X15724077Y-17385674D01*
X15724077Y-17385674D02*
X15733601Y-17404722D01*
X15733601Y-17404722D02*
X15733601Y-17509484D01*
X15733601Y-17404722D02*
X15743124Y-17385674D01*
X15743124Y-17385674D02*
X15762172Y-17376150D01*
X15762172Y-17376150D02*
X15790743Y-17376150D01*
X15790743Y-17376150D02*
X15809791Y-17385674D01*
X15809791Y-17385674D02*
X15819315Y-17404722D01*
X15819315Y-17404722D02*
X15819315Y-17509484D01*
X16209791Y-17299960D02*
X16038363Y-17557103D01*
X16466934Y-17309484D02*
X16485982Y-17309484D01*
X16485982Y-17309484D02*
X16505029Y-17319008D01*
X16505029Y-17319008D02*
X16514553Y-17328531D01*
X16514553Y-17328531D02*
X16524077Y-17347579D01*
X16524077Y-17347579D02*
X16533601Y-17385674D01*
X16533601Y-17385674D02*
X16533601Y-17433293D01*
X16533601Y-17433293D02*
X16524077Y-17471389D01*
X16524077Y-17471389D02*
X16514553Y-17490436D01*
X16514553Y-17490436D02*
X16505029Y-17499960D01*
X16505029Y-17499960D02*
X16485982Y-17509484D01*
X16485982Y-17509484D02*
X16466934Y-17509484D01*
X16466934Y-17509484D02*
X16447886Y-17499960D01*
X16447886Y-17499960D02*
X16438363Y-17490436D01*
X16438363Y-17490436D02*
X16428839Y-17471389D01*
X16428839Y-17471389D02*
X16419315Y-17433293D01*
X16419315Y-17433293D02*
X16419315Y-17385674D01*
X16419315Y-17385674D02*
X16428839Y-17347579D01*
X16428839Y-17347579D02*
X16438363Y-17328531D01*
X16438363Y-17328531D02*
X16447886Y-17319008D01*
X16447886Y-17319008D02*
X16466934Y-17309484D01*
X16619315Y-17490436D02*
X16628839Y-17499960D01*
X16628839Y-17499960D02*
X16619315Y-17509484D01*
X16619315Y-17509484D02*
X16609791Y-17499960D01*
X16609791Y-17499960D02*
X16619315Y-17490436D01*
X16619315Y-17490436D02*
X16619315Y-17509484D01*
X16752648Y-17309484D02*
X16771696Y-17309484D01*
X16771696Y-17309484D02*
X16790744Y-17319008D01*
X16790744Y-17319008D02*
X16800268Y-17328531D01*
X16800268Y-17328531D02*
X16809791Y-17347579D01*
X16809791Y-17347579D02*
X16819315Y-17385674D01*
X16819315Y-17385674D02*
X16819315Y-17433293D01*
X16819315Y-17433293D02*
X16809791Y-17471389D01*
X16809791Y-17471389D02*
X16800268Y-17490436D01*
X16800268Y-17490436D02*
X16790744Y-17499960D01*
X16790744Y-17499960D02*
X16771696Y-17509484D01*
X16771696Y-17509484D02*
X16752648Y-17509484D01*
X16752648Y-17509484D02*
X16733601Y-17499960D01*
X16733601Y-17499960D02*
X16724077Y-17490436D01*
X16724077Y-17490436D02*
X16714553Y-17471389D01*
X16714553Y-17471389D02*
X16705029Y-17433293D01*
X16705029Y-17433293D02*
X16705029Y-17385674D01*
X16705029Y-17385674D02*
X16714553Y-17347579D01*
X16714553Y-17347579D02*
X16724077Y-17328531D01*
X16724077Y-17328531D02*
X16733601Y-17319008D01*
X16733601Y-17319008D02*
X16752648Y-17309484D01*
X16885982Y-17309484D02*
X17019315Y-17309484D01*
X17019315Y-17309484D02*
X16933601Y-17509484D01*
X17181220Y-17376150D02*
X17181220Y-17509484D01*
X17133601Y-17299960D02*
X17085982Y-17442817D01*
X17085982Y-17442817D02*
X17209791Y-17442817D01*
X17314553Y-17395198D02*
X17295506Y-17385674D01*
X17295506Y-17385674D02*
X17285982Y-17376150D01*
X17285982Y-17376150D02*
X17276458Y-17357103D01*
X17276458Y-17357103D02*
X17276458Y-17347579D01*
X17276458Y-17347579D02*
X17285982Y-17328531D01*
X17285982Y-17328531D02*
X17295506Y-17319008D01*
X17295506Y-17319008D02*
X17314553Y-17309484D01*
X17314553Y-17309484D02*
X17352649Y-17309484D01*
X17352649Y-17309484D02*
X17371696Y-17319008D01*
X17371696Y-17319008D02*
X17381220Y-17328531D01*
X17381220Y-17328531D02*
X17390744Y-17347579D01*
X17390744Y-17347579D02*
X17390744Y-17357103D01*
X17390744Y-17357103D02*
X17381220Y-17376150D01*
X17381220Y-17376150D02*
X17371696Y-17385674D01*
X17371696Y-17385674D02*
X17352649Y-17395198D01*
X17352649Y-17395198D02*
X17314553Y-17395198D01*
X17314553Y-17395198D02*
X17295506Y-17404722D01*
X17295506Y-17404722D02*
X17285982Y-17414246D01*
X17285982Y-17414246D02*
X17276458Y-17433293D01*
X17276458Y-17433293D02*
X17276458Y-17471389D01*
X17276458Y-17471389D02*
X17285982Y-17490436D01*
X17285982Y-17490436D02*
X17295506Y-17499960D01*
X17295506Y-17499960D02*
X17314553Y-17509484D01*
X17314553Y-17509484D02*
X17352649Y-17509484D01*
X17352649Y-17509484D02*
X17371696Y-17499960D01*
X17371696Y-17499960D02*
X17381220Y-17490436D01*
X17381220Y-17490436D02*
X17390744Y-17471389D01*
X17390744Y-17471389D02*
X17390744Y-17433293D01*
X17390744Y-17433293D02*
X17381220Y-17414246D01*
X17381220Y-17414246D02*
X17371696Y-17404722D01*
X17371696Y-17404722D02*
X17352649Y-17395198D01*
X17466934Y-17309484D02*
X17466934Y-17347579D01*
X17543125Y-17309484D02*
X17543125Y-17347579D01*
X17838363Y-17585674D02*
X17828839Y-17576150D01*
X17828839Y-17576150D02*
X17809791Y-17547579D01*
X17809791Y-17547579D02*
X17800268Y-17528531D01*
X17800268Y-17528531D02*
X17790744Y-17499960D01*
X17790744Y-17499960D02*
X17781220Y-17452341D01*
X17781220Y-17452341D02*
X17781220Y-17414246D01*
X17781220Y-17414246D02*
X17790744Y-17366627D01*
X17790744Y-17366627D02*
X17800268Y-17338055D01*
X17800268Y-17338055D02*
X17809791Y-17319008D01*
X17809791Y-17319008D02*
X17828839Y-17290436D01*
X17828839Y-17290436D02*
X17838363Y-17280912D01*
X17905030Y-17328531D02*
X17914553Y-17319008D01*
X17914553Y-17319008D02*
X17933601Y-17309484D01*
X17933601Y-17309484D02*
X17981220Y-17309484D01*
X17981220Y-17309484D02*
X18000268Y-17319008D01*
X18000268Y-17319008D02*
X18009791Y-17328531D01*
X18009791Y-17328531D02*
X18019315Y-17347579D01*
X18019315Y-17347579D02*
X18019315Y-17366627D01*
X18019315Y-17366627D02*
X18009791Y-17395198D01*
X18009791Y-17395198D02*
X17895506Y-17509484D01*
X17895506Y-17509484D02*
X18019315Y-17509484D01*
X18257411Y-17509484D02*
X18257411Y-17309484D01*
X18343125Y-17509484D02*
X18343125Y-17404722D01*
X18343125Y-17404722D02*
X18333601Y-17385674D01*
X18333601Y-17385674D02*
X18314553Y-17376150D01*
X18314553Y-17376150D02*
X18285982Y-17376150D01*
X18285982Y-17376150D02*
X18266934Y-17385674D01*
X18266934Y-17385674D02*
X18257411Y-17395198D01*
X18466934Y-17509484D02*
X18447887Y-17499960D01*
X18447887Y-17499960D02*
X18438363Y-17490436D01*
X18438363Y-17490436D02*
X18428839Y-17471389D01*
X18428839Y-17471389D02*
X18428839Y-17414246D01*
X18428839Y-17414246D02*
X18438363Y-17395198D01*
X18438363Y-17395198D02*
X18447887Y-17385674D01*
X18447887Y-17385674D02*
X18466934Y-17376150D01*
X18466934Y-17376150D02*
X18495506Y-17376150D01*
X18495506Y-17376150D02*
X18514553Y-17385674D01*
X18514553Y-17385674D02*
X18524077Y-17395198D01*
X18524077Y-17395198D02*
X18533601Y-17414246D01*
X18533601Y-17414246D02*
X18533601Y-17471389D01*
X18533601Y-17471389D02*
X18524077Y-17490436D01*
X18524077Y-17490436D02*
X18514553Y-17499960D01*
X18514553Y-17499960D02*
X18495506Y-17509484D01*
X18495506Y-17509484D02*
X18466934Y-17509484D01*
X18647887Y-17509484D02*
X18628839Y-17499960D01*
X18628839Y-17499960D02*
X18619315Y-17480912D01*
X18619315Y-17480912D02*
X18619315Y-17309484D01*
X18800268Y-17499960D02*
X18781220Y-17509484D01*
X18781220Y-17509484D02*
X18743125Y-17509484D01*
X18743125Y-17509484D02*
X18724077Y-17499960D01*
X18724077Y-17499960D02*
X18714553Y-17480912D01*
X18714553Y-17480912D02*
X18714553Y-17404722D01*
X18714553Y-17404722D02*
X18724077Y-17385674D01*
X18724077Y-17385674D02*
X18743125Y-17376150D01*
X18743125Y-17376150D02*
X18781220Y-17376150D01*
X18781220Y-17376150D02*
X18800268Y-17385674D01*
X18800268Y-17385674D02*
X18809792Y-17404722D01*
X18809792Y-17404722D02*
X18809792Y-17423770D01*
X18809792Y-17423770D02*
X18714553Y-17442817D01*
X18885982Y-17499960D02*
X18905030Y-17509484D01*
X18905030Y-17509484D02*
X18943125Y-17509484D01*
X18943125Y-17509484D02*
X18962173Y-17499960D01*
X18962173Y-17499960D02*
X18971696Y-17480912D01*
X18971696Y-17480912D02*
X18971696Y-17471389D01*
X18971696Y-17471389D02*
X18962173Y-17452341D01*
X18962173Y-17452341D02*
X18943125Y-17442817D01*
X18943125Y-17442817D02*
X18914553Y-17442817D01*
X18914553Y-17442817D02*
X18895506Y-17433293D01*
X18895506Y-17433293D02*
X18885982Y-17414246D01*
X18885982Y-17414246D02*
X18885982Y-17404722D01*
X18885982Y-17404722D02*
X18895506Y-17385674D01*
X18895506Y-17385674D02*
X18914553Y-17376150D01*
X18914553Y-17376150D02*
X18943125Y-17376150D01*
X18943125Y-17376150D02*
X18962173Y-17385674D01*
X19038363Y-17585674D02*
X19047887Y-17576150D01*
X19047887Y-17576150D02*
X19066934Y-17547579D01*
X19066934Y-17547579D02*
X19076458Y-17528531D01*
X19076458Y-17528531D02*
X19085982Y-17499960D01*
X19085982Y-17499960D02*
X19095506Y-17452341D01*
X19095506Y-17452341D02*
X19095506Y-17414246D01*
X19095506Y-17414246D02*
X19085982Y-17366627D01*
X19085982Y-17366627D02*
X19076458Y-17338055D01*
X19076458Y-17338055D02*
X19066934Y-17319008D01*
X19066934Y-17319008D02*
X19047887Y-17290436D01*
X19047887Y-17290436D02*
X19038363Y-17280912D01*
M02*
